<?xml version="1.0" encoding="UTF-8"?>
<svg xmlns="http://www.w3.org/2000/svg" xmlns:xlink="http://www.w3.org/1999/xlink" viewBox="0 0 675 270">
  <defs>
    <clipPath id="clippath-1">
      <rect x="420.27" y="219.16" width="11.99" height="19.48" fill="none"/>
    </clipPath>
    <clipPath id="clippath-2">
      <rect x="420.64" y="219.78" width="11.3" height="18.47" fill="none"/>
    </clipPath>
    <clipPath id="clippath-3">
      <rect x="420.64" y="219.78" width="11.3" height="18.47" fill="none"/>
    </clipPath>
    <clipPath id="clippath-5">
      <rect x="358.81" y="96.36" width="17.1" height="17.1" fill="none"/>
    </clipPath>
    <clipPath id="clippath-6">
      <rect x="359.02" y="96.91" width="16.3" height="16.33" fill="none"/>
    </clipPath>
    <clipPath id="clippath-7">
      <rect x="359.02" y="96.91" width="16.3" height="16.33" fill="none"/>
    </clipPath>
    <clipPath id="clippath-9">
      <rect x="393.25" y="163.56" width="21.61" height="12.12" fill="none"/>
    </clipPath>
    <clipPath id="clippath-10">
      <rect x="393.46" y="163.76" width="21.27" height="11.74" fill="none"/>
    </clipPath>
    <clipPath id="clippath-11">
      <rect x="393.46" y="163.76" width="21.27" height="11.74" fill="none"/>
    </clipPath>
    <clipPath id="clippath-13">
      <rect x="535.27" y="46.21" width="17.06" height="18.13" fill="none"/>
    </clipPath>
    <clipPath id="clippath-14">
      <rect x="535.3" y="46.28" width="16.96" height="17.84" fill="none"/>
    </clipPath>
    <clipPath id="clippath-15">
      <rect x="535.3" y="46.28" width="16.96" height="17.84" fill="none"/>
    </clipPath>
    <clipPath id="clippath-17">
      <rect x="599.23" y="215.25" width="9.46" height="22.36" fill="none"/>
    </clipPath>
    <clipPath id="clippath-18">
      <rect x="600.04" y="216.11" width="8.14" height="20.71" fill="none"/>
    </clipPath>
    <clipPath id="clippath-19">
      <rect x="600.04" y="216.11" width="8.14" height="20.71" fill="none"/>
    </clipPath>
    <clipPath id="clippath-21">
      <rect x="570.95" y="161.08" width="21.61" height="12.12" fill="none"/>
    </clipPath>
    <clipPath id="clippath-22">
      <rect x="571.16" y="161.29" width="21.27" height="11.74" fill="none"/>
    </clipPath>
    <clipPath id="clippath-23">
      <rect x="571.16" y="161.29" width="21.27" height="11.74" fill="none"/>
    </clipPath>
    <clipPath id="clippath-25">
      <rect x="574.95" y="101.06" width="13.6" height="20.4" fill="none"/>
    </clipPath>
    <clipPath id="clippath-26">
      <rect x="575.03" y="101.68" width="13.41" height="19.15" fill="none"/>
    </clipPath>
    <clipPath id="clippath-27">
      <rect x="575.03" y="101.68" width="13.41" height="19.15" fill="none"/>
    </clipPath>
    <clipPath id="clippath-28">
      <rect x="596" y="106.28" width="4.5" height="10.63" fill="none"/>
    </clipPath>
    <clipPath id="clippath-29">
      <rect x="596.38" y="106.69" width="3.87" height="9.85" fill="none"/>
    </clipPath>
    <clipPath id="clippath-30">
      <rect x="596.38" y="106.69" width="3.87" height="9.85" fill="none"/>
    </clipPath>
  </defs>
  <rect width="675" height="270" fill="#fff"/>
  <g id="_レイヤー_1" data-name="レイヤー 1">
    <g>
      <rect x="299.06" y="79.26" width="156.49" height="172.97" fill="#b6d8a8"/>
      <path d="M454.54,80.26v170.97h-154.49V80.26h154.49M456.54,78.26h-158.49v174.97h158.49V78.26h0Z"/>
    </g>
    <line x1="396.02" y1="181.64" x2="383.16" y2="213.93" fill="none" stroke="#000" stroke-miterlimit="10" stroke-width="2"/>
    <line x1="410.94" y1="182.19" x2="423.81" y2="214.49" fill="none" stroke="#000" stroke-miterlimit="10" stroke-width="2"/>
    <line x1="330.66" y1="155.25" x2="359.25" y2="113.46" fill="none" stroke="#000" stroke-miterlimit="10" stroke-width="2"/>
    <line x1="402.65" y1="155.25" x2="374.06" y2="113.46" fill="none" stroke="#000" stroke-miterlimit="10" stroke-width="2"/>
    <g>
      <g>
        <path d="M375.36,214.2h12.98c4.53,0,8.2,3.68,8.2,8.2v12.98c0,4.53-3.68,8.2-8.2,8.2h-12.98c-4.53,0-8.2-3.68-8.2-8.2v-12.98c0-4.53,3.68-8.2,8.2-8.2Z" fill="#c8daf9"/>
        <path d="M388.34,214.7c4.25,0,7.7,3.46,7.7,7.7v12.98c0,4.25-3.46,7.7-7.7,7.7h-12.98c-4.25,0-7.7-3.46-7.7-7.7v-12.98c0-4.25,3.46-7.7,7.7-7.7h12.98M388.34,213.7h-12.98c-4.79,0-8.7,3.92-8.7,8.7v12.98c0,4.79,3.92,8.7,8.7,8.7h12.98c4.79,0,8.7-3.92,8.7-8.7v-12.98c0-4.79-3.92-8.7-8.7-8.7h0Z"/>
      </g>
      <path d="M388.92,222.7c.13-.44.13-.5.13-.72,0-.56-.44-.84-.91-.84-.31,0-.81.19-1.09.65-.06.16-.31,1.12-.44,1.69-.22.81-.44,1.65-.62,2.5l-1.41,5.62c-.12.47-1.47,2.65-3.53,2.65-1.59,0-1.94-1.37-1.94-2.53,0-1.44.53-3.37,1.59-6.12.5-1.28.62-1.62.62-2.25,0-1.4-1-2.56-2.56-2.56-2.97,0-4.12,4.53-4.12,4.81,0,.31.31.31.38.31.31,0,.34-.06.5-.56.84-2.94,2.09-3.87,3.15-3.87.25,0,.78,0,.78,1,0,.78-.31,1.59-.53,2.19-1.25,3.31-1.81,5.09-1.81,6.56,0,2.78,1.97,3.72,3.81,3.72,1.22,0,2.28-.53,3.15-1.4-.41,1.62-.78,3.15-2.03,4.81-.81,1.06-2,1.97-3.43,1.97-.44,0-1.84-.09-2.37-1.31.5,0,.91,0,1.34-.38.31-.28.62-.69.62-1.28,0-.97-.84-1.09-1.16-1.09-.72,0-1.75.5-1.75,2.03s1.37,2.72,3.31,2.72c3.22,0,6.43-2.84,7.31-6.37l3-11.93"/>
    </g>
    <g>
      <g>
        <path d="M419.77,214.2h12.98c4.53,0,8.2,3.68,8.2,8.2v12.98c0,4.53-3.68,8.2-8.2,8.2h-12.98c-4.53,0-8.2-3.68-8.2-8.2v-12.98c0-4.53,3.68-8.2,8.2-8.2Z" fill="#c8daf9"/>
        <path d="M432.75,214.7c4.25,0,7.7,3.46,7.7,7.7v12.98c0,4.25-3.46,7.7-7.7,7.7h-12.98c-4.25,0-7.7-3.46-7.7-7.7v-12.98c0-4.25,3.46-7.7,7.7-7.7h12.98M432.75,213.7h-12.98c-4.79,0-8.7,3.92-8.7,8.7v12.98c0,4.79,3.92,8.7,8.7,8.7h12.98c4.79,0,8.7-3.92,8.7-8.7v-12.98c0-4.79-3.92-8.7-8.7-8.7h0Z"/>
      </g>
      <polygon points="426.26 228.9 426.26 228.9 426.26 228.9 426.26 228.9 426.26 228.9 426.26 228.9 426.26 228.9 426.26 228.9 426.26 228.9 426.26 228.9 426.26 228.9 426.26 228.9 426.26 228.9 426.26 228.9 426.26 228.9 426.26 228.9 426.26 228.9 426.26 228.9 426.26 228.9 426.26 228.9 426.26 228.9 426.26 228.9 426.26 228.9 426.26 228.9 426.26 228.9 426.26 228.9 426.26 228.9 426.26 228.9 426.26 228.9 426.26 228.9 426.26 228.9 426.26 228.9 426.26 228.9 426.26 228.9 426.26 228.9 426.26 228.9 426.26 228.9 426.26 228.9 426.26 228.9 426.26 228.9 426.26 228.9 426.26 228.9 426.26 228.9 426.26 228.9 426.26 228.9 426.26 228.9 426.26 228.9 426.26 228.9 426.26 228.9 426.26 228.9 426.26 228.9 426.26 228.9 426.26 228.9 426.26 228.9 426.26 228.9 426.26 228.9 426.26 228.9 426.26 228.9 426.26 228.9 426.26 228.9 426.26 228.9 426.26 228.9 426.26 228.9 426.26 228.9 426.26 228.9 426.26 228.9 426.26 228.9 426.26 228.9 426.26 228.9 426.26 228.9 426.26 228.9 426.26 228.9 426.26 228.9 426.26 228.9 426.26 228.9 426.26 228.9 426.26 228.9 426.26 228.9 426.26 228.9 426.26 228.9 426.26 228.9 426.26 228.9 426.26 228.9 426.26 228.9 426.26 228.9 426.26 228.9 426.26 228.9 426.26 228.9 426.26 228.9 426.26 228.9 426.26 228.9 426.26 228.9 426.26 228.9 426.26 228.9 426.26 228.9 426.26 228.9 426.26 228.9 426.26 228.9" fill="none" opacity="0" stroke="#000" stroke-miterlimit="10"/>
      <g clip-path="url(#clippath-1)">
        <g isolation="isolate">
          <g clip-path="url(#clippath-2)">
            <g clip-path="url(#clippath-3)">
              <path d="M426.28,237.66c-1.05,0-2.63-.67-3.11-3.25-.29-1.61-.29-4.08-.29-5.67,0-1.72,0-3.49.21-4.94.51-3.2,2.52-3.44,3.2-3.44.89,0,2.66.48,3.17,3.14.27,1.5.27,3.54.27,5.24,0,2.01,0,3.84-.3,5.56-.4,2.55-1.93,3.36-3.14,3.36M431.94,229.07c0-2.15-.13-4.3-1.07-6.28-1.23-2.58-3.44-3.01-4.56-3.01-1.61,0-3.57.7-4.67,3.2-.86,1.85-.99,3.95-.99,6.1,0,2.01.11,4.43,1.21,6.47,1.15,2.17,3.11,2.71,4.43,2.71,1.45,0,3.49-.56,4.67-3.11.86-1.85.99-3.95.99-6.07Z"/>
            </g>
          </g>
        </g>
      </g>
    </g>
    <g>
      <g>
        <path d="M367.36,119.41c-8,0-14.5-6.5-14.5-14.5s6.5-14.5,14.5-14.5,14.5,6.5,14.5,14.5-6.5,14.5-14.5,14.5Z" fill="#e89a99"/>
        <path d="M367.36,90.91c7.72,0,14,6.28,14,14s-6.28,14-14,14-14-6.28-14-14,6.28-14,14-14M367.36,89.91c-8.28,0-15,6.72-15,15s6.72,15,15,15,15-6.72,15-15-6.72-15-15-15h0Z"/>
      </g>
      <polygon points="367.36 104.91 367.36 104.91 367.36 104.91 367.36 104.91 367.36 104.91 367.36 104.91 367.36 104.91 367.36 104.91 367.36 104.91 367.36 104.91 367.36 104.91 367.36 104.91 367.36 104.91 367.36 104.91 367.36 104.91 367.36 104.91 367.36 104.91 367.36 104.91 367.36 104.91 367.36 104.91 367.36 104.91 367.36 104.91 367.36 104.91 367.36 104.91 367.36 104.91 367.36 104.91 367.36 104.91 367.36 104.91 367.36 104.91 367.36 104.91 367.36 104.91 367.36 104.91 367.36 104.91 367.36 104.91 367.36 104.91 367.36 104.91 367.36 104.91 367.36 104.91 367.36 104.91 367.36 104.91 367.36 104.91 367.36 104.91 367.36 104.91 367.36 104.91 367.36 104.91 367.36 104.91 367.36 104.91 367.36 104.91 367.36 104.91 367.36 104.91 367.36 104.91 367.36 104.91 367.36 104.91 367.36 104.91 367.36 104.91 367.36 104.91 367.36 104.91 367.36 104.91 367.36 104.91 367.36 104.91 367.36 104.91 367.36 104.91 367.36 104.91 367.36 104.91 367.36 104.91 367.36 104.91 367.36 104.91 367.36 104.91 367.36 104.91 367.36 104.91 367.36 104.91 367.36 104.91 367.36 104.91 367.36 104.91 367.36 104.91 367.36 104.91 367.36 104.91 367.36 104.91 367.36 104.91 367.36 104.91 367.36 104.91 367.36 104.91 367.36 104.91 367.36 104.91 367.36 104.91 367.36 104.91 367.36 104.91 367.36 104.91 367.36 104.91 367.36 104.91 367.36 104.91 367.36 104.91 367.36 104.91 367.36 104.91 367.36 104.91 367.36 104.91 367.36 104.91 367.36 104.91 367.36 104.91" fill="none" opacity="0" stroke="#000" stroke-miterlimit="10"/>
      <g clip-path="url(#clippath-5)">
        <g isolation="isolate">
          <g clip-path="url(#clippath-6)">
            <g clip-path="url(#clippath-7)">
              <path d="M367.67,105.57h6.84c.34,0,.81,0,.81-.49s-.47-.49-.81-.49h-6.84v-6.86c0-.34,0-.81-.49-.81s-.49.47-.49.81v6.86h-6.86c-.34,0-.81,0-.81.49s.47.49.81.49h6.86v6.86c0,.34,0,.81.49.81s.49-.47.49-.81v-6.86"/>
            </g>
          </g>
        </g>
      </g>
    </g>
    <polygon points="366.26 231.55 366.26 231.55 366.26 231.55 366.26 231.55 366.26 231.55 366.26 231.55 366.26 231.55 366.26 231.55 366.26 231.55 366.26 231.55 366.26 231.55 366.26 231.55 366.26 231.55 366.26 231.55 366.26 231.55 366.26 231.55 366.26 231.55 366.26 231.55 366.26 231.55 366.26 231.55 366.26 231.55 366.26 231.55 366.26 231.55 366.26 231.55 366.26 231.55 366.26 231.55 366.26 231.55 366.26 231.55 366.26 231.55 366.26 231.55 366.26 231.55 366.26 231.55 366.26 231.55 366.26 231.55 366.26 231.55 366.26 231.55 366.26 231.55 366.26 231.55 366.26 231.55 366.26 231.55 366.26 231.55 366.26 231.55 366.26 231.55 366.26 231.55 366.26 231.55 366.26 231.55 366.26 231.55 366.26 231.55 366.26 231.55 366.26 231.55 366.26 231.55 366.26 231.55 366.26 231.55 366.26 231.55 366.26 231.55 366.26 231.55 366.26 231.55 366.26 231.55 366.26 231.55 366.26 231.55 366.26 231.55 366.26 231.55 366.26 231.55 366.26 231.55 366.26 231.55 366.26 231.55 366.26 231.55 366.26 231.55 366.26 231.55 366.26 231.55 366.26 231.55 366.26 231.55 366.26 231.55 366.26 231.55 366.26 231.55 366.26 231.55 366.26 231.55 366.26 231.55 366.26 231.55 366.26 231.55 366.26 231.55 366.26 231.55 366.26 231.55 366.26 231.55 366.26 231.55 366.26 231.55 366.26 231.55 366.26 231.55 366.26 231.55 366.26 231.55 366.26 231.55 366.26 231.55 366.26 231.55 366.26 231.55 366.26 231.55 366.26 231.55 366.26 231.55 366.26 231.55 366.26 231.55 366.26 231.55 366.26 231.55" fill="none" opacity="0" stroke="#000" stroke-miterlimit="10"/>
    <g>
      <g>
        <g>
          <path d="M404.05,184.11c-8,0-14.5-6.5-14.5-14.5s6.5-14.5,14.5-14.5,14.5,6.5,14.5,14.5-6.5,14.5-14.5,14.5Z" fill="#e89a99"/>
          <path d="M404.05,155.61c7.72,0,14,6.28,14,14s-6.28,14-14,14-14-6.28-14-14,6.28-14,14-14M404.05,154.61c-8.28,0-15,6.72-15,15s6.72,15,15,15,15-6.72,15-15-6.72-15-15-15h0Z"/>
        </g>
        <polygon points="404.05 169.61 404.05 169.61 404.05 169.61 404.05 169.61 404.05 169.61 404.05 169.61 404.05 169.61 404.05 169.61 404.05 169.61 404.05 169.61 404.05 169.61 404.05 169.61 404.05 169.61 404.05 169.61 404.05 169.61 404.05 169.61 404.05 169.61 404.05 169.61 404.05 169.61 404.05 169.61 404.05 169.61 404.05 169.61 404.05 169.61 404.05 169.61 404.05 169.61 404.05 169.61 404.05 169.61 404.05 169.61 404.05 169.61 404.05 169.61 404.05 169.61 404.05 169.61 404.05 169.61 404.05 169.61 404.05 169.61 404.05 169.61 404.05 169.61 404.05 169.61 404.05 169.61 404.05 169.61 404.05 169.61 404.05 169.61 404.05 169.61 404.05 169.61 404.05 169.61 404.05 169.61 404.05 169.61 404.05 169.61 404.05 169.61 404.05 169.61 404.05 169.61 404.05 169.61 404.05 169.61 404.05 169.61 404.05 169.61 404.05 169.61 404.05 169.61 404.05 169.61 404.05 169.61 404.05 169.61 404.05 169.61 404.05 169.61 404.05 169.61 404.05 169.61 404.05 169.61 404.05 169.61 404.05 169.61 404.05 169.61 404.05 169.61 404.05 169.61 404.05 169.61 404.05 169.61 404.05 169.61 404.05 169.61 404.05 169.61 404.05 169.61 404.05 169.61 404.05 169.61 404.05 169.61 404.05 169.61 404.05 169.61 404.05 169.61 404.05 169.61 404.05 169.61 404.05 169.61 404.05 169.61 404.05 169.61 404.05 169.61 404.05 169.61 404.05 169.61 404.05 169.61 404.05 169.61 404.05 169.61 404.05 169.61 404.05 169.61 404.05 169.61 404.05 169.61 404.05 169.61 404.05 169.61" fill="none" opacity="0" stroke="#000" stroke-miterlimit="10"/>
      </g>
      <g clip-path="url(#clippath-9)">
        <g isolation="isolate">
          <g clip-path="url(#clippath-10)">
            <g clip-path="url(#clippath-11)">
              <path d="M396.18,175.38s0-.06-.2-.26c-1.47-1.48-1.84-3.7-1.84-5.49,0-2.04.45-4.08,1.89-5.55.15-.14.15-.16.15-.2,0-.08-.05-.12-.12-.12-.12,0-1.17.8-1.87,2.29-.6,1.29-.74,2.59-.74,3.58,0,.92.13,2.34.77,3.66.7,1.44,1.71,2.21,1.83,2.21.07,0,.12-.04.12-.12"/>
              <path d="M404.62,169.86c.2,0,.41,0,.41-.23s-.21-.23-.41-.23h-6.35c-.2,0-.41,0-.41.23s.21.23.41.23h6.35"/>
              <path d="M409.38,169.63c0-.92-.13-2.34-.77-3.66-.7-1.44-1.71-2.21-1.83-2.21-.07,0-.12.05-.12.12,0,.04,0,.06.22.27,1.15,1.16,1.82,3.03,1.82,5.48,0,2.01-.43,4.07-1.89,5.55-.15.14-.15.16-.15.2,0,.07.05.12.12.12.12,0,1.17-.8,1.87-2.29.6-1.29.74-2.59.74-3.58"/>
              <path d="M414.73,172.24c0-.99-.8-1.77-1.77-1.77s-1.77.8-1.77,1.76.8,1.77,1.77,1.77,1.77-.8,1.77-1.76"/>
            </g>
          </g>
        </g>
      </g>
    </g>
    <g>
      <g>
        <rect x="315.65" y="154.92" width="29.39" height="29.39" rx="8.2" ry="8.2" fill="#c8daf9"/>
        <path d="M336.83,155.42c4.25,0,7.7,3.46,7.7,7.7v12.98c0,4.25-3.46,7.7-7.7,7.7h-12.98c-4.25,0-7.7-3.46-7.7-7.7v-12.98c0-4.25,3.46-7.7,7.7-7.7h12.98M336.83,154.42h-12.98c-4.79,0-8.7,3.92-8.7,8.7v12.98c0,4.79,3.92,8.7,8.7,8.7h12.98c4.79,0,8.7-3.92,8.7-8.7v-12.98c0-4.79-3.92-8.7-8.7-8.7h0Z"/>
      </g>
      <path d="M332.09,166.91c.19-.81.91-3.68,3.09-3.68.16,0,.91,0,1.56.41-.87.16-1.5.94-1.5,1.69,0,.5.34,1.09,1.19,1.09.69,0,1.69-.56,1.69-1.81,0-1.62-1.84-2.06-2.9-2.06-1.81,0-2.9,1.65-3.28,2.37-.78-2.06-2.47-2.37-3.37-2.37-3.25,0-5.03,4.03-5.03,4.81,0,.31.31.31.38.31.25,0,.34-.06.41-.34,1.06-3.31,3.12-4.09,4.18-4.09.59,0,1.69.28,1.69,2.09,0,.97-.53,3.06-1.69,7.43-.5,1.94-1.59,3.25-2.97,3.25-.19,0-.91,0-1.56-.41.78-.16,1.47-.81,1.47-1.68s-.69-1.09-1.16-1.09c-.94,0-1.72.81-1.72,1.81,0,1.44,1.56,2.06,2.94,2.06,2.06,0,3.18-2.19,3.28-2.37.37,1.16,1.5,2.37,3.37,2.37,3.22,0,5-4.03,5-4.81,0-.31-.28-.31-.38-.31-.28,0-.34.13-.41.34-1.03,3.34-3.15,4.09-4.15,4.09-1.22,0-1.72-1-1.72-2.06,0-.69.19-1.37.53-2.75l1.06-4.28"/>
    </g>
    <g>
      <rect x="421.43" y="89.56" width="31.86" height="102.13" fill="none"/>
      <path d="M435.69,90.98h14v9.36h-2.14v-7.06h-3.64v6.44h-2.16v-6.44h-3.92v7.28h-2.14v-9.58Z"/>
      <path d="M435.69,101.68l5.1,3.74,4.52-3.32v2.6l-2.82,1.94,2.82,1.98v2.5l-4.46-3.28-5.16,3.78v-2.64l3.44-2.36-3.44-2.36v-2.58Z"/>
      <path d="M431.75,113.23h13.56v1.96l-1.06.12c.87.68,1.3,1.57,1.3,2.68,0,.89-.2,1.69-.6,2.39s-.98,1.25-1.73,1.65c-.75.4-1.66.6-2.71.6s-1.96-.2-2.71-.6c-.75-.4-1.33-.95-1.73-1.65s-.6-1.5-.6-2.39c0-.49.1-.95.29-1.38s.46-.8.81-1.12h-4.82v-2.26ZM437.51,117.92c0,.71.26,1.29.78,1.76.52.47,1.26.7,2.22.7s1.7-.23,2.22-.7.78-1.05.78-1.76-.26-1.29-.78-1.76-1.26-.7-2.22-.7-1.7.23-2.22.7c-.52.47-.78,1.05-.78,1.76Z"/>
      <path d="M435.69,124.57h9.62v2.04l-1.36.14c.48.24.87.62,1.16,1.13.29.51.44,1.06.44,1.63,0,.23-.01.43-.04.62-.03.19-.06.35-.1.48h-2.18c.05-.17.1-.38.13-.61.03-.23.05-.5.05-.81,0-.65-.21-1.21-.64-1.67-.43-.46-1.03-.69-1.8-.69h-5.28v-2.26Z"/>
      <path d="M435.47,136.41c0-1.4.42-2.53,1.27-3.4.85-.87,2.1-1.3,3.77-1.3,1.04,0,1.94.19,2.69.58s1.33.93,1.74,1.62.61,1.49.61,2.38-.22,1.65-.65,2.28c-.43.63-1.02,1.11-1.77,1.44-.75.33-1.59.5-2.52.5h-.52v-6.58c-.96.05-1.64.31-2.05.76-.41.45-.61,1.04-.61,1.76,0,.63.15,1.14.45,1.54.3.4.75.75,1.35,1.04l-1.16,1.66c-.92-.49-1.58-1.1-1.99-1.81-.41-.71-.61-1.54-.61-2.47ZM441.83,134.03v4.26c.63-.11,1.11-.34,1.45-.69.34-.35.51-.8.51-1.35,0-.59-.16-1.07-.48-1.45-.32-.38-.81-.64-1.48-.77Z"/>
      <path d="M435.49,146.09c0-.79.14-1.53.41-2.24.27-.71.71-1.33,1.31-1.88l1.5,1.4c-.84.75-1.26,1.69-1.26,2.84,0,.55.08.94.23,1.19.15.25.44.37.85.37.2,0,.36-.06.49-.18s.24-.34.35-.67c.11-.33.22-.8.34-1.43.19-.93.49-1.68.92-2.24.43-.56,1.1-.84,2.02-.84.6,0,1.12.16,1.55.48.43.32.77.75,1.01,1.3.24.55.36,1.15.36,1.82,0,.75-.11,1.43-.33,2.04s-.56,1.15-1.03,1.6l-1.58-1.26c.35-.32.59-.68.74-1.08.15-.4.22-.82.22-1.26,0-.49-.09-.84-.26-1.05-.17-.21-.38-.31-.62-.31-.17,0-.32.05-.44.15-.12.1-.23.3-.34.59-.11.29-.23.72-.36,1.28-.25,1.07-.62,1.89-1.1,2.48-.48.59-1.15.88-2.02.88-.97,0-1.71-.37-2.21-1.11s-.75-1.7-.75-2.87Z"/>
      <path d="M435.49,155.31c0-.79.14-1.53.41-2.24.27-.71.71-1.33,1.31-1.88l1.5,1.4c-.84.75-1.26,1.69-1.26,2.84,0,.55.08.94.23,1.19.15.25.44.37.85.37.2,0,.36-.06.49-.18s.24-.34.35-.67c.11-.33.22-.8.34-1.43.19-.93.49-1.68.92-2.24.43-.56,1.1-.84,2.02-.84.6,0,1.12.16,1.55.48.43.32.77.75,1.01,1.3.24.55.36,1.15.36,1.82,0,.75-.11,1.43-.33,2.04s-.56,1.15-1.03,1.6l-1.58-1.26c.35-.32.59-.68.74-1.08.15-.4.22-.82.22-1.26,0-.49-.09-.84-.26-1.05-.17-.21-.38-.31-.62-.31-.17,0-.32.05-.44.15-.12.1-.23.3-.34.59-.11.29-.23.72-.36,1.28-.25,1.07-.62,1.89-1.1,2.48-.48.59-1.15.88-2.02.88-.97,0-1.71-.37-2.21-1.11s-.75-1.7-.75-2.87Z"/>
      <path d="M435.69,161.39h9.62v2.24h-9.62v-2.24ZM446.89,162.49c0-.39.14-.72.42-1,.28-.28.61-.42,1-.42s.72.14,1,.42c.28.28.42.61.42,1s-.14.72-.42,1c-.28.28-.61.42-1,.42s-.72-.14-1-.42c-.28-.28-.42-.61-.42-1Z"/>
      <path d="M435.47,170.49c0-.88.21-1.67.63-2.37s1.01-1.25,1.76-1.66c.75-.41,1.64-.61,2.65-.61s1.9.2,2.65.61c.75.41,1.34.96,1.76,1.66s.63,1.49.63,2.37-.21,1.71-.63,2.41c-.42.7-1.01,1.25-1.76,1.65-.75.4-1.64.6-2.65.6s-1.9-.2-2.65-.6-1.34-.95-1.76-1.65c-.42-.7-.63-1.5-.63-2.41ZM437.51,170.49c0,.71.26,1.28.78,1.73.52.45,1.26.67,2.22.67s1.7-.22,2.22-.67.78-1.02.78-1.73-.26-1.26-.78-1.7c-.52-.44-1.26-.66-2.22-.66s-1.7.22-2.22.66c-.52.44-.78,1.01-.78,1.7Z"/>
      <path d="M435.69,177.09h9.62v2.02l-1.14.12c.37.27.7.62.97,1.06.27.44.41.96.41,1.56,0,1-.32,1.82-.96,2.45-.64.63-1.58.95-2.82.95h-6.08v-2.26h5.54c.76,0,1.33-.15,1.71-.46s.57-.72.57-1.24c0-.57-.2-1.04-.59-1.4-.39-.36-.98-.54-1.75-.54h-5.48v-2.26Z"/>
    </g>
    <g>
      <rect x="478.5" y="18.89" width="182.2" height="233.34" fill="#b6d8a8"/>
      <path d="M659.7,19.89v231.34h-180.2V19.89h180.2M661.7,17.89h-184.2v235.34h184.2V17.89h0Z"/>
    </g>
    <g>
      <rect x="14.3" y="18.89" width="124.87" height="233.34" rx="11" ry="11" fill="#ebf2ff"/>
      <path d="M128.17,19.89c5.51,0,10,4.49,10,10v211.34c0,5.51-4.49,10-10,10H25.3c-5.51,0-10-4.49-10-10V29.89c0-5.51,4.49-10,10-10h102.87M128.17,17.89H25.3c-6.6,0-12,5.4-12,12v211.34c0,6.6,5.4,12,12,12h102.87c6.6,0,12-5.4,12-12V29.89c0-6.6-5.4-12-12-12h0Z"/>
    </g>
    <g>
      <g>
        <path d="M621.38,227.42s30.03-45.86,30.03-60.05c0-12.3-34.04-45.32-43.11-53.9" fill="none" stroke="#000" stroke-dasharray="2 2" stroke-miterlimit="10"/>
        <path d="M606.1,111.41c1.39.6,3.29,1.16,4.73,1.23l-2.26,1.13-1.02,2.31c-.13-1.44-.79-3.31-1.45-4.67Z"/>
      </g>
      <line x1="581.75" y1="126.26" x2="581.75" y2="152.14" fill="none" stroke="#000" stroke-miterlimit="10" stroke-width="2"/>
      <line x1="535.41" y1="64.01" x2="506.37" y2="96.06" fill="none" stroke="#000" stroke-miterlimit="10" stroke-width="2"/>
      <line x1="550.25" y1="66.7" x2="580.53" y2="96.98" fill="none" stroke="#000" stroke-miterlimit="10" stroke-width="2"/>
      <polygon points="506.81 93.69 506.81 93.69 506.81 93.69 506.81 93.69 506.81 93.69 506.81 93.69 506.81 93.69 506.81 93.69 506.81 93.69 506.81 93.69 506.81 93.69 506.81 93.69 506.81 93.69 506.81 93.69 506.81 93.69 506.81 93.69 506.81 93.69 506.81 93.69 506.81 93.69 506.81 93.69 506.81 93.69 506.81 93.69 506.81 93.69 506.81 93.69 506.81 93.69 506.81 93.69 506.81 93.69 506.81 93.69 506.81 93.69 506.81 93.69 506.81 93.69 506.81 93.69 506.81 93.69 506.81 93.69 506.81 93.69 506.81 93.69 506.81 93.69 506.81 93.69 506.81 93.69 506.81 93.69 506.81 93.69 506.81 93.69 506.81 93.69 506.81 93.69 506.81 93.69 506.81 93.69 506.81 93.69 506.81 93.69 506.81 93.69 506.81 93.69 506.81 93.69 506.81 93.69 506.81 93.69 506.81 93.69 506.81 93.69 506.81 93.69 506.81 93.69 506.81 93.69 506.81 93.69 506.81 93.69 506.81 93.69 506.81 93.69 506.81 93.69 506.81 93.69 506.81 93.69 506.81 93.69 506.81 93.69 506.81 93.69 506.81 93.69 506.81 93.69 506.81 93.69 506.81 93.69 506.81 93.69 506.81 93.69 506.81 93.69 506.81 93.69 506.81 93.69 506.81 93.69 506.81 93.69 506.81 93.69 506.81 93.69 506.81 93.69 506.81 93.69 506.81 93.69 506.81 93.69 506.81 93.69 506.81 93.69 506.81 93.69 506.81 93.69 506.81 93.69 506.81 93.69 506.81 93.69 506.81 93.69 506.81 93.69 506.81 93.69 506.81 93.69 506.81 93.69 506.81 93.69 506.81 93.69" fill="none" opacity="0" stroke="#000" stroke-miterlimit="10"/>
      <g>
        <g>
          <g>
            <path d="M543.8,69.78c-8,0-14.5-6.5-14.5-14.5s6.5-14.5,14.5-14.5,14.5,6.5,14.5,14.5-6.5,14.5-14.5,14.5Z" fill="#e89a99"/>
            <path d="M543.8,41.28c7.72,0,14,6.28,14,14s-6.28,14-14,14-14-6.28-14-14,6.28-14,14-14M543.8,40.28c-8.28,0-15,6.72-15,15s6.72,15,15,15,15-6.72,15-15-6.72-15-15-15h0Z"/>
          </g>
          <polygon points="543.8 55.28 543.8 55.28 543.8 55.28 543.8 55.28 543.8 55.28 543.8 55.28 543.8 55.28 543.8 55.28 543.8 55.28 543.8 55.28 543.8 55.28 543.8 55.28 543.8 55.28 543.8 55.28 543.8 55.28 543.8 55.28 543.8 55.28 543.8 55.28 543.8 55.28 543.8 55.28 543.8 55.28 543.8 55.28 543.8 55.28 543.8 55.28 543.8 55.28 543.8 55.28 543.8 55.28 543.8 55.28 543.8 55.28 543.8 55.28 543.8 55.28 543.8 55.28 543.8 55.28 543.8 55.28 543.8 55.28 543.8 55.28 543.8 55.28 543.8 55.28 543.8 55.28 543.8 55.28 543.8 55.28 543.8 55.28 543.8 55.28 543.8 55.28 543.8 55.28 543.8 55.28 543.8 55.28 543.8 55.28 543.8 55.28 543.8 55.28 543.8 55.28 543.8 55.28 543.8 55.28 543.8 55.28 543.8 55.28 543.8 55.28 543.8 55.28 543.8 55.28 543.8 55.28 543.8 55.28 543.8 55.28 543.8 55.28 543.8 55.28 543.8 55.28 543.8 55.28 543.8 55.28 543.8 55.28 543.8 55.28 543.8 55.28 543.8 55.28 543.8 55.28 543.8 55.28 543.8 55.28 543.8 55.28 543.8 55.28 543.8 55.28 543.8 55.28 543.8 55.28 543.8 55.28 543.8 55.28 543.8 55.28 543.8 55.28 543.8 55.28 543.8 55.28 543.8 55.28 543.8 55.28 543.8 55.28 543.8 55.28 543.8 55.28 543.8 55.28 543.8 55.28 543.8 55.28 543.8 55.28 543.8 55.28 543.8 55.28 543.8 55.28 543.8 55.28 543.8 55.28 543.8 55.28" fill="none" opacity="0" stroke="#000" stroke-miterlimit="10"/>
        </g>
        <g clip-path="url(#clippath-13)">
          <g isolation="isolate">
            <g clip-path="url(#clippath-14)">
              <g clip-path="url(#clippath-15)">
                <path d="M550.72,64.12l1.54-4.08h-.32c-.5,1.33-1.85,2.19-3.31,2.57-.27.06-1.52.39-3.96.39h-7.68l6.49-7.61c.09-.1.11-.14.11-.2,0-.03,0-.06-.09-.19l-5.94-8.12h6.98c1.71,0,2.87.18,2.98.2.69.1,1.8.32,2.8.96.32.2,1.18.78,1.62,1.81h.32l-1.54-3.58h-15.06c-.29,0-.31.01-.34.09-.01.04-.01.28-.01.42l6.74,9.23-6.6,7.73c-.13.15-.13.22-.13.23,0,.14.11.14.34.14h15.06"/>
              </g>
            </g>
          </g>
        </g>
      </g>
      <g>
        <g>
          <path d="M499.55,95.53h12.98c4.53,0,8.2,3.68,8.2,8.2v12.98c0,4.53-3.68,8.2-8.2,8.2h-12.98c-4.53,0-8.2-3.68-8.2-8.2v-12.98c0-4.53,3.68-8.2,8.2-8.2Z" fill="#c8daf9"/>
          <path d="M512.53,96.03c4.25,0,7.7,3.46,7.7,7.7v12.98c0,4.25-3.46,7.7-7.7,7.7h-12.98c-4.25,0-7.7-3.46-7.7-7.7v-12.98c0-4.25,3.46-7.7,7.7-7.7h12.98M512.53,95.03h-12.98c-4.79,0-8.7,3.92-8.7,8.7v12.98c0,4.79,3.92,8.7,8.7,8.7h12.98c4.79,0,8.7-3.92,8.7-8.7v-12.98c0-4.79-3.92-8.7-8.7-8.7h0Z"/>
        </g>
        <path d="M513.6,105.14c.24-.95.67-1.69,2.57-1.76.12,0,.4-.02.4-.48,0-.02,0-.26-.31-.26-.78,0-1.62.07-2.4.07s-1.64-.07-2.42-.07c-.14,0-.43,0-.43.48,0,.26.24.26.43.26,1.35.02,1.62.52,1.62,1.04,0,.07-.05.43-.07.5l-2.66,10.57-5.25-12.4c-.19-.43-.21-.45-.76-.45h-3.18c-.47,0-.69,0-.69.48,0,.26.21.26.66.26.12,0,1.62,0,1.62.21l-3.18,12.75c-.24.95-.64,1.71-2.56,1.78-.14,0-.4.02-.4.48,0,.17.12.26.31.26.76,0,1.59-.07,2.38-.07s1.66.07,2.45.07c.12,0,.43,0,.43-.48,0-.24-.21-.26-.48-.26-1.38-.05-1.57-.57-1.57-1.05,0-.17.02-.28.1-.55l3.14-12.54c.1.14.1.19.21.43l5.92,13.99c.17.4.24.45.45.45.26,0,.26-.07.38-.5l3.32-13.23"/>
      </g>
      <polygon points="521.06 162.78 521.06 162.78 521.06 162.78 521.06 162.78 521.06 162.78 521.06 162.78 521.06 162.78 521.06 162.78 521.06 162.78 521.06 162.78 521.06 162.78 521.06 162.78 521.06 162.78 521.06 162.78 521.06 162.78 521.06 162.78 521.06 162.78 521.06 162.78 521.06 162.78 521.06 162.78 521.06 162.78 521.06 162.78 521.06 162.78 521.06 162.78 521.06 162.78 521.06 162.78 521.06 162.78 521.06 162.78 521.06 162.78 521.06 162.78 521.06 162.78 521.06 162.78 521.06 162.78 521.06 162.78 521.06 162.78 521.06 162.78 521.06 162.78 521.06 162.78 521.06 162.78 521.06 162.78 521.06 162.78 521.06 162.78 521.06 162.78 521.06 162.78 521.06 162.78 521.06 162.78 521.06 162.78 521.06 162.78 521.06 162.78 521.06 162.78 521.06 162.78 521.06 162.78 521.06 162.78 521.06 162.78 521.06 162.78 521.06 162.78 521.06 162.78 521.06 162.78 521.06 162.78 521.06 162.78 521.06 162.78 521.06 162.78 521.06 162.78 521.06 162.78 521.06 162.78 521.06 162.78 521.06 162.78 521.06 162.78 521.06 162.78 521.06 162.78 521.06 162.78 521.06 162.78 521.06 162.78 521.06 162.78 521.06 162.78 521.06 162.78 521.06 162.78 521.06 162.78 521.06 162.78 521.06 162.78 521.06 162.78 521.06 162.78 521.06 162.78 521.06 162.78 521.06 162.78 521.06 162.78 521.06 162.78 521.06 162.78 521.06 162.78 521.06 162.78 521.06 162.78 521.06 162.78 521.06 162.78 521.06 162.78 521.06 162.78 521.06 162.78 521.06 162.78 521.06 162.78" fill="none" opacity="0" stroke="#000" stroke-miterlimit="10"/>
      <g>
        <line x1="573.72" y1="179.17" x2="560.86" y2="211.46" fill="none" stroke="#000" stroke-miterlimit="10" stroke-width="2"/>
        <line x1="588.64" y1="179.72" x2="601.51" y2="212.01" fill="none" stroke="#000" stroke-miterlimit="10" stroke-width="2"/>
        <g>
          <g>
            <path d="M553.06,211.73h12.98c4.53,0,8.2,3.68,8.2,8.2v12.98c0,4.53-3.68,8.2-8.2,8.2h-12.98c-4.53,0-8.2-3.68-8.2-8.2v-12.98c0-4.53,3.68-8.2,8.2-8.2Z" fill="#c8daf9"/>
            <path d="M566.04,212.23c4.25,0,7.7,3.46,7.7,7.7v12.98c0,4.25-3.46,7.7-7.7,7.7h-12.98c-4.25,0-7.7-3.46-7.7-7.7v-12.98c0-4.25,3.46-7.7,7.7-7.7h12.98M566.04,211.23h-12.98c-4.79,0-8.7,3.92-8.7,8.7v12.98c0,4.79,3.92,8.7,8.7,8.7h12.98c4.79,0,8.7-3.92,8.7-8.7v-12.98c0-4.79-3.92-8.7-8.7-8.7h0Z"/>
          </g>
          <path d="M566.62,220.23c.13-.44.13-.5.13-.72,0-.56-.44-.84-.91-.84-.31,0-.81.19-1.09.65-.06.16-.31,1.12-.44,1.69-.22.81-.44,1.65-.62,2.5l-1.41,5.62c-.12.47-1.47,2.65-3.53,2.65-1.59,0-1.94-1.37-1.94-2.53,0-1.44.53-3.37,1.59-6.12.5-1.28.62-1.62.62-2.25,0-1.4-1-2.56-2.56-2.56-2.97,0-4.12,4.53-4.12,4.81,0,.31.31.31.38.31.31,0,.34-.06.5-.56.84-2.94,2.09-3.87,3.15-3.87.25,0,.78,0,.78,1,0,.78-.31,1.59-.53,2.19-1.25,3.31-1.81,5.09-1.81,6.56,0,2.78,1.97,3.72,3.81,3.72,1.22,0,2.28-.53,3.15-1.4-.41,1.62-.78,3.15-2.03,4.81-.81,1.06-2,1.97-3.43,1.97-.44,0-1.84-.09-2.37-1.31.5,0,.91,0,1.34-.38.31-.28.62-.69.62-1.28,0-.97-.84-1.09-1.16-1.09-.72,0-1.75.5-1.75,2.03s1.37,2.72,3.31,2.72c3.22,0,6.43-2.84,7.31-6.37l3-11.93"/>
        </g>
        <polygon points="603.23 228.6 603.23 228.6 603.23 228.6 603.23 228.6 603.23 228.6 603.23 228.6 603.23 228.6 603.23 228.6 603.23 228.6 603.23 228.6 603.23 228.6 603.23 228.6 603.23 228.6 603.23 228.6 603.23 228.6 603.23 228.6 603.23 228.6 603.23 228.6 603.23 228.6 603.23 228.6 603.23 228.6 603.23 228.6 603.23 228.6 603.23 228.6 603.23 228.6 603.23 228.6 603.23 228.6 603.23 228.6 603.23 228.6 603.23 228.6 603.23 228.6 603.23 228.6 603.23 228.6 603.23 228.6 603.23 228.6 603.23 228.6 603.23 228.6 603.23 228.6 603.23 228.6 603.23 228.6 603.23 228.6 603.23 228.6 603.23 228.6 603.23 228.6 603.23 228.6 603.23 228.6 603.23 228.6 603.23 228.6 603.23 228.6 603.23 228.6 603.23 228.6 603.23 228.6 603.23 228.6 603.23 228.6 603.23 228.6 603.23 228.6 603.23 228.6 603.23 228.6 603.23 228.6 603.23 228.6 603.23 228.6 603.23 228.6 603.23 228.6 603.23 228.6 603.23 228.6 603.23 228.6 603.23 228.6 603.23 228.6 603.23 228.6 603.23 228.6 603.23 228.6 603.23 228.6 603.23 228.6 603.23 228.6 603.23 228.6 603.23 228.6 603.23 228.6 603.23 228.6 603.23 228.6 603.23 228.6 603.23 228.6 603.23 228.6 603.23 228.6 603.23 228.6 603.23 228.6 603.23 228.6 603.23 228.6 603.23 228.6 603.23 228.6 603.23 228.6 603.23 228.6 603.23 228.6 603.23 228.6 603.23 228.6 603.23 228.6 603.23 228.6 603.23 228.6 603.23 228.6" fill="none" opacity="0" stroke="#000" stroke-miterlimit="10"/>
        <g>
          <g>
            <g>
              <rect x="588.76" y="211.23" width="30.39" height="30.39" rx="8.7" ry="8.7" fill="#c8daf9"/>
              <path d="M610.45,211.23h-4v1h4v-1h0ZM602.45,211.23h-4v1h4v-1h0ZM594.51,211.75c-1.27.46-2.4,1.21-3.32,2.17l.72.69c.82-.86,1.84-1.52,2.94-1.92l-.34-.94h0ZM589.16,217.33c-.09.3-.17.6-.23.91,0,0,0,0,0,0,0,0,0,.01,0,.02,0,0,0,0,0,0,0,0,0,.01,0,.02,0,0,0,0,0,0,0,0,0,0,0,0,0,0,0,0,0,0,0,0,0,0,0,.01h0s0,0,0,0c0,0,0,0,0,0,0,0,0,0,0,.01t0,0s0,0,0,0c0,0,0,0,0,0,0,0,0,0,0,.01,0,0,0,0,0,0,0,0,0,0,0,0,0,0,0,0,0,0,0,0,0,0,0,.01,0,0,0,0,0,0,0,0,0,0,0,0,0,0,0,0,0,0,0,0,0,0,0,0h0s0,0,0,0h0s0,0,0,0c0,0,0,0,0,0,0,0,0,0,0,0,0,0,0,0,0,0,0,0,0,0,0,0h0s0,0,0,0c0,0,0,0,0,0,0,0,0,0,0,0h0s0,0,0,.01c0,0,0,0,0,0,0,0,0,0,0,0,0,0,0,0,0,0,0,0,0,0,0,0,0,0,0,0,0,0,0,0,0,0,0,0,0,0,0,0,0,0,0,0,0,0,0,0,0,0,0,0,0,0,0,0,0,0,0,0,0,0,0,0,0,0,0,0,0,0,0,.01,0,0,0,0,0,0,0,0,0,0,0,0,0,0,0,0,0,0,0,0,0,0,0,0,0,0,0,0,0,0,0,0,0,0,0,0,0,0,0,0,0,0,0,0,0,0,0,0,0,0,0,0,0,0,0,0,0,0,0,0,0,0,0,0,0,0,0,0,0,0,0,0,0,0,0,0,0,0,0,0,0,0,0,0,0,0,0,0,0,0,0,0,0,0,0,0,0,0,0,0,0,0,0,0,0,0,0,0,0,0,0,0,0,0,0,0,0,0,0,0,0,0,0,0,0,0,0,0,0,0,0,0,0,0,0,0,0,0,0,0,0,0,0,0,0,0,0,0,0,0,0,0,0,0,0,0,0,0,0,0,0,0,0,0,0,0,0,0,0,0,0,0,0,0,0,0,0,0,0,0,0,0,0,0,0,0,0,0,0,0,0,0,0,0,0,0,0,0,0,0,0,0,0,0,0,0,0,0,0,0,0,0,0,0,0,0,0,0,0,0,0,0,0,0,0,0,0,0,0,0,0,0,0,0,0,0,0,0,0,0,0,0,0,0,0,0,0,0,0,0,0,0,0,0,0,0,0,0,0,0,0,0,0,0,0,0,0,0,0,0,0,0,0,0,0,0,0,0,0,0,0,0,0,0,0,0,0,0,0,0,0,0,0,0,0,0,0,0,0,0,0,0,0,0,0,0,0,0,0,0,0,0,0,0,0,0,0,0,0,0,0,0,0,0,0,0,0,0,0,0,0,0,0,0,0,0,0,0,0,0,0,0,0,0,0,0,0,0,0,0,0,0,0,0,0,0,0,0,0,0,0,0,0,0,0,0,0,0,0,0,0,0,0,0,0,0,0,0,0,0,0,0,0,0,0,0,0,0,0,0,0,0,0,0,0,0,0,0,0,0,0,0,0,0,0,0,0,0,0,0,0,0,0,0,0,0,0,0,0,0,0,0,0,0,0,0,0,0,0,0,0,0,0,0,0,0,0,0h0s0,0,0,0c0,0,0,0,0,0,0,0,0,0,0,0,0,0,0,0,0,0,0,0,0,0,0,0,0,0,0,0,0,0,0,0,0,0,0,0,0,0,0,0,0,0,0,0,0,0,0,0,0,0,0,0,0,0,0,0,0,0,0,0,0,0,0,0,0,0,0,0,0,0,0,0,0,0,0,0,0,0,0,0,0,0,0,0,0,0,0,0,0,0,0,0,0,0,0,0,0,0,0,0,0,0,0,0,0,0,0,0,0,0,0,0,0,0,0,0,0,0,0,0,0,0,0,0,0,0,0,0,0,0,0,0,0,0,0,0,0,0,0,0,0,0,0,0,0,0,0,0,0,0,0,0,0,0,0,0,0,0,0,0,0,0,0,0,0,0,0,0,0,0,0,0,0,0,0,0,0,0,0,0,0,0,0,0,0,0,0,0,0,0,0,0,0,0,0,0,0,0,0,0,0,0,0,0,0,0,0,0,0,0,0,0,0,0,0,0,0,0,0,0,0,0,0,0,0,0,0,0,0,0,0,0,0,0h0s0,0,0,0c0,0,0,0,0,.01,0,0,0,0,0,0,0,0,0,0,0,0,0,0,0,0,0,0,0,0,0,0,0,.01,0,0,0,0,0,0,0,0,0,0,0,0,0,0,0,0,0,0,0,0,0,0,0,.01,0,0,0,0,0,0,0,0,0,0,0,0,0,0,0,0,0,0,0,0,0,0,0,.01h0s0,0,0,0c0,0,0,0,0,0,0,0,0,0,0,0,0,0,0,0,0,0,0,0,0,0,0,0,0,0,0,0,0,0,0,0,0,0,0,0,0,0,0,0,0,0,0,0,0,0,0,0,0,0,0,0,0,0,0,0,0,0,0,0,0,0,0,0,0,0,0,0,0,0,0,0,0,0,0,0,0,0,0,0,0,0,0,0,0,0,0,0,0,0,0,0,0,0,0,0,0,0,0,0,0,0,0,0,0,0,0,0,0,0,0,0,0,0,0,0,0,0,0,0,0,0,0,0,0,0,0,0,0,0,0,0h0s0,0,0,0c0,0,0,0,0,0,0,0,0,0,0,0,0,0,0,0,0,0,0,0,0,0,0,0h0s0,0,0,0c0,0,0,0,0,0,0,0,0,0,0,0,0,0,0,0,0,0,0,0,0,0,0,0h0s0,0,0,0c0,0,0,0,0,0,0,0,0,0,0,0,0,0,0,0,0,0,0,0,0,0,0,0h0s0,0,0,0c0,0,0,0,0,0,0,0,0,0,0,0,0,0,0,0,0,0,0,0,0,0,0,0h0s0,0,0,0h0s0,0,0,0c0,0,0,0,0,0,0,0,0,0,0,0h0s0,0,0,0c0,0,0,0,0,0,0,0,0,0,0,0,0,0,0,0,0,0,0,0,0,0,0,0,0,0,0,0,0,0,0,0,0,0,0,0h0s0,0,0,0c0,0,0,0,0,0,0,0,0,0,0,0,0,0,0,0,0,0,0,0,0,0,0,0,0,0,0,0,0,0,0,0,0,0,0,0,0,0,0,0,0,0,0,0,0,0,0,0h0s0,0,0,.01h0s0,0,0,0c0,0,0,0,0,0,0,0,0,0,0,.01,0,0,0,0,0,0,0,0,0,0,0,0,0,0,0,0,0,0,0,0,0,0,0,.01,0,0,0,0,0,0,0,0,0,0,0,0,0,0,0,0,0,0,0,0,0,0,0,.01h0s0,0,0,0c0,0,0,0,0,0,0,0,0,0,0,.01,0,0,0,0,0,0,0,0,0,0,0,0,0,0,0,0,0,0,0,0,0,0,0,0h0s0,0,0,0h0s0,0,0,0c0,0,0,0,0,0,0,0,0,0,0,.01,0,0,0,0,0,0,0,0,0,0,0,0,0,0,0,0,0,0,0,0,0,0,0,0h0s0,0,0,0h0s0,0,0,0h0s0,0,0,0h0s0,0,0,0h0s0,0,0,0c0,0,0,0,0,0,0,0,0,0,0,0h0s0,0,0,.01c0,0,0,0,0,0,0,0,0,0,0,0h0s0,0,0,.01c0,0,0,0,0,0,0,0,0,0,0,0,0,0,0,0,0,0,0,0,0,0,0,.01,0,0,0,0,0,0,0,0,0,0,0,0,0,0,0,0,0,0,0,0,0,0,0,0h0s0,0,0,0c0,0,0,0,0,0,0,0,0,0,0,0,0,0,0,0,0,0,0,0,0,0,0,0h0s0,0,0,0h0s0,0,0,0h0s0,0,0,0h0s0,0,0,0h0s0,0,0,0c0,0,0,0,0,0,0,0,0,0,0,0,0,0,0,0,0,0,0,0,0,0,0,0,0,0,0,0,0,0,0,0,0,0,0,0,0,0,0,0,0,0,0,0,0,0,0,0h0s0,0,0,0h0s0,0,0,0c0,0,0,0,0,0,0,0,0,0,0,0h0s0,0,0,0c0,0,0,0,0,0,0,0,0,0,0,0h0s0,0,0,0c0,0,0,0,0,0,0,0,0,0,0,.01,0,0,0,0,0,0,0,0,0,0,0,0,0,0,0,0,0,0,0,0,0,0,0,.01h0s0,0,0,0c0,0,0,0,0,0,0,0,0,0,0,.01h0s0,0,0,0c0,0,0,0,0,0,0,0,0,0,0,0h0s0,0,0,0h0s0,0,0,0c0,0,0,0,0,0,0,0,0,0,0,0,0,0,0,0,0,0,0,0,0,0,0,0,0,0,0,0,0,0,0,0,0,0,0,0h0s0,0,0,0h0s0,0,0,0h0s0,0,0,0c0,0,0,0,0,0,0,0,0,0,0,0h0s0,0,0,0c0,0,0,0,0,0,0,0,0,0,0,0h0s0,0,0,0c0,0,0,0,0,0,0,0,0,0,0,0h0s0,0,0,0c0,0,0,0,0,0h0s0,0,0,0c0,0,0,0,0,0h0s0,0,0,0h0s0,0,0,0c0,0,0,0,0,0,0,0,0,0,0,.01h0s0,0,0,0h0s0,0,0,0h0s0,0,0,0h0s0,0,0,0h0s0,0,0,0h0s0,0,0,0h0s0,.01,0,.01h0s0,0,0,0h0s0,0,0,0h0s0,.01,0,.01h0s0,.01,0,.01h0s0,.02,0,.02h0v.02h0s0,0,0,0h0v.02h0v1.37h1v-1.35c0-.79.12-1.56.35-2.3l-.95-.3h0ZM589.76,225.29h-1v4h1v-4h0ZM589.77,233.25l-1,.04c0,.13.01.26.03.39h0s0,0,0,0h0s0,.03,0,.04h0s0,0,0,0c0,0,0,0,0,0,0,0,0,0,0,0h0s0,.02,0,.02h0s0,0,0,0t0,0s0,0,0,0c0,0,0,0,0,0,0,0,0,0,0,0,0,0,0,0,0,0,0,0,0,0,0,0h0s0,.01,0,.02c0,0,0,0,0,0,0,0,0,0,0,0,0,0,0,0,0,0,0,0,0,0,0,0,0,0,0,0,0,0,0,0,0,0,0,0,0,0,0,0,0,0,0,0,0,0,0,0,0,0,0,0,0,0,0,0,0,.01,0,.02,0,0,0,0,0,0,0,0,0,0,0,0,0,0,0,0,0,0,0,0,0,0,0,0,0,0,0,0,0,0,0,0,0,0,0,0,0,0,0,0,0,0,0,0,0,0,0,0,0,0,0,0,0,0h0s0,0,0,0c0,0,0,0,0,0,0,0,0,0,0,0,0,0,0,0,0,0,0,0,0,0,0,0,0,0,0,0,0,0,0,0,0,0,0,0,0,0,0,0,0,0,0,0,0,0,0,0,0,0,0,0,0,0,0,0,0,0,0,0,0,0,0,0,0,0,0,0,0,0,0,0,0,0,0,0,0,0,0,0,0,0,0,0,0,0,0,0,0,0,0,0,0,0,0,0,0,0,0,0,0,0,0,0,0,0,0,0,0,0,0,0,0,0,0,0,0,0,0,0,0,0,0,0,0,0,0,0,0,0,0,0,0,0,0,0,0,0,0,0,0,0,0,0,0,0,0,0,0,0,0,0,0,0,0,0,0,0,0,0,0,0,0,0,0,0,0,0,0,0,0,0,0,0,0,0,0,0,0,0,0,0,0,0,0,0,0,0,0,0,0,0,0,0,0,0,0,0,0,0,0,0,0,0,0,0,0,0,0,0,0,0,0,0,0,0,0,0,0,0,0,0,0,0,0,0,0,0,0,0,0,0,0,0,0,0,0,0,0,0,0,0,0,0,0,0,0,0,0,0,0,0,0,0,0,0,0,0,0,0,0,0,0,0,0,0,0,0,0,0,0,0,0,0,0,0,0,0,0,0,0,0,0,0,0,0,0,0,0,0,0,0,0,0,0,0,0,0,0,.01,0,0,0,0,0,0,0,0,0,0,0,0,0,0,0,0,0,0,0,0,0,0,0,0,0,0,0,0,0,0,0,0,0,0,0,0h0s0,0,0,0c0,0,0,0,0,0,0,0,0,0,0,0,0,0,0,0,0,0,0,0,0,.01,0,.02,0,0,0,0,0,0,0,0,0,0,0,0,0,0,0,0,0,0,0,0,0,0,0,0,0,0,0,0,0,0,0,0,0,0,0,0,0,0,0,0,0,0,0,0,0,0,0,0h0s0,.01,0,.02c0,0,0,0,0,0,0,0,0,0,0,0,0,0,0,0,0,0,0,0,0,0,0,0,0,0,0,0,0,0,0,0,0,0,0,0,0,0,0,0,0,0,0,0,0,0,0,0,0,0,0,0,0,0,0,0,0,.01,0,.02,0,0,0,0,0,0,0,0,0,0,0,0,0,0,0,0,0,0,0,0,0,0,0,0,0,0,0,0,0,0,0,0,0,0,0,0,0,0,0,0,0,0,0,0,0,0,0,0h0s0,.02,0,.03c0,0,0,0,0,0,0,0,0,0,0,0,0,0,0,0,0,0,0,0,0,0,0,0,0,0,0,0,0,0,0,0,0,0,0,0,0,0,0,0,0,0,0,0,0,.02,0,.03,0,0,0,0,0,0,0,0,0,0,0,0,0,0,0,0,0,0,0,0,0,0,0,0,0,0,0,0,0,0,0,0,0,0,0,0,0,0,0,0,0,0,0,0,0,.02,0,.03h0s0,0,0,0c0,0,0,0,0,0,0,0,0,0,0,0,0,0,0,0,0,0,0,0,0,0,0,0h0s0,.02,0,.03c0,0,0,0,0,0,0,0,0,0,0,0,0,0,0,0,0,0,0,0,0,0,0,0,0,0,0,0,0,0,0,0,0,0,0,0,0,0,0,0,0,0,0,.01,0,.02,0,.03,0,0,0,0,0,0,0,0,0,0,0,0,0,0,0,0,0,0,0,0,0,0,0,0,0,0,0,0,0,0,0,.01,0,.02,0,.03h0s0,0,0,0c0,0,0,0,0,0,0,0,0,0,0,0,0,0,0,0,0,0,0,.01,0,.02,0,.03,0,0,0,0,0,0,0,0,0,0,0,0,0,0,0,0,0,0,0,0,0,0,0,0,0,0,0,0,0,0,0,.01,0,.02,0,.03,0,0,0,0,0,0,0,0,0,0,0,0,0,0,0,0,0,0,0,0,0,0,0,0,0,0,0,0,0,0,0,0,0,0,0,0,0,0,0,0,0,0,0,0,0,.02,0,.03,0,0,0,0,0,0,0,0,0,0,0,0,0,0,0,0,0,0,0,0,0,0,0,0,0,0,0,0,0,0,0,0,0,0,0,0,0,0,0,0,0,0v.03s0,0,0,0c0,0,0,0,0,0,0,0,0,0,0,0,0,0,0,0,0,0h0s0,.02,0,.03h0s0,0,0,0c0,0,0,0,0,0,0,.01,0,.03,0,.04,0,0,0,0,0,0,0,0,0,0,0,0,0,0,0,0,0,0,0,0,0,0,0,0,0,0,0,0,0,0,0,.01,0,.02,0,.03,0,0,0,0,0,0,0,0,0,0,0,0,0,0,0,0,0,0,0,0,0,0,0,0,0,0,0,0,0,0,0,.01,0,.02,0,.03h0s0,0,0,0c0,0,0,0,0,0,0,0,0,0,0,0,0,0,0,0,0,0,0,.01,0,.03,0,.04,0,0,0,0,0,0,0,0,0,0,0,0,0,0,0,0,0,0,0,0,0,0,0,0h0s0,.02,0,.03c0,0,0,0,0,0,0,0,0,0,0,0,0,0,0,0,0,0,0,.01,0,.03,0,.04,0,0,0,0,0,0,0,0,0,0,0,0,0,0,0,0,0,0,0,0,0,0,0,0,0,0,0,0,0,0,0,.01,0,.02,0,.03,0,0,0,0,0,0,0,0,0,0,0,0,0,0,0,0,0,0,0,0,0,0,0,0,0,0,0,0,0,0,0,.01,0,.02,0,.03,0,0,0,0,0,0,0,0,0,0,0,0,0,0,0,0,0,0,0,0,0,0,0,0,0,0,0,0,0,0,0,.01,0,.02,0,.03,0,0,0,0,0,0,0,0,0,0,0,0h0s0,0,0,0c0,0,0,0,0,0,0,.01,0,.02,0,.03h0s0,0,0,0c0,0,0,0,0,0,0,0,0,0,0,0,0,0,0,0,0,0,0,0,0,0,0,0h0s0,.02,0,.03h0s0,0,0,0c0,0,0,0,0,0,0,0,0,0,0,0,0,0,0,0,0,0,0,0,0,0,0,0t0,0s0,.02,0,.03h0s0,0,0,0c0,0,0,0,0,0,0,0,0,0,0,0,0,0,0,0,0,0,0,0,0,0,0,0,0,0,0,0,0,0,0,.01,0,.02,0,.03,0,0,0,0,0,0,0,0,0,0,0,0,0,0,0,0,0,0,0,0,0,0,0,0,0,0,0,0,0,0,0,.01,0,.02,0,.03,0,0,0,0,0,0,0,0,0,0,0,0,0,0,0,0,0,0,0,0,0,0,0,0,0,0,0,0,0,0,0,0,0,0,0,0,0,0,0,0,0,0,0,0,0,.02,0,.02,0,0,0,0,0,0,0,0,0,0,0,0,0,0,0,0,0,0,0,0,0,0,0,0,0,0,0,0,0,0,0,0,0,0,0,0,0,0,0,0,0,0,0,0,0,.02,0,.02,0,0,0,0,0,0,0,0,0,0,0,0,0,0,0,0,0,0,0,0,0,0,0,0,0,0,0,0,0,0,0,0,0,0,0,0,0,0,0,0,0,0,0,0,0,.02,0,.02,0,0,0,0,0,0,0,0,0,0,0,0,0,0,0,0,0,0,0,0,0,0,0,0,0,0,0,0,0,0,0,0,0,0,0,0,0,0,0,0,0,0,0,0,0,0,0,0,0,0,0,0,0,0,0,0,0,.01,0,.02,0,0,0,0,0,0,0,0,0,0,0,0,0,0,0,0,0,0,0,0,0,0,0,0,0,0,0,0,0,0,0,0,0,0,0,0,0,0,0,0,0,0,0,0,0,.02,0,.02,0,0,0,0,0,0,0,0,0,0,0,0,0,0,0,0,0,0,0,0,0,0,0,0,0,0,0,0,0,0,0,0,0,0,0,0,0,0,0,0,0,0,0,0,0,0,0,0,0,0,0,0,0,0,0,0,0,.01,0,.02,0,0,0,0,0,0,0,0,0,0,0,0,0,0,0,0,0,0,0,0,0,0,0,0,0,0,0,0,0,0,0,0,0,0,0,0,0,0,0,0,0,0,0,0,0,0,0,0h0s0,.02,0,.02c0,0,0,0,0,0,0,0,0,0,0,0,0,0,0,0,0,0,0,0,0,0,0,0,0,0,0,0,0,0,0,0,0,0,0,0,0,0,0,0,0,0,0,0,0,.02,0,.02,0,0,0,0,0,0,0,0,0,0,0,0,0,0,0,0,0,0,0,0,0,0,0,0,0,0,0,0,0,0,0,0,0,0,0,0,0,0,0,0,0,0,0,0,0,.02,0,.02,0,0,0,0,0,0,0,0,0,0,0,0,0,0,0,0,0,0,0,0,0,0,0,0,0,0,0,0,0,0,0,0,0,0,0,0,0,0,0,0,0,0,0,0,0,.02,0,.02,0,0,0,0,0,0,0,0,0,0,0,0,0,0,0,0,0,0,0,0,0,0,0,0,0,0,0,0,0,0,0,0,0,0,0,0,0,0,0,0,0,0,0,0,0,0,0,0,0,0,0,0,0,0,0,0,0,.01,0,.02,0,0,0,0,0,0,0,0,0,0,0,0,0,0,0,0,0,0,0,0,0,0,0,0,0,0,0,0,0,0,0,0,0,0,0,0,0,0,0,0,0,0,0,0,0,.02.01.03,0,0,0,0,0,0,0,0,0,0,0,0,0,0,0,0,0,0,0,0,0,0,0,0,0,0,0,0,0,0,0,0,0,0,0,0,0,0,0,0,0,0,0,0,0,.02,0,.02,0,0,0,0,0,0,0,0,0,0,0,0,0,0,0,0,0,0,0,0,0,0,0,0,0,0,0,0,0,0,0,0,0,0,0,0,0,0,0,0,0,0,0,0,0,.02,0,.02,0,0,0,0,0,0,0,0,0,0,0,0,0,0,0,0,0,0,0,0,0,0,0,0,0,0,0,0,0,0h0s0,0,0,0c0,0,0,.02,0,.02h0s0,0,0,0c0,0,0,0,0,0,0,0,0,0,0,0,0,0,0,0,0,0,0,0,0,0,0,0,0,0,0,0,0,0,0,.01,0,.02.01.03,0,0,0,0,0,0,0,0,0,0,0,0h0s0,0,0,0t0,0s0,.02.02.04h0s.02.06.04.09c0,0,0,0,0,0,.12.28.25.55.39.81l.88-.48c-.58-1.05-.9-2.18-.95-3.37h0ZM593.07,239.23l-.57.82c.07.05.15.1.22.15h0s.02.01.03.02c0,0,0,0,0,0,0,0,0,0,0,0,0,0,0,0,0,0,0,0,.02.01.03.02,0,0,0,0,0,0,0,0,0,0,0,0,0,0,0,0,0,0,0,0,0,0,0,0,0,0,0,0,0,0,0,0,.02.01.03.02,0,0,0,0,0,0,0,0,0,0,0,0,0,0,0,0,0,0,0,0,0,0,0,0,0,0,0,0,0,0,0,0,.01,0,.02.01,0,0,0,0,0,0,0,0,0,0,0,0,0,0,0,0,0,0,0,0,0,0,0,0,0,0,0,0,0,0,0,0,0,0,0,0,0,0,0,0,0,0,0,0,0,0,0,0h0s.01,0,.02,0c0,0,0,0,0,0,0,0,0,0,0,0,0,0,0,0,0,0,0,0,0,0,0,0h0s0,0,0,0c0,0,0,0,0,0,0,0,.01,0,.02,0,0,0,0,0,0,0,0,0,0,0,0,0,0,0,0,0,0,0,0,0,0,0,0,0,0,0,0,0,0,0,0,0,0,0,0,0,0,0,0,0,0,0,0,0,0,0,0,0,0,0,0,0,0,0,0,0,0,0,.01,0,0,0,0,0,0,0,0,0,0,0,0,0,0,0,0,0,0,0,0,0,0,0,0,0,0,0,0,0,0,0,0,0,0,0,0,0,0,0,0,0,0,0,0,0,0,0,0,0,0,0,0,0,0,0,0,0,0,0,0,0,0,0,0,0,0,0,0,0,0,0,0,0,0,0,0,0,0,0,0,0,0,0,0,0,0,0,0,0,0,0,0,0,0,0,0,0,0,0,0,0,0,0,0,0,0,0,0,0,0,0,0,0,0,0,0,0,0,0,0,0,0,0,0,0,0,0h0s0,0,0,0c0,0,0,0,0,0,0,0,0,0,0,0,0,0,0,0,0,0,0,0,0,0,0,0,0,0,0,0,0,0,0,0,0,0,0,0,0,0,0,0,0,0,0,0,0,0,0,0,0,0,0,0,.01,0,0,0,0,0,0,0,0,0,0,0,0,0,0,0,0,0,0,0h0s0,0,0,0c0,0,0,0,0,0,0,0,0,0,0,0,0,0,0,0,0,0,0,0,0,0,0,0,0,0,0,0,.01,0,0,0,0,0,0,0,0,0,0,0,0,0,0,0,0,0,0,0,0,0,0,0,0,0,0,0,0,0,0,0,0,0,0,0,0,0h0s0,0,0,0c0,0,0,0,0,0,0,0,0,0,0,0,0,0,0,0,0,0,0,0,0,0,0,0,0,0,0,0,0,0,0,0,0,0,0,0,0,0,0,0,0,0,0,0,0,0,0,0,0,0,0,0,0,0,0,0,0,0,0,0,0,0,0,0,0,0,0,0,0,0,.01,0,0,0,0,0,0,0,0,0,0,0,0,0,0,0,0,0,0,0,0,0,0,0,0,0,0,0,0,0,0,0,0,0,0,0,0,0,0,0,0,0,0,0,0,0,0,0,0,0,0,0,0,0,0,0,0,0,0,0,.01,0,0,0,0,0,0,0,0,0,0,0,0,0,0,0,0,0,0,0,0,0,0,0,0,0,0,0,0,0,0,0,0,0,0,0,0,0,0,0,0,0,0,0,0,0,0,0,0,0,0,0,0,0,0,0,0,0,0,0,0,0h0s0,0,0,0c0,0,0,0,0,0,0,0,0,0,0,0,0,0,0,0,0,0,0,0,0,0,0,0,0,0,0,0,0,0,0,0,0,0,0,0,0,0,0,0,0,0,0,0,0,0,.01,0,0,0,0,0,0,0,0,0,0,0,0,0,0,0,0,0,0,0,0,0,0,0,0,0h0s0,0,0,0h0s0,0,0,0c0,0,0,0,0,0,0,0,0,0,.01,0h0s0,0,0,0c0,0,0,0,0,0,0,0,0,0,0,0,0,0,0,0,0,0,0,0,0,0,0,0,0,0,0,0,0,0,0,0,0,0,0,0,0,0,0,0,0,0,0,0,.01,0,.02,0,0,0,0,0,0,0,0,0,0,0,0,0,0,0,0,0,0,0,0,0,0,0,0,0,0,0,0,0,0,0,0,0,0,0,0,0,0,0,0,0,0,0,0,0,0,0,0,0,0,0,0,0,0,0,0,0,.01,0,.02,0,0,0,0,0,0,0,0,0,0,0,0,0,0,0,0,0,0,0,0,0,0,0,0,0,0,0,0,0,0,0,0,0,0,0,0,0,0,0,0,0,0,0,0,0,.01,0,.02,0,0,0,0,0,0,0,0,0,0,0,0,0,0,0,0,0,0,0,0,0,0,0,0,0,0,0,0,0,0,0,0,0,0,0,0,0,0,0,0,0,0,0,0,0,0,0,0,0,0,0,0,0,0,0,0,0,.01,0,.02,0,0,0,0,0,0,0,0,0,0,0,0,0,0,0,0,0,0,0,0,0,0,0,0,0,0,0,0,0,0,0,0,0,0,0,0,0h0s.01,0,.02.01c0,0,0,0,0,0,0,0,0,0,0,0,0,0,0,0,0,0,0,0,0,0,0,0,0,0,0,0,0,0,0,0,0,0,0,0,0,0,0,0,0,0,0,0,.02,0,.02.01,0,0,0,0,0,0,0,0,0,0,0,0h0s0,0,0,0h0s0,0,0,0c0,0,0,0,0,0,0,0,.02,0,.02.01,0,0,0,0,0,0,0,0,0,0,0,0,0,0,0,0,0,0,0,0,0,0,0,0,0,0,0,0,0,0,.01,0,.02.01.04.02,0,0,0,0,0,0,.01,0,.02.01.04.02,0,0,0,0,0,0,.77.37,1.6.63,2.47.76l.15-.99c-1.16-.17-2.29-.62-3.26-1.3h0ZM604.18,240.62h-4v1h4v-1h0ZM611.97,240.47c-.5.1-1.01.15-1.52.15h-2.27v1h2.29s0,0,0,0h0s0,0,0,0h0s0,0,0,0h0s0,0,0,0h0s0,0,0,0c0,0,0,0,0,0h0s0,0,0,0c0,0,0,0,0,0,0,0,0,0,0,0,0,0,0,0,0,0,0,0,0,0,0,0,0,0,0,0,0,0,0,0,0,0,0,0,0,0,0,0,0,0,0,0,0,0,0,0,0,0,0,0,0,0,0,0,0,0,0,0,0,0,0,0,0,0,0,0,0,0,0,0,0,0,0,0,0,0,0,0,0,0,0,0,0,0,0,0,0,0,0,0,0,0,0,0,0,0,0,0,0,0,0,0,0,0,0,0,0,0,0,0,0,0,0,0,0,0,0,0,0,0,0,0,0,0,0,0,0,0,0,0,0,0,0,0,0,0,0,0,0,0,0,0,0,0,0,0,0,0,0,0,0,0,0,0,0,0,0,0,0,0,0,0,0,0,0,0,0,0,0,0,0,0,0,0,0,0,0,0,0,0,0,0,0,0,0,0,0,0,0,0,0,0,0,0,0,0,0,0,0,0,0,0,0,0,0,0,0,0,0,0,0,0,0,0,0,0,0,0,0,0,0,0,0,0,0,0,0,0,0,0,0,0,0,0,0,0,0,0,0,0,0,0,0,0,0,0,0,0,0,0,0,0,0,0,0,0,0,0,0,0,0,0,0,0,0,0,0,0,0,0,0,0,0,0,0,0,0,0,0,0,0,0,0,0,0,0,0,0,0,0,0,0,0,0,0,0,0,0,0,0,0,0,0,0,0,0,0,0,0,0,0,0,0,0,0,0,0,0,0,0,0,0,0,0,0,0,0,0,0,0,0,0,0,0,0,0,0,0,0,0,0,0,0,0,0,0,0,0,0,0,0,0,0,0,0,0,0,0,0,0,0,0,0,0,0,0,0,0,0,0,0,0,0,0,0,0,0,0,0,0,0,0h0s0,0,0,0h0c.43-.01.85-.06,1.27-.14h0s0,0,0,0c0,0,0,0,0,0,0,0,0,0,0,0,0,0,0,0,0,0,0,0,0,0,0,0,0,0,0,0,0,0,0,0,0,0,0,0,0,0,0,0,0,0h0s0,0,0,0c0,0,0,0,0,0,0,0,0,0,0,0,0,0,0,0,0,0,0,0,0,0,0,0,0,0,0,0,0,0,0,0,0,0,0,0,0,0,0,0,0,0,0,0,0,0,0,0,0,0,0,0,0,0,0,0,0,0,0,0,0,0,0,0,0,0h0s0,0,0,0c0,0,0,0,0,0,0,0,0,0,0,0,0,0,0,0,0,0,0,0,0,0,0,0,0,0,0,0,0,0,0,0,0,0,0,0,0,0,0,0,0,0,0,0,0,0,0,0,0,0,0,0,0,0,0,0,0,0,0,0,0,0,0,0,0,0s0,0,0,0c0,0,0,0,0,0,0,0,0,0,0,0,0,0,0,0,0,0,0,0,0,0,0,0,0,0,0,0,0,0,0,0,0,0,0,0,0,0,0,0,0,0h0s0,0,.01,0l-.2-.98h0ZM617.37,236.28c-.52,1.06-1.29,2-2.22,2.72l.61.79c.36-.28.69-.58,1-.91h0s.02-.02.03-.03c0,0,0,0,0,0,0,0,0,0,0,0,0,0,0,0,0,0,0,0,.01-.01.02-.02,0,0,0,0,0,0,0,0,0,0,0,0,0,0,0,0,0,0,0,0,0,0,0,0h0s0,0,.01-.01h0s0,0,0,0c0,0,0,0,0,0,0,0,0,0,0,0,0,0,0,0,0,0,0,0,0,0,0,0,0,0,0,0,0,0,0,0,.01-.01.02-.02,0,0,0,0,0,0,0,0,0,0,0,0,0,0,0,0,0,0,0,0,0,0,0,0,0,0,0,0,0,0,0,0,.01-.01.02-.02,0,0,0,0,0,0,0,0,0,0,0,0,0,0,0,0,0,0,0,0,0,0,0,0,0,0,0,0,0,0,0,0,.01-.01.02-.02,0,0,0,0,0,0,0,0,0,0,0,0,0,0,0,0,0,0,0,0,0,0,0,0,0,0,0,0,0,0,0,0,0,0,0,0,0,0,0,0,0,0,0,0,0,0,.01-.01,0,0,0,0,0,0,0,0,0,0,0,0,0,0,0,0,0,0,0,0,0,0,0,0,0,0,0,0,0,0,0,0,0,0,0,0,0,0,0,0,0,0,0,0,0,0,.01-.01,0,0,0,0,0,0,0,0,0,0,0,0,0,0,0,0,0,0,0,0,0,0,0,0,0,0,0,0,0,0,0,0,0,0,0,0,0,0,0,0,0,0,0,0,0,0,0-.01h0s0,0,0,0c0,0,0,0,0,0,0,0,0,0,0,0,0,0,0,0,0,0,0,0,0,0,0,0,0,0,0,0,0,0,0,0,0,0,0,0h0s0,0,0,0h0s0,0,0,0c0,0,0,0,0,0h0s0,0,0,0c0,0,0,0,0,0,0,0,0,0,0,0,0,0,0,0,0,0,0,0,0,0,0,0,0,0,0,0,0-.01,0,0,0,0,0,0,0,0,0,0,0,0,0,0,0,0,0,0,0,0,0,0,0,0,0,0,0,0,0,0,0,0,0,0,0,0,0,0,0,0,0,0,0,0,0,0,0-.01,0,0,0,0,0,0,0,0,0,0,0,0,0,0,0,0,0,0,0,0,0,0,0,0,0,0,0,0,0,0,0,0,0,0,0,0,0,0,0,0,0,0,0,0,0,0,0-.01,0,0,0,0,0,0,0,0,0,0,0,0,0,0,0,0,0,0,0,0,0,0,0,0,0,0,0,0,0,0,0,0,0,0,0,0,0,0,0,0,0,0,0,0,0,0,0,0,0,0,0,0,0,0,0,0,0,0,0,0,0,0,0,0,0,0,0,0,0,0,0,0,0,0,0,0,0,0,0,0,0,0,0,0,0,0,0,0,0,0,0,0,0,0,0,0,0,0,0,0,0,0,0,0,0,0,0-.01h0s0,0,0,0c0,0,0,0,0,0,0,0,0,0,0,0,0,0,0,0,0,0,0,0,0,0,0,0,0,0,0,0,0,0,0,0,0,0,0,0,0,0,0,0,0,0,0,0,0,0,0,0,0,0,0,0,0,0,0,0,0,0,0,0,0,0,0,0,0,0,0,0,0,0,0,0,0,0,0,0,0,0,0,0,0,0,0,0,0,0,0,0,0,0,0,0,0,0,0,0,0,0,0,0,0,0,0,0,0,0,0,0h0s0,0,0,0c0,0,0,0,0,0,0,0,0,0,0,0,0,0,0,0,0,0,0,0,0,0,0,0,0,0,0,0,0,0,0,0,0,0,0,0,0,0,0,0,0,0,0,0,0,0,0-.01,0,0,0,0,0,0,0,0,0,0,0,0,0,0,0,0,0,0,0,0,0,0,0,0,0,0,0,0,0,0,0,0,0,0,0,0,0,0,0,0,0,0,0,0,0,0,0,0,0,0,0,0,0,0,0,0,0,0,0,0,0,0,0,0,0,0,0,0,0,0,0,0,0,0,0,0,0,0,0,0,0,0,0,0,0,0,0,0,0,0,0,0,0,0,0,0,0,0,0,0,0,0,0,0,0,0,0,0,0,0,0,0,0,0,0,0,0,0,0,0h0s0,0,0,0c0,0,0,0,0,0,0,0,0,0,0,0,0,0,0,0,0,0,0,0,0,0,0,0,0,0,0,0,0,0,0,0,0,0,0,0,0,0,0,0,0,0,0,0,0,0,0,0,0,0,0,0,0,0,0,0,0,0,0,0,0,0,0,0,0,0,0,0,0,0,0,0,0,0,0,0,0,0,0,0,0,0,0,0h0s0,0,0,0c0,0,0,0,0,0,0,0,0,0,0-.01,0,0,0,0,0,0,0,0,0,0,0,0,0,0,0,0,0,0,0,0,0,0,0,0,0,0,0,0,0,0,0,0,0,0,0,0,0,0,0,0,0,0,0,0,0,0,0-.01,0,0,0,0,0,0,0,0,0,0,0,0,0,0,0,0,0,0,0,0,0,0,0,0,0,0,0,0,0,0,0,0,0,0,0,0,0,0,0,0,0,0,0,0,0,0,0,0,0,0,0,0,0,0,0,0,0,0,0,0,0,0,0,0,0,0,0,0,0,0,0,0,0,0,0,0,0,0,0,0,0,0,0,0,0,0,0,0,0,0,0,0,0,0,0,0,0,0,0,0,0,0,0,0,0,0,0,0h0s0,0,0,0h0s0,0,0,0c0,0,0,0,0,0,0,0,0,0,0,0,0,0,0,0,0,0,0,0,0,0,0,0,0,0,0,0,0,0,0,0,0,0,0,0,0,0,0,0,0,0,0,0,0,0,0-.01,0,0,0,0,0,0,0,0,0,0,0,0,0,0,0,0,0,0,0,0,0,0,0,0,0,0,0,0,0,0,0,0,0,0,0,0,0,0,0,0,0,0,0,0,0,0,0-.01,0,0,0,0,0,0,0,0,0,0,0,0,0,0,0,0,0,0h0s0,0,0,0c0,0,0,0,0,0,0,0,0,0,0,0,0,0,0,0,0-.01,0,0,0,0,0,0,0,0,0,0,0,0,0,0,0,0,0,0,0,0,0,0,0,0,0,0,0,0,0,0,0,0,0,0,0,0,0,0,0,0,0,0,0,0,0,0,0-.01h0s0,0,0,0c0,0,0,0,0,0,0,0,0,0,0,0,0,0,0,0,0,0,0,0,0,0,0,0,0,0,0,0,0,0,0,0,0,0,0-.01h0s0,0,0,0c0,0,0,0,0,0,0,0,0,0,0,0,0,0,0,0,0,0,0,0,0,0,0,0h0s0,0,0,0h0s0,0,0-.01c0,0,0,0,0,0,0,0,0,0,0,0,0,0,0,0,0,0,0,0,0,0,0,0,0,0,0,0,0,0,0,0,0,0,0,0,0,0,0,0,0,0,0,0,0,0,0-.01h0s0,0,0,0c0,0,0,0,0,0,0,0,0,0,0,0,0,0,0,0,0,0,0,0,0,0,0,0h0s0,0,0-.01c0,0,0,0,0,0,0,0,0,0,0,0,0,0,0,0,0,0,0,0,0,0,0,0,0,0,0,0,0,0,0,0,0,0,0,0h0s0-.01.01-.02h0s0,0,0,0c0,0,0,0,0,0,0,0,0,0,0,0,0,0,0,0,0,0,0,0,.01-.02.02-.03h0s.01-.02.02-.03h0s0,0,0,0h0s.01-.02.02-.03h0s0,0,0,0h0s.01-.02.02-.03c0,0,0,0,0,0,0,0,.01-.02.02-.03h0s0,0,0,0h0s.01-.02.02-.03h0s.02-.03.03-.04h0s.01-.02.02-.03c0,0,0,0,0,0,.17-.26.32-.54.46-.82l-.9-.44h0ZM619.15,228.85h-1v4h1v-4h0ZM619.15,220.85h-1v4h1v-4h0ZM616.42,213.62l-.69.73c.86.81,1.53,1.83,1.94,2.93l.94-.35c-.08-.21-.17-.42-.26-.63,0,0,0,0,0,0,0-.01-.01-.02-.02-.04,0,0,0,0,0,0,0,0,0,0,0,0,0,0,0,0,0,0,0,0,0-.02-.01-.03,0,0,0,0,0,0,0,0,0,0,0,0,0,0,0,0,0,0,0,0,0,0,0,0,0,0,0,0,0,0,0,0,0-.01,0-.02,0,0,0,0,0,0,0,0,0,0,0,0,0,0,0,0,0,0,0,0,0,0,0,0,0,0,0,0,0,0,0,0,0,0,0,0,0,0,0,0,0,0,0,0,0-.01,0-.02,0,0,0,0,0,0,0,0,0,0,0,0,0,0,0,0,0,0,0,0,0,0,0,0,0,0,0,0,0,0,0,0,0,0,0,0,0,0,0,0,0,0,0,0,0,0,0,0,0,0,0,0,0,0,0,0,0-.01,0-.02,0,0,0,0,0,0,0,0,0,0,0,0,0,0,0,0,0,0,0,0,0,0,0,0,0,0,0,0,0,0,0,0,0,0,0,0,0,0,0,0,0,0,0,0,0,0,0-.01,0,0,0,0,0,0,0,0,0,0,0,0,0,0,0,0,0,0,0,0,0,0,0,0,0,0,0,0,0,0,0,0,0,0,0,0,0,0,0,0,0,0,0,0,0-.01,0-.01h0s0,0,0,0c0,0,0,0,0,0,0,0,0,0,0,0,0,0,0,0,0,0,0,0,0,0,0,0,0,0,0,0,0,0,0,0,0,0,0,0,0,0,0,0,0,0,0,0,0,0,0,0,0,0,0,0,0,0,0,0,0,0,0,0,0,0,0,0,0,0,0,0,0,0,0,0,0,0,0,0,0,0,0,0,0,0,0,0,0,0,0,0,0,0,0,0,0,0,0,0,0,0,0,0,0,0,0,0,0,0,0-.01,0,0,0,0,0,0h0s0,0,0,0h0s0,0,0,0c0,0,0,0,0,0,0,0,0,0,0,0,0,0,0,0,0-.01,0,0,0,0,0,0,0,0,0,0,0,0,0,0,0,0,0,0,0,0,0,0,0,0,0,0,0,0,0,0,0,0,0,0,0,0,0,0,0,0,0,0,0,0,0,0,0,0,0,0,0,0,0,0,0,0,0,0,0,0,0,0,0,0,0,0,0,0,0,0,0,0,0,0,0,0,0,0,0,0,0,0,0,0,0,0,0,0,0,0,0,0,0,0,0,0,0,0,0,0,0,0,0,0,0,0,0,0,0,0,0,0,0,0,0,0,0,0,0,0,0,0,0,0,0,0,0,0,0,0,0,0,0,0,0,0,0,0,0,0,0,0,0,0,0,0,0,0,0,0,0,0,0,0,0,0,0,0,0,0,0,0,0,0,0,0,0,0s0,0,0,0c0,0,0,0,0,0h0s0,0,0,0c0,0,0,0,0,0s0,0,0,0c0,0,0,0,0,0,0,0,0,0,0,0,0,0,0,0,0,0,0,0,0,0,0,0,0,0,0,0,0,0,0,0,0,0,0,0s0,0,0,0c0,0,0,0,0,0,0,0,0,0,0,0,0,0,0,0,0,0,0,0,0,0,0,0,0,0,0,0,0,0,0,0,0,0,0,0,0,0,0,0,0,0,0,0,0,0,0,0,0,0,0,0,0,0,0,0,0,0,0,0,0,0,0,0,0,0,0,0,0,0,0,0,0,0,0,0,0,0,0,0,0,0,0,0,0,0,0,0,0,0,0,0,0,0,0,0,0,0,0,0,0,0,0,0,0,0,0,0,0,0,0,0,0,0,0,0,0,0,0,0,0,0,0,0,0,0,0,0,0,0,0,0,0,0,0,0,0,0,0,0,0,0,0,0,0,0,0,0,0,0,0,0,0,0,0,0,0,0,0,0,0,0,0,0,0,0,0,0,0,0,0,0,0,0,0,0,0,0,0,0,0,0,0,0,0,0,0,0,0,0,0,0,0,0,0,0,0,0,0,0,0,0,0,0,0,0,0,0,0,0,0,0,0,0,0,0,0,0,0,0,0,0,0,0,0,0,0,0,0,0,0,0,0,0,0,0,0,0,0,0,0,0,0,0,0,0,0,0,0,0,0,0,0,0,0,0,0,0,0,0,0,0,0,0,0,0,0,0,0,0,0,0,0,0,0,0,0,0,0,0,0,0,0,0,0,0,0,0,0,0,0,0,0,0,0,0,0,0,0,0,0,0,0,0,0,0,0,0,0,0,0,0,0,0,0,0,0,0,0,0,0,0,0,0,0,0,0,0,0,0,0,0,0,0,0,0,0,0,0,0,0,0,0,0,0,0,0,0,0,0,0,0,0,0,0,0,0,0,0,0,0,0,0,0,0,0,0,0,0,0,0,0,0,0,0,0,0-.01,0,0,0,0,0,0,0,0,0,0,0,0,0,0,0,0,0,0,0,0,0,0,0,0,0,0,0,0,0,0,0,0,0,0,0,0,0,0,0,0,0,0,0,0,0-.01,0-.01,0,0,0,0,0,0,0,0,0,0,0,0,0,0,0,0,0,0,0,0,0,0,0,0,0,0,0,0,0,0,0,0,0,0,0,0,0,0,0,0,0,0,0,0,0,0,0,0,0,0,0,0,0,0,0,0,0,0,0,0,0,0,0,0,0,0,0,0,0,0,0,0,0,0,0,0,0,0,0,0,0,0,0,0,0,0,0,0,0,0,0,0,0,0,0,0,0,0,0,0,0,0,0,0,0,0,0,0,0,0,0,0,0,0,0,0,0-.01,0-.02,0,0,0,0,0,0,0,0,0,0,0,0,0,0,0,0,0,0,0,0,0,0,0,0,0,0,0,0,0,0,0,0,0,0,0,0,0,0,0,0,0,0,0,0,0-.01,0-.02,0,0,0,0,0,0,0,0,0,0,0,0,0,0,0,0,0,0,0,0,0,0,0,0,0,0,0,0,0,0,0,0,0,0,0,0,0,0,0,0,0,0,0,0,0-.01-.01-.02,0,0,0,0,0,0,0,0,0,0,0,0,0,0,0,0,0,0,0,0,0,0,0,0,0,0,0,0,0,0,0,0-.01-.02-.02-.03,0,0,0,0,0,0,0,0,0,0,0,0,0,0,0,0,0,0,0,0-.01-.02-.02-.03h0s0,0,0,0h0s-.01-.02-.02-.03h0c-.39-.61-.85-1.17-1.37-1.66h0ZM610.45,211.23v1c.77,0,1.52.11,2.25.34l.29-.96c-.1-.03-.2-.06-.29-.09h0s0,0-.01,0h0s-.05-.01-.08-.02h0s-.02,0-.03,0c0,0,0,0,0,0,0,0-.01,0-.02,0,0,0,0,0,0,0,0,0-.01,0-.02,0h0s-.01,0-.02,0c0,0,0,0,0,0,0,0-.01,0-.02,0h0s0,0-.01,0h0s0,0,0,0h0s0,0-.01,0c0,0,0,0,0,0,0,0,0,0,0,0,0,0,0,0,0,0h-.01s0,0,0,0c0,0,0,0,0,0h0s0,0-.01,0h0s-.01,0-.02,0h0s0,0-.01,0c0,0,0,0,0,0,0,0,0,0,0,0h0s0,0-.01,0c0,0,0,0,0,0,0,0,0,0,0,0,0,0,0,0,0,0,0,0,0,0-.01,0h0s0,0,0,0c0,0,0,0,0,0,0,0,0,0-.01,0,0,0,0,0,0,0,0,0,0,0,0,0h0s0,0-.01,0h0s0,0-.01,0h0s0,0,0,0c0,0,0,0,0,0,0,0,0,0-.01,0h0s0,0,0,0h0s0,0-.01,0c0,0,0,0,0,0,0,0,0,0,0,0,0,0,0,0,0,0,0,0,0,0-.01,0,0,0,0,0,0,0,0,0,0,0,0,0,0,0,0,0,0,0h-.01s0,0,0,0c0,0,0,0,0,0,0,0,0,0,0,0,0,0,0,0,0,0h0s0,0,0,0c0,0,0,0,0,0,0,0,0,0-.01,0,0,0,0,0,0,0,0,0,0,0,0,0,0,0,0,0,0,0,0,0,0,0-.01,0,0,0,0,0,0,0,0,0,0,0,0,0,0,0,0,0,0,0,0,0,0,0-.01,0,0,0,0,0,0,0,0,0,0,0,0,0,0,0,0,0,0,0,0,0,0,0-.01,0,0,0,0,0,0,0h0s0,0,0,0c0,0,0,0,0,0,0,0,0,0,0,0h0s0,0,0,0h0s0,0,0,0c0,0,0,0,0,0,0,0,0,0,0,0,0,0,0,0,0,0,0,0,0,0,0,0h0s0,0,0,0c0,0,0,0,0,0,0,0,0,0,0,0,0,0,0,0,0,0,0,0,0,0,0,0h0s0,0,0,0c0,0,0,0,0,0h0s0,0,0,0c0,0,0,0,0,0,0,0,0,0,0,0,0,0,0,0,0,0,0,0,0,0,0,0,0,0,0,0,0,0,0,0,0,0,0,0,0,0,0,0,0,0,0,0,0,0,0,0h0s0,0,0,0c0,0,0,0,0,0,0,0,0,0,0,0,0,0,0,0,0,0,0,0,0,0,0,0,0,0,0,0,0,0,0,0,0,0,0,0,0,0,0,0,0,0,0,0,0,0,0,0,0,0,0,0,0,0,0,0,0,0,0,0,0,0,0,0,0,0,0,0,0,0,0,0,0,0,0,0,0,0,0,0,0,0,0,0h0s0,0,0,0h0s0,0,0,0c0,0,0,0,0,0,0,0,0,0,0,0,0,0,0,0,0,0h0s0,0,0,0c0,0,0,0,0,0,0,0,0,0,0,0,0,0,0,0,0,0h0s0,0,0,0c0,0,0,0,0,0,0,0,0,0,0,0,0,0,0,0,0,0s0,0,0,0c0,0,0,0,0,0,0,0,0,0,0,0h0s0,0,0,0c0,0,0,0,0,0,0,0,0,0,0,0,0,0,0,0,0,0,0,0,0,0,0,0,0,0,0,0,0,0,0,0,0,0,0,0,0,0,0,0,0,0,0,0,0,0,0,0,0,0,0,0,0,0,0,0,0,0,0,0,0,0,0,0,0,0,0,0,0,0,0,0,0,0,0,0,0,0s0,0,0,0c0,0,0,0,0,0,0,0,0,0,0,0,0,0,0,0,0,0,0,0,0,0,0,0,0,0,0,0,0,0,0,0,0,0,0,0,0,0,0,0,0,0,0,0,0,0,0,0,0,0,0,0,0,0,0,0,0,0,0,0,0,0,0,0,0,0,0,0,0,0,0,0,0,0,0,0,0,0,0,0,0,0,0,0,0,0,0,0,0,0,0,0,0,0,0,0,0,0,0,0,0,0,0,0,0,0,0,0,0,0,0,0,0,0,0,0,0,0,0,0h0s0,0,0,0c0,0,0,0,0,0,0,0,0,0,0,0,0,0,0,0,0,0,0,0,0,0,0,0,0,0,0,0,0,0,0,0,0,0,0,0,0,0,0,0,0,0,0,0,0,0,0,0,0,0,0,0,0,0,0,0,0,0,0,0,0,0,0,0,0,0,0,0,0,0,0,0,0,0,0,0,0,0,0,0,0,0,0,0,0,0,0,0,0,0,0,0,0,0,0,0,0,0,0,0,0,0,0,0,0,0,0,0,0,0,0,0,0,0,0,0,0,0,0,0,0,0,0,0,0,0,0,0,0,0,0,0,0,0,0,0,0,0,0,0,0,0,0,0,0,0,0,0,0,0,0,0,0,0,0,0,0,0,0,0,0,0,0,0,0,0,0,0,0,0,0,0,0,0,0,0,0,0,0,0,0,0,0,0,0,0,0,0,0,0,0,0,0,0,0,0,0,0,0,0,0,0,0,0,0,0,0,0,0,0h0s0,0,0,0c0,0,0,0,0,0,0,0,0,0,0,0,0,0,0,0,0,0,0,0,0,0,0,0,0,0,0,0,0,0,0,0,0,0,0,0,0,0,0,0,0,0,0,0,0,0,0,0,0,0,0,0,0,0,0,0,0,0,0,0,0,0,0,0,0,0,0,0,0,0,0,0,0,0,0,0,0,0,0,0,0,0,0,0,0,0,0,0,0,0,0,0,0,0,0,0,0,0,0,0,0,0,0,0,0,0,0,0,0,0,0,0,0,0,0,0,0,0,0,0,0,0,0,0,0,0,0,0,0,0,0,0,0,0,0,0,0,0,0,0,0,0,0,0,0,0,0,0,0,0,0,0,0,0,0,0,0,0,0,0,0,0,0,0,0,0,0,0,0,0,0,0,0,0,0,0,0,0,0,0,0,0,0,0,0,0,0,0,0,0,0,0,0,0,0,0,0,0,0,0,0,0,0,0,0,0,0,0,0,0,0,0,0,0,0,0,0,0,0,0,0,0,0,0,0,0,0,0,0,0,0,0,0,0,0,0,0,0,0,0,0,0,0,0,0,0,0,0,0,0,0,0,0,0,0,0,0,0,0,0,0,0,0,0,0,0,0,0,0,0,0,0,0,0,0,0,0,0,0,0,0,0,0,0,0,0,0,0,0,0,0,0,0,0,0,0,0,0,0,0h0s0,0,0,0c0,0,0,0,0,0,0,0,0,0,0,0,0,0,0,0,0,0,0,0,0,0,0,0,0,0,0,0,0,0,0,0,0,0,0,0,0,0,0,0,0,0,0,0,0,0,0,0,0,0,0,0,0,0,0,0,0,0,0,0,0,0,0,0,0,0,0,0,0,0,0,0,0,0,0,0,0,0,0,0,0,0,0,0,0,0,0,0,0,0,0,0,0,0,0,0,0,0,0,0,0,0,0,0,0,0,0,0,0,0,0,0,0,0,0,0,0,0,0,0,0,0,0,0,0,0,0,0,0,0,0,0,0,0,0,0,0,0h0s0,0,0,0c0,0,0,0,0,0,0,0,0,0,0,0,0,0,0,0,0,0,0,0,0,0,0,0,0,0,0,0,0,0,0,0,0,0,0,0,0,0,0,0,0,0,0,0,0,0,0,0,0,0,0,0,0,0,0,0,0,0,0,0,0,0,0,0,0,0,0,0,0,0,0,0,0,0,0,0,0,0,0,0,0,0,0,0,0,0,0,0,0,0,0,0,0,0,0,0,0,0,0,0,0,0,0,0,0,0,0,0,0,0,0,0,0,0,0,0,0,0,0,0,0,0,0,0,0,0,0,0,0,0,0,0,0,0,0,0,0,0,0,0,0,0,0,0,0,0,0,0,0,0,0,0,0,0,0,0,0,0,0,0,0,0h0s0,0,0,0c0,0,0,0,0,0,0,0,0,0,0,0,0,0,0,0,0,0,0,0,0,0,0,0h0s0,0,0,0c0,0,0,0,0,0,0,0,0,0,0,0,0,0,0,0,0,0,0,0,0,0,0,0,0,0,0,0,0,0,0,0,0,0,0,0,0,0,0,0,0,0,0,0,0,0,0,0,0,0,0,0,0,0,0,0,0,0,0,0,0,0,0,0,0,0,0,0,0,0,0,0,0,0,0,0,0,0,0,0,0,0,0,0,0,0,0,0,0,0,0,0,0,0,0,0,0,0,0,0,0,0,0,0,0,0,0,0,0,0,0,0,0,0,0,0,0,0,0,0h0s0,0,0,0c0,0,0,0,0,0,0,0,0,0,0,0,0,0,0,0,0,0,0,0,0,0,0,0,0,0,0,0,0,0,0,0,0,0,0,0,0,0,0,0,0,0,0,0,0,0,0,0,0,0,0,0,0,0,0,0,0,0,0,0,0,0,0,0,0,0,0,0,0,0,0,0,0,0,0,0,0,0,0,0,0,0,0,0,0,0,0,0,0,0,0,0,0,0,0,0,0,0,0,0,0,0,0,0,0,0,0,0,0,0,0,0,0,0,0,0,0,0,0,0,0,0,0,0,0,0,0,0,0,0,0,0,0,0,0,0,0,0,0,0,0,0,0,0,0,0,0,0,0,0,0,0,0,0,0,0h0s0,0,0,0c0,0,0,0,0,0,0,0,0,0,0,0,0,0,0,0,0,0,0,0,0,0,0,0,0,0,0,0,0,0,0,0,0,0,0,0,0,0,0,0,0,0,0,0,0,0,0,0,0,0,0,0,0,0,0,0,0,0,0,0,0,0,0,0,0,0,0,0,0,0,0,0,0,0,0,0,0,0,0,0,0,0,0,0,0,0,0,0,0,0,0,0,0,0-.01,0,0,0,0,0,0,0,0,0,0,0,0,0h0s0,0,0,0c0,0,0,0,0,0,0,0,0,0,0,0,0,0,0,0,0,0,0,0,0,0,0,0h0s0,0,0,0c0,0,0,0,0,0,0,0,0,0,0,0,0,0,0,0,0,0,0,0,0,0,0,0,0,0,0,0,0,0,0,0,0,0,0,0,0,0,0,0,0,0,0,0,0,0,0,0,0,0,0,0,0,0,0,0,0,0,0,0,0,0,0,0,0,0,0,0,0,0,0,0h0s0,0,0,0c0,0,0,0,0,0,0,0,0,0-.01,0,0,0,0,0,0,0,0,0,0,0,0,0,0,0,0,0,0,0,0,0,0,0-.01,0,0,0,0,0,0,0,0,0,0,0,0,0,0,0,0,0,0,0,0,0,0,0,0,0,0,0,0,0,0,0,0,0,0,0,0,0,0,0,0,0,0,0,0,0,0,0,0,0,0,0,0,0,0,0,0,0,0,0,0,0,0,0,0,0,0,0,0,0,0,0,0,0,0,0,0,0,0,0,0,0,0,0,0,0,0,0,0,0,0,0,0,0,0,0,0,0,0,0,0,0,0,0,0,0,0,0,0,0,0,0,0,0,0,0,0,0,0,0,0,0,0,0,0,0,0,0,0,0,0,0,0,0,0,0,0,0,0,0,0,0,0,0,0,0,0,0,0,0,0,0h0s0,0,0,0c0,0,0,0,0,0,0,0,0,0,0,0,0,0,0,0,0,0,0,0,0,0-.01,0,0,0,0,0,0,0,0,0,0,0,0,0,0,0,0,0,0,0,0,0,0,0,0,0h0s0,0,0,0c0,0,0,0,0,0,0,0,0,0,0,0,0,0,0,0,0,0,0,0,0,0,0,0,0,0,0,0,0,0,0,0,0,0,0,0,0,0,0,0,0,0,0,0,0,0,0,0,0,0,0,0,0,0,0,0,0,0,0,0,0,0,0,0,0,0,0,0,0,0,0,0,0,0,0,0,0,0,0,0,0,0,0,0,0,0,0,0,0,0,0,0,0,0,0,0,0,0,0,0,0,0,0,0,0,0,0,0,0,0,0,0,0,0,0,0,0,0,0,0h0s0,0,0,0c0,0,0,0,0,0,0,0,0,0,0,0,0,0,0,0,0,0,0,0,0,0-.01,0,0,0,0,0,0,0,0,0,0,0,0,0,0,0,0,0,0,0,0,0,0,0,0,0h0s0,0,0,0c0,0,0,0,0,0,0,0,0,0,0,0,0,0,0,0,0,0,0,0,0,0,0,0,0,0,0,0,0,0,0,0,0,0,0,0,0,0,0,0,0,0,0,0,0,0,0,0,0,0,0,0,0,0,0,0,0,0,0,0h0s0,0,0,0c0,0,0,0,0,0,0,0,0,0,0,0h0s0,0,0,0c0,0,0,0,0,0,0,0,0,0,0,0,0,0,0,0,0,0,0,0,0,0,0,0h0s0,0,0,0c0,0,0,0,0,0h0s0,0-.01,0c0,0,0,0,0,0,0,0,0,0,0,0h0s0,0,0,0h0s0,0,0,0c0,0,0,0,0,0,0,0,0,0,0,0,0,0,0,0,0,0,0,0,0,0,0,0h0s0,0,0,0c0,0,0,0,0,0,0,0,0,0,0,0h0s0,0,0,0h0s0,0,0,0c0,0,0,0,0,0h0s0,0,0,0h0s0,0,0,0h0s0,0,0,0h0s0,0,0,0h-.01Z"/>
            </g>
            <polygon points="603.96 226.43 603.96 226.43 603.96 226.43 603.96 226.43 603.96 226.43 603.96 226.43 603.96 226.43 603.96 226.43 603.96 226.43 603.96 226.43 603.96 226.43 603.96 226.43 603.96 226.43 603.96 226.43 603.96 226.43 603.96 226.43 603.96 226.43 603.96 226.43 603.96 226.43 603.96 226.43 603.96 226.43 603.96 226.43 603.96 226.43 603.96 226.43 603.96 226.43 603.96 226.43 603.96 226.43 603.96 226.43 603.96 226.43 603.96 226.43 603.96 226.43 603.96 226.43 603.96 226.43 603.96 226.43 603.96 226.43 603.96 226.43 603.96 226.43 603.96 226.43 603.96 226.43 603.96 226.43 603.96 226.43 603.96 226.43 603.96 226.43 603.96 226.43 603.96 226.43 603.96 226.43 603.96 226.43 603.96 226.43 603.96 226.43 603.96 226.43 603.96 226.43 603.96 226.43 603.96 226.43 603.96 226.43 603.96 226.43 603.96 226.43 603.96 226.43 603.96 226.43 603.96 226.43 603.96 226.43 603.96 226.43 603.96 226.43 603.96 226.43 603.96 226.43 603.96 226.43 603.96 226.43 603.96 226.43 603.96 226.43 603.96 226.43 603.96 226.43 603.96 226.43 603.96 226.43 603.96 226.43 603.96 226.43 603.96 226.43 603.96 226.43 603.96 226.43 603.96 226.43 603.96 226.43 603.96 226.43 603.96 226.43 603.96 226.43 603.96 226.43 603.96 226.43 603.96 226.43 603.96 226.43 603.96 226.43 603.96 226.43 603.96 226.43 603.96 226.43 603.96 226.43 603.96 226.43 603.96 226.43 603.96 226.43 603.96 226.43 603.96 226.43 603.96 226.43 603.96 226.43" fill="none" opacity="0" stroke="#000" stroke-miterlimit="10"/>
          </g>
          <g clip-path="url(#clippath-17)">
            <g isolation="isolate">
              <g clip-path="url(#clippath-18)">
                <g clip-path="url(#clippath-19)">
                  <path d="M605.55,228.81c.37-.89.37-.96.68-1.79.25-.62.4-1.05.4-1.63,0-1.39-.99-2.53-2.53-2.53-2.9,0-4.07,4.47-4.07,4.75,0,.31.31.31.37.31.31,0,.34-.06.49-.55.83-2.9,2.07-3.82,3.11-3.82.25,0,.77,0,.77.99,0,.65-.21,1.29-.34,1.6-.25.8-1.63,4.38-2.13,5.7-.31.8-.71,1.82-.71,2.47,0,1.45,1.05,2.53,2.53,2.53,2.9,0,4.04-4.47,4.04-4.75,0-.31-.28-.31-.37-.31-.31,0-.31.09-.46.55-.55,1.94-1.57,3.82-3.14,3.82-.52,0-.74-.31-.74-1.02,0-.77.18-1.2.89-3.08l1.2-3.24M607.9,217.22c0-.62-.43-1.11-1.14-1.11-.83,0-1.66.8-1.66,1.63,0,.59.43,1.11,1.17,1.11s1.63-.71,1.63-1.63Z"/>
                </g>
              </g>
            </g>
          </g>
        </g>
        <g>
          <g>
            <g>
              <path d="M581.75,181.64c-8,0-14.5-6.5-14.5-14.5s6.5-14.5,14.5-14.5,14.5,6.5,14.5,14.5-6.5,14.5-14.5,14.5Z" fill="#e89a99"/>
              <path d="M581.75,153.14c7.72,0,14,6.28,14,14s-6.28,14-14,14-14-6.28-14-14,6.28-14,14-14M581.75,152.14c-8.28,0-15,6.72-15,15s6.72,15,15,15,15-6.72,15-15-6.72-15-15-15h0Z"/>
            </g>
            <polygon points="581.75 167.14 581.75 167.14 581.75 167.14 581.75 167.14 581.75 167.14 581.75 167.14 581.75 167.14 581.75 167.14 581.75 167.14 581.75 167.14 581.75 167.14 581.75 167.14 581.75 167.14 581.75 167.14 581.75 167.14 581.75 167.14 581.75 167.14 581.75 167.14 581.75 167.14 581.75 167.14 581.75 167.14 581.75 167.14 581.75 167.14 581.75 167.14 581.75 167.14 581.75 167.14 581.75 167.14 581.75 167.14 581.75 167.14 581.75 167.14 581.75 167.14 581.75 167.14 581.75 167.14 581.75 167.14 581.75 167.14 581.75 167.14 581.75 167.14 581.75 167.14 581.75 167.14 581.75 167.14 581.75 167.14 581.75 167.14 581.75 167.14 581.75 167.14 581.75 167.14 581.75 167.14 581.75 167.14 581.75 167.14 581.75 167.14 581.75 167.14 581.75 167.14 581.75 167.14 581.75 167.14 581.75 167.14 581.75 167.14 581.75 167.14 581.75 167.14 581.75 167.14 581.75 167.14 581.75 167.14 581.75 167.14 581.75 167.14 581.75 167.14 581.75 167.14 581.75 167.14 581.75 167.14 581.75 167.14 581.75 167.14 581.75 167.14 581.75 167.14 581.75 167.14 581.75 167.14 581.75 167.14 581.75 167.14 581.75 167.14 581.75 167.14 581.75 167.14 581.75 167.14 581.75 167.14 581.75 167.14 581.75 167.14 581.75 167.14 581.75 167.14 581.75 167.14 581.75 167.14 581.75 167.14 581.75 167.14 581.75 167.14 581.75 167.14 581.75 167.14 581.75 167.14 581.75 167.14 581.75 167.14 581.75 167.14 581.75 167.14 581.75 167.14 581.75 167.14 581.75 167.14 581.75 167.14" fill="none" opacity="0" stroke="#000" stroke-miterlimit="10"/>
          </g>
          <g clip-path="url(#clippath-21)">
            <g isolation="isolate">
              <g clip-path="url(#clippath-22)">
                <g clip-path="url(#clippath-23)">
                  <path d="M573.88,172.91s0-.06-.2-.26c-1.47-1.48-1.84-3.7-1.84-5.49,0-2.04.45-4.08,1.89-5.55.15-.14.15-.16.15-.2,0-.08-.05-.12-.12-.12-.12,0-1.17.8-1.87,2.29-.6,1.29-.74,2.59-.74,3.58,0,.92.13,2.34.77,3.66.7,1.44,1.71,2.21,1.83,2.21.07,0,.12-.04.12-.12"/>
                  <path d="M582.32,167.39c.2,0,.41,0,.41-.23s-.21-.23-.41-.23h-6.35c-.2,0-.41,0-.41.23s.21.23.41.23h6.35"/>
                  <path d="M587.08,167.15c0-.92-.13-2.34-.77-3.66-.7-1.44-1.71-2.21-1.83-2.21-.07,0-.12.05-.12.12,0,.04,0,.06.22.27,1.15,1.16,1.82,3.03,1.82,5.48,0,2.01-.43,4.07-1.89,5.55-.15.14-.15.16-.15.2,0,.07.05.12.12.12.12,0,1.17-.8,1.87-2.29.6-1.29.74-2.59.74-3.58"/>
                  <path d="M592.43,169.77c0-.99-.8-1.77-1.77-1.77s-1.77.8-1.77,1.76.8,1.77,1.77,1.77,1.77-.8,1.77-1.76"/>
                </g>
              </g>
            </g>
          </g>
        </g>
        <polygon points="603.84 191.85 603.84 191.85 603.84 191.85 603.84 191.85 603.84 191.85 603.84 191.85 603.84 191.85 603.84 191.85 603.84 191.85 603.84 191.85 603.84 191.85 603.84 191.85 603.84 191.85 603.84 191.85 603.84 191.85 603.84 191.85 603.84 191.85 603.84 191.85 603.84 191.85 603.84 191.85 603.84 191.85 603.84 191.85 603.84 191.85 603.84 191.85 603.84 191.85 603.84 191.85 603.84 191.85 603.84 191.85 603.84 191.85 603.84 191.85 603.84 191.85 603.84 191.85 603.84 191.85 603.84 191.85 603.84 191.85 603.84 191.85 603.84 191.85 603.84 191.85 603.84 191.85 603.84 191.85 603.84 191.85 603.84 191.85 603.84 191.85 603.84 191.85 603.84 191.85 603.84 191.85 603.84 191.85 603.84 191.85 603.84 191.85 603.84 191.85 603.84 191.85 603.84 191.85 603.84 191.85 603.84 191.85 603.84 191.85 603.84 191.85 603.84 191.85 603.84 191.85 603.84 191.85 603.84 191.85 603.84 191.85 603.84 191.85 603.84 191.85 603.84 191.85 603.84 191.85 603.84 191.85 603.84 191.85 603.84 191.85 603.84 191.85 603.84 191.85 603.84 191.85 603.84 191.85 603.84 191.85 603.84 191.85 603.84 191.85 603.84 191.85 603.84 191.85 603.84 191.85 603.84 191.85 603.84 191.85 603.84 191.85 603.84 191.85 603.84 191.85 603.84 191.85 603.84 191.85 603.84 191.85 603.84 191.85 603.84 191.85 603.84 191.85 603.84 191.85 603.84 191.85 603.84 191.85 603.84 191.85 603.84 191.85 603.84 191.85 603.84 191.85 603.84 191.85 603.84 191.85 603.84 191.85" fill="none" opacity="0" stroke="#000" stroke-miterlimit="10"/>
      </g>
      <g>
        <g>
          <g>
            <path d="M581.75,125.76c-8,0-14.5-6.5-14.5-14.5s6.5-14.5,14.5-14.5,14.5,6.5,14.5,14.5-6.5,14.5-14.5,14.5Z" fill="#e89a99"/>
            <path d="M581.75,97.26c7.72,0,14,6.28,14,14s-6.28,14-14,14-14-6.28-14-14,6.28-14,14-14M581.75,96.26c-8.28,0-15,6.72-15,15s6.72,15,15,15,15-6.72,15-15-6.72-15-15-15h0Z"/>
          </g>
          <polygon points="581.75 111.26 581.75 111.26 581.75 111.26 581.75 111.26 581.75 111.26 581.75 111.26 581.75 111.26 581.75 111.26 581.75 111.26 581.75 111.26 581.75 111.26 581.75 111.26 581.75 111.26 581.75 111.26 581.75 111.26 581.75 111.26 581.75 111.26 581.75 111.26 581.75 111.26 581.75 111.26 581.75 111.26 581.75 111.26 581.75 111.26 581.75 111.26 581.75 111.26 581.75 111.26 581.75 111.26 581.75 111.26 581.75 111.26 581.75 111.26 581.75 111.26 581.75 111.26 581.75 111.26 581.75 111.26 581.75 111.26 581.75 111.26 581.75 111.26 581.75 111.26 581.75 111.26 581.75 111.26 581.75 111.26 581.75 111.26 581.75 111.26 581.75 111.26 581.75 111.26 581.75 111.26 581.75 111.26 581.75 111.26 581.75 111.26 581.75 111.26 581.75 111.26 581.75 111.26 581.75 111.26 581.75 111.26 581.75 111.26 581.75 111.26 581.75 111.26 581.75 111.26 581.75 111.26 581.75 111.26 581.75 111.26 581.75 111.26 581.75 111.26 581.75 111.26 581.75 111.26 581.75 111.26 581.75 111.26 581.75 111.26 581.75 111.26 581.75 111.26 581.75 111.26 581.75 111.26 581.75 111.26 581.75 111.26 581.75 111.26 581.75 111.26 581.75 111.26 581.75 111.26 581.75 111.26 581.75 111.26 581.75 111.26 581.75 111.26 581.75 111.26 581.75 111.26 581.75 111.26 581.75 111.26 581.75 111.26 581.75 111.26 581.75 111.26 581.75 111.26 581.75 111.26 581.75 111.26 581.75 111.26 581.75 111.26 581.75 111.26 581.75 111.26 581.75 111.26 581.75 111.26 581.75 111.26" fill="none" opacity="0" stroke="#000" stroke-miterlimit="10"/>
        </g>
        <g clip-path="url(#clippath-25)">
          <g isolation="isolate">
            <g clip-path="url(#clippath-26)">
              <g clip-path="url(#clippath-27)">
                <path d="M583.26,112.57c1.11,2.84,2.41,6.99,2.84,7.61.43.6.7.6,1.44.6h.6c.27-.03.3-.19.3-.27s-.05-.14-.14-.24c-.27-.3-.43-.7-.62-1.25l-5.53-15.41c-.57-1.57-2.03-1.92-3.3-1.92-.14,0-.49,0-.49.3,0,.22.22.27.24.27.89.16,1.08.32,1.76,2.17l2.63,7.37-7.48,7.42c-.32.32-.49.49-.49.84,0,.46.38.79.81.79s.68-.3.89-.57l6.53-7.69"/>
              </g>
            </g>
          </g>
        </g>
      </g>
      <g>
        <rect x="590.64" y="103.99" width="15.21" height="15.21" rx="2" ry="2" fill="#c8daf9" stroke="#000" stroke-dasharray="1" stroke-miterlimit="10"/>
        <g clip-path="url(#clippath-28)">
          <g isolation="isolate">
            <g clip-path="url(#clippath-29)">
              <g clip-path="url(#clippath-30)">
                <path d="M599,112.72c.18-.43.18-.45.32-.85.12-.29.19-.5.19-.78,0-.66-.47-1.2-1.2-1.2-1.38,0-1.93,2.13-1.93,2.26,0,.15.15.15.18.15.15,0,.16-.03.23-.26.4-1.38.98-1.82,1.48-1.82.12,0,.37,0,.37.47,0,.31-.1.62-.16.76-.12.38-.78,2.08-1.01,2.71-.15.38-.34.86-.34,1.17,0,.69.5,1.2,1.2,1.2,1.38,0,1.92-2.12,1.92-2.26,0-.15-.13-.15-.18-.15-.15,0-.15.04-.22.26-.26.92-.75,1.82-1.49,1.82-.25,0-.35-.15-.35-.48,0-.37.09-.57.42-1.47l.57-1.54M600.12,107.21c0-.29-.21-.53-.54-.53-.4,0-.79.38-.79.78,0,.28.21.53.56.53s.78-.34.78-.78Z"/>
              </g>
            </g>
          </g>
        </g>
      </g>
    </g>
    <g>
      <rect x="154.82" y="18.89" width="121.11" height="233.34" rx="11" ry="11" fill="#fcf5d6"/>
      <path d="M264.93,19.89c5.51,0,10,4.49,10,10v211.34c0,5.51-4.49,10-10,10h-99.11c-5.51,0-10-4.49-10-10V29.89c0-5.51,4.49-10,10-10h99.11M264.93,17.89h-99.11c-6.6,0-12,5.4-12,12v211.34c0,6.6,5.4,12,12,12h99.11c6.6,0,12-5.4,12-12V29.89c0-6.6-5.4-12-12-12h0Z"/>
    </g>
    <g>
      <g>
        <g>
          <rect x="78.37" y="73.24" width="41.4" height="41.4" rx="11" ry="11" fill="#c8daf9"/>
          <path d="M108.77,74.24c5.51,0,10,4.49,10,10v19.4c0,5.51-4.49,10-10,10h-19.4c-5.51,0-10-4.49-10-10v-19.4c0-5.51,4.49-10,10-10h19.4M108.77,72.24h-19.4c-6.6,0-12,5.4-12,12v19.4c0,6.6,5.4,12,12,12h19.4c6.6,0,12-5.4,12-12v-19.4c0-6.6-5.4-12-12-12h0Z"/>
        </g>
        <path d="M100.82,91.24c.19-.81.91-3.68,3.09-3.68.16,0,.91,0,1.56.41-.87.16-1.5.94-1.5,1.69,0,.5.34,1.09,1.19,1.09.69,0,1.69-.56,1.69-1.81,0-1.62-1.84-2.06-2.9-2.06-1.81,0-2.9,1.65-3.28,2.37-.78-2.06-2.47-2.37-3.37-2.37-3.25,0-5.03,4.03-5.03,4.81,0,.31.31.31.38.31.25,0,.34-.06.41-.34,1.06-3.31,3.12-4.09,4.18-4.09.59,0,1.69.28,1.69,2.09,0,.97-.53,3.06-1.69,7.43-.5,1.94-1.59,3.25-2.97,3.25-.19,0-.91,0-1.56-.41.78-.16,1.47-.81,1.47-1.68s-.69-1.09-1.16-1.09c-.94,0-1.72.81-1.72,1.81,0,1.44,1.56,2.06,2.94,2.06,2.06,0,3.18-2.19,3.28-2.37.37,1.16,1.5,2.37,3.37,2.37,3.22,0,5-4.03,5-4.81,0-.31-.28-.31-.38-.31-.28,0-.34.13-.41.34-1.03,3.34-3.15,4.09-4.15,4.09-1.22,0-1.72-1-1.72-2.06,0-.69.19-1.37.53-2.75l1.06-4.28"/>
      </g>
      <g>
        <g>
          <g>
            <rect x="184.15" y="81.5" width="24.87" height="24.87" transform="translate(-8.85 166.52) rotate(-45)" fill="#fed968"/>
            <path d="M196.58,77.77l16.17,16.17-16.17,16.17-16.17-16.17,16.17-16.17M196.58,74.94l-19,19,19,19,19-19-19-19h0Z"/>
          </g>
          <path d="M191.02,99.96l4.27-6.2-3.98-5.84h2.52l2.25,3.52c.1.16.2.34.3.54.09.2.17.35.23.47.04-.12.11-.27.21-.47.09-.2.19-.38.3-.54l2.25-3.52h2.52l-3.98,5.87,4.25,6.17h-2.54l-2.45-3.77c-.1-.18-.2-.37-.3-.58-.09-.21-.18-.38-.25-.51-.06.13-.14.3-.25.51-.11.21-.22.41-.34.58l-2.45,3.77h-2.54Z"/>
        </g>
        <g>
          <line x1="178.48" y1="93.94" x2="127.11" y2="93.94" fill="none" stroke="#000" stroke-miterlimit="10" stroke-width="2"/>
          <path d="M121.07,93.94c2.84-1.05,6.36-2.85,8.55-4.76l-1.72,4.76,1.72,4.75c-2.18-1.9-5.71-3.7-8.55-4.75Z"/>
        </g>
      </g>
    </g>
    <g>
      <g>
        <g>
          <rect x="78.37" y="130.98" width="41.4" height="41.4" rx="11" ry="11" fill="#c8daf9"/>
          <path d="M108.77,131.98c5.51,0,10,4.49,10,10v19.4c0,5.51-4.49,10-10,10h-19.4c-5.51,0-10-4.49-10-10v-19.4c0-5.51,4.49-10,10-10h19.4M108.77,129.98h-19.4c-6.6,0-12,5.4-12,12v19.4c0,6.6,5.4,12,12,12h19.4c6.6,0,12-5.4,12-12v-19.4c0-6.6-5.4-12-12-12h0Z"/>
        </g>
        <path d="M106.14,145.48c.13-.44.13-.5.13-.72,0-.56-.44-.84-.91-.84-.31,0-.81.19-1.09.65-.06.16-.31,1.12-.44,1.69-.22.81-.44,1.65-.62,2.5l-1.41,5.62c-.12.47-1.47,2.65-3.53,2.65-1.59,0-1.94-1.37-1.94-2.53,0-1.44.53-3.37,1.59-6.12.5-1.28.62-1.62.62-2.25,0-1.4-1-2.56-2.56-2.56-2.97,0-4.12,4.53-4.12,4.81,0,.31.31.31.38.31.31,0,.34-.06.5-.56.84-2.94,2.09-3.87,3.15-3.87.25,0,.78,0,.78,1,0,.78-.31,1.59-.53,2.19-1.25,3.31-1.81,5.09-1.81,6.56,0,2.78,1.97,3.72,3.81,3.72,1.22,0,2.28-.53,3.15-1.4-.41,1.62-.78,3.15-2.03,4.81-.81,1.06-2,1.97-3.43,1.97-.44,0-1.84-.09-2.37-1.31.5,0,.91,0,1.34-.38.31-.28.62-.69.62-1.28,0-.97-.84-1.09-1.16-1.09-.72,0-1.75.5-1.75,2.03s1.37,2.72,3.31,2.72c3.22,0,6.43-2.84,7.31-6.37l3-11.93"/>
      </g>
      <g>
        <g>
          <g>
            <rect x="184.15" y="139.24" width="24.87" height="24.87" transform="translate(-49.67 183.43) rotate(-45)" fill="#fed968"/>
            <path d="M196.58,135.5l16.17,16.17-16.17,16.17-16.17-16.17,16.17-16.17M196.58,132.68l-19,19,19,19,19-19-19-19h0Z"/>
          </g>
          <path d="M193.84,161.42l1.75-4.66-4.51-11.32h2.32l2.71,7.11c.12.31.23.63.35.99.12.35.2.66.24.92.04-.26.12-.57.22-.92.1-.35.21-.68.33-.99l2.52-7.11h2.3l-5.98,15.98h-2.25Z"/>
        </g>
        <g>
          <line x1="178.48" y1="151.68" x2="127.11" y2="151.68" fill="none" stroke="#000" stroke-miterlimit="10" stroke-width="2"/>
          <path d="M121.07,151.68c2.84-1.05,6.36-2.85,8.55-4.76l-1.72,4.76,1.72,4.75c-2.18-1.9-5.71-3.7-8.55-4.75Z"/>
        </g>
      </g>
    </g>
    <g>
      <g>
        <g>
          <rect x="78.37" y="188.71" width="41.4" height="41.4" rx="11" ry="11" fill="#c8daf9"/>
          <path d="M108.77,189.71c5.51,0,10,4.49,10,10v19.4c0,5.51-4.49,10-10,10h-19.4c-5.51,0-10-4.49-10-10v-19.4c0-5.51,4.49-10,10-10h19.4M108.77,187.71h-19.4c-6.6,0-12,5.4-12,12v19.4c0,6.6,5.4,12,12,12h19.4c6.6,0,12-5.4,12-12v-19.4c0-6.6-5.4-12-12-12h0Z"/>
        </g>
        <path d="M106.98,203.09c.27-1.07.75-1.9,2.89-1.98.13,0,.45-.03.45-.54,0-.03,0-.29-.35-.29-.88,0-1.82.08-2.7.08s-1.84-.08-2.73-.08c-.16,0-.48,0-.48.53,0,.3.27.3.48.3,1.52.03,1.82.59,1.82,1.17,0,.08-.05.48-.08.56l-2.99,11.89-5.9-13.95c-.21-.48-.24-.51-.86-.51h-3.58c-.53,0-.77,0-.77.53,0,.3.24.3.75.3.13,0,1.82,0,1.82.24l-3.58,14.35c-.27,1.07-.72,1.92-2.89,2-.16,0-.45.03-.45.53,0,.19.13.29.35.29.85,0,1.79-.08,2.67-.08s1.87.08,2.75.08c.13,0,.48,0,.48-.53,0-.27-.24-.29-.53-.29-1.55-.05-1.76-.64-1.76-1.18,0-.19.03-.32.11-.61l3.53-14.11c.11.16.11.21.24.48l6.65,15.74c.19.45.27.51.51.51.29,0,.29-.08.43-.56l3.74-14.88"/>
      </g>
      <g>
        <g>
          <g>
            <rect x="184.15" y="196.98" width="24.87" height="24.87" transform="translate(-90.5 200.34) rotate(-45)" fill="#fed968"/>
            <path d="M196.58,193.24l16.17,16.17-16.17,16.17-16.17-16.17,16.17-16.17M196.58,190.41l-19,19,19,19,19-19-19-19h0Z"/>
          </g>
          <path d="M191.87,217.4v-15.98h2.82l4.77,13.49c-.04-.39-.08-.87-.12-1.42-.04-.55-.06-1.14-.09-1.75-.02-.61-.03-1.18-.03-1.71v-8.6h2.06v15.98h-2.82l-4.73-13.49c.03.37.06.82.09,1.37s.05,1.12.08,1.73.03,1.18.03,1.72v8.67h-2.06Z"/>
        </g>
        <g>
          <line x1="178.48" y1="209.41" x2="127.11" y2="209.41" fill="none" stroke="#000" stroke-miterlimit="10" stroke-width="2"/>
          <path d="M121.07,209.41c2.84-1.05,6.36-2.85,8.55-4.76l-1.72,4.76,1.72,4.75c-2.18-1.9-5.71-3.7-8.55-4.75Z"/>
        </g>
      </g>
    </g>
    <g>
      <g>
        <g>
          <rect x="232.05" y="92.48" width="24.87" height="24.87" transform="translate(-2.58 203.61) rotate(-45)" fill="#fed968"/>
          <path d="M244.49,88.74l16.17,16.17-16.17,16.17-16.17-16.17,16.17-16.17M244.49,85.91l-19,19,19,19,19-19-19-19h0Z"/>
        </g>
        <path d="M239.82,110.93v-2.1l6.63-7.99h-6.46v-1.95h8.91v2.1l-6.74,7.99h6.98v1.95h-9.33Z"/>
      </g>
      <g>
        <line x1="262.24" y1="104.91" x2="342.46" y2="104.91" fill="none" stroke="#000" stroke-miterlimit="10" stroke-width="2"/>
        <path d="M348.49,104.91c-2.84,1.05-6.36,2.85-8.55,4.76l1.72-4.76-1.72-4.75c2.18,1.9,5.71,3.7,8.55,4.75Z"/>
      </g>
    </g>
    <g>
      <g>
        <g>
          <rect x="232.05" y="42.84" width="24.87" height="24.87" transform="translate(32.52 189.07) rotate(-45)" fill="#fed968"/>
          <path d="M244.49,39.1l16.17,16.17-16.17,16.17-16.17-16.17,16.17-16.17M244.49,36.28l-19,19,19,19,19-19-19-19h0Z"/>
        </g>
        <path d="M240.67,60.99l-1.85-11.42h1.74l1.12,7.79c.04.33.08.7.12,1.1.04.4.07.73.08,1,.03-.26.06-.59.09-1s.09-.77.16-1.1l1.37-7.79h1.95l1.37,7.79c.07.33.13.7.18,1.1s.08.73.09,1c.03-.26.06-.59.1-1,.04-.4.08-.77.12-1.1l1.16-7.79h1.66l-1.93,11.42h-2.2l-1.27-7.66c-.06-.4-.11-.83-.16-1.28-.05-.45-.09-.81-.11-1.07-.01.17-.03.38-.06.65-.03.27-.06.55-.1.85s-.08.58-.12.84l-1.31,7.66h-2.22Z"/>
      </g>
      <g>
        <line x1="262.24" y1="55.28" x2="519.41" y2="55.28" fill="none" stroke="#000" stroke-miterlimit="10" stroke-width="2"/>
        <path d="M525.45,55.28c-2.84,1.05-6.36,2.85-8.55,4.76l1.72-4.76-1.72-4.75c2.18,1.9,5.71,3.7,8.55,4.75Z"/>
      </g>
    </g>
    <line x1="264.71" y1="134.42" x2="264.71" y2="134.65" fill="none" stroke="#000" stroke-miterlimit="10" stroke-width="2"/>
    <g>
      <rect x="162.92" y="24.78" width="97.35" height="46.68" fill="none"/>
      <path d="M164.34,42.38v-14h6.4c1.31,0,2.34.31,3.11.92s1.15,1.65,1.15,3.1-.38,2.49-1.15,3.12c-.77.63-1.8.94-3.11.94h-4.1v5.92h-2.3ZM166.64,34.3h3.78c.68,0,1.21-.15,1.58-.44.37-.29.56-.78.56-1.46s-.19-1.15-.56-1.44c-.37-.29-.9-.44-1.58-.44h-3.78v3.78Z"/>
      <path d="M177.96,46.36c-.32,0-.62,0-.9-.03-.28-.02-.53-.06-.76-.11v-2.06c.23.05.46.1.71.13.25.03.48.05.71.05.36,0,.63-.04.81-.12.18-.08.32-.21.43-.4.11-.19.23-.44.36-.76l.26-.7-3.8-9.6h2.34l2.44,6.9,2.3-6.9h2.3l-3.92,10.96c-.32.88-.71,1.54-1.17,1.98s-1.16.66-2.11.66Z"/>
      <path d="M190.7,42.6c-.95,0-1.67-.17-2.17-.52-.5-.35-.75-1.04-.75-2.08v-5.3h-1.84v-1.94h1.84v-3.38h2.24v3.38h2.66v1.94h-2.66v4.72c0,.45.11.76.33.92.22.16.54.24.95.24.25,0,.51-.04.77-.12.26-.08.46-.16.61-.24v2.06c-.24.09-.54.17-.9.23-.36.06-.72.09-1.08.09Z"/>
      <path d="M194.46,42.38v-14.26h2.26v5.78c.21-.37.53-.7.96-.97.43-.27.94-.41,1.54-.41,1,0,1.82.32,2.45.96.63.64.95,1.58.95,2.82v6.08h-2.26v-5.54c0-.76-.15-1.33-.46-1.71s-.72-.57-1.24-.57c-.57,0-1.04.2-1.4.59-.36.39-.54.98-.54,1.75v5.48h-2.26Z"/>
      <path d="M209.22,42.6c-.88,0-1.67-.21-2.37-.63s-1.25-1.01-1.66-1.76c-.41-.75-.61-1.64-.61-2.65s.2-1.9.61-2.65c.41-.75.96-1.34,1.66-1.76s1.49-.63,2.37-.63,1.71.21,2.41.63c.7.42,1.25,1.01,1.65,1.76.4.75.6,1.64.6,2.65s-.2,1.9-.6,2.65-.95,1.34-1.65,1.76c-.7.42-1.5.63-2.41.63ZM209.22,40.56c.71,0,1.28-.26,1.73-.78s.67-1.26.67-2.22-.22-1.7-.67-2.22-1.02-.78-1.73-.78-1.26.26-1.7.78c-.44.52-.66,1.26-.66,2.22s.22,1.7.66,2.22c.44.52,1.01.78,1.7.78Z"/>
      <path d="M215.82,42.38v-9.62h2.02l.12,1.14c.27-.37.62-.7,1.06-.97.44-.27.96-.41,1.56-.41,1,0,1.82.32,2.45.96.63.64.95,1.58.95,2.82v6.08h-2.26v-5.54c0-.76-.15-1.33-.46-1.71s-.72-.57-1.24-.57c-.57,0-1.04.2-1.4.59-.36.39-.54.98-.54,1.75v5.48h-2.26Z"/>
      <path d="M168.1,67.38l-4.98-14h2.48l3.66,10.84,3.66-10.84h2.48l-4.98,14h-2.32Z"/>
      <path d="M179,67.52c-1.04.04-1.9-.19-2.57-.68-.67-.49-1.01-1.21-1.01-2.14,0-.68.21-1.26.62-1.74s.95-.86,1.6-1.13,1.33-.42,2.02-.43c.35-.03.67,0,.98.08s.58.19.82.34v-.84c0-.63-.13-1.03-.4-1.22-.27-.19-.66-.28-1.18-.28-.56,0-1.15.1-1.77.31s-1.15.46-1.59.77l-1.02-1.74c.55-.35,1.21-.65,1.98-.91.77-.26,1.57-.39,2.4-.39,1.24,0,2.17.25,2.8.75.63.5.94,1.4.94,2.71v4.42c0,.28.06.44.19.48.13.04.42,0,.87-.14v1.42c-.2.09-.45.18-.75.25-.3.07-.62.11-.97.11-.41,0-.73-.07-.95-.21-.22-.14-.38-.38-.47-.71-.33.28-.72.5-1.16.65-.44.15-.9.24-1.38.27ZM178.96,65.56c.75-.03,1.36-.17,1.85-.44.49-.27.72-.65.69-1.14-.01-.32-.18-.54-.49-.66s-.7-.17-1.17-.14c-.65.01-1.19.18-1.62.49-.43.31-.63.66-.62,1.05.03.6.48.88,1.36.84Z"/>
      <path d="M186.52,67.38v-9.62h2.04l.14,1.36c.24-.48.62-.87,1.13-1.16.51-.29,1.06-.44,1.63-.44.23,0,.43.01.62.04.19.03.35.06.48.1v2.18c-.17-.05-.38-.1-.61-.13-.23-.03-.5-.05-.81-.05-.65,0-1.21.21-1.67.64-.46.43-.69,1.03-.69,1.8v5.28h-2.26Z"/>
      <path d="M194.72,67.6c-.41,0-.77-.15-1.07-.44-.3-.29-.45-.65-.45-1.06s.15-.79.45-1.08.66-.44,1.07-.44.77.15,1.07.44c.3.29.45.65.45,1.08s-.15.77-.45,1.06c-.3.29-.66.44-1.07.44Z"/>
    </g>
    <g>
      <rect x="21.56" y="27.32" width="45.34" height="212.71" fill="none"/>
      <path d="M49.3,124.67h14v4.5c0,1.4-.26,2.61-.78,3.63-.52,1.02-1.3,1.81-2.34,2.36-1.04.55-2.33.83-3.88.83s-2.82-.28-3.86-.83c-1.04-.55-1.82-1.34-2.35-2.36-.53-1.02-.79-2.23-.79-3.63v-4.5ZM51.44,126.97v2.02c0,1.44.42,2.56,1.25,3.37s2.04,1.21,3.61,1.21,2.79-.4,3.62-1.21c.83-.81,1.24-1.93,1.24-3.37v-2.02h-9.72Z"/>
      <path d="M49.08,142.13c0-1.4.42-2.53,1.27-3.4s2.1-1.3,3.77-1.3c1.04,0,1.94.19,2.69.58s1.33.93,1.74,1.62c.41.69.61,1.49.61,2.38s-.22,1.65-.65,2.28c-.43.63-1.02,1.11-1.77,1.44-.75.33-1.59.5-2.52.5h-.52v-6.58c-.96.05-1.64.31-2.05.76-.41.45-.61,1.04-.61,1.76,0,.63.15,1.14.45,1.54.3.4.75.75,1.35,1.04l-1.16,1.66c-.92-.49-1.58-1.1-1.99-1.81-.41-.71-.61-1.54-.61-2.47ZM55.44,139.75v4.26c.63-.11,1.11-.34,1.45-.69.34-.35.51-.8.51-1.35,0-.59-.16-1.07-.48-1.45s-.81-.64-1.48-.77Z"/>
      <path d="M49.08,152.49c0-.88.21-1.67.63-2.37.42-.7,1.01-1.25,1.76-1.66.75-.41,1.64-.61,2.65-.61s1.9.2,2.65.61c.75.41,1.34.96,1.76,1.66.42.7.63,1.49.63,2.37,0,.79-.16,1.5-.48,2.15-.32.65-.78,1.18-1.38,1.59l-1.32-1.8c.76-.41,1.14-1.06,1.14-1.94,0-.69-.26-1.26-.78-1.7-.52-.44-1.26-.66-2.22-.66s-1.7.22-2.22.66c-.52.44-.78,1.01-.78,1.7,0,.87.37,1.52,1.12,1.96l-1.3,1.78c-.59-.41-1.04-.94-1.37-1.59-.33-.65-.49-1.36-.49-2.15Z"/>
      <path d="M49.3,167.73l14-4.98v2.48l-10.84,3.66,10.84,3.66v2.48l-14-4.98v-2.32Z"/>
      <path d="M49.16,178.63c-.04-1.04.19-1.9.68-2.57.49-.67,1.21-1.01,2.14-1.01.68,0,1.26.21,1.74.62.48.41.86.95,1.13,1.6s.42,1.33.43,2.02c.03.35,0,.67-.08.98-.08.31-.19.58-.34.82h.84c.63,0,1.03-.13,1.22-.4s.28-.66.28-1.18c0-.56-.1-1.15-.31-1.77-.21-.62-.46-1.15-.77-1.59l1.74-1.02c.35.55.65,1.21.91,1.98.26.77.39,1.57.39,2.4,0,1.24-.25,2.17-.75,2.8-.5.63-1.4.94-2.71.94h-4.42c-.28,0-.44.06-.48.19-.04.13,0,.42.14.87h-1.42c-.09-.2-.18-.45-.25-.75-.07-.3-.11-.62-.11-.97,0-.41.07-.73.21-.95.14-.22.38-.38.71-.47-.28-.33-.5-.72-.65-1.16-.15-.44-.24-.9-.27-1.38ZM51.12,178.59c.03.75.17,1.36.44,1.85s.65.72,1.14.69c.32-.01.54-.18.66-.49.12-.31.17-.7.14-1.17-.01-.65-.18-1.19-.49-1.62-.31-.43-.66-.63-1.05-.62-.6.03-.88.48-.84,1.36Z"/>
      <path d="M49.3,186.15h9.62v2.04l-1.36.14c.48.24.87.62,1.16,1.13.29.51.44,1.06.44,1.63,0,.23-.01.43-.04.62-.03.19-.06.35-.1.48h-2.18c.05-.17.1-.38.13-.61.03-.23.05-.5.05-.81,0-.65-.21-1.21-.64-1.67s-1.03-.69-1.8-.69h-5.28v-2.26Z"/>
      <path d="M49.1,197.25c0-.79.14-1.53.41-2.24.27-.71.71-1.33,1.31-1.88l1.5,1.4c-.84.75-1.26,1.69-1.26,2.84,0,.55.08.94.23,1.19.15.25.44.37.85.37.2,0,.36-.06.49-.18s.24-.34.35-.67c.11-.33.22-.8.34-1.43.19-.93.49-1.68.92-2.24.43-.56,1.1-.84,2.02-.84.6,0,1.12.16,1.55.48.43.32.77.75,1.01,1.3.24.55.36,1.15.36,1.82,0,.75-.11,1.43-.33,2.04s-.56,1.15-1.03,1.6l-1.58-1.26c.35-.32.59-.68.74-1.08.15-.4.22-.82.22-1.26,0-.49-.09-.84-.26-1.05-.17-.21-.38-.31-.62-.31-.17,0-.32.05-.44.15-.12.1-.23.3-.34.59-.11.29-.23.72-.36,1.28-.25,1.07-.62,1.89-1.1,2.48-.48.59-1.15.88-2.02.88-.97,0-1.71-.37-2.21-1.11s-.75-1.7-.75-2.87Z"/>
      <path d="M49.16,211.77c-.04-1.04.19-1.9.68-2.57.49-.67,1.21-1.01,2.14-1.01.68,0,1.26.21,1.74.62.48.41.86.95,1.13,1.6s.42,1.33.43,2.02c.03.35,0,.67-.08.98s-.19.58-.34.82h.84c.63,0,1.03-.13,1.22-.4.19-.27.28-.66.28-1.18,0-.56-.1-1.15-.31-1.77s-.46-1.15-.77-1.59l1.74-1.02c.35.55.65,1.21.91,1.98.26.77.39,1.57.39,2.4,0,1.24-.25,2.17-.75,2.8-.5.63-1.4.94-2.71.94h-4.42c-.28,0-.44.06-.48.19-.04.13,0,.42.14.87h-1.42c-.09-.2-.18-.45-.25-.75-.07-.3-.11-.62-.11-.97,0-.41.07-.73.21-.95.14-.22.38-.38.71-.47-.28-.33-.5-.72-.65-1.16-.15-.44-.24-.9-.27-1.38ZM51.12,211.73c.03.75.17,1.36.44,1.85.27.49.65.72,1.14.69.32-.01.54-.18.66-.49.12-.31.17-.7.14-1.17-.01-.65-.18-1.19-.49-1.62s-.66-.63-1.05-.62c-.6.03-.88.48-.84,1.36Z"/>
      <path d="M49.3,219.29h9.62v2.02l-1.14.12c.37.27.7.62.97,1.06.27.44.41.96.41,1.56,0,1-.32,1.82-.96,2.45-.64.63-1.58.95-2.82.95h-6.08v-2.26h5.54c.76,0,1.33-.15,1.71-.46s.57-.72.57-1.24c0-.57-.2-1.04-.59-1.4-.39-.36-.98-.54-1.75-.54h-5.48v-2.26Z"/>
      <path d="M49.08,234.05c0-.88.2-1.67.6-2.37.4-.7.98-1.25,1.73-1.66.75-.41,1.66-.61,2.71-.61s1.96.2,2.71.61c.75.41,1.33.96,1.73,1.66.4.7.6,1.49.6,2.37,0,1.01-.37,1.85-1.1,2.5h5.5v2.26h-14.26v-1.96l1.1-.1c-.41-.33-.74-.73-.97-1.19s-.35-.96-.35-1.51ZM51.12,234.15c0,.71.26,1.29.78,1.76.52.47,1.26.7,2.22.7s1.7-.23,2.22-.7c.52-.47.78-1.05.78-1.76s-.26-1.29-.78-1.76c-.52-.47-1.26-.7-2.22-.7s-1.7.23-2.22.7c-.52.47-.78,1.05-.78,1.76Z"/>
      <path d="M24.3,33.31h14v6.4c0,1.31-.31,2.34-.92,3.11-.61.77-1.65,1.15-3.1,1.15s-2.49-.38-3.12-1.15c-.63-.77-.94-1.8-.94-3.11v-4.1h-5.92v-2.3ZM32.38,35.62v3.78c0,.68.15,1.21.44,1.58.29.37.78.56,1.46.56s1.15-.19,1.44-.56c.29-.37.44-.9.44-1.58v-3.78h-3.78Z"/>
      <path d="M24.3,45.74h14.26v2.26h-14.26v-2.26Z"/>
      <path d="M24.16,53.59c-.04-1.04.19-1.9.68-2.57.49-.67,1.21-1.01,2.14-1.01.68,0,1.26.21,1.74.62.48.41.86.95,1.13,1.6s.42,1.33.43,2.02c.03.35,0,.67-.08.98-.08.31-.19.58-.34.82h.84c.63,0,1.03-.13,1.22-.4s.28-.66.28-1.18c0-.56-.1-1.15-.31-1.77-.21-.62-.46-1.15-.77-1.59l1.74-1.02c.35.55.65,1.21.91,1.98.26.77.39,1.57.39,2.4,0,1.24-.25,2.17-.75,2.8-.5.63-1.4.94-2.71.94h-4.42c-.28,0-.44.06-.48.19-.04.13,0,.42.14.87h-1.42c-.09-.2-.18-.45-.25-.75-.07-.3-.11-.62-.11-.97,0-.41.07-.73.21-.95.14-.22.38-.38.71-.47-.28-.33-.5-.72-.65-1.16-.15-.44-.24-.9-.27-1.38ZM26.12,53.55c.03.75.17,1.36.44,1.85s.65.72,1.14.69c.32-.01.54-.18.66-.49.12-.31.17-.7.14-1.17-.01-.65-.18-1.19-.49-1.62-.31-.43-.66-.63-1.05-.62-.6.03-.88.48-.84,1.36Z"/>
      <path d="M24.08,64.85c0-.88.21-1.67.63-2.37.42-.7,1.01-1.25,1.76-1.66.75-.41,1.64-.61,2.65-.61s1.9.2,2.65.61c.75.41,1.34.96,1.76,1.66.42.7.63,1.49.63,2.37,0,.79-.16,1.5-.48,2.15-.32.65-.78,1.18-1.38,1.59l-1.32-1.8c.76-.41,1.14-1.06,1.14-1.94,0-.69-.26-1.26-.78-1.7-.52-.44-1.26-.66-2.22-.66s-1.7.22-2.22.66c-.52.44-.78,1.01-.78,1.7,0,.87.37,1.52,1.12,1.96l-1.3,1.78c-.59-.41-1.04-.94-1.37-1.59-.33-.65-.49-1.36-.49-2.15Z"/>
      <path d="M24.08,74.34c0-1.4.42-2.53,1.27-3.4s2.1-1.3,3.77-1.3c1.04,0,1.94.19,2.69.58s1.33.93,1.74,1.62c.41.69.61,1.49.61,2.38s-.22,1.65-.65,2.28c-.43.63-1.02,1.11-1.77,1.44-.75.33-1.59.5-2.52.5h-.52v-6.58c-.96.05-1.64.31-2.05.76-.41.45-.61,1.04-.61,1.76,0,.63.15,1.14.45,1.54.3.4.75.75,1.35,1.04l-1.16,1.66c-.92-.49-1.58-1.1-1.99-1.81-.41-.71-.61-1.54-.61-2.47ZM30.44,71.96v4.26c.63-.11,1.11-.34,1.45-.69.34-.35.51-.8.51-1.35,0-.59-.16-1.07-.48-1.45s-.81-.64-1.48-.77Z"/>
      <path d="M24.3,80.56h14.26v2.26h-5.78c.37.21.7.53.97.96.27.43.41.94.41,1.54,0,1-.32,1.82-.96,2.45-.64.63-1.58.95-2.82.95h-6.08v-2.26h5.54c.76,0,1.33-.15,1.71-.46.38-.31.57-.72.57-1.24,0-.57-.2-1.04-.59-1.4-.39-.36-.98-.54-1.75-.54h-5.48v-2.26Z"/>
      <path d="M24.08,95.31c0-.88.21-1.67.63-2.37.42-.7,1.01-1.25,1.76-1.66.75-.41,1.64-.61,2.65-.61s1.9.2,2.65.61c.75.41,1.34.96,1.76,1.66.42.7.63,1.49.63,2.37s-.21,1.71-.63,2.41c-.42.7-1.01,1.25-1.76,1.65s-1.64.6-2.65.6-1.9-.2-2.65-.6-1.34-.95-1.76-1.65-.63-1.5-.63-2.41ZM26.12,95.31c0,.71.26,1.28.78,1.73.52.45,1.26.67,2.22.67s1.7-.22,2.22-.67c.52-.45.78-1.02.78-1.73s-.26-1.26-.78-1.7c-.52-.44-1.26-.66-2.22-.66s-1.7.22-2.22.66c-.52.44-.78,1.01-.78,1.7Z"/>
      <path d="M24.3,101.91h14.26v2.26h-14.26v-2.26Z"/>
      <path d="M24.08,110.75c0-.88.2-1.67.6-2.37.4-.7.98-1.25,1.73-1.66.75-.41,1.66-.61,2.71-.61s1.96.2,2.71.61c.75.41,1.33.96,1.73,1.66.4.7.6,1.49.6,2.37,0,1.01-.37,1.85-1.1,2.5h5.5v2.26h-14.26v-1.96l1.1-.1c-.41-.33-.74-.73-.97-1.19s-.35-.96-.35-1.51ZM26.12,110.85c0,.71.26,1.29.78,1.76.52.47,1.26.7,2.22.7s1.7-.23,2.22-.7c.52-.47.78-1.05.78-1.76s-.26-1.29-.78-1.76c-.52-.47-1.26-.7-2.22-.7s-1.7.23-2.22.7c-.52.47-.78,1.05-.78,1.76Z"/>
      <path d="M24.08,122.15c0-1.4.42-2.53,1.27-3.4s2.1-1.3,3.77-1.3c1.04,0,1.94.19,2.69.58s1.33.93,1.74,1.62c.41.69.61,1.49.61,2.38s-.22,1.65-.65,2.28c-.43.63-1.02,1.11-1.77,1.44-.75.33-1.59.5-2.52.5h-.52v-6.58c-.96.05-1.64.31-2.05.76-.41.45-.61,1.04-.61,1.76,0,.63.15,1.14.45,1.54.3.4.75.75,1.35,1.04l-1.16,1.66c-.92-.49-1.58-1.1-1.99-1.81-.41-.71-.61-1.54-.61-2.47ZM30.44,119.77v4.26c.63-.11,1.11-.34,1.45-.69.34-.35.51-.8.51-1.35,0-.59-.16-1.07-.48-1.45s-.81-.64-1.48-.77Z"/>
      <path d="M24.3,128.37h9.62v2.04l-1.36.14c.48.24.87.62,1.16,1.13s.44,1.06.44,1.63c0,.23-.01.43-.04.62-.03.19-.06.35-.1.48h-2.18c.05-.17.1-.38.13-.61s.05-.5.05-.81c0-.65-.21-1.21-.64-1.67s-1.03-.69-1.8-.69h-5.28v-2.26Z"/>
      <path d="M24.1,139.47c0-.79.14-1.53.41-2.24.27-.71.71-1.33,1.31-1.88l1.5,1.4c-.84.75-1.26,1.69-1.26,2.84,0,.55.08.94.23,1.19.15.25.44.37.85.37.2,0,.36-.06.49-.18.13-.12.24-.34.35-.67s.22-.8.34-1.43c.19-.93.49-1.68.92-2.24.43-.56,1.1-.84,2.02-.84.6,0,1.12.16,1.55.48s.77.75,1.01,1.3c.24.55.36,1.15.36,1.82,0,.75-.11,1.43-.33,2.04-.22.61-.56,1.15-1.03,1.6l-1.58-1.26c.35-.32.59-.68.74-1.08s.22-.82.22-1.26c0-.49-.09-.84-.26-1.05-.17-.21-.38-.31-.62-.31-.17,0-.32.05-.44.15-.12.1-.23.3-.34.59-.11.29-.23.72-.36,1.28-.25,1.07-.62,1.89-1.1,2.48-.48.59-1.15.88-2.02.88-.97,0-1.71-.37-2.21-1.11-.5-.74-.75-1.7-.75-2.87Z"/>
      <path d="M24.3,151.15h9.62v2.24h-9.62v-2.24ZM35.5,152.25c0-.39.14-.72.42-1,.28-.28.61-.42,1-.42s.72.14,1,.42c.28.28.42.61.42,1s-.14.72-.42,1c-.28.28-.61.42-1,.42s-.72-.14-1-.42c-.28-.28-.42-.61-.42-1Z"/>
      <path d="M24.3,156.11h9.62v2.02l-1.14.12c.37.27.7.62.97,1.06.27.44.41.96.41,1.56,0,1-.32,1.82-.96,2.45-.64.63-1.58.95-2.82.95h-6.08v-2.26h5.54c.76,0,1.33-.15,1.71-.46.38-.31.57-.72.57-1.24,0-.57-.2-1.04-.59-1.4-.39-.36-.98-.54-1.75-.54h-5.48v-2.26Z"/>
      <path d="M24.16,175.49c-.04-1.04.19-1.9.68-2.57.49-.67,1.21-1.01,2.14-1.01.68,0,1.26.21,1.74.62.48.41.86.95,1.13,1.6s.42,1.33.43,2.02c.03.35,0,.67-.08.98-.08.31-.19.58-.34.82h.84c.63,0,1.03-.13,1.22-.4s.28-.66.28-1.18c0-.56-.1-1.15-.31-1.77-.21-.62-.46-1.15-.77-1.59l1.74-1.02c.35.55.65,1.21.91,1.98.26.77.39,1.57.39,2.4,0,1.24-.25,2.17-.75,2.8-.5.63-1.4.94-2.71.94h-4.42c-.28,0-.44.06-.48.19-.04.13,0,.42.14.87h-1.42c-.09-.2-.18-.45-.25-.75-.07-.3-.11-.62-.11-.97,0-.41.07-.73.21-.95.14-.22.38-.38.71-.47-.28-.33-.5-.72-.65-1.16-.15-.44-.24-.9-.27-1.38ZM26.12,175.45c.03.75.17,1.36.44,1.85s.65.72,1.14.69c.32-.01.54-.18.66-.49.12-.31.17-.7.14-1.17-.01-.65-.18-1.19-.49-1.62-.31-.43-.66-.63-1.05-.62-.6.03-.88.48-.84,1.36Z"/>
      <path d="M24.3,188.81h14v2.3l-6.72,4.02,6.72,3.96v2.34h-14v-2.36h9.98l-5.7-3.28v-1.36l5.7-3.3h-9.98v-2.32Z"/>
      <path d="M24.08,208.19c0-.88.21-1.67.63-2.37s1.01-1.25,1.76-1.66c.75-.41,1.64-.61,2.65-.61s1.9.2,2.65.61c.75.41,1.34.96,1.76,1.66.42.7.63,1.49.63,2.37s-.21,1.71-.63,2.41c-.42.7-1.01,1.25-1.76,1.65s-1.64.6-2.65.6-1.9-.2-2.65-.6-1.34-.95-1.76-1.65c-.42-.7-.63-1.5-.63-2.41ZM26.12,208.19c0,.71.26,1.28.78,1.73.52.45,1.26.67,2.22.67s1.7-.22,2.22-.67c.52-.45.78-1.02.78-1.73s-.26-1.26-.78-1.7c-.52-.44-1.26-.66-2.22-.66s-1.7.22-2.22.66c-.52.44-.78,1.01-.78,1.7Z"/>
      <path d="M24.08,218.93c0-.88.2-1.67.6-2.37.4-.7.98-1.25,1.73-1.66.75-.41,1.66-.61,2.71-.61s1.96.2,2.71.61c.75.41,1.33.96,1.73,1.66.4.7.6,1.49.6,2.37,0,1.01-.37,1.85-1.1,2.5h5.5v2.26h-14.26v-1.96l1.1-.1c-.41-.33-.74-.73-.97-1.19s-.35-.96-.35-1.51ZM26.12,219.03c0,.71.26,1.29.78,1.76.52.47,1.26.7,2.22.7s1.7-.23,2.22-.7c.52-.47.78-1.05.78-1.76s-.26-1.29-.78-1.76c-.52-.47-1.26-.7-2.22-.7s-1.7.23-2.22.7c-.52.47-.78,1.05-.78,1.76Z"/>
      <path d="M24.08,230.33c0-1.4.42-2.53,1.27-3.4.85-.87,2.1-1.3,3.77-1.3,1.04,0,1.94.19,2.69.58s1.33.93,1.74,1.62c.41.69.61,1.49.61,2.38s-.22,1.65-.65,2.28-1.02,1.11-1.77,1.44c-.75.33-1.59.5-2.52.5h-.52v-6.58c-.96.05-1.64.31-2.05.76-.41.45-.61,1.04-.61,1.76,0,.63.15,1.14.45,1.54.3.4.75.75,1.35,1.04l-1.16,1.66c-.92-.49-1.58-1.1-1.99-1.81-.41-.71-.61-1.54-.61-2.47ZM30.44,227.95v4.26c.63-.11,1.11-.34,1.45-.69.34-.35.51-.8.51-1.35,0-.59-.16-1.07-.48-1.45-.32-.38-.81-.64-1.48-.77Z"/>
      <path d="M24.3,236.55h14.26v2.26h-14.26v-2.26Z"/>
    </g>
    <g>
      <rect x="621.3" y="25.56" width="33.59" height="102.13" fill="none"/>
      <path d="M637.29,26.98h14v9.36h-2.14v-7.06h-3.64v6.44h-2.16v-6.44h-3.92v7.28h-2.14v-9.58Z"/>
      <path d="M637.29,37.68l5.1,3.74,4.52-3.32v2.6l-2.82,1.94,2.82,1.98v2.5l-4.46-3.28-5.16,3.78v-2.64l3.44-2.36-3.44-2.36v-2.58Z"/>
      <path d="M633.35,49.23h13.56v1.96l-1.06.12c.87.68,1.3,1.57,1.3,2.68,0,.89-.2,1.69-.6,2.39-.4.7-.98,1.25-1.73,1.65-.75.4-1.66.6-2.71.6s-1.96-.2-2.71-.6c-.75-.4-1.33-.95-1.73-1.65-.4-.7-.6-1.5-.6-2.39,0-.49.1-.95.29-1.38s.46-.8.81-1.12h-4.82v-2.26ZM639.11,53.92c0,.71.26,1.29.78,1.76s1.26.7,2.22.7,1.7-.23,2.22-.7c.52-.47.78-1.05.78-1.76s-.26-1.29-.78-1.76c-.52-.47-1.26-.7-2.22-.7s-1.7.23-2.22.7-.78,1.05-.78,1.76Z"/>
      <path d="M637.29,60.57h9.62v2.04l-1.36.14c.48.24.87.62,1.16,1.13.29.51.44,1.06.44,1.63,0,.23-.01.43-.04.62-.03.19-.06.35-.1.48h-2.18c.05-.17.1-.38.13-.61.03-.23.05-.5.05-.81,0-.65-.21-1.21-.64-1.67-.43-.46-1.03-.69-1.8-.69h-5.28v-2.26Z"/>
      <path d="M637.07,72.41c0-1.4.42-2.53,1.27-3.4.85-.87,2.1-1.3,3.77-1.3,1.04,0,1.94.19,2.69.58.75.39,1.33.93,1.74,1.62.41.69.61,1.49.61,2.38s-.22,1.65-.65,2.28c-.43.63-1.02,1.11-1.77,1.44-.75.33-1.59.5-2.52.5h-.52v-6.58c-.96.05-1.64.31-2.05.76-.41.45-.61,1.04-.61,1.76,0,.63.15,1.14.45,1.54s.75.75,1.35,1.04l-1.16,1.66c-.92-.49-1.58-1.1-1.99-1.81-.41-.71-.61-1.54-.61-2.47ZM643.43,70.03v4.26c.63-.11,1.11-.34,1.45-.69.34-.35.51-.8.51-1.35,0-.59-.16-1.07-.48-1.45-.32-.38-.81-.64-1.48-.77Z"/>
      <path d="M637.09,82.09c0-.79.14-1.53.41-2.24.27-.71.71-1.33,1.31-1.88l1.5,1.4c-.84.75-1.26,1.69-1.26,2.84,0,.55.08.94.23,1.19.15.25.44.37.85.37.2,0,.36-.06.49-.18s.24-.34.35-.67c.11-.33.22-.8.34-1.43.19-.93.49-1.68.92-2.24.43-.56,1.1-.84,2.02-.84.6,0,1.12.16,1.55.48.43.32.77.75,1.01,1.3.24.55.36,1.15.36,1.82,0,.75-.11,1.43-.33,2.04-.22.61-.56,1.15-1.03,1.6l-1.58-1.26c.35-.32.59-.68.74-1.08.15-.4.22-.82.22-1.26,0-.49-.09-.84-.26-1.05-.17-.21-.38-.31-.62-.31-.17,0-.32.05-.44.15-.12.1-.23.3-.34.59-.11.29-.23.72-.36,1.28-.25,1.07-.62,1.89-1.1,2.48-.48.59-1.15.88-2.02.88-.97,0-1.71-.37-2.21-1.11s-.75-1.7-.75-2.87Z"/>
      <path d="M637.09,91.31c0-.79.14-1.53.41-2.24.27-.71.71-1.33,1.31-1.88l1.5,1.4c-.84.75-1.26,1.69-1.26,2.84,0,.55.08.94.23,1.19.15.25.44.37.85.37.2,0,.36-.06.49-.18s.24-.34.35-.67c.11-.33.22-.8.34-1.43.19-.93.49-1.68.92-2.24.43-.56,1.1-.84,2.02-.84.6,0,1.12.16,1.55.48.43.32.77.75,1.01,1.3.24.55.36,1.15.36,1.82,0,.75-.11,1.43-.33,2.04-.22.61-.56,1.15-1.03,1.6l-1.58-1.26c.35-.32.59-.68.74-1.08.15-.4.22-.82.22-1.26,0-.49-.09-.84-.26-1.05-.17-.21-.38-.31-.62-.31-.17,0-.32.05-.44.15-.12.1-.23.3-.34.59-.11.29-.23.72-.36,1.28-.25,1.07-.62,1.89-1.1,2.48-.48.59-1.15.88-2.02.88-.97,0-1.71-.37-2.21-1.11s-.75-1.7-.75-2.87Z"/>
      <path d="M637.29,97.39h9.62v2.24h-9.62v-2.24ZM648.49,98.49c0-.39.14-.72.42-1,.28-.28.61-.42,1-.42s.72.14,1,.42c.28.28.42.61.42,1s-.14.72-.42,1c-.28.28-.61.42-1,.42s-.72-.14-1-.42c-.28-.28-.42-.61-.42-1Z"/>
      <path d="M637.07,106.49c0-.88.21-1.67.63-2.37s1.01-1.25,1.76-1.66c.75-.41,1.64-.61,2.65-.61s1.9.2,2.65.61c.75.41,1.34.96,1.76,1.66s.63,1.49.63,2.37-.21,1.71-.63,2.41c-.42.7-1.01,1.25-1.76,1.65-.75.4-1.64.6-2.65.6s-1.9-.2-2.65-.6c-.75-.4-1.34-.95-1.76-1.65-.42-.7-.63-1.5-.63-2.41ZM639.11,106.49c0,.71.26,1.28.78,1.73s1.26.67,2.22.67,1.7-.22,2.22-.67c.52-.45.78-1.02.78-1.73s-.26-1.26-.78-1.7c-.52-.44-1.26-.66-2.22-.66s-1.7.22-2.22.66c-.52.44-.78,1.01-.78,1.7Z"/>
      <path d="M637.29,113.09h9.62v2.02l-1.14.12c.37.27.7.62.97,1.06.27.44.41.96.41,1.56,0,1-.32,1.82-.96,2.45-.64.63-1.58.95-2.82.95h-6.08v-2.26h5.54c.76,0,1.33-.15,1.71-.46.38-.31.57-.72.57-1.24,0-.57-.2-1.04-.59-1.4-.39-.36-.98-.54-1.75-.54h-5.48v-2.26Z"/>
    </g>
  </g>
</svg>