<?xml version="1.0" encoding="UTF-8"?>
<svg id="_レイヤー_1" data-name="レイヤー 1" xmlns="http://www.w3.org/2000/svg" xmlns:xlink="http://www.w3.org/1999/xlink" viewBox="0 0 806.75 271.22">
  <defs>
    <clipPath id="clippath">
      <rect x="468.07" y="136.9" width="294.52" height="29.88" fill="none"/>
    </clipPath>
    <clipPath id="clippath-1">
      <rect x="468.07" y="136.9" width="294.52" height="29.88" fill="none"/>
    </clipPath>
    <clipPath id="clippath-2">
      <polygon points="310.83 115.41 416.6 115.41 416.6 70.88 310.83 77.88 310.83 115.41" fill="none"/>
    </clipPath>
    <clipPath id="clippath-3">
      <polygon points="310.93 115.04 416.4 115.04 416.4 70.89 310.93 77.89 310.93 115.04" fill="none"/>
    </clipPath>
    <clipPath id="clippath-4">
      <polygon points="310.93 115.04 416.4 115.04 416.4 70.89 310.93 77.89 310.93 115.04" fill="none"/>
    </clipPath>
    <clipPath id="clippath-5">
      <rect x="52.2" y="98.44" width="207.86" height="104.44" fill="none"/>
    </clipPath>
    <clipPath id="clippath-6">
      <rect x="52.2" y="98.44" width="207.86" height="104.44" fill="none"/>
    </clipPath>
  </defs>
  <g>
    <g>
      <rect x="455.93" y="113.18" width="318.82" height="77.32" fill="#fff"/>
      <path d="M774.24,113.68v76.32h-317.82v-76.32h317.82M775.24,112.68h-319.82v78.32h319.82v-78.32h0Z"/>
    </g>
    <g isolation="isolate">
      <g clip-path="url(#clippath)">
        <g clip-path="url(#clippath-1)">
          <path d="M470.87,148.55v9.6c0,1.62-.39,1.62-2.8,1.62v1.11c1.25-.04,3.08-.11,4.05-.11s2.8.07,4.02.11v-1.11c-2.4,0-2.8,0-2.8-1.62v-6.59c0-3.73,2.55-5.73,4.84-5.73s2.65,1.93,2.65,3.97v8.35c0,1.62-.39,1.62-2.8,1.62v1.11c1.25-.04,3.08-.11,4.05-.11s2.8.07,4.01.11v-1.11c-2.4,0-2.8,0-2.8-1.62v-6.59c0-3.73,2.55-5.73,4.84-5.73s2.65,1.93,2.65,3.97v8.35c0,1.62-.4,1.62-2.8,1.62v1.11c1.25-.04,3.08-.11,4.05-.11s2.8.07,4.01.11v-1.11c-1.86,0-2.76,0-2.8-1.08v-6.84c0-3.09,0-4.2-1.11-5.49-.5-.61-1.68-1.32-3.76-1.32-3.01,0-4.59,2.15-5.2,3.51-.5-3.12-3.15-3.51-4.77-3.51-2.62,0-4.3,1.54-5.3,3.76v-3.76l-5.05.39v1.11c2.51,0,2.8.25,2.8,2.01"/>
          <path d="M503.31,138.8c0-1.15-.9-1.9-1.9-1.9-1.11,0-1.9.97-1.9,1.9s.79,1.9,1.9,1.9c1,0,1.9-.75,1.9-1.9M503.17,145.04l-5.02.39v1.11c2.33,0,2.65.22,2.65,1.97v9.64c0,1.62-.39,1.62-2.8,1.62v1.11c1.15-.04,3.08-.11,3.94-.11,1.25,0,2.51.07,3.73.11v-1.11c-2.37,0-2.51-.18-2.51-1.58v-13.15Z"/>
          <path d="M510.77,148.55v9.6c0,1.62-.39,1.62-2.8,1.62v1.11c1.25-.04,3.08-.11,4.05-.11s2.8.07,4.02.11v-1.11c-2.4,0-2.8,0-2.8-1.62v-6.59c0-3.73,2.55-5.73,4.84-5.73s2.65,1.93,2.65,3.97v8.35c0,1.62-.39,1.62-2.8,1.62v1.11c1.25-.04,3.08-.11,4.05-.11s2.8.07,4.01.11v-1.11c-1.86,0-2.76,0-2.8-1.08v-6.84c0-3.09,0-4.2-1.11-5.49-.5-.61-1.68-1.32-3.76-1.32-2.62,0-4.3,1.54-5.3,3.76v-3.76l-5.05.39v1.11c2.51,0,2.8.25,2.8,2.01"/>
          <path d="M544.7,150.05c.22-.93,1.04-4.22,3.55-4.22.18,0,1.04,0,1.79.46-1,.18-1.72,1.08-1.72,1.94,0,.57.4,1.25,1.36,1.25.79,0,1.94-.64,1.94-2.08,0-1.86-2.12-2.36-3.33-2.36-2.08,0-3.33,1.9-3.76,2.72-.9-2.36-2.83-2.72-3.87-2.72-3.73,0-5.77,4.62-5.77,5.52,0,.35.36.35.43.35.29,0,.39-.07.47-.39,1.22-3.8,3.58-4.69,4.8-4.69.68,0,1.94.32,1.94,2.4,0,1.11-.61,3.51-1.94,8.53-.57,2.22-1.83,3.73-3.4,3.73-.22,0-1.04,0-1.79-.47.9-.18,1.68-.93,1.68-1.94s-.79-1.25-1.33-1.25c-1.07,0-1.97.93-1.97,2.08,0,1.65,1.79,2.36,3.37,2.36,2.37,0,3.66-2.51,3.76-2.72.43,1.33,1.72,2.72,3.87,2.72,3.69,0,5.74-4.62,5.74-5.52,0-.35-.32-.35-.43-.35-.32,0-.39.14-.47.39-1.18,3.84-3.62,4.7-4.77,4.7-1.4,0-1.97-1.15-1.97-2.37,0-.79.22-1.58.61-3.15l1.22-4.92"/>
          <path d="M560.35,166.08c-1.15,0-2.68-.68-3.19-2.74-.35-1.48-.35-3.53-.35-5.39s0-3.74.38-5.12c.53-1.98,2.13-2.51,3.16-2.51,1.36,0,2.66.83,3.11,2.29.4,1.35.43,3.16.43,5.34,0,1.86,0,3.71-.32,5.29-.5,2.29-2.21,2.84-3.21,2.84M566.17,158.28c0-2.76-.33-4.75-1.48-6.5-.78-1.16-2.33-2.16-4.34-2.16-5.82,0-5.82,6.85-5.82,8.66s0,8.5,5.82,8.5,5.82-6.7,5.82-8.5Z"/>
          <path d="M600.85,152.64c.61,0,1.26,0,1.26-.72s-.65-.72-1.26-.72h-19.39c-.61,0-1.26,0-1.26.72s.65.72,1.26.72h19.39"/>
          <path d="M623.52,148.26c2.94-.97,5.02-3.47,5.02-6.31s-3.15-4.94-6.6-4.94c-3.62,0-6.34,2.15-6.34,4.87,0,1.18.79,1.87,1.83,1.87,1.11,0,1.83-.79,1.83-1.83,0-1.79-1.68-1.79-2.22-1.79,1.11-1.76,3.48-2.23,4.77-2.23,1.47,0,3.44.79,3.44,4.02,0,.43-.07,2.51-1,4.08-1.08,1.73-2.3,1.83-3.19,1.87-.29.03-1.15.11-1.4.11-.28.03-.54.07-.54.43,0,.39.25.39.86.39h1.58c2.94,0,4.27,2.44,4.27,5.95,0,4.88-2.47,5.91-4.05,5.91s-4.23-.61-5.48-2.72c1.25.18,2.37-.61,2.37-1.97,0-1.29-.97-2.01-2.01-2.01-.86,0-2.01.5-2.01,2.08,0,3.26,3.33,5.63,7.24,5.63,4.37,0,7.63-3.26,7.63-6.92,0-2.94-2.26-5.73-5.99-6.49"/>
          <path d="M643,150.05c.22-.93,1.04-4.22,3.55-4.22.18,0,1.04,0,1.79.46-1,.18-1.72,1.08-1.72,1.94,0,.57.4,1.25,1.36,1.25.79,0,1.94-.64,1.94-2.08,0-1.86-2.12-2.36-3.33-2.36-2.08,0-3.33,1.9-3.76,2.72-.9-2.36-2.83-2.72-3.87-2.72-3.73,0-5.77,4.62-5.77,5.52,0,.35.36.35.43.35.29,0,.39-.07.47-.39,1.22-3.8,3.58-4.69,4.8-4.69.68,0,1.94.32,1.94,2.4,0,1.11-.61,3.51-1.94,8.53-.57,2.22-1.83,3.73-3.4,3.73-.21,0-1.04,0-1.79-.47.89-.18,1.68-.93,1.68-1.94s-.79-1.25-1.33-1.25c-1.07,0-1.97.93-1.97,2.08,0,1.65,1.79,2.36,3.37,2.36,2.37,0,3.66-2.51,3.76-2.72.43,1.33,1.72,2.72,3.87,2.72,3.69,0,5.74-4.62,5.74-5.52,0-.35-.32-.35-.43-.35-.32,0-.39.14-.46.39-1.18,3.84-3.62,4.7-4.77,4.7-1.4,0-1.97-1.15-1.97-2.37,0-.79.21-1.58.61-3.15l1.22-4.92"/>
          <path d="M659.93,150.32c0-.67-.05-.7-.75-.7-1.61,1.58-3.89,1.61-4.92,1.61v.9c.6,0,2.26,0,3.64-.7v12.79c0,.83,0,1.16-2.51,1.16h-.95v.9c.45-.03,3.54-.1,4.47-.1.78,0,3.94.07,4.49.1v-.9h-.95c-2.51,0-2.51-.33-2.51-1.16v-13.9"/>
          <path d="M690.29,152.64h10c.5,0,1.18,0,1.18-.72s-.68-.72-1.18-.72h-10v-10.03c0-.51,0-1.19-.72-1.19s-.72.68-.72,1.19v10.03h-10.04c-.5,0-1.18,0-1.18.72s.68.72,1.18.72h10.04v10.03c0,.5,0,1.18.72,1.18s.72-.68.72-1.18v-10.03"/>
          <path d="M715.98,158.12l3.8-3.69c5.59-4.95,7.74-6.88,7.74-10.47,0-4.08-3.23-6.95-7.6-6.95-4.05,0-6.7,3.29-6.7,6.49,0,2,1.79,2,1.9,2,.61,0,1.86-.43,1.86-1.9,0-.93-.64-1.86-1.9-1.86-.29,0-.36,0-.46.04.82-2.34,2.76-3.66,4.84-3.66,3.26,0,4.8,2.9,4.8,5.84s-1.79,5.7-3.76,7.92l-6.88,7.67c-.39.4-.39.47-.39,1.33h13.3l1-6.24h-.9c-.18,1.08-.43,2.66-.79,3.19-.25.29-2.61.29-3.4.29h-6.45"/>
          <path d="M741.4,150.05c.22-.93,1.04-4.22,3.55-4.22.18,0,1.04,0,1.79.46-1,.18-1.72,1.08-1.72,1.94,0,.57.4,1.25,1.36,1.25.79,0,1.94-.64,1.94-2.08,0-1.86-2.12-2.36-3.33-2.36-2.08,0-3.33,1.9-3.76,2.72-.9-2.36-2.83-2.72-3.87-2.72-3.73,0-5.77,4.62-5.77,5.52,0,.35.36.35.43.35.29,0,.39-.07.47-.39,1.22-3.8,3.58-4.69,4.8-4.69.68,0,1.94.32,1.94,2.4,0,1.11-.61,3.51-1.94,8.53-.57,2.22-1.83,3.73-3.4,3.73-.21,0-1.04,0-1.79-.47.9-.18,1.69-.93,1.69-1.94s-.79-1.25-1.33-1.25c-1.07,0-1.97.93-1.97,2.08,0,1.65,1.79,2.36,3.37,2.36,2.37,0,3.66-2.51,3.76-2.72.43,1.33,1.72,2.72,3.87,2.72,3.69,0,5.74-4.62,5.74-5.52,0-.35-.32-.35-.43-.35-.32,0-.39.14-.46.39-1.18,3.84-3.62,4.7-4.77,4.7-1.4,0-1.97-1.15-1.97-2.37,0-.79.21-1.58.61-3.15l1.22-4.92"/>
          <path d="M762.6,161.71h-.85c-.07.56-.33,2.04-.65,2.29-.2.15-2.13.15-2.48.15h-4.62c2.63-2.34,3.51-3.04,5.02-4.22,1.86-1.48,3.59-3.03,3.59-5.42,0-3.03-2.66-4.89-5.87-4.89s-5.22,2.18-5.22,4.49c0,1.28,1.08,1.41,1.33,1.41.6,0,1.33-.43,1.33-1.33,0-.46-.18-1.33-1.48-1.33.78-1.78,2.48-2.34,3.66-2.34,2.51,0,3.81,1.96,3.81,3.99,0,2.19-1.55,3.92-2.36,4.82l-6.05,5.97c-.25.23-.25.28-.25.98h10.34l.75-4.57"/>
        </g>
      </g>
    </g>
    <g>
      <rect x="704.12" y="88.13" width="71.13" height="21.82" fill="none"/>
      <path d="M710.55,103.97v-12.6h1.64v12.6h-1.64Z"/>
      <path d="M714.78,103.97v-8.64h1.46l.09,1.12c.25-.36.59-.67,1.02-.94.43-.26.92-.4,1.47-.4.91,0,1.65.29,2.22.87.57.58.86,1.43.86,2.53v5.45h-1.6v-5.11c0-.76-.17-1.32-.5-1.7-.34-.38-.77-.57-1.31-.57-.61,0-1.11.2-1.49.6-.38.4-.58.94-.58,1.61v5.17h-1.62Z"/>
      <path d="M727.37,104.15c-.73,0-1.42-.13-2.05-.4-.64-.26-1.18-.67-1.62-1.22l1.06-1.04c.65.83,1.54,1.24,2.68,1.24.53,0,.95-.1,1.26-.29.31-.19.47-.51.47-.95,0-.36-.16-.63-.49-.8s-.9-.34-1.73-.5c-.54-.11-1.02-.25-1.45-.43-.43-.18-.76-.44-1.02-.78s-.38-.79-.38-1.34.14-.98.43-1.36.67-.67,1.14-.87c.47-.2,1-.31,1.58-.31,1.4,0,2.47.45,3.2,1.35l-.95,1.1c-.26-.35-.59-.6-.97-.77-.38-.16-.8-.24-1.26-.24-.52,0-.9.1-1.15.31s-.38.46-.38.75c0,.34.14.58.43.74s.81.32,1.57.49c.6.13,1.13.31,1.59.52.46.22.82.5,1.08.85.26.35.39.8.39,1.35,0,.83-.32,1.47-.95,1.93s-1.46.68-2.49.68Z"/>
      <path d="M736.06,104.17c-.82,0-1.43-.16-1.85-.48-.42-.32-.63-.93-.63-1.83v-5.13h-1.75v-1.4h1.75v-3.1h1.6v3.1h2.5v1.4h-2.5v4.79c0,.47.11.78.32.95s.52.24.95.24c.22,0,.44-.03.67-.1.23-.07.42-.13.57-.21v1.49c-.19.08-.44.15-.74.2s-.59.07-.88.07Z"/>
      <path d="M742.05,104.11c-.88.02-1.6-.18-2.17-.6-.57-.43-.85-1.04-.85-1.84,0-.59.19-1.1.57-1.53.38-.43.86-.77,1.46-1.02.59-.25,1.21-.37,1.85-.37.37-.02.71,0,1.03.1.31.09.58.22.81.39v-1.08c0-.67-.14-1.11-.42-1.31-.28-.2-.72-.31-1.31-.31-.5,0-1.04.09-1.61.27-.57.18-1.05.41-1.45.68l-.76-1.26c.49-.31,1.08-.58,1.75-.79.68-.22,1.36-.32,2.06-.32,1.1,0,1.93.22,2.47.66.54.44.81,1.23.81,2.38v4.34c0,.23.06.36.18.4s.39,0,.81-.09v1.04c-.16.06-.35.12-.59.18-.24.06-.49.09-.74.09-.38,0-.66-.07-.83-.22-.17-.14-.28-.4-.34-.77-.32.32-.73.56-1.22.72s-.99.25-1.49.27ZM742.07,102.69c.5-.01.96-.09,1.38-.22s.74-.34.98-.59.35-.57.32-.93c-.02-.33-.2-.58-.51-.72-.32-.14-.72-.2-1.21-.18-.44.01-.85.09-1.22.24-.37.15-.67.34-.89.58-.22.24-.33.51-.33.81.01.34.15.59.41.76.26.17.62.26,1.08.24Z"/>
      <path d="M749.09,103.97v-8.64h1.46l.09,1.12c.25-.36.59-.67,1.02-.94.43-.26.92-.4,1.47-.4.91,0,1.65.29,2.22.87.57.58.86,1.43.86,2.53v5.45h-1.6v-5.11c0-.76-.17-1.32-.5-1.7-.34-.38-.77-.57-1.31-.57-.61,0-1.11.2-1.49.6-.38.4-.58.94-.58,1.61v5.17h-1.62Z"/>
      <path d="M762.27,104.17c-.79,0-1.5-.19-2.11-.57-.62-.38-1.1-.91-1.46-1.58-.35-.68-.53-1.47-.53-2.37s.18-1.69.53-2.38c.35-.68.84-1.21,1.46-1.59.62-.38,1.32-.57,2.11-.57.66,0,1.27.14,1.82.41.55.27,1.01.66,1.39,1.18l-1.28.95c-.44-.71-1.09-1.06-1.93-1.06-.73,0-1.33.27-1.79.81s-.69,1.29-.69,2.25.23,1.69.69,2.23,1.06.81,1.79.81c.84,0,1.49-.35,1.94-1.04l1.26.94c-.37.52-.83.91-1.39,1.18-.55.27-1.16.41-1.82.41Z"/>
      <path d="M770.73,104.17c-.82,0-1.54-.17-2.16-.52s-1.11-.86-1.46-1.54c-.35-.68-.52-1.5-.52-2.46s.17-1.72.52-2.4.83-1.2,1.43-1.58c.61-.37,1.3-.56,2.1-.56s1.47.2,2.03.58c.56.39.98.91,1.28,1.56.29.65.44,1.36.44,2.12v.43h-6.21c.02.96.27,1.69.73,2.19s1.08.75,1.85.75c.61,0,1.12-.15,1.52-.45s.74-.75,1.02-1.35l1.22.81c-.41.84-.93,1.45-1.56,1.84-.63.38-1.37.58-2.22.58ZM768.26,98.52h4.54c-.1-.62-.34-1.13-.72-1.51-.38-.38-.87-.58-1.46-.58-.62,0-1.14.18-1.55.53-.41.35-.68.87-.81,1.56Z"/>
    </g>
  </g>
  <g>
    <path d="M574.22,249.27c-4.46,0-8.1-2.79-8.1-6.21v-35.7c0-3.43,3.63-6.21,8.1-6.21h1.26l-13.05-20.66,21.94,20.66h60.34l3.58-20.79,3.58,20.79h30.66c.96,0,6.66-3.06,19.45-10.04,9.32-5.09,21.78-11.89,25.05-13.05-2.02,2.27-11.31,9.25-18.92,14.96-13.54,10.17-17.48,13.29-17.48,14.34v35.7c0,3.43-3.63,6.21-8.1,6.21h-108.31Z" fill="#c7e8fa"/>
    <path d="M724.52,179.7c-3.74,3.18-11,8.63-16.71,12.92-15.2,11.42-17.68,13.49-17.68,14.74v35.7c0,3.15-3.41,5.71-7.6,5.71h-108.31c-4.19,0-7.6-2.56-7.6-5.71v-35.7c0-3.15,3.41-5.71,7.6-5.71h2.17l-.97-1.53-10.46-16.56,18.93,17.82.29.27h60.96l.14-.83,3.01-17.51,3.01,17.51.14.83h31.08c1.04,0,5.13-2.15,19.7-10.11,7.57-4.13,17.25-9.42,22.29-11.84M727.72,177.39c-3.01,0-43.12,23.26-45.18,23.26h-30.24l-4-23.23-4,23.23h-59.72l-24.67-23.23,14.67,23.23h-.36c-4.73,0-8.6,3.02-8.6,6.71v35.7c0,3.69,3.87,6.71,8.6,6.71h108.31c4.73,0,8.6-3.02,8.6-6.71v-35.7c0-2.05,38.59-28.71,36.72-29.94-.03-.02-.08-.03-.14-.03h0Z"/>
  </g>
  <g>
    <g>
      <path d="M354.25,124.58h-58.49c-5.67,0-10.29-5.17-10.29-11.52v-63.9c0-6.35,4.62-11.52,10.29-11.52h135.91c5.67,0,10.29,5.17,10.29,11.52v63.9c0,6.35-4.62,11.52-10.29,11.52h-58.49l-9.46,16.27-9.46-16.27Z" fill="#fbb03b"/>
      <path d="M431.67,38.16c5.4,0,9.79,4.94,9.79,11.02v63.9c0,6.07-4.39,11.02-9.79,11.02h-58.78l-.29.5-8.89,15.28-8.89-15.28-.29-.5h-58.78c-5.4,0-9.79-4.94-9.79-11.02v-63.9c0-6.07,4.39-11.02,9.79-11.02h135.91M431.67,37.16h-135.91c-5.93,0-10.79,5.41-10.79,12.02v63.9c0,6.61,4.85,12.02,10.79,12.02h58.2l9.75,16.76,9.75-16.76h58.2c5.93,0,10.79-5.41,10.79-12.02v-63.9c0-6.61-4.85-12.02-10.79-12.02h0Z"/>
    </g>
    <g>
      <rect x="286.87" y="44.69" width="153.69" height="33.21" fill="none"/>
      <path d="M310.7,60.53v-12.6h1.64v12.6h-1.64Z"/>
      <path d="M314.93,60.53v-8.64h1.46l.09,1.12c.25-.36.59-.67,1.02-.94.43-.26.91-.4,1.47-.4.91,0,1.65.29,2.22.87s.86,1.42.86,2.53v5.45h-1.6v-5.11c0-.76-.17-1.32-.5-1.7s-.77-.57-1.31-.57c-.61,0-1.11.2-1.49.6-.38.4-.58.94-.58,1.61v5.17h-1.62Z"/>
      <path d="M327.51,60.71c-.73,0-1.42-.13-2.05-.4-.64-.26-1.18-.67-1.62-1.22l1.06-1.04c.65.83,1.54,1.24,2.68,1.24.53,0,.95-.1,1.26-.29.31-.19.47-.51.47-.95,0-.36-.16-.63-.49-.8-.32-.17-.9-.34-1.73-.49-.54-.11-1.02-.25-1.45-.43-.43-.18-.76-.44-1.02-.78-.25-.34-.38-.79-.38-1.34s.14-.98.43-1.36c.29-.38.67-.67,1.14-.87.47-.2,1-.31,1.57-.31,1.4,0,2.47.45,3.2,1.35l-.95,1.1c-.26-.35-.59-.6-.97-.77s-.8-.24-1.26-.24c-.52,0-.9.11-1.15.31-.25.21-.38.46-.38.75,0,.34.14.58.43.74.29.16.81.32,1.57.49.6.13,1.13.31,1.59.52s.82.5,1.08.85.39.8.39,1.35c0,.83-.31,1.47-.94,1.93s-1.46.68-2.49.68Z"/>
      <path d="M336.2,60.73c-.82,0-1.43-.16-1.85-.48-.42-.32-.63-.93-.63-1.83v-5.13h-1.75v-1.4h1.75v-3.1h1.6v3.1h2.5v1.4h-2.5v4.79c0,.47.1.78.31.95s.53.24.95.24c.22,0,.44-.03.67-.1.23-.07.42-.14.57-.21v1.49c-.19.08-.44.15-.74.2s-.59.07-.88.07Z"/>
      <path d="M342.2,60.68c-.88.02-1.6-.18-2.17-.6-.57-.43-.85-1.04-.85-1.85,0-.59.19-1.1.57-1.53s.86-.77,1.46-1.02c.59-.25,1.21-.37,1.84-.37.37-.02.71,0,1.03.1.31.09.58.22.81.39v-1.08c0-.67-.14-1.11-.42-1.31-.28-.2-.72-.31-1.3-.31-.5,0-1.04.09-1.61.27-.57.18-1.05.41-1.45.68l-.76-1.26c.49-.31,1.08-.58,1.76-.79.68-.22,1.36-.32,2.06-.32,1.1,0,1.93.22,2.47.66.54.44.81,1.23.81,2.39v4.34c0,.23.06.36.18.4s.39,0,.81-.09v1.04c-.16.06-.35.12-.59.18-.24.06-.49.09-.74.09-.38,0-.66-.07-.83-.22-.17-.14-.28-.4-.34-.77-.32.32-.73.56-1.22.72s-.99.25-1.49.27ZM342.22,59.25c.5-.01.96-.09,1.38-.23.41-.14.74-.34.98-.59.24-.26.35-.57.32-.93-.02-.34-.2-.58-.51-.72-.32-.14-.72-.2-1.22-.18-.44.01-.85.09-1.22.24-.37.15-.67.35-.89.58-.22.24-.33.51-.33.81.01.34.15.59.41.77.26.17.62.25,1.08.24Z"/>
      <path d="M349.23,60.53v-8.64h1.46l.09,1.12c.25-.36.59-.67,1.02-.94.43-.26.91-.4,1.47-.4.91,0,1.65.29,2.22.87s.86,1.42.86,2.53v5.45h-1.6v-5.11c0-.76-.17-1.32-.5-1.7s-.77-.57-1.31-.57c-.61,0-1.11.2-1.49.6-.38.4-.58.94-.58,1.61v5.17h-1.62Z"/>
      <path d="M362.41,60.73c-.79,0-1.5-.19-2.12-.57s-1.1-.91-1.46-1.58c-.35-.68-.53-1.47-.53-2.37s.18-1.69.53-2.38c.35-.68.84-1.22,1.46-1.59s1.32-.57,2.12-.57c.66,0,1.27.13,1.82.4.55.27,1.01.66,1.39,1.18l-1.28.95c-.44-.71-1.09-1.06-1.93-1.06-.73,0-1.33.27-1.79.81s-.69,1.29-.69,2.25.23,1.69.69,2.23,1.06.81,1.79.81c.84,0,1.49-.35,1.94-1.04l1.26.94c-.37.52-.83.91-1.39,1.18-.55.27-1.16.41-1.82.41Z"/>
      <path d="M370.87,60.73c-.82,0-1.54-.17-2.16-.52-.62-.35-1.11-.86-1.46-1.54-.35-.68-.52-1.5-.52-2.46s.17-1.73.52-2.4c.35-.68.83-1.2,1.43-1.57.61-.37,1.3-.56,2.1-.56s1.47.2,2.03.58c.56.39.98.91,1.28,1.56s.44,1.36.44,2.12v.43h-6.21c.02.96.27,1.69.73,2.19.46.5,1.08.75,1.85.75.61,0,1.12-.15,1.52-.45s.74-.75,1.02-1.35l1.22.81c-.41.84-.93,1.45-1.56,1.84-.63.38-1.37.58-2.22.58ZM368.41,55.08h4.54c-.1-.62-.34-1.13-.72-1.51-.38-.38-.87-.58-1.46-.58-.62,0-1.14.18-1.55.53-.41.35-.68.87-.81,1.56Z"/>
      <path d="M381.81,60.53v-12.6h3.87c1.32,0,2.43.26,3.34.77.91.52,1.6,1.25,2.07,2.19.47.94.71,2.06.71,3.34s-.24,2.38-.71,3.33c-.47.95-1.16,1.68-2.07,2.2s-2.02.77-3.34.77h-3.87ZM383.45,58.98h2.12c1.01,0,1.84-.2,2.51-.6s1.17-.96,1.5-1.67c.34-.71.5-1.54.5-2.47s-.17-1.78-.5-2.48c-.34-.71-.84-1.26-1.5-1.67-.67-.4-1.5-.6-2.51-.6h-2.12v9.5Z"/>
      <path d="M396.34,60.68c-.88.02-1.6-.18-2.17-.6-.57-.43-.85-1.04-.85-1.85,0-.59.19-1.1.57-1.53s.86-.77,1.46-1.02c.59-.25,1.21-.37,1.84-.37.37-.02.71,0,1.03.1.31.09.58.22.81.39v-1.08c0-.67-.14-1.11-.42-1.31-.28-.2-.72-.31-1.3-.31-.5,0-1.04.09-1.61.27-.57.18-1.05.41-1.45.68l-.76-1.26c.49-.31,1.08-.58,1.76-.79.68-.22,1.36-.32,2.06-.32,1.1,0,1.93.22,2.47.66.54.44.81,1.23.81,2.39v4.34c0,.23.06.36.18.4s.39,0,.81-.09v1.04c-.16.06-.35.12-.59.18-.24.06-.49.09-.74.09-.38,0-.66-.07-.83-.22-.17-.14-.28-.4-.34-.77-.32.32-.73.56-1.22.72s-.99.25-1.49.27ZM396.36,59.25c.5-.01.96-.09,1.38-.23.41-.14.74-.34.98-.59.24-.26.35-.57.32-.93-.02-.34-.2-.58-.51-.72-.32-.14-.72-.2-1.22-.18-.44.01-.85.09-1.22.24-.37.15-.67.35-.89.58-.22.24-.33.51-.33.81.01.34.15.59.41.77.26.17.62.25,1.08.24Z"/>
      <path d="M406.3,60.73c-.82,0-1.43-.16-1.85-.48-.42-.32-.63-.93-.63-1.83v-5.13h-1.75v-1.4h1.75v-3.1h1.6v3.1h2.5v1.4h-2.5v4.79c0,.47.1.78.31.95s.53.24.95.24c.22,0,.44-.03.67-.1.23-.07.42-.14.57-.21v1.49c-.19.08-.44.15-.74.2s-.59.07-.88.07Z"/>
      <path d="M412.29,60.68c-.88.02-1.6-.18-2.17-.6-.57-.43-.85-1.04-.85-1.85,0-.59.19-1.1.57-1.53s.86-.77,1.46-1.02c.59-.25,1.21-.37,1.84-.37.37-.02.71,0,1.03.1.31.09.58.22.81.39v-1.08c0-.67-.14-1.11-.42-1.31-.28-.2-.72-.31-1.3-.31-.5,0-1.04.09-1.61.27-.57.18-1.05.41-1.45.68l-.76-1.26c.49-.31,1.08-.58,1.76-.79.68-.22,1.36-.32,2.06-.32,1.1,0,1.93.22,2.47.66.54.44.81,1.23.81,2.39v4.34c0,.23.06.36.18.4s.39,0,.81-.09v1.04c-.16.06-.35.12-.59.18-.24.06-.49.09-.74.09-.38,0-.66-.07-.83-.22-.17-.14-.28-.4-.34-.77-.32.32-.73.56-1.22.72s-.99.25-1.49.27ZM412.31,59.25c.5-.01.96-.09,1.38-.23.41-.14.74-.34.98-.59.24-.26.35-.57.32-.93-.02-.34-.2-.58-.51-.72-.32-.14-.72-.2-1.22-.18-.44.01-.85.09-1.22.24-.37.15-.67.35-.89.58-.22.24-.33.51-.33.81.01.34.15.59.41.77.26.17.62.25,1.08.24Z"/>
    </g>
    <g clip-path="url(#clippath-2)">
      <g isolation="isolate">
        <g clip-path="url(#clippath-3)">
          <g clip-path="url(#clippath-4)">
            <path d="M323.94,79.79c.18-.73.51-1.29,1.96-1.34.09,0,.31-.02.31-.36,0-.02,0-.2-.24-.2-.6,0-1.23.05-1.83.05s-1.25-.05-1.85-.05c-.11,0-.33,0-.33.36,0,.2.18.2.33.2,1.03.02,1.23.4,1.23.8,0,.05-.04.33-.05.38l-2.03,8.07-4.01-9.47c-.15-.33-.16-.34-.58-.34h-2.43c-.36,0-.53,0-.53.36,0,.2.16.2.51.2.09,0,1.23,0,1.23.16l-2.43,9.74c-.18.73-.49,1.31-1.96,1.36-.11,0-.31.02-.31.36,0,.13.09.2.24.2.58,0,1.22-.05,1.81-.05s1.27.05,1.87.05c.09,0,.33,0,.33-.36,0-.18-.16-.2-.36-.2-1.05-.04-1.2-.44-1.2-.8,0-.13.02-.22.07-.42l2.39-9.58c.07.11.07.15.16.33l4.52,10.68c.13.31.18.34.34.34.2,0,.2-.05.29-.38l2.54-10.1"/>
            <path d="M344.31,87.86c.25,0,.6,0,.6-.36s-.34-.36-.62-.36h-10.83c-.27,0-.62,0-.62.36s.34.36.6.36h10.87M344.29,84.34c.27,0,.62,0,.62-.36s-.34-.36-.6-.36h-10.87c-.25,0-.6,0-.6.36s.34.36.62.36h10.83Z"/>
            <path d="M356.22,83.89c1.49-.49,2.54-1.76,2.54-3.19s-1.6-2.5-3.34-2.5c-1.83,0-3.21,1.09-3.21,2.47,0,.6.4.94.93.94.56,0,.93-.4.93-.93,0-.91-.85-.91-1.12-.91.56-.89,1.76-1.12,2.41-1.12.74,0,1.74.4,1.74,2.03,0,.22-.04,1.27-.51,2.07-.54.87-1.16.93-1.61.94-.15.02-.58.05-.71.05-.14.02-.27.04-.27.22,0,.2.13.2.44.2h.8c1.49,0,2.16,1.23,2.16,3.01,0,2.47-1.25,2.99-2.05,2.99s-2.14-.31-2.78-1.38c.63.09,1.2-.31,1.2-1,0-.65-.49-1.02-1.02-1.02-.43,0-1.02.25-1.02,1.05,0,1.65,1.69,2.85,3.66,2.85,2.21,0,3.86-1.65,3.86-3.5,0-1.49-1.14-2.9-3.03-3.28"/>
            <path d="M322.95,108.34c-.09.33-.09.36-.36.67-.8,1-1.54,1.29-2.05,1.29-.91,0-1.16-1-1.16-1.71,0-.91.58-3.14,1-3.97.56-1.07,1.38-1.74,2.1-1.74,1.18,0,1.43,1.49,1.43,1.6s-.04.22-.05.31l-.91,3.56M326.72,98.11s0-.2-.24-.2c-.27,0-2,.16-2.3.2-.15.02-.25.11-.25.34,0,.22.16.22.43.22.87,0,.91.13.91.31l-.05.36-1.09,4.3c-.33-.67-.85-1.16-1.67-1.16-2.12,0-4.37,2.67-4.37,5.32,0,1.7,1,2.9,2.41,2.9.36,0,1.27-.07,2.36-1.36.15.76.78,1.36,1.65,1.36.63,0,1.05-.42,1.34-1,.31-.65.54-1.76.54-1.8,0-.18-.16-.18-.22-.18-.18,0-.2.07-.25.33-.31,1.18-.63,2.25-1.38,2.25-.49,0-.54-.47-.54-.84,0-.43.04-.56.11-.87l2.61-10.49Z"/>
            <path d="M344.31,108.09c.25,0,.6,0,.6-.36s-.34-.36-.62-.36h-10.83c-.27,0-.62,0-.62.36s.34.36.6.36h10.87M344.29,104.57c.27,0,.62,0,.62-.36s-.34-.36-.6-.36h-10.87c-.25,0-.6,0-.6.36s.34.36.62.36h10.83Z"/>
            <polyline points="355.59 115.04 355.59 114.31 353.83 114.31 353.83 97.62 355.59 97.62 355.59 96.9 353.1 96.9 353.1 115.04 355.59 115.04"/>
            <path d="M361.36,98.89c0-.44,0-.47-.42-.47-1.12,1.16-2.72,1.16-3.3,1.16v.56c.36,0,1.43,0,2.38-.47v9.4c0,.65-.05.87-1.69.87h-.58v.56c.63-.05,2.21-.05,2.94-.05s2.3,0,2.94.05v-.56h-.58c-1.63,0-1.69-.2-1.69-.87v-10.18"/>
            <path d="M368.81,110.48c0-1.2-.45-1.9-1.16-1.9-.6,0-.96.45-.96.96s.36.96.96.96c.22,0,.45-.07.64-.24.05-.04.07-.05.09-.05s.04.02.04.27c0,1.34-.64,2.43-1.23,3.03-.2.2-.2.24-.2.29,0,.13.09.2.18.2.2,0,1.65-1.4,1.65-3.52"/>
            <path d="M385.13,106.33c.31,0,.64,0,.64-.36s-.33-.36-.64-.36h-9.81c-.31,0-.64,0-.64.36s.33.36.64.36h9.81"/>
            <path d="M392.56,104.12c1.49-.49,2.54-1.76,2.54-3.19s-1.6-2.5-3.34-2.5c-1.83,0-3.21,1.09-3.21,2.47,0,.6.4.94.93.94.56,0,.93-.4.93-.93,0-.91-.85-.91-1.12-.91.56-.89,1.76-1.12,2.41-1.12.74,0,1.74.4,1.74,2.03,0,.22-.04,1.27-.51,2.07-.55.87-1.16.93-1.61.94-.15.02-.58.05-.71.05-.14.02-.27.04-.27.22,0,.2.13.2.44.2h.8c1.49,0,2.16,1.23,2.16,3.01,0,2.47-1.25,2.99-2.05,2.99s-2.14-.31-2.78-1.38c.63.09,1.2-.31,1.2-1,0-.65-.49-1.02-1.02-1.02-.44,0-1.02.25-1.02,1.05,0,1.65,1.69,2.85,3.66,2.85,2.21,0,3.86-1.65,3.86-3.5,0-1.49-1.14-2.9-3.03-3.28"/>
            <path d="M400.04,110.48c0-1.2-.45-1.9-1.16-1.9-.6,0-.96.45-.96.96s.36.96.96.96c.22,0,.45-.07.64-.24.05-.04.07-.05.09-.05s.04.02.04.27c0,1.34-.64,2.43-1.23,3.03-.2.2-.2.24-.2.29,0,.13.09.2.18.2.2,0,1.65-1.4,1.65-3.52"/>
            <path d="M406.76,109.11l1.92-1.87c2.83-2.5,3.92-3.48,3.92-5.3,0-2.07-1.63-3.52-3.85-3.52-2.05,0-3.39,1.67-3.39,3.28,0,1.02.91,1.02.96,1.02.31,0,.94-.22.94-.96,0-.47-.33-.94-.96-.94-.15,0-.18,0-.24.02.42-1.18,1.4-1.85,2.45-1.85,1.65,0,2.43,1.47,2.43,2.96s-.91,2.88-1.9,4.01l-3.48,3.88c-.2.2-.2.24-.2.67h6.73l.51-3.16h-.45c-.09.54-.22,1.34-.4,1.61-.13.15-1.32.15-1.72.15h-3.27"/>
            <polyline points="416.4 96.9 413.91 96.9 413.91 97.62 415.67 97.62 415.67 114.31 413.91 114.31 413.91 115.04 416.4 115.04 416.4 96.9"/>
          </g>
        </g>
      </g>
    </g>
  </g>
  <g>
    <polygon points="285.93 162.16 424.88 162.16 424.88 171.37 447.4 153.57 424.88 135.78 424.88 144.99 285.93 144.99 285.93 162.16" fill="#60ffff" stroke="#000" stroke-miterlimit="10" stroke-width=".5"/>
    <g>
      <rect x="307.62" y="166.21" width="118.09" height="21.09" fill="none"/>
      <path d="M338.28,184.11c-1.27,0-2.39-.3-3.36-.9-.97-.6-1.74-1.45-2.29-2.54-.55-1.09-.83-2.38-.83-3.86s.28-2.77.83-3.87c.55-1.1,1.32-1.95,2.29-2.56.97-.61,2.09-.91,3.36-.91,1.15,0,2.17.25,3.08.75.91.5,1.65,1.2,2.22,2.11l-1.62.96c-.41-.64-.93-1.13-1.56-1.48s-1.33-.52-2.12-.52c-.91,0-1.7.23-2.39.68-.69.45-1.22,1.09-1.61,1.91-.39.82-.58,1.8-.58,2.93s.19,2.09.58,2.91c.39.82.92,1.46,1.61,1.91.69.45,1.48.68,2.39.68.79,0,1.49-.17,2.12-.52s1.15-.84,1.56-1.48l1.62.96c-.57.89-1.31,1.59-2.22,2.09-.91.5-1.93.75-3.08.75Z"/>
      <path d="M349.78,184.03c-.88,0-1.66-.21-2.35-.63-.69-.42-1.23-1.01-1.62-1.77-.39-.76-.59-1.64-.59-2.64s.2-1.88.59-2.63c.39-.75.93-1.34,1.62-1.76.69-.42,1.47-.63,2.35-.63s1.66.21,2.35.63c.69.42,1.23,1.01,1.62,1.76.39.75.59,1.63.59,2.63s-.2,1.88-.59,2.64c-.39.76-.93,1.35-1.62,1.77-.69.42-1.47.63-2.35.63ZM349.78,182.39c.81,0,1.48-.3,1.99-.91.51-.61.77-1.44.77-2.49s-.26-1.88-.77-2.48c-.51-.6-1.18-.9-1.99-.9s-1.48.3-1.99.9c-.51.6-.77,1.43-.77,2.48s.26,1.88.77,2.49c.51.61,1.18.91,1.99.91Z"/>
      <path d="M356.5,183.81v-9.6h1.62l.1,1.32c.21-.45.55-.83,1.01-1.12s.99-.44,1.59-.44c.69,0,1.28.16,1.76.48.48.32.83.77,1.04,1.36.24-.53.6-.97,1.09-1.32s1.08-.52,1.77-.52c.97,0,1.75.32,2.32.96.57.64.86,1.57.86,2.8v6.08h-1.82v-5.72c0-.84-.16-1.46-.47-1.87s-.74-.61-1.29-.61c-.65,0-1.17.24-1.55.72s-.57,1.09-.57,1.84v5.64h-1.78v-5.72c0-.84-.16-1.46-.48-1.87s-.75-.61-1.3-.61c-.65,0-1.17.24-1.54.73-.37.49-.56,1.09-.56,1.81v5.66h-1.8Z"/>
      <path d="M372.34,187.85v-13.64h1.6l.06,1.36c.35-.51.77-.9,1.28-1.18.51-.28,1.07-.42,1.7-.42.88,0,1.66.2,2.34.61.68.41,1.22.99,1.61,1.74.39.75.59,1.64.59,2.67s-.2,1.92-.59,2.68c-.39.76-.93,1.34-1.61,1.75-.68.41-1.46.61-2.34.61-.6,0-1.14-.13-1.62-.39-.48-.26-.89-.62-1.22-1.07v5.28h-1.8ZM376.92,182.39c.81,0,1.49-.3,2.02-.91.53-.61.8-1.44.8-2.49s-.27-1.88-.8-2.48c-.53-.6-1.21-.9-2.02-.9s-1.48.3-2.01.9c-.53.6-.79,1.43-.79,2.48s.26,1.88.79,2.49c.53.61,1.2.91,2.01.91Z"/>
      <path d="M384.88,172.41c-.33,0-.62-.12-.85-.35-.23-.23-.35-.52-.35-.85s.12-.62.35-.85c.23-.23.52-.35.85-.35s.6.12.83.35c.23.23.35.52.35.85s-.12.62-.35.85c-.23.23-.51.35-.83.35ZM384,183.81v-9.6h1.78v9.6h-1.78Z"/>
      <path d="M388.76,183.81v-14.34h1.8v14.34h-1.8Z"/>
      <path d="M397.32,184.03c-.91,0-1.71-.19-2.4-.58-.69-.39-1.23-.96-1.62-1.71-.39-.75-.58-1.66-.58-2.73s.19-1.92.58-2.67c.39-.75.92-1.34,1.59-1.75.67-.41,1.45-.62,2.33-.62s1.63.22,2.25.65c.62.43,1.09,1.01,1.42,1.73.33.72.49,1.51.49,2.36v.48h-6.9c.03,1.07.3,1.88.81,2.43.51.55,1.2.83,2.05.83.68,0,1.24-.17,1.69-.5s.82-.83,1.13-1.5l1.36.9c-.45.93-1.03,1.61-1.73,2.04-.7.43-1.52.64-2.47.64ZM394.58,177.75h5.04c-.11-.69-.37-1.25-.8-1.68-.43-.43-.97-.64-1.62-.64-.69,0-1.27.2-1.72.59-.45.39-.75.97-.9,1.73Z"/>
    </g>
  </g>
  <g>
    <g>
      <g>
        <rect x="34.32" y="82.43" width="243.63" height="138.42" fill="#fff"/>
        <path d="M277.45,82.93v137.42H34.82V82.93h242.63M278.45,81.93H33.82v139.42h244.63V81.93h0Z"/>
      </g>
      <g isolation="isolate">
        <g clip-path="url(#clippath-5)">
          <g clip-path="url(#clippath-6)">
            <path d="M55,148.15v9.6c0,1.62-.39,1.62-2.8,1.62v1.11c1.25-.04,3.08-.11,4.05-.11s2.8.07,4.02.11v-1.11c-2.4,0-2.8,0-2.8-1.62v-6.59c0-3.73,2.55-5.73,4.84-5.73s2.65,1.93,2.65,3.97v8.35c0,1.62-.39,1.62-2.8,1.62v1.11c1.25-.04,3.08-.11,4.05-.11s2.8.07,4.01.11v-1.11c-2.4,0-2.8,0-2.8-1.62v-6.59c0-3.73,2.55-5.73,4.84-5.73s2.65,1.93,2.65,3.97v8.35c0,1.62-.4,1.62-2.8,1.62v1.11c1.25-.04,3.08-.11,4.05-.11s2.8.07,4.01.11v-1.11c-1.86,0-2.76,0-2.8-1.08v-6.84c0-3.09,0-4.2-1.11-5.49-.5-.61-1.68-1.32-3.76-1.32-3.01,0-4.59,2.15-5.2,3.51-.5-3.12-3.15-3.51-4.77-3.51-2.62,0-4.3,1.54-5.3,3.76v-3.76l-5.05.39v1.11c2.51,0,2.8.25,2.8,2.01"/>
            <path d="M87.45,138.4c0-1.15-.9-1.9-1.9-1.9-1.11,0-1.9.97-1.9,1.9s.79,1.9,1.9,1.9c1,0,1.9-.75,1.9-1.9M87.3,144.64l-5.02.39v1.11c2.33,0,2.65.22,2.65,1.97v9.64c0,1.62-.39,1.62-2.8,1.62v1.11c1.15-.04,3.08-.11,3.94-.11,1.25,0,2.51.07,3.73.11v-1.11c-2.37,0-2.51-.18-2.51-1.58v-13.15Z"/>
            <path d="M94.9,148.15v9.6c0,1.62-.39,1.62-2.8,1.62v1.11c1.25-.04,3.08-.11,4.05-.11s2.8.07,4.02.11v-1.11c-2.4,0-2.8,0-2.8-1.62v-6.59c0-3.73,2.55-5.73,4.84-5.73s2.65,1.93,2.65,3.97v8.35c0,1.62-.39,1.62-2.8,1.62v1.11c1.25-.04,3.08-.11,4.05-.11s2.8.07,4.01.11v-1.11c-1.86,0-2.76,0-2.8-1.08v-6.84c0-3.09,0-4.2-1.11-5.49-.5-.61-1.68-1.32-3.76-1.32-2.62,0-4.3,1.54-5.3,3.76v-3.76l-5.05.39v1.11c2.51,0,2.8.25,2.8,2.01"/>
            <path d="M137.78,101.18c.25-.95.65-1.78,2.66-1.83.12,0,.5-.03.5-.56,0-.15-.12-.35-.38-.35-.83,0-1.76.1-2.61.1-.6,0-2.06-.1-2.66-.1-.12,0-.5,0-.5.56,0,.32.33.35.55.35,1.18.02,1.61.4,1.61,1.03,0,.2-.03.32-.1.6l-2.73,10.94-6.37-13.05c-.2-.43-.25-.43-.85-.43h-3.44c-.48,0-.8,0-.8.56,0,.35.3.35.83.35s1.08.02,1.61.12l-3.36,13.43c-.22.95-.65,1.7-2.61,1.78-.18,0-.53.02-.53.52,0,.28.2.38.38.38.83,0,1.76-.1,2.61-.1.6,0,2.06.1,2.66.1.25,0,.5-.13.5-.53,0-.35-.3-.37-.58-.37-1.58-.05-1.58-.71-1.58-1.06,0-.1,0-.22.1-.62l3.21-12.85,7.33,15c.2.4.3.43.55.43.4,0,.4-.08.53-.53l3.49-13.87"/>
            <path d="M160.92,109.91c.4,0,1,0,1-.6,0-.63-.58-.63-1-.63h-14.95c-.4,0-1,0-1,.6,0,.63.58.63,1,.63h14.95"/>
            <path d="M173.06,99.62c0-.67-.05-.7-.75-.7-1.61,1.58-3.89,1.61-4.92,1.61v.9c.6,0,2.26,0,3.64-.7v12.79c0,.83,0,1.16-2.51,1.16h-.95v.9c.45-.03,3.54-.1,4.47-.1.78,0,3.94.07,4.49.1v-.9h-.95c-2.51,0-2.51-.33-2.51-1.16v-13.9"/>
            <path d="M167.34,176.56l4.34-11.47h-.9c-1.4,3.73-5.2,6.17-9.32,7.24-.75.18-4.27,1.11-11.15,1.11h-21.61l18.24-21.39c.25-.29.32-.4.32-.58,0-.07,0-.18-.25-.54l-16.7-22.83h19.64c4.8,0,8.06.5,8.39.57,1.94.29,5.06.9,7.89,2.69.9.58,3.33,2.19,4.55,5.09h.9l-4.34-10.07h-42.37c-.82,0-.86.04-.97.25-.04.11-.04.79-.04,1.18l18.96,25.96-18.57,21.75c-.36.43-.36.61-.36.65,0,.39.32.39.97.39h42.37"/>
            <path d="M123.92,200.8c-.1.33-.25.95-.25,1.03,0,.55.45.8.85.8.45,0,.85-.33.98-.55.12-.23.32-1.03.45-1.56.12-.47.4-1.63.55-2.25.15-.56.3-1.11.43-1.69.28-1.03.33-1.23,1.05-2.25.7-1.01,1.88-2.31,3.76-2.31,1.45,0,1.48,1.28,1.48,1.75,0,1.51-1.08,4.29-1.48,5.35-.28.7-.38.93-.38,1.35,0,1.33,1.1,2.16,2.38,2.16,2.51,0,3.61-3.46,3.61-3.84,0-.32-.33-.32-.4-.32-.35,0-.38.15-.48.42-.58,2.01-1.66,3.04-2.66,3.04-.53,0-.63-.35-.63-.88,0-.58.13-.9.58-2.03.3-.78,1.33-3.44,1.33-4.84,0-2.44-1.93-2.86-3.26-2.86-2.08,0-3.49,1.28-4.24,2.28-.18-1.73-1.65-2.28-2.68-2.28s-1.65.77-1.98,1.35c-.55.93-.9,2.36-.9,2.48,0,.33.35.33.43.33.35,0,.38-.08.55-.75.38-1.48.85-2.71,1.83-2.71.65,0,.83.55.83,1.23,0,.47-.22,1.4-.4,2.08-.18.68-.43,1.71-.55,2.26l-.8,3.21"/>
            <path d="M157.85,199.47c.33,0,.93,0,.93-.6,0-.63-.58-.63-.95-.63h-16.56c-.38,0-.95,0-.95.63s.6.6.93.6h16.61M157.83,193.95c.38,0,.95,0,.95-.63s-.6-.6-.93-.6h-16.61c-.33,0-.93,0-.93.6,0,.63.58.63.95.63h16.56Z"/>
            <path d="M167.68,202.18c-1.15,0-2.68-.68-3.19-2.74-.35-1.48-.35-3.53-.35-5.39s0-3.74.38-5.12c.53-1.98,2.13-2.51,3.16-2.51,1.35,0,2.66.83,3.11,2.29.4,1.35.43,3.16.43,5.34,0,1.86,0,3.71-.32,5.29-.5,2.29-2.21,2.84-3.21,2.84M173.5,194.38c0-2.76-.33-4.75-1.48-6.5-.78-1.16-2.33-2.16-4.34-2.16-5.82,0-5.82,6.85-5.82,8.66s0,8.5,5.82,8.5,5.82-6.7,5.82-8.5Z"/>
            <path d="M196,156.21c-.18.65-.18.72-.72,1.33-1.58,1.97-3.05,2.55-4.05,2.55-1.79,0-2.29-1.98-2.29-3.37,0-1.8,1.15-6.21,1.97-7.85,1.11-2.12,2.73-3.44,4.16-3.44,2.33,0,2.83,2.93,2.83,3.15s-.07.43-.11.61l-1.79,7.02M203.45,136s0-.4-.46-.4c-.54,0-3.94.33-4.55.4-.29.03-.5.21-.5.68,0,.43.32.43.86.43,1.72,0,1.79.25,1.79.61l-.11.71-2.15,8.5c-.64-1.33-1.68-2.29-3.3-2.29-4.19,0-8.64,5.26-8.64,10.5,0,3.37,1.97,5.73,4.77,5.73.72,0,2.51-.14,4.66-2.68.29,1.5,1.54,2.68,3.26,2.68,1.26,0,2.08-.82,2.65-1.97.61-1.29,1.08-3.47,1.08-3.55,0-.35-.32-.35-.43-.35-.36,0-.39.14-.5.64-.61,2.33-1.26,4.45-2.72,4.45-.97,0-1.08-.94-1.08-1.65,0-.86.07-1.11.21-1.72l5.16-20.72Z"/>
            <path d="M206.62,164.3c-.1.33-.25.95-.25,1.03,0,.55.45.8.85.8.45,0,.85-.33.98-.55.12-.23.32-1.03.45-1.56.12-.47.4-1.63.55-2.25.15-.56.3-1.11.43-1.69.28-1.03.33-1.23,1.05-2.25.7-1.01,1.88-2.31,3.76-2.31,1.46,0,1.48,1.28,1.48,1.75,0,1.51-1.08,4.29-1.48,5.35-.28.7-.38.93-.38,1.35,0,1.33,1.1,2.16,2.38,2.16,2.51,0,3.61-3.46,3.61-3.84,0-.32-.33-.32-.4-.32-.35,0-.38.15-.48.42-.58,2.01-1.66,3.04-2.66,3.04-.53,0-.63-.35-.63-.88,0-.58.13-.9.58-2.03.3-.78,1.33-3.44,1.33-4.84,0-2.44-1.93-2.86-3.26-2.86-2.08,0-3.49,1.28-4.24,2.28-.18-1.73-1.65-2.28-2.68-2.28s-1.65.77-1.98,1.35c-.55.93-.9,2.36-.9,2.48,0,.33.35.33.43.33.35,0,.38-.08.55-.75.38-1.48.85-2.71,1.83-2.71.65,0,.83.55.83,1.23,0,.47-.23,1.4-.4,2.08-.18.68-.43,1.71-.55,2.26l-.8,3.21"/>
            <path d="M235.13,149.65c.22-.93,1.04-4.22,3.55-4.22.18,0,1.04,0,1.79.46-1,.18-1.72,1.08-1.72,1.94,0,.57.4,1.25,1.36,1.25.79,0,1.94-.64,1.94-2.08,0-1.86-2.12-2.36-3.34-2.36-2.08,0-3.33,1.9-3.76,2.72-.9-2.36-2.83-2.72-3.87-2.72-3.73,0-5.77,4.62-5.77,5.52,0,.35.36.35.43.35.29,0,.39-.07.47-.39,1.22-3.8,3.58-4.69,4.8-4.69.68,0,1.94.32,1.94,2.4,0,1.11-.61,3.51-1.94,8.53-.57,2.22-1.83,3.73-3.4,3.73-.21,0-1.04,0-1.79-.47.9-.18,1.69-.93,1.69-1.94s-.79-1.25-1.33-1.25c-1.07,0-1.97.93-1.97,2.08,0,1.65,1.79,2.36,3.37,2.36,2.37,0,3.66-2.51,3.76-2.72.43,1.33,1.72,2.72,3.87,2.72,3.69,0,5.74-4.62,5.74-5.52,0-.35-.32-.35-.43-.35-.32,0-.39.14-.46.39-1.18,3.84-3.62,4.7-4.77,4.7-1.4,0-1.97-1.15-1.97-2.37,0-.79.21-1.58.61-3.15l1.22-4.92"/>
            <path d="M246.62,164.3c-.1.33-.25.95-.25,1.03,0,.55.45.8.85.8.45,0,.85-.33.98-.55.12-.23.32-1.03.45-1.56.12-.47.4-1.63.55-2.25.15-.56.3-1.11.43-1.69.28-1.03.33-1.23,1.05-2.25.7-1.01,1.88-2.31,3.76-2.31,1.46,0,1.48,1.28,1.48,1.75,0,1.51-1.08,4.29-1.48,5.35-.28.7-.38.93-.38,1.35,0,1.33,1.1,2.16,2.38,2.16,2.51,0,3.61-3.46,3.61-3.84,0-.32-.33-.32-.4-.32-.35,0-.38.15-.48.42-.58,2.01-1.66,3.04-2.66,3.04-.53,0-.63-.35-.63-.88,0-.58.13-.9.58-2.03.3-.78,1.33-3.44,1.33-4.84,0-2.44-1.93-2.86-3.26-2.86-2.08,0-3.49,1.28-4.24,2.28-.18-1.73-1.65-2.28-2.68-2.28s-1.65.77-1.98,1.35c-.55.93-.9,2.36-.9,2.48,0,.33.35.33.43.33.35,0,.38-.08.55-.75.38-1.48.85-2.71,1.83-2.71.65,0,.83.55.83,1.23,0,.47-.23,1.4-.4,2.08-.18.68-.43,1.71-.55,2.26l-.8,3.21"/>
          </g>
        </g>
      </g>
      <rect x="115.58" y="91.42" width="26.05" height="32.44" fill="none" stroke="#c1272d" stroke-miterlimit="10" stroke-width="2"/>
      <rect x="181.67" y="131.32" width="37.63" height="40.08" fill="none" stroke="#c1272d" stroke-miterlimit="10" stroke-width="2"/>
      <rect x="222.85" y="131.32" width="37.63" height="40.08" fill="none" stroke="blue" stroke-miterlimit="10" stroke-width="2"/>
    </g>
    <g>
      <rect x="33.82" y="223.23" width="158.79" height="25.2" fill="none"/>
      <path d="M35.21,239.07v-12.6h1.64l3.92,6.25,3.91-6.25h1.67v12.6h-1.69v-9.74l-3.42,5.54h-.94l-3.44-5.54v9.74h-1.66Z"/>
      <path d="M51.52,239.21c-.88.02-1.6-.18-2.17-.6s-.85-1.04-.85-1.84c0-.59.19-1.1.57-1.53.38-.43.86-.77,1.46-1.02.59-.25,1.21-.37,1.85-.37.37-.02.71,0,1.03.1s.58.22.81.39v-1.08c0-.67-.14-1.11-.42-1.31-.28-.2-.72-.31-1.31-.31-.5,0-1.04.09-1.61.27-.57.18-1.05.41-1.45.68l-.76-1.26c.49-.31,1.08-.58,1.75-.79.68-.22,1.36-.32,2.06-.32,1.1,0,1.93.22,2.47.66.54.44.81,1.23.81,2.38v4.34c0,.23.06.36.18.4.12.04.39,0,.81-.09v1.04c-.16.06-.35.12-.59.18-.24.06-.49.09-.74.09-.38,0-.66-.07-.83-.22-.17-.14-.28-.4-.34-.77-.32.32-.73.56-1.22.72-.49.16-.99.25-1.49.27ZM51.53,237.79c.5-.01.96-.09,1.38-.22s.74-.34.98-.59.35-.57.32-.93c-.02-.33-.2-.58-.51-.72-.32-.14-.72-.2-1.21-.18-.44.01-.85.09-1.22.24-.37.15-.67.34-.89.58s-.33.51-.33.81c.01.34.15.59.41.76.26.17.62.26,1.08.24Z"/>
      <path d="M61.47,239.27c-.82,0-1.43-.16-1.85-.48-.42-.32-.63-.93-.63-1.83v-5.13h-1.75v-1.4h1.75v-3.1h1.6v3.1h2.5v1.4h-2.5v4.79c0,.47.1.78.32.95.21.16.52.24.94.24.22,0,.44-.03.67-.1.23-.07.42-.13.57-.21v1.49c-.19.08-.44.15-.74.2s-.59.07-.88.07Z"/>
      <path d="M64.87,239.07v-12.91h1.62v5.38c.22-.36.53-.67.95-.94s.91-.4,1.46-.4c.91,0,1.65.29,2.22.87.57.58.85,1.43.85,2.53v5.45h-1.6v-5.11c0-.76-.17-1.32-.5-1.7-.34-.38-.77-.57-1.31-.57-.61,0-1.11.2-1.49.6-.38.4-.58.94-.58,1.61v5.17h-1.62Z"/>
      <path d="M78.08,239.27c-.82,0-1.54-.17-2.16-.52s-1.11-.86-1.46-1.54c-.35-.68-.52-1.5-.52-2.46s.17-1.72.52-2.4.83-1.2,1.43-1.58,1.31-.56,2.1-.56,1.47.2,2.02.58c.56.39.98.91,1.28,1.56.29.65.44,1.36.44,2.12v.43h-6.21c.02.96.27,1.69.73,2.19s1.08.75,1.85.75c.61,0,1.12-.15,1.52-.45.4-.3.74-.75,1.02-1.35l1.22.81c-.41.84-.93,1.45-1.56,1.84s-1.37.58-2.22.58ZM75.62,233.62h4.54c-.1-.62-.34-1.13-.72-1.51-.38-.38-.87-.58-1.46-.58-.62,0-1.14.18-1.55.53-.41.35-.68.87-.81,1.56Z"/>
      <path d="M83.81,239.07v-8.64h1.46l.09,1.19c.19-.41.5-.74.91-1.01s.89-.4,1.43-.4c.62,0,1.15.14,1.58.43.43.29.74.7.94,1.22.22-.48.54-.88.98-1.19.44-.31.97-.47,1.59-.47.88,0,1.57.29,2.09.86s.77,1.42.77,2.52v5.47h-1.64v-5.15c0-.76-.14-1.32-.42-1.68-.28-.37-.67-.55-1.16-.55-.59,0-1.05.22-1.4.65-.34.43-.51.98-.51,1.66v5.08h-1.6v-5.15c0-.76-.14-1.32-.43-1.68-.29-.37-.68-.55-1.17-.55-.59,0-1.05.22-1.39.66-.34.44-.5.98-.5,1.63v5.09h-1.62Z"/>
      <path d="M100.66,239.21c-.88.02-1.6-.18-2.17-.6s-.85-1.04-.85-1.84c0-.59.19-1.1.57-1.53.38-.43.86-.77,1.46-1.02.59-.25,1.21-.37,1.85-.37.37-.02.71,0,1.03.1s.58.22.81.39v-1.08c0-.67-.14-1.11-.42-1.31-.28-.2-.72-.31-1.31-.31-.5,0-1.04.09-1.61.27-.57.18-1.05.41-1.45.68l-.76-1.26c.49-.31,1.08-.58,1.75-.79.68-.22,1.36-.32,2.06-.32,1.1,0,1.93.22,2.47.66.54.44.81,1.23.81,2.38v4.34c0,.23.06.36.18.4.12.04.39,0,.81-.09v1.04c-.16.06-.35.12-.59.18-.24.06-.49.09-.74.09-.38,0-.66-.07-.83-.22-.17-.14-.28-.4-.34-.77-.32.32-.73.56-1.22.72-.49.16-.99.25-1.49.27ZM100.67,237.79c.5-.01.96-.09,1.38-.22s.74-.34.98-.59.35-.57.32-.93c-.02-.33-.2-.58-.51-.72-.32-.14-.72-.2-1.21-.18-.44.01-.85.09-1.22.24-.37.15-.67.34-.89.58s-.33.51-.33.81c.01.34.15.59.41.76.26.17.62.26,1.08.24Z"/>
      <path d="M110.61,239.27c-.82,0-1.43-.16-1.85-.48-.42-.32-.63-.93-.63-1.83v-5.13h-1.75v-1.4h1.75v-3.1h1.6v3.1h2.5v1.4h-2.5v4.79c0,.47.1.78.32.95.21.16.52.24.94.24.22,0,.44-.03.67-.1.23-.07.42-.13.57-.21v1.49c-.19.08-.44.15-.74.2s-.59.07-.88.07Z"/>
      <path d="M115.09,228.81c-.3,0-.56-.11-.77-.32s-.31-.46-.31-.76.1-.55.31-.77c.21-.21.46-.31.77-.31s.54.11.75.31c.21.21.31.47.31.77s-.11.55-.31.76c-.21.21-.46.32-.75.32ZM114.3,239.07v-8.64h1.6v8.64h-1.6Z"/>
      <path d="M122.22,239.27c-.79,0-1.5-.19-2.11-.57-.62-.38-1.1-.91-1.46-1.58s-.53-1.47-.53-2.37.18-1.69.53-2.38c.35-.68.84-1.21,1.46-1.59.62-.38,1.32-.57,2.11-.57.66,0,1.27.14,1.82.41.55.27,1.01.66,1.39,1.18l-1.28.95c-.44-.71-1.09-1.06-1.93-1.06-.73,0-1.33.27-1.79.81s-.69,1.29-.69,2.25.23,1.69.69,2.23,1.06.81,1.79.81c.84,0,1.49-.35,1.94-1.04l1.26.94c-.37.52-.83.91-1.39,1.18-.55.27-1.16.41-1.82.41Z"/>
      <path d="M129.96,239.21c-.88.02-1.6-.18-2.17-.6s-.85-1.04-.85-1.84c0-.59.19-1.1.57-1.53.38-.43.86-.77,1.46-1.02.59-.25,1.21-.37,1.85-.37.37-.02.71,0,1.03.1s.58.22.81.39v-1.08c0-.67-.14-1.11-.42-1.31-.28-.2-.72-.31-1.31-.31-.5,0-1.04.09-1.61.27-.57.18-1.05.41-1.45.68l-.76-1.26c.49-.31,1.08-.58,1.75-.79.68-.22,1.36-.32,2.06-.32,1.1,0,1.93.22,2.47.66.54.44.81,1.23.81,2.38v4.34c0,.23.06.36.18.4.12.04.39,0,.81-.09v1.04c-.16.06-.35.12-.59.18-.24.06-.49.09-.74.09-.38,0-.66-.07-.83-.22-.17-.14-.28-.4-.34-.77-.32.32-.73.56-1.22.72-.49.16-.99.25-1.49.27ZM129.98,237.79c.5-.01.96-.09,1.38-.22s.74-.34.98-.59.35-.57.32-.93c-.02-.33-.2-.58-.51-.72-.32-.14-.72-.2-1.21-.18-.44.01-.85.09-1.22.24-.37.15-.67.34-.89.58s-.33.51-.33.81c.01.34.15.59.41.76.26.17.62.26,1.08.24Z"/>
      <path d="M137,239.07v-12.91h1.62v12.91h-1.62Z"/>
      <path d="M146.25,239.07v-12.6h1.64l3.92,6.25,3.91-6.25h1.67v12.6h-1.69v-9.74l-3.42,5.54h-.94l-3.44-5.54v9.74h-1.66Z"/>
      <path d="M163.6,239.27c-.79,0-1.5-.19-2.11-.57-.62-.38-1.1-.91-1.46-1.59-.35-.68-.53-1.48-.53-2.38s.18-1.69.53-2.37.84-1.21,1.46-1.58c.62-.38,1.32-.57,2.11-.57s1.5.19,2.12.57c.62.38,1.1.91,1.46,1.58s.53,1.47.53,2.37-.18,1.69-.53,2.38c-.35.68-.84,1.21-1.46,1.59-.62.38-1.32.57-2.12.57ZM163.6,237.79c.73,0,1.33-.27,1.79-.82s.69-1.29.69-2.24-.23-1.69-.69-2.23-1.06-.81-1.79-.81-1.33.27-1.79.81-.69,1.28-.69,2.23.23,1.7.69,2.24,1.06.82,1.79.82Z"/>
      <path d="M173.29,239.27c-.79,0-1.5-.18-2.11-.55-.62-.37-1.1-.89-1.46-1.57s-.53-1.48-.53-2.4.18-1.74.53-2.42c.35-.68.84-1.2,1.46-1.57.62-.37,1.32-.55,2.11-.55.53,0,1.01.11,1.45.34.44.23.81.55,1.11.97v-5.36h1.6v12.91h-1.42l-.05-1.24c-.3.44-.68.79-1.14,1.05-.46.26-.98.39-1.54.39ZM173.34,237.79c.73,0,1.33-.27,1.81-.81.47-.54.71-1.28.71-2.23s-.24-1.71-.71-2.25c-.47-.54-1.08-.81-1.81-.81s-1.34.27-1.82.81c-.48.54-.72,1.29-.72,2.25s.24,1.69.72,2.23c.48.54,1.09.81,1.82.81Z"/>
      <path d="M183.53,239.27c-.82,0-1.54-.17-2.16-.52-.62-.35-1.11-.86-1.46-1.54-.35-.68-.52-1.5-.52-2.46s.17-1.72.52-2.4.82-1.2,1.43-1.58,1.31-.56,2.1-.56,1.47.2,2.03.58c.56.39.98.91,1.28,1.56.29.65.44,1.36.44,2.12v.43h-6.21c.02.96.27,1.69.73,2.19.46.5,1.08.75,1.85.75.61,0,1.12-.15,1.52-.45s.74-.75,1.02-1.35l1.22.81c-.41.84-.93,1.45-1.56,1.84-.63.38-1.37.58-2.22.58ZM181.06,233.62h4.54c-.1-.62-.34-1.13-.72-1.51-.38-.38-.87-.58-1.46-.58-.62,0-1.14.18-1.55.53-.41.35-.68.87-.81,1.56Z"/>
      <path d="M189.25,239.07v-12.91h1.62v12.91h-1.62Z"/>
    </g>
  </g>
  <g>
    <g>
      <path d="M195.95,70.14h-40.16l-13.53,19.52,1.26-19.52h-19.53c-3.71,0-6.73-2.79-6.73-6.21V28.23c0-3.43,3.02-6.21,6.73-6.21h91.07c3.71,0,6.73,2.79,6.73,6.21v35.7c0,3.43-3.02,6.21-6.73,6.21h-10.02l-4.54,52.57-4.54-52.57Z" fill="#da9ca7"/>
      <path d="M215.05,22.52c3.43,0,6.23,2.56,6.23,5.71v35.7c0,3.15-2.79,5.71-6.23,5.71h-10.47l-.08.91-4,46.34-4-46.34-.08-.91h-40.89l-.3.43-12.36,17.82,1.11-17.19.07-1.06h-20.07c-3.43,0-6.23-2.56-6.23-5.71V28.23c0-3.15,2.79-5.71,6.23-5.71h91.07M215.05,21.52h-91.07c-3.98,0-7.23,3.02-7.23,6.71v35.7c0,3.69,3.25,6.71,7.23,6.71h19l-1.34,20.78,14.41-20.78h39.44l5,57.88,5-57.88h9.56c3.98,0,7.23-3.02,7.23-6.71V28.23c0-3.69-3.25-6.71-7.23-6.71h0Z"/>
    </g>
    <g>
      <rect x="117.69" y="50.22" width="103.64" height="13.8" fill="none"/>
      <path d="M140.87,62.66c-.61-.87-1.08-1.8-1.41-2.77-.33-.98-.5-1.97-.5-2.99s.17-2.06.5-3.05c.34-1,.8-1.89,1.39-2.69l.85.47c-.54.75-.97,1.57-1.29,2.47-.32.89-.47,1.83-.47,2.81s.16,1.89.47,2.75c.31.87.75,1.72,1.31,2.55l-.85.46Z"/>
      <path d="M146.2,60.92c-1.02,0-1.79-.28-2.33-.85-.54-.56-.8-1.4-.8-2.51v-5.18h1.12v5.14c0,.78.17,1.36.52,1.75.35.39.85.59,1.49.59s1.14-.2,1.49-.59c.34-.39.52-.98.52-1.75v-5.14h1.12v5.18c0,1.11-.27,1.95-.8,2.51s-1.31.85-2.32.85Z"/>
      <path d="M152.97,60.9c-.49,0-.94-.09-1.37-.26s-.78-.45-1.08-.82l.71-.7c.43.55,1.03.83,1.79.83.35,0,.63-.06.84-.19s.31-.34.31-.64c0-.24-.11-.42-.32-.53-.22-.12-.6-.23-1.15-.33-.36-.07-.68-.17-.97-.29s-.51-.29-.68-.52-.25-.53-.25-.89.1-.65.29-.91c.19-.25.45-.45.76-.58s.67-.2,1.05-.2c.94,0,1.65.3,2.14.9l-.64.73c-.18-.23-.39-.4-.65-.51-.26-.11-.54-.16-.84-.16-.34,0-.6.07-.77.21-.17.14-.25.31-.25.5,0,.22.1.39.29.49s.54.21,1.04.32c.4.09.75.2,1.06.35.31.14.55.33.72.56s.26.53.26.9c0,.55-.21.98-.63,1.28s-.97.46-1.66.46Z"/>
      <path d="M158.91,60.91c-.54,0-1.02-.12-1.44-.35s-.74-.57-.97-1.03c-.23-.45-.35-1-.35-1.64s.12-1.15.35-1.6.55-.8.95-1.05c.4-.25.87-.37,1.4-.37s.98.13,1.35.39c.37.26.66.61.85,1.04.2.43.29.9.29,1.42v.29h-4.14c.02.64.18,1.13.49,1.46.31.33.72.5,1.23.5.41,0,.75-.1,1.01-.3.27-.2.49-.5.68-.9l.82.54c-.27.56-.62.97-1.04,1.22s-.91.38-1.48.38ZM157.27,57.14h3.02c-.06-.42-.22-.75-.48-1.01-.26-.26-.58-.38-.97-.38-.42,0-.76.12-1.03.35-.27.24-.45.58-.54,1.04Z"/>
      <path d="M162.72,60.78v-5.76h.98l.06.9c.16-.31.4-.56.73-.76.32-.19.67-.29,1.05-.29.13,0,.25,0,.36.02.11.02.21.03.29.05v1.04c-.09-.02-.2-.04-.34-.06-.14-.02-.28-.02-.44-.02-.45,0-.83.15-1.14.44-.31.29-.47.67-.47,1.15v3.29h-1.08Z"/>
      <path d="M170.75,60.78v-8.4h1.09v8.4h-1.09Z"/>
      <path d="M173.57,60.78v-5.76h.97l.06.74c.17-.24.39-.45.68-.62.28-.18.61-.26.98-.26.61,0,1.1.19,1.48.58.38.39.57.95.57,1.69v3.64h-1.07v-3.41c0-.5-.11-.88-.34-1.13-.22-.25-.52-.38-.88-.38-.41,0-.74.13-1,.4-.26.27-.38.63-.38,1.07v3.44h-1.08Z"/>
      <path d="M179.93,63.2v-8.18h.96l.04.82c.21-.3.46-.54.77-.71.3-.17.64-.25,1.02-.25.53,0,1,.12,1.4.37.41.24.73.59.97,1.04.24.45.35.99.35,1.6s-.12,1.15-.35,1.61-.56.81-.97,1.05c-.41.24-.88.37-1.4.37-.36,0-.68-.08-.97-.23-.29-.16-.53-.37-.73-.64v3.17h-1.08ZM182.68,59.92c.49,0,.89-.18,1.21-.55.32-.36.48-.86.48-1.49s-.16-1.13-.48-1.49c-.32-.36-.72-.54-1.21-.54s-.89.18-1.21.54c-.32.36-.47.86-.47,1.49s.16,1.13.47,1.49c.32.36.72.55,1.21.55Z"/>
      <path d="M188.68,60.91c-.61,0-1.1-.19-1.48-.58-.38-.39-.56-.95-.56-1.69v-3.62h1.07v3.41c0,.5.11.87.34,1.12.22.25.51.38.86.38.41,0,.74-.13,1-.4.26-.27.39-.63.39-1.09v-3.42h1.07v5.76h-.97l-.05-.74c-.17.24-.39.45-.68.62-.28.17-.61.26-.99.26Z"/>
      <path d="M195.29,60.91c-.54,0-.96-.11-1.24-.32s-.42-.62-.42-1.22v-3.42h-1.16v-.94h1.16v-2.06h1.07v2.06h1.67v.94h-1.67v3.19c0,.31.07.52.21.63.14.11.35.16.63.16.14,0,.29-.02.45-.07.16-.04.28-.09.38-.14v1c-.13.06-.29.1-.49.13-.2.03-.4.05-.59.05Z"/>
      <path d="M198.15,62.66l-.85-.46c.57-.83,1.01-1.68,1.31-2.55.31-.87.46-1.79.46-2.75s-.16-1.92-.47-2.81-.75-1.71-1.29-2.47l.85-.47c.59.8,1.06,1.7,1.39,2.69.34,1,.5,2.01.5,3.05s-.16,2.01-.49,2.99c-.33.98-.8,1.9-1.42,2.77Z"/>
    </g>
    <g>
      <rect x="117.69" y="30.05" width="103.64" height="21.78" fill="none"/>
      <path d="M124.83,45.9v-12.6h5.63c1.19,0,2.11.28,2.76.83.65.55.98,1.43.98,2.63s-.33,2.1-.98,2.66c-.65.56-1.58.85-2.76.85h-4v5.63h-1.64ZM126.47,38.69h3.8c.72,0,1.27-.15,1.65-.46.38-.31.57-.8.57-1.48s-.19-1.16-.57-1.46c-.38-.3-.93-.45-1.65-.45h-3.8v3.85Z"/>
      <path d="M135.99,45.9v-12.91h1.62v12.91h-1.62Z"/>
      <path d="M142.61,46.04c-.88.02-1.6-.18-2.17-.6-.57-.43-.85-1.04-.85-1.85,0-.59.19-1.1.57-1.53s.86-.77,1.46-1.02c.59-.25,1.21-.37,1.84-.37.37-.02.71,0,1.03.1.31.09.58.22.81.39v-1.08c0-.67-.14-1.11-.42-1.31-.28-.2-.72-.31-1.3-.31-.5,0-1.04.09-1.61.27-.57.18-1.05.41-1.45.68l-.76-1.26c.49-.31,1.08-.58,1.76-.79.68-.22,1.36-.32,2.06-.32,1.1,0,1.93.22,2.47.66.54.44.81,1.23.81,2.39v4.34c0,.23.06.36.18.4s.39,0,.81-.09v1.04c-.16.06-.35.12-.59.18-.24.06-.49.09-.74.09-.38,0-.66-.07-.83-.22-.17-.14-.28-.4-.34-.77-.32.32-.73.56-1.22.72s-.99.25-1.49.27ZM142.63,44.62c.5-.01.96-.09,1.38-.23.41-.14.74-.34.98-.59.24-.26.35-.57.32-.93-.02-.34-.2-.58-.51-.72-.32-.14-.72-.2-1.22-.18-.44.01-.85.09-1.22.24-.37.15-.67.35-.89.58-.22.24-.33.51-.33.81.01.34.15.59.41.77.26.17.62.25,1.08.24Z"/>
      <path d="M152.93,46.09c-.79,0-1.5-.19-2.12-.57s-1.1-.91-1.46-1.58c-.35-.68-.53-1.47-.53-2.37s.18-1.69.53-2.38c.35-.68.84-1.22,1.46-1.59s1.32-.57,2.12-.57c.66,0,1.27.13,1.82.4.55.27,1.01.66,1.39,1.18l-1.28.95c-.44-.71-1.09-1.06-1.93-1.06-.73,0-1.33.27-1.79.81s-.69,1.29-.69,2.25.23,1.69.69,2.23,1.06.81,1.79.81c.84,0,1.49-.35,1.94-1.04l1.26.94c-.37.52-.83.91-1.39,1.18-.55.27-1.16.41-1.82.41Z"/>
      <path d="M161.39,46.09c-.82,0-1.54-.17-2.16-.52-.62-.35-1.11-.86-1.46-1.54-.35-.68-.52-1.5-.52-2.46s.17-1.73.52-2.4c.35-.68.83-1.2,1.43-1.57.61-.37,1.3-.56,2.1-.56s1.47.2,2.03.58c.56.39.98.91,1.28,1.56s.44,1.36.44,2.12v.43h-6.21c.02.96.27,1.69.73,2.19.46.5,1.08.75,1.85.75.61,0,1.12-.15,1.52-.45s.74-.75,1.02-1.35l1.22.81c-.41.84-.93,1.45-1.56,1.84-.63.38-1.37.58-2.22.58ZM158.92,40.44h4.54c-.1-.62-.34-1.13-.72-1.51-.38-.38-.87-.58-1.46-.58-.62,0-1.14.18-1.55.53-.41.35-.68.87-.81,1.56Z"/>
      <path d="M167.11,45.9v-12.91h1.62v5.38c.22-.36.53-.67.95-.94.42-.26.91-.4,1.46-.4.91,0,1.65.29,2.22.87s.86,1.42.86,2.53v5.45h-1.6v-5.11c0-.76-.17-1.32-.5-1.7s-.77-.57-1.31-.57c-.61,0-1.11.2-1.49.6-.38.4-.58.94-.58,1.61v5.17h-1.62Z"/>
      <path d="M180.28,46.09c-.79,0-1.5-.19-2.12-.57s-1.1-.91-1.46-1.59c-.35-.68-.53-1.48-.53-2.38s.18-1.69.53-2.37c.35-.68.84-1.21,1.46-1.58s1.32-.57,2.12-.57,1.5.19,2.12.57,1.1.91,1.46,1.58c.35.68.53,1.47.53,2.37s-.18,1.69-.53,2.38c-.35.68-.84,1.21-1.46,1.59s-1.32.57-2.12.57ZM180.28,44.62c.73,0,1.33-.27,1.79-.82.46-.55.69-1.29.69-2.24s-.23-1.69-.69-2.23-1.06-.81-1.79-.81-1.33.27-1.79.81-.69,1.28-.69,2.23.23,1.69.69,2.24c.46.55,1.06.82,1.79.82Z"/>
      <path d="M186.33,45.9v-12.91h1.62v12.91h-1.62Z"/>
      <path d="M194,46.09c-.79,0-1.5-.18-2.12-.55-.62-.37-1.1-.89-1.46-1.57-.35-.68-.53-1.48-.53-2.4s.18-1.74.53-2.42c.35-.68.84-1.2,1.46-1.57.62-.37,1.32-.55,2.12-.55.53,0,1.01.11,1.45.34.44.23.81.55,1.11.97v-5.36h1.6v12.91h-1.42l-.05-1.24c-.3.44-.68.8-1.14,1.05s-.97.39-1.54.39ZM194.06,44.62c.73,0,1.33-.27,1.81-.81.47-.54.71-1.28.71-2.23s-.24-1.71-.71-2.25c-.47-.54-1.08-.81-1.81-.81s-1.34.27-1.82.81c-.48.54-.72,1.29-.72,2.25s.24,1.69.72,2.23c.48.54,1.09.81,1.82.81Z"/>
      <path d="M204.24,46.09c-.82,0-1.54-.17-2.16-.52-.62-.35-1.11-.86-1.46-1.54-.35-.68-.52-1.5-.52-2.46s.17-1.73.52-2.4c.35-.68.83-1.2,1.43-1.57.61-.37,1.3-.56,2.1-.56s1.47.2,2.03.58c.56.39.98.91,1.28,1.56s.44,1.36.44,2.12v.43h-6.21c.02.96.27,1.69.73,2.19.46.5,1.08.75,1.85.75.61,0,1.12-.15,1.52-.45s.74-.75,1.02-1.35l1.22.81c-.41.84-.93,1.45-1.56,1.84-.63.38-1.37.58-2.22.58ZM201.78,40.44h4.54c-.1-.62-.34-1.13-.72-1.51-.38-.38-.87-.58-1.46-.58-.62,0-1.14.18-1.55.53-.41.35-.68.87-.81,1.56Z"/>
      <path d="M209.97,45.9v-8.64h1.48l.09,1.35c.24-.47.6-.85,1.09-1.13.49-.29,1.01-.43,1.57-.43.19,0,.37.01.54.04s.31.05.43.07v1.57c-.13-.04-.3-.07-.5-.09-.2-.02-.43-.04-.67-.04-.67,0-1.24.22-1.71.66-.47.44-.7,1.01-.7,1.72v4.93h-1.62Z"/>
    </g>
  </g>
  <g>
    <g>
      <rect x="570.59" y="210.18" width="117.58" height="32.52" fill="none"/>
      <path d="M579.46,226.02v-12.6h3.87c1.32,0,2.43.26,3.34.77s1.6,1.25,2.07,2.19c.47.94.71,2.06.71,3.34s-.24,2.38-.71,3.33c-.47.95-1.16,1.68-2.07,2.2-.91.52-2.02.77-3.34.77h-3.87ZM581.1,224.47h2.12c1.01,0,1.84-.2,2.51-.6.67-.4,1.17-.96,1.5-1.67s.5-1.54.5-2.47-.17-1.78-.5-2.48-.84-1.26-1.5-1.67-1.5-.6-2.51-.6h-2.12v9.5Z"/>
      <path d="M595.06,226.22c-.82,0-1.54-.17-2.16-.52s-1.11-.86-1.46-1.54-.52-1.5-.52-2.46.17-1.72.52-2.4c.35-.68.83-1.2,1.43-1.57.61-.37,1.3-.56,2.1-.56s1.47.2,2.03.58c.56.39.98.91,1.28,1.56.29.65.44,1.36.44,2.12v.43h-6.21c.02.96.27,1.69.73,2.19.46.5,1.08.75,1.85.75.61,0,1.12-.15,1.52-.45s.74-.75,1.02-1.35l1.22.81c-.41.84-.93,1.45-1.56,1.84-.63.38-1.37.58-2.22.58ZM592.6,220.56h4.54c-.1-.62-.34-1.13-.72-1.51-.38-.38-.87-.58-1.46-.58-.62,0-1.14.18-1.55.53-.41.35-.68.87-.81,1.56Z"/>
      <path d="M604.42,226.22c-.79,0-1.5-.19-2.12-.57s-1.1-.91-1.46-1.58c-.35-.68-.53-1.47-.53-2.37s.18-1.69.53-2.38c.35-.68.84-1.21,1.46-1.59s1.32-.57,2.12-.57c.66,0,1.27.13,1.82.41.55.27,1.01.66,1.39,1.18l-1.28.95c-.44-.71-1.09-1.06-1.93-1.06-.73,0-1.33.27-1.79.81s-.69,1.29-.69,2.25.23,1.69.69,2.23,1.06.81,1.79.81c.84,0,1.49-.35,1.94-1.04l1.26.94c-.37.52-.83.91-1.39,1.18-.55.27-1.16.41-1.82.41Z"/>
      <path d="M610.65,215.76c-.3,0-.56-.11-.76-.32-.21-.21-.32-.46-.32-.76s.1-.56.32-.77c.21-.21.46-.31.76-.31s.54.1.75.31.31.47.31.77-.1.55-.31.76-.46.32-.75.32ZM609.86,226.02v-8.64h1.6v8.64h-1.6Z"/>
      <path d="M617.19,226.2c-.73,0-1.42-.13-2.05-.4-.64-.26-1.18-.67-1.62-1.22l1.06-1.04c.65.83,1.54,1.24,2.68,1.24.53,0,.95-.1,1.26-.29.31-.19.47-.51.47-.95,0-.36-.16-.63-.49-.8-.32-.17-.9-.34-1.73-.5-.54-.11-1.02-.25-1.45-.43-.43-.18-.76-.44-1.02-.78s-.38-.79-.38-1.34.14-.98.43-1.36.67-.67,1.14-.87c.47-.2,1-.31,1.57-.31,1.4,0,2.47.45,3.2,1.35l-.95,1.1c-.26-.35-.59-.6-.97-.77s-.8-.24-1.26-.24c-.52,0-.9.11-1.15.32s-.38.46-.38.75c0,.34.14.58.43.74.29.16.81.32,1.57.49.6.13,1.13.31,1.59.52s.82.5,1.08.85c.26.35.39.8.39,1.35,0,.83-.31,1.47-.94,1.93s-1.46.68-2.49.68Z"/>
      <path d="M623.51,215.76c-.3,0-.56-.11-.76-.32-.21-.21-.32-.46-.32-.76s.1-.56.32-.77c.21-.21.46-.31.76-.31s.54.1.75.31.31.47.31.77-.1.55-.31.76-.46.32-.75.32ZM622.71,226.02v-8.64h1.6v8.64h-1.6Z"/>
      <path d="M630.63,226.22c-.79,0-1.5-.19-2.12-.57s-1.1-.91-1.46-1.59c-.35-.68-.53-1.48-.53-2.38s.18-1.69.53-2.37c.35-.68.84-1.21,1.46-1.58s1.32-.57,2.12-.57,1.5.19,2.12.57,1.1.91,1.46,1.58c.35.68.53,1.47.53,2.37s-.18,1.69-.53,2.38c-.35.68-.84,1.21-1.46,1.59s-1.32.57-2.12.57ZM630.63,224.74c.73,0,1.33-.27,1.79-.82.46-.55.69-1.29.69-2.24s-.23-1.69-.69-2.23-1.06-.81-1.79-.81-1.33.27-1.79.81-.69,1.28-.69,2.23.23,1.69.69,2.24c.46.55,1.06.82,1.79.82Z"/>
      <path d="M636.68,226.02v-8.64h1.46l.09,1.12c.25-.36.59-.67,1.02-.94.43-.26.91-.4,1.47-.4.91,0,1.65.29,2.22.87s.86,1.42.86,2.53v5.45h-1.6v-5.11c0-.76-.17-1.32-.5-1.7s-.77-.57-1.31-.57c-.61,0-1.11.2-1.49.6-.38.4-.58.94-.58,1.61v5.17h-1.62Z"/>
      <path d="M654.88,226.02l-4.57-12.6h1.78l3.6,10.28,3.62-10.28h1.78l-4.59,12.6h-1.62Z"/>
      <path d="M664.24,226.16c-.88.02-1.6-.18-2.17-.6s-.85-1.04-.85-1.85c0-.59.19-1.1.57-1.53.38-.43.86-.77,1.46-1.02.59-.25,1.21-.37,1.84-.37.37-.02.71,0,1.03.1.31.09.58.22.81.39v-1.08c0-.67-.14-1.11-.42-1.31-.28-.2-.72-.31-1.3-.31-.5,0-1.04.09-1.61.27-.57.18-1.05.41-1.45.68l-.76-1.26c.49-.31,1.08-.58,1.76-.79.68-.22,1.36-.32,2.06-.32,1.1,0,1.93.22,2.47.66.54.44.81,1.23.81,2.38v4.34c0,.23.06.36.18.4s.39,0,.81-.09v1.04c-.16.06-.35.12-.59.18s-.49.09-.74.09c-.38,0-.66-.07-.83-.22-.17-.14-.28-.4-.34-.77-.32.32-.73.56-1.22.72-.49.16-.99.25-1.49.27ZM664.26,224.74c.5-.01.96-.09,1.38-.22s.74-.34.98-.59c.24-.26.35-.57.32-.93-.02-.34-.2-.58-.51-.72-.32-.14-.72-.2-1.22-.18-.44.01-.85.09-1.22.24-.37.15-.67.35-.89.58-.22.24-.33.51-.33.81.01.34.15.59.41.76.26.17.62.25,1.08.24Z"/>
      <path d="M671.28,226.02v-8.64h1.48l.09,1.35c.24-.47.6-.85,1.09-1.13.49-.29,1.01-.43,1.57-.43.19,0,.37.01.54.04.17.02.31.05.43.07v1.57c-.13-.04-.3-.07-.5-.09-.2-.02-.43-.04-.67-.04-.67,0-1.24.22-1.71.66-.47.44-.7,1.01-.7,1.72v4.93h-1.62Z"/>
      <path d="M678.44,226.22c-.34,0-.62-.12-.85-.35s-.35-.51-.35-.84.12-.62.35-.86c.23-.23.52-.35.85-.35s.6.12.84.35c.23.23.35.52.35.86s-.12.6-.35.84c-.23.23-.51.35-.84.35Z"/>
      <path d="M579.77,240.55c-.51-.73-.9-1.5-1.18-2.31-.28-.81-.42-1.64-.42-2.49s.14-1.71.42-2.54c.28-.83.67-1.58,1.16-2.25l.71.39c-.45.63-.81,1.31-1.07,2.05-.26.74-.4,1.53-.4,2.34s.13,1.57.39,2.29c.26.72.62,1.43,1.09,2.12l-.71.38Z"/>
      <path d="M583.62,239.09c-.44,0-.83-.1-1.18-.3-.34-.2-.61-.49-.81-.87-.2-.38-.29-.82-.29-1.33s.1-.97.29-1.34c.2-.38.47-.67.81-.87.34-.2.74-.3,1.18-.3.29,0,.56.06.8.19.24.13.45.31.62.54v-2.98h.89v7.17h-.79l-.03-.69c-.17.25-.38.44-.63.58-.26.14-.54.21-.85.21ZM583.65,238.27c.41,0,.74-.15,1-.45.26-.3.4-.71.4-1.24s-.13-.95-.4-1.25c-.26-.3-.6-.45-1-.45s-.74.15-1.01.45-.4.72-.4,1.25.13.94.4,1.24.6.45,1.01.45Z"/>
      <path d="M589.31,239.09c-.45,0-.85-.1-1.2-.29-.35-.19-.62-.48-.81-.85s-.29-.83-.29-1.37.1-.96.29-1.33c.19-.38.46-.67.79-.88.34-.21.72-.31,1.17-.31s.81.11,1.12.32c.31.22.55.51.71.87.16.36.25.75.25,1.18v.24h-3.45c.01.53.15.94.41,1.21.26.28.6.42,1.02.42.34,0,.62-.08.85-.25.22-.17.41-.42.56-.75l.68.45c-.23.47-.51.81-.86,1.02-.35.21-.76.32-1.24.32ZM587.94,235.95h2.52c-.05-.35-.19-.63-.4-.84s-.48-.32-.81-.32c-.35,0-.63.1-.86.29-.23.2-.38.49-.45.87Z"/>
      <path d="M594.41,239.09c-.45,0-.8-.09-1.03-.26s-.35-.51-.35-1.01v-2.85h-.97v-.78h.97v-1.72h.89v1.72h1.39v.78h-1.39v2.66c0,.26.06.44.18.53.12.09.29.13.52.13.12,0,.25-.02.38-.05.13-.04.24-.08.32-.12v.83c-.11.05-.24.08-.41.11-.17.03-.33.04-.49.04Z"/>
      <path d="M598.34,239.09c-.45,0-.85-.1-1.2-.29-.35-.19-.62-.48-.81-.85s-.29-.83-.29-1.37.1-.96.29-1.33c.19-.38.46-.67.79-.88.34-.21.72-.31,1.17-.31s.81.11,1.12.32c.31.22.55.51.71.87.16.36.25.75.25,1.18v.24h-3.45c.01.53.15.94.41,1.21.26.28.6.42,1.02.42.34,0,.62-.08.85-.25.22-.17.41-.42.56-.75l.68.45c-.23.47-.51.81-.86,1.02-.35.21-.76.32-1.24.32ZM596.97,235.95h2.52c-.05-.35-.19-.63-.4-.84s-.48-.32-.81-.32c-.35,0-.63.1-.86.29-.23.2-.38.49-.45.87Z"/>
      <path d="M601.51,238.98v-4.8h.82l.05.75c.13-.26.33-.47.6-.63.27-.16.56-.24.88-.24.11,0,.21,0,.3.02.09.01.17.03.24.04v.87c-.07-.02-.17-.04-.28-.05s-.24-.02-.37-.02c-.37,0-.69.12-.95.37s-.39.56-.39.96v2.74h-.9Z"/>
      <path d="M605.3,238.98v-4.8h.81l.05.66c.11-.23.27-.41.5-.56.23-.15.5-.22.79-.22.35,0,.64.08.88.24.24.16.41.39.52.68.12-.27.3-.49.54-.66.24-.17.54-.26.88-.26.49,0,.87.16,1.16.48.29.32.43.79.43,1.4v3.04h-.91v-2.86c0-.42-.08-.73-.23-.93-.16-.2-.37-.31-.65-.31-.33,0-.58.12-.78.36-.19.24-.28.55-.28.92v2.82h-.89v-2.86c0-.42-.08-.73-.24-.93-.16-.2-.38-.31-.65-.31-.33,0-.58.12-.77.37s-.28.54-.28.91v2.83h-.9Z"/>
      <path d="M613.82,233.28c-.17,0-.31-.06-.42-.17-.12-.12-.17-.26-.17-.42s.06-.31.17-.43c.12-.12.26-.17.42-.17s.3.06.42.17.18.26.18.43-.06.31-.18.42-.25.17-.42.17ZM613.38,238.98v-4.8h.89v4.8h-.89Z"/>
      <path d="M615.76,238.98v-4.8h.81l.05.62c.14-.2.33-.37.56-.52.24-.15.51-.22.82-.22.51,0,.92.16,1.23.48.32.32.48.79.48,1.41v3.03h-.89v-2.84c0-.42-.09-.74-.28-.95s-.43-.32-.73-.32c-.34,0-.62.11-.83.33-.21.22-.32.52-.32.9v2.87h-.9Z"/>
      <path d="M623.1,239.09c-.45,0-.85-.1-1.2-.29-.35-.19-.62-.48-.81-.85s-.29-.83-.29-1.37.1-.96.29-1.33c.19-.38.46-.67.79-.88.34-.21.72-.31,1.17-.31s.81.11,1.12.32c.31.22.55.51.71.87.16.36.25.75.25,1.18v.24h-3.45c.01.53.15.94.41,1.21.26.28.6.42,1.02.42.34,0,.62-.08.85-.25.22-.17.41-.42.56-.75l.68.45c-.23.47-.51.81-.86,1.02-.35.21-.76.32-1.24.32ZM621.73,235.95h2.52c-.05-.35-.19-.63-.4-.84s-.48-.32-.81-.32c-.35,0-.63.1-.86.29-.23.2-.38.49-.45.87Z"/>
      <path d="M628.3,239.09c-.44,0-.83-.1-1.18-.3-.34-.2-.61-.49-.81-.87-.2-.38-.29-.82-.29-1.33s.1-.97.29-1.34c.2-.38.47-.67.81-.87.34-.2.74-.3,1.18-.3.29,0,.56.06.8.19.24.13.45.31.62.54v-2.98h.89v7.17h-.79l-.03-.69c-.17.25-.38.44-.63.58-.26.14-.54.21-.85.21ZM628.33,238.27c.41,0,.74-.15,1-.45.26-.3.4-.71.4-1.24s-.13-.95-.4-1.25c-.26-.3-.6-.45-1-.45s-.74.15-1.01.45-.4.72-.4,1.25.13.94.4,1.24.6.45,1.01.45Z"/>
      <path d="M637.07,239.09c-.31,0-.6-.07-.85-.21-.25-.14-.47-.34-.64-.58l-.03.69h-.8v-7.17h.9v2.98c.17-.23.37-.41.61-.54.24-.13.51-.19.81-.19.44,0,.83.1,1.17.3s.61.49.8.87.29.83.29,1.34-.1.96-.29,1.33c-.2.38-.46.67-.8.87s-.73.3-1.17.3ZM637.04,238.27c.41,0,.74-.15,1.01-.45s.4-.71.4-1.24-.13-.95-.4-1.25-.6-.45-1.01-.45-.74.15-1,.45-.4.72-.4,1.25.13.94.4,1.24.6.45,1,.45Z"/>
      <path d="M640.66,241.05c-.29,0-.54-.03-.77-.08v-.83c.1.03.21.05.33.06s.24.03.36.03c.25,0,.43-.05.53-.15.1-.1.2-.28.3-.53l.22-.58-1.9-4.79h.94l1.35,3.7,1.3-3.7h.92l-2.06,5.64c-.15.41-.33.71-.55.92-.22.21-.54.31-.96.31Z"/>
      <path d="M649.63,239.08c-.41,0-.79-.07-1.14-.22s-.65-.37-.9-.68l.59-.58c.36.46.86.69,1.49.69.29,0,.53-.05.7-.16.17-.11.26-.28.26-.53,0-.2-.09-.35-.27-.45s-.5-.19-.96-.28c-.3-.06-.57-.14-.8-.24-.24-.1-.42-.25-.57-.44-.14-.19-.21-.44-.21-.75s.08-.54.24-.75.37-.37.63-.48.56-.17.88-.17c.78,0,1.37.25,1.78.75l-.53.61c-.15-.19-.33-.33-.54-.42-.21-.09-.45-.13-.7-.13-.29,0-.5.06-.64.17-.14.12-.21.25-.21.42,0,.19.08.32.24.41.16.09.45.18.87.27.33.07.63.17.88.29s.46.28.6.47.21.44.21.75c0,.46-.17.82-.52,1.07-.35.25-.81.38-1.38.38Z"/>
      <path d="M654.56,239.09c-.44,0-.83-.1-1.18-.31-.34-.21-.61-.5-.81-.88-.2-.38-.29-.82-.29-1.32s.1-.94.29-1.32c.2-.38.47-.67.81-.88.34-.21.74-.31,1.18-.31s.83.1,1.17.31c.34.21.61.5.81.88.2.38.29.82.29,1.32s-.1.94-.29,1.32c-.2.38-.47.67-.81.88-.34.21-.74.31-1.17.31ZM654.56,238.27c.41,0,.74-.15.99-.46.26-.3.39-.72.39-1.25s-.13-.94-.39-1.24c-.26-.3-.59-.45-.99-.45s-.74.15-1,.45c-.26.3-.39.71-.39,1.24s.13.94.39,1.25c.26.3.59.46,1,.46Z"/>
      <path d="M657.92,238.98v-7.17h.9v7.17h-.9Z"/>
      <path d="M661.58,238.98l-1.85-4.8h.92l1.34,3.61,1.32-3.61h.88l-1.79,4.8h-.82Z"/>
      <path d="M666.93,239.09c-.45,0-.85-.1-1.2-.29-.35-.19-.62-.48-.81-.85s-.29-.83-.29-1.37.1-.96.29-1.33c.19-.38.46-.67.79-.88.34-.21.72-.31,1.17-.31s.81.11,1.12.32c.31.22.55.51.71.87.16.36.25.75.25,1.18v.24h-3.45c.01.53.15.94.41,1.21.26.28.6.42,1.02.42.34,0,.62-.08.85-.25.22-.17.41-.42.56-.75l.68.45c-.23.47-.51.81-.86,1.02-.35.21-.76.32-1.24.32ZM665.56,235.95h2.52c-.05-.35-.19-.63-.4-.84s-.48-.32-.81-.32c-.35,0-.63.1-.86.29-.23.2-.38.49-.45.87Z"/>
      <path d="M670.11,238.98v-4.8h.82l.05.75c.13-.26.33-.47.6-.63.27-.16.56-.24.88-.24.11,0,.21,0,.3.02.09.01.17.03.24.04v.87c-.07-.02-.17-.04-.28-.05s-.24-.02-.37-.02c-.37,0-.69.12-.95.37s-.39.56-.39.96v2.74h-.9Z"/>
      <path d="M675.59,239.08c-.41,0-.79-.07-1.14-.22s-.65-.37-.9-.68l.59-.58c.36.46.86.69,1.49.69.29,0,.53-.05.7-.16.17-.11.26-.28.26-.53,0-.2-.09-.35-.27-.45s-.5-.19-.96-.28c-.3-.06-.57-.14-.8-.24-.24-.1-.42-.25-.57-.44-.14-.19-.21-.44-.21-.75s.08-.54.24-.75.37-.37.63-.48.56-.17.88-.17c.78,0,1.37.25,1.78.75l-.53.61c-.15-.19-.33-.33-.54-.42-.21-.09-.45-.13-.7-.13-.29,0-.5.06-.64.17-.14.12-.21.25-.21.42,0,.19.08.32.24.41.16.09.45.18.87.27.33.07.63.17.88.29s.46.28.6.47.21.44.21.75c0,.46-.17.82-.52,1.07-.35.25-.81.38-1.38.38Z"/>
      <path d="M678.99,240.55l-.71-.38c.47-.69.84-1.4,1.09-2.12.26-.72.38-1.49.38-2.29s-.13-1.6-.39-2.34c-.26-.74-.62-1.43-1.08-2.05l.71-.39c.49.67.88,1.42,1.16,2.25s.42,1.68.42,2.54-.14,1.68-.41,2.49-.67,1.58-1.18,2.31Z"/>
    </g>
    <g>
      <path d="M216.99,249.27c-4.46,0-8.1-2.79-8.1-6.21v-35.7c0-3.43,3.63-6.21,8.1-6.21h20.1l4.58-24.69,4.58,24.69h79.05c4.46,0,8.1,2.79,8.1,6.21v35.7c0,3.43-3.63,6.21-8.1,6.21h-108.31Z" fill="#c7e8fa"/>
      <path d="M241.67,179.2l4.02,21.64.15.82h79.46c4.19,0,7.6,2.56,7.6,5.71v35.7c0,3.15-3.41,5.71-7.6,5.71h-108.31c-4.19,0-7.6-2.56-7.6-5.71v-35.7c0-3.15,3.41-5.71,7.6-5.71h20.51l.15-.82,4.02-21.64M241.67,173.72l-5,26.93h-19.68c-4.73,0-8.6,3.02-8.6,6.71v35.7c0,3.69,3.87,6.71,8.6,6.71h108.31c4.73,0,8.6-3.02,8.6-6.71v-35.7c0-3.69-3.87-6.71-8.6-6.71h-78.63l-5-26.93h0Z"/>
    </g>
    <g>
      <rect x="212.36" y="210.18" width="117.58" height="32.52" fill="none"/>
      <path d="M221.22,226.02v-12.6h3.87c1.32,0,2.43.26,3.34.77s1.6,1.25,2.07,2.19c.47.94.71,2.06.71,3.34s-.24,2.38-.71,3.33c-.47.95-1.16,1.68-2.07,2.2-.91.52-2.02.77-3.34.77h-3.87ZM222.86,224.47h2.12c1.01,0,1.84-.2,2.51-.6.67-.4,1.17-.96,1.5-1.67s.5-1.54.5-2.47-.17-1.78-.5-2.48-.84-1.26-1.5-1.67-1.5-.6-2.51-.6h-2.12v9.5Z"/>
      <path d="M236.83,226.22c-.82,0-1.54-.17-2.16-.52s-1.11-.86-1.46-1.54-.52-1.5-.52-2.46.17-1.72.52-2.4c.35-.68.83-1.2,1.43-1.57.61-.37,1.3-.56,2.1-.56s1.47.2,2.03.58c.56.39.98.91,1.28,1.56.29.65.44,1.36.44,2.12v.43h-6.21c.02.96.27,1.69.73,2.19.46.5,1.08.75,1.85.75.61,0,1.12-.15,1.52-.45s.74-.75,1.02-1.35l1.22.81c-.41.84-.93,1.45-1.56,1.84-.63.38-1.37.58-2.22.58ZM234.36,220.56h4.54c-.1-.62-.34-1.13-.72-1.51-.38-.38-.87-.58-1.46-.58-.62,0-1.14.18-1.55.53-.41.35-.68.87-.81,1.56Z"/>
      <path d="M246.19,226.22c-.79,0-1.5-.19-2.12-.57s-1.1-.91-1.46-1.58c-.35-.68-.53-1.47-.53-2.37s.18-1.69.53-2.38c.35-.68.84-1.21,1.46-1.59s1.32-.57,2.12-.57c.66,0,1.27.13,1.82.41.55.27,1.01.66,1.39,1.18l-1.28.95c-.44-.71-1.09-1.06-1.93-1.06-.73,0-1.33.27-1.79.81s-.69,1.29-.69,2.25.23,1.69.69,2.23,1.06.81,1.79.81c.84,0,1.49-.35,1.94-1.04l1.26.94c-.37.52-.83.91-1.39,1.18-.55.27-1.16.41-1.82.41Z"/>
      <path d="M252.42,215.76c-.3,0-.56-.11-.76-.32-.21-.21-.32-.46-.32-.76s.1-.56.32-.77c.21-.21.46-.31.76-.31s.54.1.75.31.31.47.31.77-.1.55-.31.76-.46.32-.75.32ZM251.62,226.02v-8.64h1.6v8.64h-1.6Z"/>
      <path d="M258.95,226.2c-.73,0-1.42-.13-2.05-.4-.64-.26-1.18-.67-1.62-1.22l1.06-1.04c.65.83,1.54,1.24,2.68,1.24.53,0,.95-.1,1.26-.29.31-.19.47-.51.47-.95,0-.36-.16-.63-.49-.8-.32-.17-.9-.34-1.73-.5-.54-.11-1.02-.25-1.45-.43-.43-.18-.76-.44-1.02-.78s-.38-.79-.38-1.34.14-.98.43-1.36.67-.67,1.14-.87c.47-.2,1-.31,1.57-.31,1.4,0,2.47.45,3.2,1.35l-.95,1.1c-.26-.35-.59-.6-.97-.77s-.8-.24-1.26-.24c-.52,0-.9.11-1.15.32s-.38.46-.38.75c0,.34.14.58.43.74.29.16.81.32,1.57.49.6.13,1.13.31,1.59.52s.82.5,1.08.85c.26.35.39.8.39,1.35,0,.83-.31,1.47-.94,1.93s-1.46.68-2.49.68Z"/>
      <path d="M265.27,215.76c-.3,0-.56-.11-.76-.32-.21-.21-.32-.46-.32-.76s.1-.56.32-.77c.21-.21.46-.31.76-.31s.54.1.75.31.31.47.31.77-.1.55-.31.76-.46.32-.75.32ZM264.48,226.02v-8.64h1.6v8.64h-1.6Z"/>
      <path d="M272.4,226.22c-.79,0-1.5-.19-2.12-.57s-1.1-.91-1.46-1.59c-.35-.68-.53-1.48-.53-2.38s.18-1.69.53-2.37c.35-.68.84-1.21,1.46-1.58s1.32-.57,2.12-.57,1.5.19,2.12.57,1.1.91,1.46,1.58c.35.68.53,1.47.53,2.37s-.18,1.69-.53,2.38c-.35.68-.84,1.21-1.46,1.59s-1.32.57-2.12.57ZM272.4,224.74c.73,0,1.33-.27,1.79-.82.46-.55.69-1.29.69-2.24s-.23-1.69-.69-2.23-1.06-.81-1.79-.81-1.33.27-1.79.81-.69,1.28-.69,2.23.23,1.69.69,2.24c.46.55,1.06.82,1.79.82Z"/>
      <path d="M278.44,226.02v-8.64h1.46l.09,1.12c.25-.36.59-.67,1.02-.94.43-.26.91-.4,1.47-.4.91,0,1.65.29,2.22.87s.86,1.42.86,2.53v5.45h-1.6v-5.11c0-.76-.17-1.32-.5-1.7s-.77-.57-1.31-.57c-.61,0-1.11.2-1.49.6-.38.4-.58.94-.58,1.61v5.17h-1.62Z"/>
      <path d="M296.64,226.02l-4.57-12.6h1.78l3.6,10.28,3.62-10.28h1.78l-4.59,12.6h-1.62Z"/>
      <path d="M306,226.16c-.88.02-1.6-.18-2.17-.6s-.85-1.04-.85-1.85c0-.59.19-1.1.57-1.53.38-.43.86-.77,1.46-1.02.59-.25,1.21-.37,1.84-.37.37-.02.71,0,1.03.1.31.09.58.22.81.39v-1.08c0-.67-.14-1.11-.42-1.31-.28-.2-.72-.31-1.3-.31-.5,0-1.04.09-1.61.27-.57.18-1.05.41-1.45.68l-.76-1.26c.49-.31,1.08-.58,1.76-.79.68-.22,1.36-.32,2.06-.32,1.1,0,1.93.22,2.47.66.54.44.81,1.23.81,2.38v4.34c0,.23.06.36.18.4s.39,0,.81-.09v1.04c-.16.06-.35.12-.59.18s-.49.09-.74.09c-.38,0-.66-.07-.83-.22-.17-.14-.28-.4-.34-.77-.32.32-.73.56-1.22.72-.49.16-.99.25-1.49.27ZM306.02,224.74c.5-.01.96-.09,1.38-.22s.74-.34.98-.59c.24-.26.35-.57.32-.93-.02-.34-.2-.58-.51-.72-.32-.14-.72-.2-1.22-.18-.44.01-.85.09-1.22.24-.37.15-.67.35-.89.58-.22.24-.33.51-.33.81.01.34.15.59.41.76.26.17.62.25,1.08.24Z"/>
      <path d="M313.04,226.02v-8.64h1.48l.09,1.35c.24-.47.6-.85,1.09-1.13.49-.29,1.01-.43,1.57-.43.19,0,.37.01.54.04.17.02.31.05.43.07v1.57c-.13-.04-.3-.07-.5-.09-.2-.02-.43-.04-.67-.04-.67,0-1.24.22-1.71.66-.47.44-.7,1.01-.7,1.72v4.93h-1.62Z"/>
      <path d="M320.2,226.22c-.34,0-.62-.12-.85-.35s-.35-.51-.35-.84.12-.62.35-.86c.23-.23.52-.35.85-.35s.6.12.84.35c.23.23.35.52.35.86s-.12.6-.35.84c-.23.23-.51.35-.84.35Z"/>
      <path d="M221.53,240.55c-.51-.73-.9-1.5-1.18-2.31-.28-.81-.42-1.64-.42-2.49s.14-1.71.42-2.54c.28-.83.67-1.58,1.16-2.25l.71.39c-.45.63-.81,1.31-1.07,2.05-.26.74-.4,1.53-.4,2.34s.13,1.57.39,2.29c.26.72.62,1.43,1.09,2.12l-.71.38Z"/>
      <path d="M225.38,239.09c-.44,0-.83-.1-1.18-.3-.34-.2-.61-.49-.81-.87-.2-.38-.29-.82-.29-1.33s.1-.97.29-1.34c.2-.38.47-.67.81-.87.34-.2.74-.3,1.18-.3.29,0,.56.06.8.19.24.13.45.31.62.54v-2.98h.89v7.17h-.79l-.03-.69c-.17.25-.38.44-.63.58-.26.14-.54.21-.85.21ZM225.41,238.27c.41,0,.74-.15,1-.45.26-.3.4-.71.4-1.24s-.13-.95-.4-1.25c-.26-.3-.6-.45-1-.45s-.74.15-1.01.45-.4.72-.4,1.25.13.94.4,1.24.6.45,1.01.45Z"/>
      <path d="M231.07,239.09c-.45,0-.85-.1-1.2-.29-.35-.19-.62-.48-.81-.85s-.29-.83-.29-1.37.1-.96.29-1.33c.19-.38.46-.67.79-.88.34-.21.72-.31,1.17-.31s.81.11,1.12.32c.31.22.55.51.71.87.16.36.25.75.25,1.18v.24h-3.45c.01.53.15.94.41,1.21.26.28.6.42,1.02.42.34,0,.62-.08.85-.25.22-.17.41-.42.56-.75l.68.45c-.23.47-.51.81-.86,1.02-.35.21-.76.32-1.24.32ZM229.7,235.95h2.52c-.05-.35-.19-.63-.4-.84s-.48-.32-.81-.32c-.35,0-.63.1-.86.29-.23.2-.38.49-.45.87Z"/>
      <path d="M236.17,239.09c-.45,0-.8-.09-1.03-.26s-.35-.51-.35-1.01v-2.85h-.97v-.78h.97v-1.72h.89v1.72h1.39v.78h-1.39v2.66c0,.26.06.44.18.53.12.09.29.13.52.13.12,0,.25-.02.38-.05.13-.04.24-.08.32-.12v.83c-.11.05-.24.08-.41.11-.17.03-.33.04-.49.04Z"/>
      <path d="M240.1,239.09c-.45,0-.85-.1-1.2-.29-.35-.19-.62-.48-.81-.85s-.29-.83-.29-1.37.1-.96.29-1.33c.19-.38.46-.67.79-.88.34-.21.72-.31,1.17-.31s.81.11,1.12.32c.31.22.55.51.71.87.16.36.25.75.25,1.18v.24h-3.45c.01.53.15.94.41,1.21.26.28.6.42,1.02.42.34,0,.62-.08.85-.25.22-.17.41-.42.56-.75l.68.45c-.23.47-.51.81-.86,1.02-.35.21-.76.32-1.24.32ZM238.73,235.95h2.52c-.05-.35-.19-.63-.4-.84s-.48-.32-.81-.32c-.35,0-.63.1-.86.29-.23.2-.38.49-.45.87Z"/>
      <path d="M243.28,238.98v-4.8h.82l.05.75c.13-.26.33-.47.6-.63.27-.16.56-.24.88-.24.11,0,.21,0,.3.02.09.01.17.03.24.04v.87c-.07-.02-.17-.04-.28-.05s-.24-.02-.37-.02c-.37,0-.69.12-.95.37s-.39.56-.39.96v2.74h-.9Z"/>
      <path d="M247.07,238.98v-4.8h.81l.05.66c.11-.23.27-.41.5-.56.23-.15.5-.22.79-.22.35,0,.64.08.88.24.24.16.41.39.52.68.12-.27.3-.49.54-.66.24-.17.54-.26.88-.26.49,0,.87.16,1.16.48.29.32.43.79.43,1.4v3.04h-.91v-2.86c0-.42-.08-.73-.23-.93-.16-.2-.37-.31-.65-.31-.33,0-.58.12-.78.36-.19.24-.28.55-.28.92v2.82h-.89v-2.86c0-.42-.08-.73-.24-.93-.16-.2-.38-.31-.65-.31-.33,0-.58.12-.77.37s-.28.54-.28.91v2.83h-.9Z"/>
      <path d="M255.59,233.28c-.17,0-.31-.06-.42-.17-.12-.12-.17-.26-.17-.42s.06-.31.17-.43c.12-.12.26-.17.42-.17s.3.06.42.17.18.26.18.43-.06.31-.18.42-.25.17-.42.17ZM255.15,238.98v-4.8h.89v4.8h-.89Z"/>
      <path d="M257.53,238.98v-4.8h.81l.05.62c.14-.2.33-.37.56-.52.24-.15.51-.22.82-.22.51,0,.92.16,1.23.48.32.32.48.79.48,1.41v3.03h-.89v-2.84c0-.42-.09-.74-.28-.95s-.43-.32-.73-.32c-.34,0-.62.11-.83.33-.21.22-.32.52-.32.9v2.87h-.9Z"/>
      <path d="M264.87,239.09c-.45,0-.85-.1-1.2-.29-.35-.19-.62-.48-.81-.85s-.29-.83-.29-1.37.1-.96.29-1.33c.19-.38.46-.67.79-.88.34-.21.72-.31,1.17-.31s.81.11,1.12.32c.31.22.55.51.71.87.16.36.25.75.25,1.18v.24h-3.45c.01.53.15.94.41,1.21.26.28.6.42,1.02.42.34,0,.62-.08.85-.25.22-.17.41-.42.56-.75l.68.45c-.23.47-.51.81-.86,1.02-.35.21-.76.32-1.24.32ZM263.5,235.95h2.52c-.05-.35-.19-.63-.4-.84s-.48-.32-.81-.32c-.35,0-.63.1-.86.29-.23.2-.38.49-.45.87Z"/>
      <path d="M270.07,239.09c-.44,0-.83-.1-1.18-.3-.34-.2-.61-.49-.81-.87-.2-.38-.29-.82-.29-1.33s.1-.97.29-1.34c.2-.38.47-.67.81-.87.34-.2.74-.3,1.18-.3.29,0,.56.06.8.19.24.13.45.31.62.54v-2.98h.89v7.17h-.79l-.03-.69c-.17.25-.38.44-.63.58-.26.14-.54.21-.85.21ZM270.1,238.27c.41,0,.74-.15,1-.45.26-.3.4-.71.4-1.24s-.13-.95-.4-1.25c-.26-.3-.6-.45-1-.45s-.74.15-1.01.45-.4.72-.4,1.25.13.94.4,1.24.6.45,1.01.45Z"/>
      <path d="M278.84,239.09c-.31,0-.6-.07-.85-.21-.25-.14-.47-.34-.64-.58l-.03.69h-.8v-7.17h.9v2.98c.17-.23.37-.41.61-.54.24-.13.51-.19.81-.19.44,0,.83.1,1.17.3s.61.49.8.87.29.83.29,1.34-.1.96-.29,1.33c-.2.38-.46.67-.8.87s-.73.3-1.17.3ZM278.81,238.27c.41,0,.74-.15,1.01-.45s.4-.71.4-1.24-.13-.95-.4-1.25-.6-.45-1.01-.45-.74.15-1,.45-.4.72-.4,1.25.13.94.4,1.24.6.45,1,.45Z"/>
      <path d="M282.43,241.05c-.29,0-.54-.03-.77-.08v-.83c.1.03.21.05.33.06s.24.03.36.03c.25,0,.43-.05.53-.15.1-.1.2-.28.3-.53l.22-.58-1.9-4.79h.94l1.35,3.7,1.3-3.7h.92l-2.06,5.64c-.15.41-.33.71-.55.92-.22.21-.54.31-.96.31Z"/>
      <path d="M291.4,239.08c-.41,0-.79-.07-1.14-.22s-.65-.37-.9-.68l.59-.58c.36.46.86.69,1.49.69.29,0,.53-.05.7-.16.17-.11.26-.28.26-.53,0-.2-.09-.35-.27-.45s-.5-.19-.96-.28c-.3-.06-.57-.14-.8-.24-.24-.1-.42-.25-.57-.44-.14-.19-.21-.44-.21-.75s.08-.54.24-.75.37-.37.63-.48.56-.17.88-.17c.78,0,1.37.25,1.78.75l-.53.61c-.15-.19-.33-.33-.54-.42-.21-.09-.45-.13-.7-.13-.29,0-.5.06-.64.17-.14.12-.21.25-.21.42,0,.19.08.32.24.41.16.09.45.18.87.27.33.07.63.17.88.29s.46.28.6.47.21.44.21.75c0,.46-.17.82-.52,1.07-.35.25-.81.38-1.38.38Z"/>
      <path d="M296.33,239.09c-.44,0-.83-.1-1.18-.31-.34-.21-.61-.5-.81-.88-.2-.38-.29-.82-.29-1.32s.1-.94.29-1.32c.2-.38.47-.67.81-.88.34-.21.74-.31,1.18-.31s.83.1,1.17.31c.34.21.61.5.81.88.2.38.29.82.29,1.32s-.1.94-.29,1.32c-.2.38-.47.67-.81.88-.34.21-.74.31-1.17.31ZM296.33,238.27c.41,0,.74-.15.99-.46.26-.3.39-.72.39-1.25s-.13-.94-.39-1.24c-.26-.3-.59-.45-.99-.45s-.74.15-1,.45c-.26.3-.39.71-.39,1.24s.13.94.39,1.25c.26.3.59.46,1,.46Z"/>
      <path d="M299.69,238.98v-7.17h.9v7.17h-.9Z"/>
      <path d="M303.35,238.98l-1.85-4.8h.92l1.34,3.61,1.32-3.61h.88l-1.79,4.8h-.82Z"/>
      <path d="M308.7,239.09c-.45,0-.85-.1-1.2-.29-.35-.19-.62-.48-.81-.85s-.29-.83-.29-1.37.1-.96.29-1.33c.19-.38.46-.67.79-.88.34-.21.72-.31,1.17-.31s.81.11,1.12.32c.31.22.55.51.71.87.16.36.25.75.25,1.18v.24h-3.45c.01.53.15.94.41,1.21.26.28.6.42,1.02.42.34,0,.62-.08.85-.25.22-.17.41-.42.56-.75l.68.45c-.23.47-.51.81-.86,1.02-.35.21-.76.32-1.24.32ZM307.33,235.95h2.52c-.05-.35-.19-.63-.4-.84s-.48-.32-.81-.32c-.35,0-.63.1-.86.29-.23.2-.38.49-.45.87Z"/>
      <path d="M311.88,238.98v-4.8h.82l.05.75c.13-.26.33-.47.6-.63.27-.16.56-.24.88-.24.11,0,.21,0,.3.02.09.01.17.03.24.04v.87c-.07-.02-.17-.04-.28-.05s-.24-.02-.37-.02c-.37,0-.69.12-.95.37s-.39.56-.39.96v2.74h-.9Z"/>
      <path d="M317.36,239.08c-.41,0-.79-.07-1.14-.22s-.65-.37-.9-.68l.59-.58c.36.46.86.69,1.49.69.29,0,.53-.05.7-.16.17-.11.26-.28.26-.53,0-.2-.09-.35-.27-.45s-.5-.19-.96-.28c-.3-.06-.57-.14-.8-.24-.24-.1-.42-.25-.57-.44-.14-.19-.21-.44-.21-.75s.08-.54.24-.75.37-.37.63-.48.56-.17.88-.17c.78,0,1.37.25,1.78.75l-.53.61c-.15-.19-.33-.33-.54-.42-.21-.09-.45-.13-.7-.13-.29,0-.5.06-.64.17-.14.12-.21.25-.21.42,0,.19.08.32.24.41.16.09.45.18.87.27.33.07.63.17.88.29s.46.28.6.47.21.44.21.75c0,.46-.17.82-.52,1.07-.35.25-.81.38-1.38.38Z"/>
      <path d="M320.76,240.55l-.71-.38c.47-.69.84-1.4,1.09-2.12.26-.72.38-1.49.38-2.29s-.13-1.6-.39-2.34c-.26-.74-.62-1.43-1.08-2.05l.71-.39c.49.67.88,1.42,1.16,2.25s.42,1.68.42,2.54-.14,1.68-.41,2.49-.67,1.58-1.18,2.31Z"/>
    </g>
  </g>
  <rect x="532" y="133.33" width="36.09" height="40.08" fill="none" stroke="blue" stroke-miterlimit="10" stroke-width="2"/>
  <rect x="631.33" y="133.33" width="33.53" height="40.08" fill="none" stroke="blue" stroke-miterlimit="10" stroke-width="2"/>
  <rect x="729.05" y="133.33" width="35.65" height="40.08" fill="none" stroke="blue" stroke-miterlimit="10" stroke-width="2"/>
</svg>