<?xml version="1.0" encoding="UTF-8"?>
<svg xmlns="http://www.w3.org/2000/svg" xmlns:xlink="http://www.w3.org/1999/xlink" viewBox="0 0 675 270">
  <defs>
    <clipPath id="clippath-1">
      <rect x="420.27" y="219.16" width="11.99" height="19.48" fill="none"/>
    </clipPath>
    <clipPath id="clippath-2">
      <rect x="420.64" y="219.78" width="11.3" height="18.47" fill="none"/>
    </clipPath>
    <clipPath id="clippath-3">
      <rect x="420.64" y="219.78" width="11.3" height="18.47" fill="none"/>
    </clipPath>
    <clipPath id="clippath-5">
      <rect x="358.81" y="96.36" width="17.1" height="17.1" fill="none"/>
    </clipPath>
    <clipPath id="clippath-6">
      <rect x="359.02" y="96.91" width="16.3" height="16.33" fill="none"/>
    </clipPath>
    <clipPath id="clippath-7">
      <rect x="359.02" y="96.91" width="16.3" height="16.33" fill="none"/>
    </clipPath>
    <clipPath id="clippath-9">
      <rect x="393.25" y="163.56" width="21.61" height="12.12" fill="none"/>
    </clipPath>
    <clipPath id="clippath-10">
      <rect x="393.46" y="163.76" width="21.27" height="11.74" fill="none"/>
    </clipPath>
    <clipPath id="clippath-11">
      <rect x="393.46" y="163.76" width="21.27" height="11.74" fill="none"/>
    </clipPath>
    <clipPath id="clippath-13">
      <rect x="535.27" y="46.21" width="17.06" height="18.13" fill="none"/>
    </clipPath>
    <clipPath id="clippath-14">
      <rect x="535.3" y="46.28" width="16.96" height="17.84" fill="none"/>
    </clipPath>
    <clipPath id="clippath-15">
      <rect x="535.3" y="46.28" width="16.96" height="17.84" fill="none"/>
    </clipPath>
    <clipPath id="clippath-17">
      <rect x="599.23" y="215.25" width="9.46" height="22.36" fill="none"/>
    </clipPath>
    <clipPath id="clippath-18">
      <rect x="600.04" y="216.11" width="8.14" height="20.71" fill="none"/>
    </clipPath>
    <clipPath id="clippath-19">
      <rect x="600.04" y="216.11" width="8.14" height="20.71" fill="none"/>
    </clipPath>
    <clipPath id="clippath-21">
      <rect x="570.95" y="161.08" width="21.61" height="12.12" fill="none"/>
    </clipPath>
    <clipPath id="clippath-22">
      <rect x="571.16" y="161.29" width="21.27" height="11.74" fill="none"/>
    </clipPath>
    <clipPath id="clippath-23">
      <rect x="571.16" y="161.29" width="21.27" height="11.74" fill="none"/>
    </clipPath>
    <clipPath id="clippath-25">
      <rect x="574.95" y="101.06" width="13.6" height="20.4" fill="none"/>
    </clipPath>
    <clipPath id="clippath-26">
      <rect x="575.03" y="101.68" width="13.41" height="19.15" fill="none"/>
    </clipPath>
    <clipPath id="clippath-27">
      <rect x="575.03" y="101.68" width="13.41" height="19.15" fill="none"/>
    </clipPath>
    <clipPath id="clippath-28">
      <rect x="596" y="106.28" width="4.5" height="10.63" fill="none"/>
    </clipPath>
    <clipPath id="clippath-29">
      <rect x="596.38" y="106.69" width="3.87" height="9.85" fill="none"/>
    </clipPath>
    <clipPath id="clippath-30">
      <rect x="596.38" y="106.69" width="3.87" height="9.85" fill="none"/>
    </clipPath>
  </defs>
  <rect width="675" height="270" fill="#fff"/>
  <g id="_レイヤー_1" data-name="レイヤー 1">
    <g>
      <rect x="299.06" y="79.26" width="156.49" height="172.97" fill="#b6d8a8"/>
      <path d="M454.54,80.26v170.97h-154.49V80.26h154.49M456.54,78.26h-158.49v174.97h158.49V78.26h0Z"/>
    </g>
    <line x1="396.02" y1="181.64" x2="383.16" y2="213.93" fill="none" stroke="#000" stroke-miterlimit="10" stroke-width="2"/>
    <line x1="410.94" y1="182.19" x2="423.81" y2="214.49" fill="none" stroke="#000" stroke-miterlimit="10" stroke-width="2"/>
    <line x1="330.66" y1="155.25" x2="359.25" y2="113.46" fill="none" stroke="#000" stroke-miterlimit="10" stroke-width="2"/>
    <line x1="402.65" y1="155.25" x2="374.06" y2="113.46" fill="none" stroke="#000" stroke-miterlimit="10" stroke-width="2"/>
    <g>
      <g>
        <path d="M375.36,214.2h12.98c4.53,0,8.2,3.68,8.2,8.2v12.98c0,4.53-3.68,8.2-8.2,8.2h-12.98c-4.53,0-8.2-3.68-8.2-8.2v-12.98c0-4.53,3.68-8.2,8.2-8.2Z" fill="#c8daf9"/>
        <path d="M388.34,214.7c4.25,0,7.7,3.46,7.7,7.7v12.98c0,4.25-3.46,7.7-7.7,7.7h-12.98c-4.25,0-7.7-3.46-7.7-7.7v-12.98c0-4.25,3.46-7.7,7.7-7.7h12.98M388.34,213.7h-12.98c-4.79,0-8.7,3.92-8.7,8.7v12.98c0,4.79,3.92,8.7,8.7,8.7h12.98c4.79,0,8.7-3.92,8.7-8.7v-12.98c0-4.79-3.92-8.7-8.7-8.7h0Z"/>
      </g>
      <path d="M388.92,222.7c.13-.44.13-.5.13-.72,0-.56-.44-.84-.91-.84-.31,0-.81.19-1.09.65-.06.16-.31,1.12-.44,1.69-.22.81-.44,1.65-.62,2.5l-1.41,5.62c-.12.47-1.47,2.65-3.53,2.65-1.59,0-1.94-1.37-1.94-2.53,0-1.44.53-3.37,1.59-6.12.5-1.28.62-1.62.62-2.25,0-1.4-1-2.56-2.56-2.56-2.97,0-4.12,4.53-4.12,4.81,0,.31.31.31.38.31.31,0,.34-.06.5-.56.84-2.94,2.09-3.87,3.15-3.87.25,0,.78,0,.78,1,0,.78-.31,1.59-.53,2.19-1.25,3.31-1.81,5.09-1.81,6.56,0,2.78,1.97,3.72,3.81,3.72,1.22,0,2.28-.53,3.15-1.4-.41,1.62-.78,3.15-2.03,4.81-.81,1.06-2,1.97-3.43,1.97-.44,0-1.84-.09-2.37-1.31.5,0,.91,0,1.34-.38.31-.28.62-.69.62-1.28,0-.97-.84-1.09-1.16-1.09-.72,0-1.75.5-1.75,2.03s1.37,2.72,3.31,2.72c3.22,0,6.43-2.84,7.31-6.37l3-11.93"/>
    </g>
    <g>
      <g>
        <path d="M419.77,214.2h12.98c4.53,0,8.2,3.68,8.2,8.2v12.98c0,4.53-3.68,8.2-8.2,8.2h-12.98c-4.53,0-8.2-3.68-8.2-8.2v-12.98c0-4.53,3.68-8.2,8.2-8.2Z" fill="#c8daf9"/>
        <path d="M432.75,214.7c4.25,0,7.7,3.46,7.7,7.7v12.98c0,4.25-3.46,7.7-7.7,7.7h-12.98c-4.25,0-7.7-3.46-7.7-7.7v-12.98c0-4.25,3.46-7.7,7.7-7.7h12.98M432.75,213.7h-12.98c-4.79,0-8.7,3.92-8.7,8.7v12.98c0,4.79,3.92,8.7,8.7,8.7h12.98c4.79,0,8.7-3.92,8.7-8.7v-12.98c0-4.79-3.92-8.7-8.7-8.7h0Z"/>
      </g>
      <polygon points="426.26 228.9 426.26 228.9 426.26 228.9 426.26 228.9 426.26 228.9 426.26 228.9 426.26 228.9 426.26 228.9 426.26 228.9 426.26 228.9 426.26 228.9 426.26 228.9 426.26 228.9 426.26 228.9 426.26 228.9 426.26 228.9 426.26 228.9 426.26 228.9 426.26 228.9 426.26 228.9 426.26 228.9 426.26 228.9 426.26 228.9 426.26 228.9 426.26 228.9 426.26 228.9 426.26 228.9 426.26 228.9 426.26 228.9 426.26 228.9 426.26 228.9 426.26 228.9 426.26 228.9 426.26 228.9 426.26 228.9 426.26 228.9 426.26 228.9 426.26 228.9 426.26 228.9 426.26 228.9 426.26 228.9 426.26 228.9 426.26 228.9 426.26 228.9 426.26 228.9 426.26 228.9 426.26 228.9 426.26 228.9 426.26 228.9 426.26 228.9 426.26 228.9 426.26 228.9 426.26 228.9 426.26 228.9 426.26 228.9 426.26 228.9 426.26 228.9 426.26 228.9 426.26 228.9 426.26 228.9 426.26 228.9 426.26 228.9 426.26 228.9 426.26 228.9 426.26 228.9 426.26 228.9 426.26 228.9 426.26 228.9 426.26 228.9 426.26 228.9 426.26 228.9 426.26 228.9 426.26 228.9 426.26 228.9 426.26 228.9 426.26 228.9 426.26 228.9 426.26 228.9 426.26 228.9 426.26 228.9 426.26 228.9 426.26 228.9 426.26 228.9 426.26 228.9 426.26 228.9 426.26 228.9 426.26 228.9 426.26 228.9 426.26 228.9 426.26 228.9 426.26 228.9 426.26 228.9 426.26 228.9 426.26 228.9 426.26 228.9 426.26 228.9 426.26 228.9 426.26 228.9" fill="none" opacity="0" stroke="#000" stroke-miterlimit="10"/>
      <g clip-path="url(#clippath-1)">
        <g isolation="isolate">
          <g clip-path="url(#clippath-2)">
            <g clip-path="url(#clippath-3)">
              <path d="M426.28,237.66c-1.05,0-2.63-.67-3.11-3.25-.29-1.61-.29-4.08-.29-5.67,0-1.72,0-3.49.21-4.94.51-3.2,2.52-3.44,3.2-3.44.89,0,2.66.48,3.17,3.14.27,1.5.27,3.54.27,5.24,0,2.01,0,3.84-.3,5.56-.4,2.55-1.93,3.36-3.14,3.36M431.94,229.07c0-2.15-.13-4.3-1.07-6.28-1.23-2.58-3.44-3.01-4.56-3.01-1.61,0-3.57.7-4.67,3.2-.86,1.85-.99,3.95-.99,6.1,0,2.01.11,4.43,1.21,6.47,1.15,2.17,3.11,2.71,4.43,2.71,1.45,0,3.49-.56,4.67-3.11.86-1.85.99-3.95.99-6.07Z"/>
            </g>
          </g>
        </g>
      </g>
    </g>
    <g>
      <g>
        <path d="M367.36,119.41c-8,0-14.5-6.5-14.5-14.5s6.5-14.5,14.5-14.5,14.5,6.5,14.5,14.5-6.5,14.5-14.5,14.5Z" fill="#e89a99"/>
        <path d="M367.36,90.91c7.72,0,14,6.28,14,14s-6.28,14-14,14-14-6.28-14-14,6.28-14,14-14M367.36,89.91c-8.28,0-15,6.72-15,15s6.72,15,15,15,15-6.72,15-15-6.72-15-15-15h0Z"/>
      </g>
      <polygon points="367.36 104.91 367.36 104.91 367.36 104.91 367.36 104.91 367.36 104.91 367.36 104.91 367.36 104.91 367.36 104.91 367.36 104.91 367.36 104.91 367.36 104.91 367.36 104.91 367.36 104.91 367.36 104.91 367.36 104.91 367.36 104.91 367.36 104.91 367.36 104.91 367.36 104.91 367.36 104.91 367.36 104.91 367.36 104.91 367.36 104.91 367.36 104.91 367.36 104.91 367.36 104.91 367.36 104.91 367.36 104.91 367.36 104.91 367.36 104.91 367.36 104.91 367.36 104.91 367.36 104.91 367.36 104.91 367.36 104.91 367.36 104.91 367.36 104.91 367.36 104.91 367.36 104.91 367.36 104.91 367.36 104.91 367.36 104.91 367.36 104.91 367.36 104.91 367.36 104.91 367.36 104.91 367.36 104.91 367.36 104.91 367.36 104.91 367.36 104.91 367.36 104.91 367.36 104.91 367.36 104.91 367.36 104.91 367.36 104.91 367.36 104.91 367.36 104.91 367.36 104.91 367.36 104.91 367.36 104.91 367.36 104.91 367.36 104.91 367.36 104.91 367.36 104.91 367.36 104.91 367.36 104.91 367.36 104.91 367.36 104.91 367.36 104.91 367.36 104.91 367.36 104.91 367.36 104.91 367.36 104.91 367.36 104.91 367.36 104.91 367.36 104.91 367.36 104.91 367.36 104.91 367.36 104.91 367.36 104.91 367.36 104.91 367.36 104.91 367.36 104.91 367.36 104.91 367.36 104.91 367.36 104.91 367.36 104.91 367.36 104.91 367.36 104.91 367.36 104.91 367.36 104.91 367.36 104.91 367.36 104.91 367.36 104.91 367.36 104.91 367.36 104.91 367.36 104.91 367.36 104.91 367.36 104.91" fill="none" opacity="0" stroke="#000" stroke-miterlimit="10"/>
      <g clip-path="url(#clippath-5)">
        <g isolation="isolate">
          <g clip-path="url(#clippath-6)">
            <g clip-path="url(#clippath-7)">
              <path d="M367.67,105.57h6.84c.34,0,.81,0,.81-.49s-.47-.49-.81-.49h-6.84v-6.86c0-.34,0-.81-.49-.81s-.49.47-.49.81v6.86h-6.86c-.34,0-.81,0-.81.49s.47.49.81.49h6.86v6.86c0,.34,0,.81.49.81s.49-.47.49-.81v-6.86"/>
            </g>
          </g>
        </g>
      </g>
    </g>
    <polygon points="366.26 231.55 366.26 231.55 366.26 231.55 366.26 231.55 366.26 231.55 366.26 231.55 366.26 231.55 366.26 231.55 366.26 231.55 366.26 231.55 366.26 231.55 366.26 231.55 366.26 231.55 366.26 231.55 366.26 231.55 366.26 231.55 366.26 231.55 366.26 231.55 366.26 231.55 366.26 231.55 366.26 231.55 366.26 231.55 366.26 231.55 366.26 231.55 366.26 231.55 366.26 231.55 366.26 231.55 366.26 231.55 366.26 231.55 366.26 231.55 366.26 231.55 366.26 231.55 366.26 231.55 366.26 231.55 366.26 231.55 366.26 231.55 366.26 231.55 366.26 231.55 366.26 231.55 366.26 231.55 366.26 231.55 366.26 231.55 366.26 231.55 366.26 231.55 366.26 231.55 366.26 231.55 366.26 231.55 366.26 231.55 366.26 231.55 366.26 231.55 366.26 231.55 366.26 231.55 366.26 231.55 366.26 231.55 366.26 231.55 366.26 231.55 366.26 231.55 366.26 231.55 366.26 231.55 366.26 231.55 366.26 231.55 366.26 231.55 366.26 231.55 366.26 231.55 366.26 231.55 366.26 231.55 366.26 231.55 366.26 231.55 366.26 231.55 366.26 231.55 366.26 231.55 366.26 231.55 366.26 231.55 366.26 231.55 366.26 231.55 366.26 231.55 366.26 231.55 366.26 231.55 366.26 231.55 366.26 231.55 366.26 231.55 366.26 231.55 366.26 231.55 366.26 231.55 366.26 231.55 366.26 231.55 366.26 231.55 366.26 231.55 366.26 231.55 366.26 231.55 366.26 231.55 366.26 231.55 366.26 231.55 366.26 231.55 366.26 231.55 366.26 231.55 366.26 231.55 366.26 231.55 366.26 231.55 366.26 231.55 366.26 231.55" fill="none" opacity="0" stroke="#000" stroke-miterlimit="10"/>
    <g>
      <g>
        <g>
          <path d="M404.05,184.11c-8,0-14.5-6.5-14.5-14.5s6.5-14.5,14.5-14.5,14.5,6.5,14.5,14.5-6.5,14.5-14.5,14.5Z" fill="#e89a99"/>
          <path d="M404.05,155.61c7.72,0,14,6.28,14,14s-6.28,14-14,14-14-6.28-14-14,6.28-14,14-14M404.05,154.61c-8.28,0-15,6.72-15,15s6.72,15,15,15,15-6.72,15-15-6.72-15-15-15h0Z"/>
        </g>
        <polygon points="404.05 169.61 404.05 169.61 404.05 169.61 404.05 169.61 404.05 169.61 404.05 169.61 404.05 169.61 404.05 169.61 404.05 169.61 404.05 169.61 404.05 169.61 404.05 169.61 404.05 169.61 404.05 169.61 404.05 169.61 404.05 169.61 404.05 169.61 404.05 169.61 404.05 169.61 404.05 169.61 404.05 169.61 404.05 169.61 404.05 169.61 404.05 169.61 404.05 169.61 404.05 169.61 404.05 169.61 404.05 169.61 404.05 169.61 404.05 169.61 404.05 169.61 404.05 169.61 404.05 169.61 404.05 169.61 404.05 169.61 404.05 169.61 404.05 169.61 404.05 169.61 404.05 169.61 404.05 169.61 404.05 169.61 404.05 169.61 404.05 169.61 404.05 169.61 404.05 169.61 404.05 169.61 404.05 169.61 404.05 169.61 404.05 169.61 404.05 169.61 404.05 169.61 404.05 169.61 404.05 169.61 404.05 169.61 404.05 169.61 404.05 169.61 404.05 169.61 404.05 169.61 404.05 169.61 404.05 169.61 404.05 169.61 404.05 169.61 404.05 169.61 404.05 169.61 404.05 169.61 404.05 169.61 404.05 169.61 404.05 169.61 404.05 169.61 404.05 169.61 404.05 169.61 404.05 169.61 404.05 169.61 404.05 169.61 404.05 169.61 404.05 169.61 404.05 169.61 404.05 169.61 404.05 169.61 404.05 169.61 404.05 169.61 404.05 169.61 404.05 169.61 404.05 169.61 404.05 169.61 404.05 169.61 404.05 169.61 404.05 169.61 404.05 169.61 404.05 169.61 404.05 169.61 404.05 169.61 404.05 169.61 404.05 169.61 404.05 169.61 404.05 169.61 404.05 169.61 404.05 169.61 404.05 169.61" fill="none" opacity="0" stroke="#000" stroke-miterlimit="10"/>
      </g>
      <g clip-path="url(#clippath-9)">
        <g isolation="isolate">
          <g clip-path="url(#clippath-10)">
            <g clip-path="url(#clippath-11)">
              <path d="M396.18,175.38s0-.06-.2-.26c-1.47-1.48-1.84-3.7-1.84-5.49,0-2.04.45-4.08,1.89-5.55.15-.14.15-.16.15-.2,0-.08-.05-.12-.12-.12-.12,0-1.17.8-1.87,2.29-.6,1.29-.74,2.59-.74,3.58,0,.92.13,2.34.77,3.66.7,1.44,1.71,2.21,1.83,2.21.07,0,.12-.04.12-.12"/>
              <path d="M404.62,169.86c.2,0,.41,0,.41-.23s-.21-.23-.41-.23h-6.35c-.2,0-.41,0-.41.23s.21.23.41.23h6.35"/>
              <path d="M409.38,169.63c0-.92-.13-2.34-.77-3.66-.7-1.44-1.71-2.21-1.83-2.21-.07,0-.12.05-.12.12,0,.04,0,.06.22.27,1.15,1.16,1.82,3.03,1.82,5.48,0,2.01-.43,4.07-1.89,5.55-.15.14-.15.16-.15.2,0,.07.05.12.12.12.12,0,1.17-.8,1.87-2.29.6-1.29.74-2.59.74-3.58"/>
              <path d="M414.73,172.24c0-.99-.8-1.77-1.77-1.77s-1.77.8-1.77,1.76.8,1.77,1.77,1.77,1.77-.8,1.77-1.76"/>
            </g>
          </g>
        </g>
      </g>
    </g>
    <g>
      <g>
        <rect x="315.65" y="154.92" width="29.39" height="29.39" rx="8.2" ry="8.2" fill="#c8daf9"/>
        <path d="M336.83,155.42c4.25,0,7.7,3.46,7.7,7.7v12.98c0,4.25-3.46,7.7-7.7,7.7h-12.98c-4.25,0-7.7-3.46-7.7-7.7v-12.98c0-4.25,3.46-7.7,7.7-7.7h12.98M336.83,154.42h-12.98c-4.79,0-8.7,3.92-8.7,8.7v12.98c0,4.79,3.92,8.7,8.7,8.7h12.98c4.79,0,8.7-3.92,8.7-8.7v-12.98c0-4.79-3.92-8.7-8.7-8.7h0Z"/>
      </g>
      <path d="M332.09,166.91c.19-.81.91-3.68,3.09-3.68.16,0,.91,0,1.56.41-.87.16-1.5.94-1.5,1.69,0,.5.34,1.09,1.19,1.09.69,0,1.69-.56,1.69-1.81,0-1.62-1.84-2.06-2.9-2.06-1.81,0-2.9,1.65-3.28,2.37-.78-2.06-2.47-2.37-3.37-2.37-3.25,0-5.03,4.03-5.03,4.81,0,.31.31.31.38.31.25,0,.34-.06.41-.34,1.06-3.31,3.12-4.09,4.18-4.09.59,0,1.69.28,1.69,2.09,0,.97-.53,3.06-1.69,7.43-.5,1.94-1.59,3.25-2.97,3.25-.19,0-.91,0-1.56-.41.78-.16,1.47-.81,1.47-1.68s-.69-1.09-1.16-1.09c-.94,0-1.72.81-1.72,1.81,0,1.44,1.56,2.06,2.94,2.06,2.06,0,3.18-2.19,3.28-2.37.37,1.16,1.5,2.37,3.37,2.37,3.22,0,5-4.03,5-4.81,0-.31-.28-.31-.38-.31-.28,0-.34.13-.41.34-1.03,3.34-3.15,4.09-4.15,4.09-1.22,0-1.72-1-1.72-2.06,0-.69.19-1.37.53-2.75l1.06-4.28"/>
    </g>
    <g>
      <rect x="424.26" y="86.49" width="30.23" height="31.86" fill="none"/>
      <path d="M425.76,105.03l-.46-2.24c.41-.04.94-.1,1.59-.18s1.34-.17,2.07-.28v-4.38h-3.22v-2.14h8.66v2.14h-2.88v3.98c.79-.13,1.52-.26,2.2-.39.68-.13,1.23-.24,1.64-.33v2.14c-.45.12-1.01.25-1.66.38-.65.13-1.35.27-2.09.4-.74.13-1.48.26-2.21.38s-1.42.23-2.05.32c-.63.09-1.16.16-1.59.2ZM440.34,105.27c-.84-.39-1.64-1.07-2.41-2.04s-1.44-2.27-2.02-3.9c-.58-1.63-1.02-3.6-1.31-5.92h-9.26v-2.26h9.04c-.08-1.2-.12-2.48-.12-3.84h2.42c-.04,1.36-.02,2.64.06,3.84h2.98c-.33-.43-.7-.84-1.1-1.23-.4-.39-.78-.72-1.14-.97l1.56-1.5c.29.2.61.46.96.77.35.31.68.63.99.95.31.32.56.6.75.84-.19.12-.42.29-.69.51-.27.22-.52.43-.73.63h2.86v2.26h-6.22c.31,2.33.81,4.28,1.52,5.84s1.51,2.65,2.42,3.28c.15-.41.28-.85.4-1.3s.21-.83.26-1.14c.15.09.36.21.63.34.27.13.56.25.85.36.29.11.53.19.7.24-.08.43-.19.88-.34,1.37s-.3.94-.47,1.37c-.17.43-.33.77-.49,1.04-.21.37-.5.6-.87.67-.37.07-.78,0-1.23-.21Z"/>
    </g>
    <g>
      <rect x="478.5" y="18.89" width="182.2" height="233.34" fill="#b6d8a8"/>
      <path d="M659.7,19.89v231.34h-180.2V19.89h180.2M661.7,17.89h-184.2v235.34h184.2V17.89h0Z"/>
    </g>
    <g>
      <rect x="14.3" y="18.89" width="124.87" height="233.34" rx="11" ry="11" fill="#ebf2ff"/>
      <path d="M128.17,19.89c5.51,0,10,4.49,10,10v211.34c0,5.51-4.49,10-10,10H25.3c-5.51,0-10-4.49-10-10V29.89c0-5.51,4.49-10,10-10h102.87M128.17,17.89H25.3c-6.6,0-12,5.4-12,12v211.34c0,6.6,5.4,12,12,12h102.87c6.6,0,12-5.4,12-12V29.89c0-6.6-5.4-12-12-12h0Z"/>
    </g>
    <g>
      <g>
        <path d="M621.38,227.42s30.03-45.86,30.03-60.05c0-12.3-34.04-45.32-43.11-53.9" fill="none" stroke="#000" stroke-dasharray="2 2" stroke-miterlimit="10"/>
        <path d="M606.1,111.41c1.39.6,3.29,1.16,4.73,1.23l-2.26,1.13-1.02,2.31c-.13-1.44-.79-3.31-1.45-4.67Z"/>
      </g>
      <line x1="581.75" y1="126.26" x2="581.75" y2="152.14" fill="none" stroke="#000" stroke-miterlimit="10" stroke-width="2"/>
      <line x1="535.41" y1="64.01" x2="506.37" y2="96.06" fill="none" stroke="#000" stroke-miterlimit="10" stroke-width="2"/>
      <line x1="550.25" y1="66.7" x2="580.53" y2="96.98" fill="none" stroke="#000" stroke-miterlimit="10" stroke-width="2"/>
      <polygon points="506.81 93.69 506.81 93.69 506.81 93.69 506.81 93.69 506.81 93.69 506.81 93.69 506.81 93.69 506.81 93.69 506.81 93.69 506.81 93.69 506.81 93.69 506.81 93.69 506.81 93.69 506.81 93.69 506.81 93.69 506.81 93.69 506.81 93.69 506.81 93.69 506.81 93.69 506.81 93.69 506.81 93.69 506.81 93.69 506.81 93.69 506.81 93.69 506.81 93.69 506.81 93.69 506.81 93.69 506.81 93.69 506.81 93.69 506.81 93.69 506.81 93.69 506.81 93.69 506.81 93.69 506.81 93.69 506.81 93.69 506.81 93.69 506.81 93.69 506.81 93.69 506.81 93.69 506.81 93.69 506.81 93.69 506.81 93.69 506.81 93.69 506.81 93.69 506.81 93.69 506.81 93.69 506.81 93.69 506.81 93.69 506.81 93.69 506.81 93.69 506.81 93.69 506.81 93.69 506.81 93.69 506.81 93.69 506.81 93.69 506.81 93.69 506.81 93.69 506.81 93.69 506.81 93.69 506.81 93.69 506.81 93.69 506.81 93.69 506.81 93.69 506.81 93.69 506.81 93.69 506.81 93.69 506.81 93.69 506.81 93.69 506.81 93.69 506.81 93.69 506.81 93.69 506.81 93.69 506.81 93.69 506.81 93.69 506.81 93.69 506.81 93.69 506.81 93.69 506.81 93.69 506.81 93.69 506.81 93.69 506.81 93.69 506.81 93.69 506.81 93.69 506.81 93.69 506.81 93.69 506.81 93.69 506.81 93.69 506.81 93.69 506.81 93.69 506.81 93.69 506.81 93.69 506.81 93.69 506.81 93.69 506.81 93.69 506.81 93.69 506.81 93.69 506.81 93.69 506.81 93.69 506.81 93.69" fill="none" opacity="0" stroke="#000" stroke-miterlimit="10"/>
      <g>
        <g>
          <g>
            <path d="M543.8,69.78c-8,0-14.5-6.5-14.5-14.5s6.5-14.5,14.5-14.5,14.5,6.5,14.5,14.5-6.5,14.5-14.5,14.5Z" fill="#e89a99"/>
            <path d="M543.8,41.28c7.72,0,14,6.28,14,14s-6.28,14-14,14-14-6.28-14-14,6.28-14,14-14M543.8,40.28c-8.28,0-15,6.72-15,15s6.72,15,15,15,15-6.72,15-15-6.72-15-15-15h0Z"/>
          </g>
          <polygon points="543.8 55.28 543.8 55.28 543.8 55.28 543.8 55.28 543.8 55.28 543.8 55.28 543.8 55.28 543.8 55.28 543.8 55.28 543.8 55.28 543.8 55.28 543.8 55.28 543.8 55.28 543.8 55.28 543.8 55.28 543.8 55.28 543.8 55.28 543.8 55.28 543.8 55.28 543.8 55.28 543.8 55.28 543.8 55.28 543.8 55.28 543.8 55.28 543.8 55.28 543.8 55.28 543.8 55.28 543.8 55.28 543.8 55.28 543.8 55.28 543.8 55.28 543.8 55.28 543.8 55.28 543.8 55.28 543.8 55.28 543.8 55.28 543.8 55.28 543.8 55.28 543.8 55.28 543.8 55.28 543.8 55.28 543.8 55.28 543.8 55.28 543.8 55.28 543.8 55.28 543.8 55.28 543.8 55.28 543.8 55.28 543.8 55.28 543.8 55.28 543.8 55.28 543.8 55.28 543.8 55.28 543.8 55.28 543.8 55.28 543.8 55.28 543.8 55.28 543.8 55.28 543.8 55.28 543.8 55.28 543.8 55.28 543.8 55.28 543.8 55.28 543.8 55.28 543.8 55.28 543.8 55.28 543.8 55.28 543.8 55.28 543.8 55.28 543.8 55.28 543.8 55.28 543.8 55.28 543.8 55.28 543.8 55.28 543.8 55.28 543.8 55.28 543.8 55.28 543.8 55.28 543.8 55.28 543.8 55.28 543.8 55.28 543.8 55.28 543.8 55.28 543.8 55.28 543.8 55.28 543.8 55.28 543.8 55.28 543.8 55.28 543.8 55.28 543.8 55.28 543.8 55.28 543.8 55.28 543.8 55.28 543.8 55.28 543.8 55.28 543.8 55.28 543.8 55.28 543.8 55.28 543.8 55.28" fill="none" opacity="0" stroke="#000" stroke-miterlimit="10"/>
        </g>
        <g clip-path="url(#clippath-13)">
          <g isolation="isolate">
            <g clip-path="url(#clippath-14)">
              <g clip-path="url(#clippath-15)">
                <path d="M550.72,64.12l1.54-4.08h-.32c-.5,1.33-1.85,2.19-3.31,2.57-.27.06-1.52.39-3.96.39h-7.68l6.49-7.61c.09-.1.11-.14.11-.2,0-.03,0-.06-.09-.19l-5.94-8.12h6.98c1.71,0,2.87.18,2.98.2.69.1,1.8.32,2.8.96.32.2,1.18.78,1.62,1.81h.32l-1.54-3.58h-15.06c-.29,0-.31.01-.34.09-.01.04-.01.28-.01.42l6.74,9.23-6.6,7.73c-.13.15-.13.22-.13.23,0,.14.11.14.34.14h15.06"/>
              </g>
            </g>
          </g>
        </g>
      </g>
      <g>
        <g>
          <path d="M499.55,95.53h12.98c4.53,0,8.2,3.68,8.2,8.2v12.98c0,4.53-3.68,8.2-8.2,8.2h-12.98c-4.53,0-8.2-3.68-8.2-8.2v-12.98c0-4.53,3.68-8.2,8.2-8.2Z" fill="#c8daf9"/>
          <path d="M512.53,96.03c4.25,0,7.7,3.46,7.7,7.7v12.98c0,4.25-3.46,7.7-7.7,7.7h-12.98c-4.25,0-7.7-3.46-7.7-7.7v-12.98c0-4.25,3.46-7.7,7.7-7.7h12.98M512.53,95.03h-12.98c-4.79,0-8.7,3.92-8.7,8.7v12.98c0,4.79,3.92,8.7,8.7,8.7h12.98c4.79,0,8.7-3.92,8.7-8.7v-12.98c0-4.79-3.92-8.7-8.7-8.7h0Z"/>
        </g>
        <path d="M513.6,105.14c.24-.95.67-1.69,2.57-1.76.12,0,.4-.02.4-.48,0-.02,0-.26-.31-.26-.78,0-1.62.07-2.4.07s-1.64-.07-2.42-.07c-.14,0-.43,0-.43.48,0,.26.24.26.43.26,1.35.02,1.62.52,1.62,1.04,0,.07-.05.43-.07.5l-2.66,10.57-5.25-12.4c-.19-.43-.21-.45-.76-.45h-3.18c-.47,0-.69,0-.69.48,0,.26.21.26.66.26.12,0,1.62,0,1.62.21l-3.18,12.75c-.24.95-.64,1.71-2.56,1.78-.14,0-.4.02-.4.48,0,.17.12.26.31.26.76,0,1.59-.07,2.38-.07s1.66.07,2.45.07c.12,0,.43,0,.43-.48,0-.24-.21-.26-.48-.26-1.38-.05-1.57-.57-1.57-1.05,0-.17.02-.28.1-.55l3.14-12.54c.1.14.1.19.21.43l5.92,13.99c.17.4.24.45.45.45.26,0,.26-.07.38-.5l3.32-13.23"/>
      </g>
      <polygon points="521.06 162.78 521.06 162.78 521.06 162.78 521.06 162.78 521.06 162.78 521.06 162.78 521.06 162.78 521.06 162.78 521.06 162.78 521.06 162.78 521.06 162.78 521.06 162.78 521.06 162.78 521.06 162.78 521.06 162.78 521.06 162.78 521.06 162.78 521.06 162.78 521.06 162.78 521.06 162.78 521.06 162.78 521.06 162.78 521.06 162.78 521.06 162.78 521.06 162.78 521.06 162.78 521.06 162.78 521.06 162.78 521.06 162.78 521.06 162.78 521.06 162.78 521.06 162.78 521.06 162.78 521.06 162.78 521.06 162.78 521.06 162.78 521.06 162.78 521.06 162.78 521.06 162.78 521.06 162.78 521.06 162.78 521.06 162.78 521.06 162.78 521.06 162.78 521.06 162.78 521.06 162.78 521.06 162.78 521.06 162.78 521.06 162.78 521.06 162.78 521.06 162.78 521.06 162.78 521.06 162.78 521.06 162.78 521.06 162.78 521.06 162.78 521.06 162.78 521.06 162.78 521.06 162.78 521.06 162.78 521.06 162.78 521.06 162.78 521.06 162.78 521.06 162.78 521.06 162.78 521.06 162.78 521.06 162.78 521.06 162.78 521.06 162.78 521.06 162.78 521.06 162.78 521.06 162.78 521.06 162.78 521.06 162.78 521.06 162.78 521.06 162.78 521.06 162.78 521.06 162.78 521.06 162.78 521.06 162.78 521.06 162.78 521.06 162.78 521.06 162.78 521.06 162.78 521.06 162.78 521.06 162.78 521.06 162.78 521.06 162.78 521.06 162.78 521.06 162.78 521.06 162.78 521.06 162.78 521.06 162.78 521.06 162.78 521.06 162.78 521.06 162.78 521.06 162.78 521.06 162.78" fill="none" opacity="0" stroke="#000" stroke-miterlimit="10"/>
      <g>
        <line x1="573.72" y1="179.17" x2="560.86" y2="211.46" fill="none" stroke="#000" stroke-miterlimit="10" stroke-width="2"/>
        <line x1="588.64" y1="179.72" x2="601.51" y2="212.01" fill="none" stroke="#000" stroke-miterlimit="10" stroke-width="2"/>
        <g>
          <g>
            <path d="M553.06,211.73h12.98c4.53,0,8.2,3.68,8.2,8.2v12.98c0,4.53-3.68,8.2-8.2,8.2h-12.98c-4.53,0-8.2-3.68-8.2-8.2v-12.98c0-4.53,3.68-8.2,8.2-8.2Z" fill="#c8daf9"/>
            <path d="M566.04,212.23c4.25,0,7.7,3.46,7.7,7.7v12.98c0,4.25-3.46,7.7-7.7,7.7h-12.98c-4.25,0-7.7-3.46-7.7-7.7v-12.98c0-4.25,3.46-7.7,7.7-7.7h12.98M566.04,211.23h-12.98c-4.79,0-8.7,3.92-8.7,8.7v12.98c0,4.79,3.92,8.7,8.7,8.7h12.98c4.79,0,8.7-3.92,8.7-8.7v-12.98c0-4.79-3.92-8.7-8.7-8.7h0Z"/>
          </g>
          <path d="M566.62,220.23c.13-.44.13-.5.13-.72,0-.56-.44-.84-.91-.84-.31,0-.81.19-1.09.65-.06.16-.31,1.12-.44,1.69-.22.81-.44,1.65-.62,2.5l-1.41,5.62c-.12.47-1.47,2.65-3.53,2.65-1.59,0-1.94-1.37-1.94-2.53,0-1.44.53-3.37,1.59-6.12.5-1.28.62-1.62.62-2.25,0-1.4-1-2.56-2.56-2.56-2.97,0-4.12,4.53-4.12,4.81,0,.31.31.31.38.31.31,0,.34-.06.5-.56.84-2.94,2.09-3.87,3.15-3.87.25,0,.78,0,.78,1,0,.78-.31,1.59-.53,2.19-1.25,3.31-1.81,5.09-1.81,6.56,0,2.78,1.97,3.72,3.81,3.72,1.22,0,2.28-.53,3.15-1.4-.41,1.62-.78,3.15-2.03,4.81-.81,1.06-2,1.97-3.43,1.97-.44,0-1.84-.09-2.37-1.31.5,0,.91,0,1.34-.38.31-.28.62-.69.62-1.28,0-.97-.84-1.09-1.16-1.09-.72,0-1.75.5-1.75,2.03s1.37,2.72,3.31,2.72c3.22,0,6.43-2.84,7.31-6.37l3-11.93"/>
        </g>
        <polygon points="603.23 228.6 603.23 228.6 603.23 228.6 603.23 228.6 603.23 228.6 603.23 228.6 603.23 228.6 603.23 228.6 603.23 228.6 603.23 228.6 603.23 228.6 603.23 228.6 603.23 228.6 603.23 228.6 603.23 228.6 603.23 228.6 603.23 228.6 603.23 228.6 603.23 228.6 603.23 228.6 603.23 228.6 603.23 228.6 603.23 228.6 603.23 228.6 603.23 228.6 603.23 228.6 603.23 228.6 603.23 228.6 603.23 228.6 603.23 228.6 603.23 228.6 603.23 228.6 603.23 228.6 603.23 228.6 603.23 228.6 603.23 228.6 603.23 228.6 603.23 228.6 603.23 228.6 603.23 228.6 603.23 228.6 603.23 228.6 603.23 228.6 603.23 228.6 603.23 228.6 603.23 228.6 603.23 228.6 603.23 228.6 603.23 228.6 603.23 228.6 603.23 228.6 603.23 228.6 603.23 228.6 603.23 228.6 603.23 228.6 603.23 228.6 603.23 228.6 603.23 228.6 603.23 228.6 603.23 228.6 603.23 228.6 603.23 228.6 603.23 228.6 603.23 228.6 603.23 228.6 603.23 228.6 603.23 228.6 603.23 228.6 603.23 228.6 603.23 228.6 603.23 228.6 603.23 228.6 603.23 228.6 603.23 228.6 603.23 228.6 603.23 228.6 603.23 228.6 603.23 228.6 603.23 228.6 603.23 228.6 603.23 228.6 603.23 228.6 603.23 228.6 603.23 228.6 603.23 228.6 603.23 228.6 603.23 228.6 603.23 228.6 603.23 228.6 603.23 228.6 603.23 228.6 603.23 228.6 603.23 228.6 603.23 228.6 603.23 228.6 603.23 228.6 603.23 228.6 603.23 228.6" fill="none" opacity="0" stroke="#000" stroke-miterlimit="10"/>
        <g>
          <g>
            <g>
              <rect x="588.76" y="211.23" width="30.39" height="30.39" rx="8.7" ry="8.7" fill="#c8daf9"/>
              <path d="M610.45,211.23h-4v1h4v-1h0ZM602.45,211.23h-4v1h4v-1h0ZM594.51,211.75c-1.27.46-2.4,1.21-3.32,2.17l.72.69c.82-.86,1.84-1.52,2.94-1.92l-.34-.94h0ZM589.16,217.33c-.09.3-.17.6-.23.91,0,0,0,0,0,0,0,0,0,.01,0,.02,0,0,0,0,0,0,0,0,0,.01,0,.02,0,0,0,0,0,0,0,0,0,0,0,0,0,0,0,0,0,0,0,0,0,0,0,.01h0s0,0,0,0c0,0,0,0,0,0,0,0,0,0,0,.01t0,0s0,0,0,0c0,0,0,0,0,0,0,0,0,0,0,.01,0,0,0,0,0,0,0,0,0,0,0,0,0,0,0,0,0,0,0,0,0,0,0,.01,0,0,0,0,0,0,0,0,0,0,0,0,0,0,0,0,0,0,0,0,0,0,0,0h0s0,0,0,0h0s0,0,0,0c0,0,0,0,0,0,0,0,0,0,0,0,0,0,0,0,0,0,0,0,0,0,0,0h0s0,0,0,0c0,0,0,0,0,0,0,0,0,0,0,0h0s0,0,0,.01c0,0,0,0,0,0,0,0,0,0,0,0,0,0,0,0,0,0,0,0,0,0,0,0,0,0,0,0,0,0,0,0,0,0,0,0,0,0,0,0,0,0,0,0,0,0,0,0,0,0,0,0,0,0,0,0,0,0,0,0,0,0,0,0,0,0,0,0,0,0,0,.01,0,0,0,0,0,0,0,0,0,0,0,0,0,0,0,0,0,0,0,0,0,0,0,0,0,0,0,0,0,0,0,0,0,0,0,0,0,0,0,0,0,0,0,0,0,0,0,0,0,0,0,0,0,0,0,0,0,0,0,0,0,0,0,0,0,0,0,0,0,0,0,0,0,0,0,0,0,0,0,0,0,0,0,0,0,0,0,0,0,0,0,0,0,0,0,0,0,0,0,0,0,0,0,0,0,0,0,0,0,0,0,0,0,0,0,0,0,0,0,0,0,0,0,0,0,0,0,0,0,0,0,0,0,0,0,0,0,0,0,0,0,0,0,0,0,0,0,0,0,0,0,0,0,0,0,0,0,0,0,0,0,0,0,0,0,0,0,0,0,0,0,0,0,0,0,0,0,0,0,0,0,0,0,0,0,0,0,0,0,0,0,0,0,0,0,0,0,0,0,0,0,0,0,0,0,0,0,0,0,0,0,0,0,0,0,0,0,0,0,0,0,0,0,0,0,0,0,0,0,0,0,0,0,0,0,0,0,0,0,0,0,0,0,0,0,0,0,0,0,0,0,0,0,0,0,0,0,0,0,0,0,0,0,0,0,0,0,0,0,0,0,0,0,0,0,0,0,0,0,0,0,0,0,0,0,0,0,0,0,0,0,0,0,0,0,0,0,0,0,0,0,0,0,0,0,0,0,0,0,0,0,0,0,0,0,0,0,0,0,0,0,0,0,0,0,0,0,0,0,0,0,0,0,0,0,0,0,0,0,0,0,0,0,0,0,0,0,0,0,0,0,0,0,0,0,0,0,0,0,0,0,0,0,0,0,0,0,0,0,0,0,0,0,0,0,0,0,0,0,0,0,0,0,0,0,0,0,0,0,0,0,0,0,0,0,0,0,0,0,0,0,0,0,0,0,0,0,0,0,0,0,0,0,0,0,0,0,0,0,0,0,0,0,0,0,0,0,0,0,0,0,0,0,0,0,0,0,0h0s0,0,0,0c0,0,0,0,0,0,0,0,0,0,0,0,0,0,0,0,0,0,0,0,0,0,0,0,0,0,0,0,0,0,0,0,0,0,0,0,0,0,0,0,0,0,0,0,0,0,0,0,0,0,0,0,0,0,0,0,0,0,0,0,0,0,0,0,0,0,0,0,0,0,0,0,0,0,0,0,0,0,0,0,0,0,0,0,0,0,0,0,0,0,0,0,0,0,0,0,0,0,0,0,0,0,0,0,0,0,0,0,0,0,0,0,0,0,0,0,0,0,0,0,0,0,0,0,0,0,0,0,0,0,0,0,0,0,0,0,0,0,0,0,0,0,0,0,0,0,0,0,0,0,0,0,0,0,0,0,0,0,0,0,0,0,0,0,0,0,0,0,0,0,0,0,0,0,0,0,0,0,0,0,0,0,0,0,0,0,0,0,0,0,0,0,0,0,0,0,0,0,0,0,0,0,0,0,0,0,0,0,0,0,0,0,0,0,0,0,0,0,0,0,0,0,0,0,0,0,0,0,0,0,0,0,0,0h0s0,0,0,0c0,0,0,0,0,.01,0,0,0,0,0,0,0,0,0,0,0,0,0,0,0,0,0,0,0,0,0,0,0,.01,0,0,0,0,0,0,0,0,0,0,0,0,0,0,0,0,0,0,0,0,0,0,0,.01,0,0,0,0,0,0,0,0,0,0,0,0,0,0,0,0,0,0,0,0,0,0,0,.01h0s0,0,0,0c0,0,0,0,0,0,0,0,0,0,0,0,0,0,0,0,0,0,0,0,0,0,0,0,0,0,0,0,0,0,0,0,0,0,0,0,0,0,0,0,0,0,0,0,0,0,0,0,0,0,0,0,0,0,0,0,0,0,0,0,0,0,0,0,0,0,0,0,0,0,0,0,0,0,0,0,0,0,0,0,0,0,0,0,0,0,0,0,0,0,0,0,0,0,0,0,0,0,0,0,0,0,0,0,0,0,0,0,0,0,0,0,0,0,0,0,0,0,0,0,0,0,0,0,0,0,0,0,0,0,0,0h0s0,0,0,0c0,0,0,0,0,0,0,0,0,0,0,0,0,0,0,0,0,0,0,0,0,0,0,0h0s0,0,0,0c0,0,0,0,0,0,0,0,0,0,0,0,0,0,0,0,0,0,0,0,0,0,0,0h0s0,0,0,0c0,0,0,0,0,0,0,0,0,0,0,0,0,0,0,0,0,0,0,0,0,0,0,0h0s0,0,0,0c0,0,0,0,0,0,0,0,0,0,0,0,0,0,0,0,0,0,0,0,0,0,0,0h0s0,0,0,0h0s0,0,0,0c0,0,0,0,0,0,0,0,0,0,0,0h0s0,0,0,0c0,0,0,0,0,0,0,0,0,0,0,0,0,0,0,0,0,0,0,0,0,0,0,0,0,0,0,0,0,0,0,0,0,0,0,0h0s0,0,0,0c0,0,0,0,0,0,0,0,0,0,0,0,0,0,0,0,0,0,0,0,0,0,0,0,0,0,0,0,0,0,0,0,0,0,0,0,0,0,0,0,0,0,0,0,0,0,0,0h0s0,0,0,.01h0s0,0,0,0c0,0,0,0,0,0,0,0,0,0,0,.01,0,0,0,0,0,0,0,0,0,0,0,0,0,0,0,0,0,0,0,0,0,0,0,.01,0,0,0,0,0,0,0,0,0,0,0,0,0,0,0,0,0,0,0,0,0,0,0,.01h0s0,0,0,0c0,0,0,0,0,0,0,0,0,0,0,.01,0,0,0,0,0,0,0,0,0,0,0,0,0,0,0,0,0,0,0,0,0,0,0,0h0s0,0,0,0h0s0,0,0,0c0,0,0,0,0,0,0,0,0,0,0,.01,0,0,0,0,0,0,0,0,0,0,0,0,0,0,0,0,0,0,0,0,0,0,0,0h0s0,0,0,0h0s0,0,0,0h0s0,0,0,0h0s0,0,0,0h0s0,0,0,0c0,0,0,0,0,0,0,0,0,0,0,0h0s0,0,0,.01c0,0,0,0,0,0,0,0,0,0,0,0h0s0,0,0,.01c0,0,0,0,0,0,0,0,0,0,0,0,0,0,0,0,0,0,0,0,0,0,0,.01,0,0,0,0,0,0,0,0,0,0,0,0,0,0,0,0,0,0,0,0,0,0,0,0h0s0,0,0,0c0,0,0,0,0,0,0,0,0,0,0,0,0,0,0,0,0,0,0,0,0,0,0,0h0s0,0,0,0h0s0,0,0,0h0s0,0,0,0h0s0,0,0,0h0s0,0,0,0c0,0,0,0,0,0,0,0,0,0,0,0,0,0,0,0,0,0,0,0,0,0,0,0,0,0,0,0,0,0,0,0,0,0,0,0,0,0,0,0,0,0,0,0,0,0,0,0h0s0,0,0,0h0s0,0,0,0c0,0,0,0,0,0,0,0,0,0,0,0h0s0,0,0,0c0,0,0,0,0,0,0,0,0,0,0,0h0s0,0,0,0c0,0,0,0,0,0,0,0,0,0,0,.01,0,0,0,0,0,0,0,0,0,0,0,0,0,0,0,0,0,0,0,0,0,0,0,.01h0s0,0,0,0c0,0,0,0,0,0,0,0,0,0,0,.01h0s0,0,0,0c0,0,0,0,0,0,0,0,0,0,0,0h0s0,0,0,0h0s0,0,0,0c0,0,0,0,0,0,0,0,0,0,0,0,0,0,0,0,0,0,0,0,0,0,0,0,0,0,0,0,0,0,0,0,0,0,0,0h0s0,0,0,0h0s0,0,0,0h0s0,0,0,0c0,0,0,0,0,0,0,0,0,0,0,0h0s0,0,0,0c0,0,0,0,0,0,0,0,0,0,0,0h0s0,0,0,0c0,0,0,0,0,0,0,0,0,0,0,0h0s0,0,0,0c0,0,0,0,0,0h0s0,0,0,0c0,0,0,0,0,0h0s0,0,0,0h0s0,0,0,0c0,0,0,0,0,0,0,0,0,0,0,.01h0s0,0,0,0h0s0,0,0,0h0s0,0,0,0h0s0,0,0,0h0s0,0,0,0h0s0,0,0,0h0s0,.01,0,.01h0s0,0,0,0h0s0,0,0,0h0s0,.01,0,.01h0s0,.01,0,.01h0s0,.02,0,.02h0v.02h0s0,0,0,0h0v.02h0v1.37h1v-1.35c0-.79.12-1.56.35-2.3l-.95-.3h0ZM589.76,225.29h-1v4h1v-4h0ZM589.77,233.25l-1,.04c0,.13.01.26.03.39h0s0,0,0,0h0s0,.03,0,.04h0s0,0,0,0c0,0,0,0,0,0,0,0,0,0,0,0h0s0,.02,0,.02h0s0,0,0,0t0,0s0,0,0,0c0,0,0,0,0,0,0,0,0,0,0,0,0,0,0,0,0,0,0,0,0,0,0,0h0s0,.01,0,.02c0,0,0,0,0,0,0,0,0,0,0,0,0,0,0,0,0,0,0,0,0,0,0,0,0,0,0,0,0,0,0,0,0,0,0,0,0,0,0,0,0,0,0,0,0,0,0,0,0,0,0,0,0,0,0,0,0,.01,0,.02,0,0,0,0,0,0,0,0,0,0,0,0,0,0,0,0,0,0,0,0,0,0,0,0,0,0,0,0,0,0,0,0,0,0,0,0,0,0,0,0,0,0,0,0,0,0,0,0,0,0,0,0,0,0h0s0,0,0,0c0,0,0,0,0,0,0,0,0,0,0,0,0,0,0,0,0,0,0,0,0,0,0,0,0,0,0,0,0,0,0,0,0,0,0,0,0,0,0,0,0,0,0,0,0,0,0,0,0,0,0,0,0,0,0,0,0,0,0,0,0,0,0,0,0,0,0,0,0,0,0,0,0,0,0,0,0,0,0,0,0,0,0,0,0,0,0,0,0,0,0,0,0,0,0,0,0,0,0,0,0,0,0,0,0,0,0,0,0,0,0,0,0,0,0,0,0,0,0,0,0,0,0,0,0,0,0,0,0,0,0,0,0,0,0,0,0,0,0,0,0,0,0,0,0,0,0,0,0,0,0,0,0,0,0,0,0,0,0,0,0,0,0,0,0,0,0,0,0,0,0,0,0,0,0,0,0,0,0,0,0,0,0,0,0,0,0,0,0,0,0,0,0,0,0,0,0,0,0,0,0,0,0,0,0,0,0,0,0,0,0,0,0,0,0,0,0,0,0,0,0,0,0,0,0,0,0,0,0,0,0,0,0,0,0,0,0,0,0,0,0,0,0,0,0,0,0,0,0,0,0,0,0,0,0,0,0,0,0,0,0,0,0,0,0,0,0,0,0,0,0,0,0,0,0,0,0,0,0,0,0,0,0,0,0,0,0,0,0,0,0,0,0,0,0,0,0,0,0,.01,0,0,0,0,0,0,0,0,0,0,0,0,0,0,0,0,0,0,0,0,0,0,0,0,0,0,0,0,0,0,0,0,0,0,0,0h0s0,0,0,0c0,0,0,0,0,0,0,0,0,0,0,0,0,0,0,0,0,0,0,0,0,.01,0,.02,0,0,0,0,0,0,0,0,0,0,0,0,0,0,0,0,0,0,0,0,0,0,0,0,0,0,0,0,0,0,0,0,0,0,0,0,0,0,0,0,0,0,0,0,0,0,0,0h0s0,.01,0,.02c0,0,0,0,0,0,0,0,0,0,0,0,0,0,0,0,0,0,0,0,0,0,0,0,0,0,0,0,0,0,0,0,0,0,0,0,0,0,0,0,0,0,0,0,0,0,0,0,0,0,0,0,0,0,0,0,0,.01,0,.02,0,0,0,0,0,0,0,0,0,0,0,0,0,0,0,0,0,0,0,0,0,0,0,0,0,0,0,0,0,0,0,0,0,0,0,0,0,0,0,0,0,0,0,0,0,0,0,0h0s0,.02,0,.03c0,0,0,0,0,0,0,0,0,0,0,0,0,0,0,0,0,0,0,0,0,0,0,0,0,0,0,0,0,0,0,0,0,0,0,0,0,0,0,0,0,0,0,0,0,.02,0,.03,0,0,0,0,0,0,0,0,0,0,0,0,0,0,0,0,0,0,0,0,0,0,0,0,0,0,0,0,0,0,0,0,0,0,0,0,0,0,0,0,0,0,0,0,0,.02,0,.03h0s0,0,0,0c0,0,0,0,0,0,0,0,0,0,0,0,0,0,0,0,0,0,0,0,0,0,0,0h0s0,.02,0,.03c0,0,0,0,0,0,0,0,0,0,0,0,0,0,0,0,0,0,0,0,0,0,0,0,0,0,0,0,0,0,0,0,0,0,0,0,0,0,0,0,0,0,0,.01,0,.02,0,.03,0,0,0,0,0,0,0,0,0,0,0,0,0,0,0,0,0,0,0,0,0,0,0,0,0,0,0,0,0,0,0,.01,0,.02,0,.03h0s0,0,0,0c0,0,0,0,0,0,0,0,0,0,0,0,0,0,0,0,0,0,0,.01,0,.02,0,.03,0,0,0,0,0,0,0,0,0,0,0,0,0,0,0,0,0,0,0,0,0,0,0,0,0,0,0,0,0,0,0,.01,0,.02,0,.03,0,0,0,0,0,0,0,0,0,0,0,0,0,0,0,0,0,0,0,0,0,0,0,0,0,0,0,0,0,0,0,0,0,0,0,0,0,0,0,0,0,0,0,0,0,.02,0,.03,0,0,0,0,0,0,0,0,0,0,0,0,0,0,0,0,0,0,0,0,0,0,0,0,0,0,0,0,0,0,0,0,0,0,0,0,0,0,0,0,0,0v.03s0,0,0,0c0,0,0,0,0,0,0,0,0,0,0,0,0,0,0,0,0,0h0s0,.02,0,.03h0s0,0,0,0c0,0,0,0,0,0,0,.01,0,.03,0,.04,0,0,0,0,0,0,0,0,0,0,0,0,0,0,0,0,0,0,0,0,0,0,0,0,0,0,0,0,0,0,0,.01,0,.02,0,.03,0,0,0,0,0,0,0,0,0,0,0,0,0,0,0,0,0,0,0,0,0,0,0,0,0,0,0,0,0,0,0,.01,0,.02,0,.03h0s0,0,0,0c0,0,0,0,0,0,0,0,0,0,0,0,0,0,0,0,0,0,0,.01,0,.03,0,.04,0,0,0,0,0,0,0,0,0,0,0,0,0,0,0,0,0,0,0,0,0,0,0,0h0s0,.02,0,.03c0,0,0,0,0,0,0,0,0,0,0,0,0,0,0,0,0,0,0,.01,0,.03,0,.04,0,0,0,0,0,0,0,0,0,0,0,0,0,0,0,0,0,0,0,0,0,0,0,0,0,0,0,0,0,0,0,.01,0,.02,0,.03,0,0,0,0,0,0,0,0,0,0,0,0,0,0,0,0,0,0,0,0,0,0,0,0,0,0,0,0,0,0,0,.01,0,.02,0,.03,0,0,0,0,0,0,0,0,0,0,0,0,0,0,0,0,0,0,0,0,0,0,0,0,0,0,0,0,0,0,0,.01,0,.02,0,.03,0,0,0,0,0,0,0,0,0,0,0,0h0s0,0,0,0c0,0,0,0,0,0,0,.01,0,.02,0,.03h0s0,0,0,0c0,0,0,0,0,0,0,0,0,0,0,0,0,0,0,0,0,0,0,0,0,0,0,0h0s0,.02,0,.03h0s0,0,0,0c0,0,0,0,0,0,0,0,0,0,0,0,0,0,0,0,0,0,0,0,0,0,0,0t0,0s0,.02,0,.03h0s0,0,0,0c0,0,0,0,0,0,0,0,0,0,0,0,0,0,0,0,0,0,0,0,0,0,0,0,0,0,0,0,0,0,0,.01,0,.02,0,.03,0,0,0,0,0,0,0,0,0,0,0,0,0,0,0,0,0,0,0,0,0,0,0,0,0,0,0,0,0,0,0,.01,0,.02,0,.03,0,0,0,0,0,0,0,0,0,0,0,0,0,0,0,0,0,0,0,0,0,0,0,0,0,0,0,0,0,0,0,0,0,0,0,0,0,0,0,0,0,0,0,0,0,.02,0,.02,0,0,0,0,0,0,0,0,0,0,0,0,0,0,0,0,0,0,0,0,0,0,0,0,0,0,0,0,0,0,0,0,0,0,0,0,0,0,0,0,0,0,0,0,0,.02,0,.02,0,0,0,0,0,0,0,0,0,0,0,0,0,0,0,0,0,0,0,0,0,0,0,0,0,0,0,0,0,0,0,0,0,0,0,0,0,0,0,0,0,0,0,0,0,.02,0,.02,0,0,0,0,0,0,0,0,0,0,0,0,0,0,0,0,0,0,0,0,0,0,0,0,0,0,0,0,0,0,0,0,0,0,0,0,0,0,0,0,0,0,0,0,0,0,0,0,0,0,0,0,0,0,0,0,0,.01,0,.02,0,0,0,0,0,0,0,0,0,0,0,0,0,0,0,0,0,0,0,0,0,0,0,0,0,0,0,0,0,0,0,0,0,0,0,0,0,0,0,0,0,0,0,0,0,.02,0,.02,0,0,0,0,0,0,0,0,0,0,0,0,0,0,0,0,0,0,0,0,0,0,0,0,0,0,0,0,0,0,0,0,0,0,0,0,0,0,0,0,0,0,0,0,0,0,0,0,0,0,0,0,0,0,0,0,0,.01,0,.02,0,0,0,0,0,0,0,0,0,0,0,0,0,0,0,0,0,0,0,0,0,0,0,0,0,0,0,0,0,0,0,0,0,0,0,0,0,0,0,0,0,0,0,0,0,0,0,0h0s0,.02,0,.02c0,0,0,0,0,0,0,0,0,0,0,0,0,0,0,0,0,0,0,0,0,0,0,0,0,0,0,0,0,0,0,0,0,0,0,0,0,0,0,0,0,0,0,0,0,.02,0,.02,0,0,0,0,0,0,0,0,0,0,0,0,0,0,0,0,0,0,0,0,0,0,0,0,0,0,0,0,0,0,0,0,0,0,0,0,0,0,0,0,0,0,0,0,0,.02,0,.02,0,0,0,0,0,0,0,0,0,0,0,0,0,0,0,0,0,0,0,0,0,0,0,0,0,0,0,0,0,0,0,0,0,0,0,0,0,0,0,0,0,0,0,0,0,.02,0,.02,0,0,0,0,0,0,0,0,0,0,0,0,0,0,0,0,0,0,0,0,0,0,0,0,0,0,0,0,0,0,0,0,0,0,0,0,0,0,0,0,0,0,0,0,0,0,0,0,0,0,0,0,0,0,0,0,0,.01,0,.02,0,0,0,0,0,0,0,0,0,0,0,0,0,0,0,0,0,0,0,0,0,0,0,0,0,0,0,0,0,0,0,0,0,0,0,0,0,0,0,0,0,0,0,0,0,.02.01.03,0,0,0,0,0,0,0,0,0,0,0,0,0,0,0,0,0,0,0,0,0,0,0,0,0,0,0,0,0,0,0,0,0,0,0,0,0,0,0,0,0,0,0,0,0,.02,0,.02,0,0,0,0,0,0,0,0,0,0,0,0,0,0,0,0,0,0,0,0,0,0,0,0,0,0,0,0,0,0,0,0,0,0,0,0,0,0,0,0,0,0,0,0,0,.02,0,.02,0,0,0,0,0,0,0,0,0,0,0,0,0,0,0,0,0,0,0,0,0,0,0,0,0,0,0,0,0,0h0s0,0,0,0c0,0,0,.02,0,.02h0s0,0,0,0c0,0,0,0,0,0,0,0,0,0,0,0,0,0,0,0,0,0,0,0,0,0,0,0,0,0,0,0,0,0,0,.01,0,.02.01.03,0,0,0,0,0,0,0,0,0,0,0,0h0s0,0,0,0t0,0s0,.02.02.04h0s.02.06.04.09c0,0,0,0,0,0,.12.28.25.55.39.81l.88-.48c-.58-1.05-.9-2.18-.95-3.37h0ZM593.07,239.23l-.57.82c.07.05.15.1.22.15h0s.02.01.03.02c0,0,0,0,0,0,0,0,0,0,0,0,0,0,0,0,0,0,0,0,.02.01.03.02,0,0,0,0,0,0,0,0,0,0,0,0,0,0,0,0,0,0,0,0,0,0,0,0,0,0,0,0,0,0,0,0,.02.01.03.02,0,0,0,0,0,0,0,0,0,0,0,0,0,0,0,0,0,0,0,0,0,0,0,0,0,0,0,0,0,0,0,0,.01,0,.02.01,0,0,0,0,0,0,0,0,0,0,0,0,0,0,0,0,0,0,0,0,0,0,0,0,0,0,0,0,0,0,0,0,0,0,0,0,0,0,0,0,0,0,0,0,0,0,0,0h0s.01,0,.02,0c0,0,0,0,0,0,0,0,0,0,0,0,0,0,0,0,0,0,0,0,0,0,0,0h0s0,0,0,0c0,0,0,0,0,0,0,0,.01,0,.02,0,0,0,0,0,0,0,0,0,0,0,0,0,0,0,0,0,0,0,0,0,0,0,0,0,0,0,0,0,0,0,0,0,0,0,0,0,0,0,0,0,0,0,0,0,0,0,0,0,0,0,0,0,0,0,0,0,0,0,.01,0,0,0,0,0,0,0,0,0,0,0,0,0,0,0,0,0,0,0,0,0,0,0,0,0,0,0,0,0,0,0,0,0,0,0,0,0,0,0,0,0,0,0,0,0,0,0,0,0,0,0,0,0,0,0,0,0,0,0,0,0,0,0,0,0,0,0,0,0,0,0,0,0,0,0,0,0,0,0,0,0,0,0,0,0,0,0,0,0,0,0,0,0,0,0,0,0,0,0,0,0,0,0,0,0,0,0,0,0,0,0,0,0,0,0,0,0,0,0,0,0,0,0,0,0,0,0h0s0,0,0,0c0,0,0,0,0,0,0,0,0,0,0,0,0,0,0,0,0,0,0,0,0,0,0,0,0,0,0,0,0,0,0,0,0,0,0,0,0,0,0,0,0,0,0,0,0,0,0,0,0,0,0,0,.01,0,0,0,0,0,0,0,0,0,0,0,0,0,0,0,0,0,0,0h0s0,0,0,0c0,0,0,0,0,0,0,0,0,0,0,0,0,0,0,0,0,0,0,0,0,0,0,0,0,0,0,0,.01,0,0,0,0,0,0,0,0,0,0,0,0,0,0,0,0,0,0,0,0,0,0,0,0,0,0,0,0,0,0,0,0,0,0,0,0,0h0s0,0,0,0c0,0,0,0,0,0,0,0,0,0,0,0,0,0,0,0,0,0,0,0,0,0,0,0,0,0,0,0,0,0,0,0,0,0,0,0,0,0,0,0,0,0,0,0,0,0,0,0,0,0,0,0,0,0,0,0,0,0,0,0,0,0,0,0,0,0,0,0,0,0,.01,0,0,0,0,0,0,0,0,0,0,0,0,0,0,0,0,0,0,0,0,0,0,0,0,0,0,0,0,0,0,0,0,0,0,0,0,0,0,0,0,0,0,0,0,0,0,0,0,0,0,0,0,0,0,0,0,0,0,0,.01,0,0,0,0,0,0,0,0,0,0,0,0,0,0,0,0,0,0,0,0,0,0,0,0,0,0,0,0,0,0,0,0,0,0,0,0,0,0,0,0,0,0,0,0,0,0,0,0,0,0,0,0,0,0,0,0,0,0,0,0,0h0s0,0,0,0c0,0,0,0,0,0,0,0,0,0,0,0,0,0,0,0,0,0,0,0,0,0,0,0,0,0,0,0,0,0,0,0,0,0,0,0,0,0,0,0,0,0,0,0,0,0,.01,0,0,0,0,0,0,0,0,0,0,0,0,0,0,0,0,0,0,0,0,0,0,0,0,0h0s0,0,0,0h0s0,0,0,0c0,0,0,0,0,0,0,0,0,0,.01,0h0s0,0,0,0c0,0,0,0,0,0,0,0,0,0,0,0,0,0,0,0,0,0,0,0,0,0,0,0,0,0,0,0,0,0,0,0,0,0,0,0,0,0,0,0,0,0,0,0,.01,0,.02,0,0,0,0,0,0,0,0,0,0,0,0,0,0,0,0,0,0,0,0,0,0,0,0,0,0,0,0,0,0,0,0,0,0,0,0,0,0,0,0,0,0,0,0,0,0,0,0,0,0,0,0,0,0,0,0,0,.01,0,.02,0,0,0,0,0,0,0,0,0,0,0,0,0,0,0,0,0,0,0,0,0,0,0,0,0,0,0,0,0,0,0,0,0,0,0,0,0,0,0,0,0,0,0,0,0,.01,0,.02,0,0,0,0,0,0,0,0,0,0,0,0,0,0,0,0,0,0,0,0,0,0,0,0,0,0,0,0,0,0,0,0,0,0,0,0,0,0,0,0,0,0,0,0,0,0,0,0,0,0,0,0,0,0,0,0,0,.01,0,.02,0,0,0,0,0,0,0,0,0,0,0,0,0,0,0,0,0,0,0,0,0,0,0,0,0,0,0,0,0,0,0,0,0,0,0,0,0h0s.01,0,.02.01c0,0,0,0,0,0,0,0,0,0,0,0,0,0,0,0,0,0,0,0,0,0,0,0,0,0,0,0,0,0,0,0,0,0,0,0,0,0,0,0,0,0,0,0,.02,0,.02.01,0,0,0,0,0,0,0,0,0,0,0,0h0s0,0,0,0h0s0,0,0,0c0,0,0,0,0,0,0,0,.02,0,.02.01,0,0,0,0,0,0,0,0,0,0,0,0,0,0,0,0,0,0,0,0,0,0,0,0,0,0,0,0,0,0,.01,0,.02.01.04.02,0,0,0,0,0,0,.01,0,.02.01.04.02,0,0,0,0,0,0,.77.37,1.6.63,2.47.76l.15-.99c-1.16-.17-2.29-.62-3.26-1.3h0ZM604.18,240.62h-4v1h4v-1h0ZM611.97,240.47c-.5.1-1.01.15-1.52.15h-2.27v1h2.29s0,0,0,0h0s0,0,0,0h0s0,0,0,0h0s0,0,0,0h0s0,0,0,0c0,0,0,0,0,0h0s0,0,0,0c0,0,0,0,0,0,0,0,0,0,0,0,0,0,0,0,0,0,0,0,0,0,0,0,0,0,0,0,0,0,0,0,0,0,0,0,0,0,0,0,0,0,0,0,0,0,0,0,0,0,0,0,0,0,0,0,0,0,0,0,0,0,0,0,0,0,0,0,0,0,0,0,0,0,0,0,0,0,0,0,0,0,0,0,0,0,0,0,0,0,0,0,0,0,0,0,0,0,0,0,0,0,0,0,0,0,0,0,0,0,0,0,0,0,0,0,0,0,0,0,0,0,0,0,0,0,0,0,0,0,0,0,0,0,0,0,0,0,0,0,0,0,0,0,0,0,0,0,0,0,0,0,0,0,0,0,0,0,0,0,0,0,0,0,0,0,0,0,0,0,0,0,0,0,0,0,0,0,0,0,0,0,0,0,0,0,0,0,0,0,0,0,0,0,0,0,0,0,0,0,0,0,0,0,0,0,0,0,0,0,0,0,0,0,0,0,0,0,0,0,0,0,0,0,0,0,0,0,0,0,0,0,0,0,0,0,0,0,0,0,0,0,0,0,0,0,0,0,0,0,0,0,0,0,0,0,0,0,0,0,0,0,0,0,0,0,0,0,0,0,0,0,0,0,0,0,0,0,0,0,0,0,0,0,0,0,0,0,0,0,0,0,0,0,0,0,0,0,0,0,0,0,0,0,0,0,0,0,0,0,0,0,0,0,0,0,0,0,0,0,0,0,0,0,0,0,0,0,0,0,0,0,0,0,0,0,0,0,0,0,0,0,0,0,0,0,0,0,0,0,0,0,0,0,0,0,0,0,0,0,0,0,0,0,0,0,0,0,0,0,0,0,0,0,0,0,0,0,0,0,0,0,0,0h0s0,0,0,0h0c.43-.01.85-.06,1.27-.14h0s0,0,0,0c0,0,0,0,0,0,0,0,0,0,0,0,0,0,0,0,0,0,0,0,0,0,0,0,0,0,0,0,0,0,0,0,0,0,0,0,0,0,0,0,0,0h0s0,0,0,0c0,0,0,0,0,0,0,0,0,0,0,0,0,0,0,0,0,0,0,0,0,0,0,0,0,0,0,0,0,0,0,0,0,0,0,0,0,0,0,0,0,0,0,0,0,0,0,0,0,0,0,0,0,0,0,0,0,0,0,0,0,0,0,0,0,0h0s0,0,0,0c0,0,0,0,0,0,0,0,0,0,0,0,0,0,0,0,0,0,0,0,0,0,0,0,0,0,0,0,0,0,0,0,0,0,0,0,0,0,0,0,0,0,0,0,0,0,0,0,0,0,0,0,0,0,0,0,0,0,0,0,0,0,0,0,0,0s0,0,0,0c0,0,0,0,0,0,0,0,0,0,0,0,0,0,0,0,0,0,0,0,0,0,0,0,0,0,0,0,0,0,0,0,0,0,0,0,0,0,0,0,0,0h0s0,0,.01,0l-.2-.98h0ZM617.37,236.28c-.52,1.06-1.29,2-2.22,2.72l.61.79c.36-.28.69-.58,1-.91h0s.02-.02.03-.03c0,0,0,0,0,0,0,0,0,0,0,0,0,0,0,0,0,0,0,0,.01-.01.02-.02,0,0,0,0,0,0,0,0,0,0,0,0,0,0,0,0,0,0,0,0,0,0,0,0h0s0,0,.01-.01h0s0,0,0,0c0,0,0,0,0,0,0,0,0,0,0,0,0,0,0,0,0,0,0,0,0,0,0,0,0,0,0,0,0,0,0,0,.01-.01.02-.02,0,0,0,0,0,0,0,0,0,0,0,0,0,0,0,0,0,0,0,0,0,0,0,0,0,0,0,0,0,0,0,0,.01-.01.02-.02,0,0,0,0,0,0,0,0,0,0,0,0,0,0,0,0,0,0,0,0,0,0,0,0,0,0,0,0,0,0,0,0,.01-.01.02-.02,0,0,0,0,0,0,0,0,0,0,0,0,0,0,0,0,0,0,0,0,0,0,0,0,0,0,0,0,0,0,0,0,0,0,0,0,0,0,0,0,0,0,0,0,0,0,.01-.01,0,0,0,0,0,0,0,0,0,0,0,0,0,0,0,0,0,0,0,0,0,0,0,0,0,0,0,0,0,0,0,0,0,0,0,0,0,0,0,0,0,0,0,0,0,0,.01-.01,0,0,0,0,0,0,0,0,0,0,0,0,0,0,0,0,0,0,0,0,0,0,0,0,0,0,0,0,0,0,0,0,0,0,0,0,0,0,0,0,0,0,0,0,0,0,0-.01h0s0,0,0,0c0,0,0,0,0,0,0,0,0,0,0,0,0,0,0,0,0,0,0,0,0,0,0,0,0,0,0,0,0,0,0,0,0,0,0,0h0s0,0,0,0h0s0,0,0,0c0,0,0,0,0,0h0s0,0,0,0c0,0,0,0,0,0,0,0,0,0,0,0,0,0,0,0,0,0,0,0,0,0,0,0,0,0,0,0,0-.01,0,0,0,0,0,0,0,0,0,0,0,0,0,0,0,0,0,0,0,0,0,0,0,0,0,0,0,0,0,0,0,0,0,0,0,0,0,0,0,0,0,0,0,0,0,0,0-.01,0,0,0,0,0,0,0,0,0,0,0,0,0,0,0,0,0,0,0,0,0,0,0,0,0,0,0,0,0,0,0,0,0,0,0,0,0,0,0,0,0,0,0,0,0,0,0-.01,0,0,0,0,0,0,0,0,0,0,0,0,0,0,0,0,0,0,0,0,0,0,0,0,0,0,0,0,0,0,0,0,0,0,0,0,0,0,0,0,0,0,0,0,0,0,0,0,0,0,0,0,0,0,0,0,0,0,0,0,0,0,0,0,0,0,0,0,0,0,0,0,0,0,0,0,0,0,0,0,0,0,0,0,0,0,0,0,0,0,0,0,0,0,0,0,0,0,0,0,0,0,0,0,0,0,0-.01h0s0,0,0,0c0,0,0,0,0,0,0,0,0,0,0,0,0,0,0,0,0,0,0,0,0,0,0,0,0,0,0,0,0,0,0,0,0,0,0,0,0,0,0,0,0,0,0,0,0,0,0,0,0,0,0,0,0,0,0,0,0,0,0,0,0,0,0,0,0,0,0,0,0,0,0,0,0,0,0,0,0,0,0,0,0,0,0,0,0,0,0,0,0,0,0,0,0,0,0,0,0,0,0,0,0,0,0,0,0,0,0,0h0s0,0,0,0c0,0,0,0,0,0,0,0,0,0,0,0,0,0,0,0,0,0,0,0,0,0,0,0,0,0,0,0,0,0,0,0,0,0,0,0,0,0,0,0,0,0,0,0,0,0,0-.01,0,0,0,0,0,0,0,0,0,0,0,0,0,0,0,0,0,0,0,0,0,0,0,0,0,0,0,0,0,0,0,0,0,0,0,0,0,0,0,0,0,0,0,0,0,0,0,0,0,0,0,0,0,0,0,0,0,0,0,0,0,0,0,0,0,0,0,0,0,0,0,0,0,0,0,0,0,0,0,0,0,0,0,0,0,0,0,0,0,0,0,0,0,0,0,0,0,0,0,0,0,0,0,0,0,0,0,0,0,0,0,0,0,0,0,0,0,0,0,0h0s0,0,0,0c0,0,0,0,0,0,0,0,0,0,0,0,0,0,0,0,0,0,0,0,0,0,0,0,0,0,0,0,0,0,0,0,0,0,0,0,0,0,0,0,0,0,0,0,0,0,0,0,0,0,0,0,0,0,0,0,0,0,0,0,0,0,0,0,0,0,0,0,0,0,0,0,0,0,0,0,0,0,0,0,0,0,0,0h0s0,0,0,0c0,0,0,0,0,0,0,0,0,0,0-.01,0,0,0,0,0,0,0,0,0,0,0,0,0,0,0,0,0,0,0,0,0,0,0,0,0,0,0,0,0,0,0,0,0,0,0,0,0,0,0,0,0,0,0,0,0,0,0-.01,0,0,0,0,0,0,0,0,0,0,0,0,0,0,0,0,0,0,0,0,0,0,0,0,0,0,0,0,0,0,0,0,0,0,0,0,0,0,0,0,0,0,0,0,0,0,0,0,0,0,0,0,0,0,0,0,0,0,0,0,0,0,0,0,0,0,0,0,0,0,0,0,0,0,0,0,0,0,0,0,0,0,0,0,0,0,0,0,0,0,0,0,0,0,0,0,0,0,0,0,0,0,0,0,0,0,0,0h0s0,0,0,0h0s0,0,0,0c0,0,0,0,0,0,0,0,0,0,0,0,0,0,0,0,0,0,0,0,0,0,0,0,0,0,0,0,0,0,0,0,0,0,0,0,0,0,0,0,0,0,0,0,0,0,0-.01,0,0,0,0,0,0,0,0,0,0,0,0,0,0,0,0,0,0,0,0,0,0,0,0,0,0,0,0,0,0,0,0,0,0,0,0,0,0,0,0,0,0,0,0,0,0,0-.01,0,0,0,0,0,0,0,0,0,0,0,0,0,0,0,0,0,0h0s0,0,0,0c0,0,0,0,0,0,0,0,0,0,0,0,0,0,0,0,0-.01,0,0,0,0,0,0,0,0,0,0,0,0,0,0,0,0,0,0,0,0,0,0,0,0,0,0,0,0,0,0,0,0,0,0,0,0,0,0,0,0,0,0,0,0,0,0,0-.01h0s0,0,0,0c0,0,0,0,0,0,0,0,0,0,0,0,0,0,0,0,0,0,0,0,0,0,0,0,0,0,0,0,0,0,0,0,0,0,0-.01h0s0,0,0,0c0,0,0,0,0,0,0,0,0,0,0,0,0,0,0,0,0,0,0,0,0,0,0,0h0s0,0,0,0h0s0,0,0-.01c0,0,0,0,0,0,0,0,0,0,0,0,0,0,0,0,0,0,0,0,0,0,0,0,0,0,0,0,0,0,0,0,0,0,0,0,0,0,0,0,0,0,0,0,0,0,0-.01h0s0,0,0,0c0,0,0,0,0,0,0,0,0,0,0,0,0,0,0,0,0,0,0,0,0,0,0,0h0s0,0,0-.01c0,0,0,0,0,0,0,0,0,0,0,0,0,0,0,0,0,0,0,0,0,0,0,0,0,0,0,0,0,0,0,0,0,0,0,0h0s0-.01.01-.02h0s0,0,0,0c0,0,0,0,0,0,0,0,0,0,0,0,0,0,0,0,0,0,0,0,.01-.02.02-.03h0s.01-.02.02-.03h0s0,0,0,0h0s.01-.02.02-.03h0s0,0,0,0h0s.01-.02.02-.03c0,0,0,0,0,0,0,0,.01-.02.02-.03h0s0,0,0,0h0s.01-.02.02-.03h0s.02-.03.03-.04h0s.01-.02.02-.03c0,0,0,0,0,0,.17-.26.32-.54.46-.82l-.9-.44h0ZM619.15,228.85h-1v4h1v-4h0ZM619.15,220.85h-1v4h1v-4h0ZM616.42,213.62l-.69.73c.86.81,1.53,1.83,1.94,2.93l.94-.35c-.08-.21-.17-.42-.26-.63,0,0,0,0,0,0,0-.01-.01-.02-.02-.04,0,0,0,0,0,0,0,0,0,0,0,0,0,0,0,0,0,0,0,0,0-.02-.01-.03,0,0,0,0,0,0,0,0,0,0,0,0,0,0,0,0,0,0,0,0,0,0,0,0,0,0,0,0,0,0,0,0,0-.01,0-.02,0,0,0,0,0,0,0,0,0,0,0,0,0,0,0,0,0,0,0,0,0,0,0,0,0,0,0,0,0,0,0,0,0,0,0,0,0,0,0,0,0,0,0,0,0-.01,0-.02,0,0,0,0,0,0,0,0,0,0,0,0,0,0,0,0,0,0,0,0,0,0,0,0,0,0,0,0,0,0,0,0,0,0,0,0,0,0,0,0,0,0,0,0,0,0,0,0,0,0,0,0,0,0,0,0,0-.01,0-.02,0,0,0,0,0,0,0,0,0,0,0,0,0,0,0,0,0,0,0,0,0,0,0,0,0,0,0,0,0,0,0,0,0,0,0,0,0,0,0,0,0,0,0,0,0,0,0-.01,0,0,0,0,0,0,0,0,0,0,0,0,0,0,0,0,0,0,0,0,0,0,0,0,0,0,0,0,0,0,0,0,0,0,0,0,0,0,0,0,0,0,0,0,0-.01,0-.01h0s0,0,0,0c0,0,0,0,0,0,0,0,0,0,0,0,0,0,0,0,0,0,0,0,0,0,0,0,0,0,0,0,0,0,0,0,0,0,0,0,0,0,0,0,0,0,0,0,0,0,0,0,0,0,0,0,0,0,0,0,0,0,0,0,0,0,0,0,0,0,0,0,0,0,0,0,0,0,0,0,0,0,0,0,0,0,0,0,0,0,0,0,0,0,0,0,0,0,0,0,0,0,0,0,0,0,0,0,0,0,0-.01,0,0,0,0,0,0h0s0,0,0,0h0s0,0,0,0c0,0,0,0,0,0,0,0,0,0,0,0,0,0,0,0,0-.01,0,0,0,0,0,0,0,0,0,0,0,0,0,0,0,0,0,0,0,0,0,0,0,0,0,0,0,0,0,0,0,0,0,0,0,0,0,0,0,0,0,0,0,0,0,0,0,0,0,0,0,0,0,0,0,0,0,0,0,0,0,0,0,0,0,0,0,0,0,0,0,0,0,0,0,0,0,0,0,0,0,0,0,0,0,0,0,0,0,0,0,0,0,0,0,0,0,0,0,0,0,0,0,0,0,0,0,0,0,0,0,0,0,0,0,0,0,0,0,0,0,0,0,0,0,0,0,0,0,0,0,0,0,0,0,0,0,0,0,0,0,0,0,0,0,0,0,0,0,0,0,0,0,0,0,0,0,0,0,0,0,0,0,0,0,0,0,0s0,0,0,0c0,0,0,0,0,0h0s0,0,0,0c0,0,0,0,0,0s0,0,0,0c0,0,0,0,0,0,0,0,0,0,0,0,0,0,0,0,0,0,0,0,0,0,0,0,0,0,0,0,0,0,0,0,0,0,0,0s0,0,0,0c0,0,0,0,0,0,0,0,0,0,0,0,0,0,0,0,0,0,0,0,0,0,0,0,0,0,0,0,0,0,0,0,0,0,0,0,0,0,0,0,0,0,0,0,0,0,0,0,0,0,0,0,0,0,0,0,0,0,0,0,0,0,0,0,0,0,0,0,0,0,0,0,0,0,0,0,0,0,0,0,0,0,0,0,0,0,0,0,0,0,0,0,0,0,0,0,0,0,0,0,0,0,0,0,0,0,0,0,0,0,0,0,0,0,0,0,0,0,0,0,0,0,0,0,0,0,0,0,0,0,0,0,0,0,0,0,0,0,0,0,0,0,0,0,0,0,0,0,0,0,0,0,0,0,0,0,0,0,0,0,0,0,0,0,0,0,0,0,0,0,0,0,0,0,0,0,0,0,0,0,0,0,0,0,0,0,0,0,0,0,0,0,0,0,0,0,0,0,0,0,0,0,0,0,0,0,0,0,0,0,0,0,0,0,0,0,0,0,0,0,0,0,0,0,0,0,0,0,0,0,0,0,0,0,0,0,0,0,0,0,0,0,0,0,0,0,0,0,0,0,0,0,0,0,0,0,0,0,0,0,0,0,0,0,0,0,0,0,0,0,0,0,0,0,0,0,0,0,0,0,0,0,0,0,0,0,0,0,0,0,0,0,0,0,0,0,0,0,0,0,0,0,0,0,0,0,0,0,0,0,0,0,0,0,0,0,0,0,0,0,0,0,0,0,0,0,0,0,0,0,0,0,0,0,0,0,0,0,0,0,0,0,0,0,0,0,0,0,0,0,0,0,0,0,0,0,0,0,0,0,0,0,0,0,0,0,0,0,0,0,0,0,0,0,0,0,0-.01,0,0,0,0,0,0,0,0,0,0,0,0,0,0,0,0,0,0,0,0,0,0,0,0,0,0,0,0,0,0,0,0,0,0,0,0,0,0,0,0,0,0,0,0,0-.01,0-.01,0,0,0,0,0,0,0,0,0,0,0,0,0,0,0,0,0,0,0,0,0,0,0,0,0,0,0,0,0,0,0,0,0,0,0,0,0,0,0,0,0,0,0,0,0,0,0,0,0,0,0,0,0,0,0,0,0,0,0,0,0,0,0,0,0,0,0,0,0,0,0,0,0,0,0,0,0,0,0,0,0,0,0,0,0,0,0,0,0,0,0,0,0,0,0,0,0,0,0,0,0,0,0,0,0,0,0,0,0,0,0,0,0,0,0,0,0-.01,0-.02,0,0,0,0,0,0,0,0,0,0,0,0,0,0,0,0,0,0,0,0,0,0,0,0,0,0,0,0,0,0,0,0,0,0,0,0,0,0,0,0,0,0,0,0,0-.01,0-.02,0,0,0,0,0,0,0,0,0,0,0,0,0,0,0,0,0,0,0,0,0,0,0,0,0,0,0,0,0,0,0,0,0,0,0,0,0,0,0,0,0,0,0,0,0-.01-.01-.02,0,0,0,0,0,0,0,0,0,0,0,0,0,0,0,0,0,0,0,0,0,0,0,0,0,0,0,0,0,0,0,0-.01-.02-.02-.03,0,0,0,0,0,0,0,0,0,0,0,0,0,0,0,0,0,0,0,0-.01-.02-.02-.03h0s0,0,0,0h0s-.01-.02-.02-.03h0c-.39-.61-.85-1.17-1.37-1.66h0ZM610.45,211.23v1c.77,0,1.52.11,2.25.34l.29-.96c-.1-.03-.2-.06-.29-.09h0s0,0-.01,0h0s-.05-.01-.08-.02h0s-.02,0-.03,0c0,0,0,0,0,0,0,0-.01,0-.02,0,0,0,0,0,0,0,0,0-.01,0-.02,0h0s-.01,0-.02,0c0,0,0,0,0,0,0,0-.01,0-.02,0h0s0,0-.01,0h0s0,0,0,0h0s0,0-.01,0c0,0,0,0,0,0,0,0,0,0,0,0,0,0,0,0,0,0h-.01s0,0,0,0c0,0,0,0,0,0h0s0,0-.01,0h0s-.01,0-.02,0h0s0,0-.01,0c0,0,0,0,0,0,0,0,0,0,0,0h0s0,0-.01,0c0,0,0,0,0,0,0,0,0,0,0,0,0,0,0,0,0,0,0,0,0,0-.01,0h0s0,0,0,0c0,0,0,0,0,0,0,0,0,0-.01,0,0,0,0,0,0,0,0,0,0,0,0,0h0s0,0-.01,0h0s0,0-.01,0h0s0,0,0,0c0,0,0,0,0,0,0,0,0,0-.01,0h0s0,0,0,0h0s0,0-.01,0c0,0,0,0,0,0,0,0,0,0,0,0,0,0,0,0,0,0,0,0,0,0-.01,0,0,0,0,0,0,0,0,0,0,0,0,0,0,0,0,0,0,0h-.01s0,0,0,0c0,0,0,0,0,0,0,0,0,0,0,0,0,0,0,0,0,0h0s0,0,0,0c0,0,0,0,0,0,0,0,0,0-.01,0,0,0,0,0,0,0,0,0,0,0,0,0,0,0,0,0,0,0,0,0,0,0-.01,0,0,0,0,0,0,0,0,0,0,0,0,0,0,0,0,0,0,0,0,0,0,0-.01,0,0,0,0,0,0,0,0,0,0,0,0,0,0,0,0,0,0,0,0,0,0,0-.01,0,0,0,0,0,0,0h0s0,0,0,0c0,0,0,0,0,0,0,0,0,0,0,0h0s0,0,0,0h0s0,0,0,0c0,0,0,0,0,0,0,0,0,0,0,0,0,0,0,0,0,0,0,0,0,0,0,0h0s0,0,0,0c0,0,0,0,0,0,0,0,0,0,0,0,0,0,0,0,0,0,0,0,0,0,0,0h0s0,0,0,0c0,0,0,0,0,0h0s0,0,0,0c0,0,0,0,0,0,0,0,0,0,0,0,0,0,0,0,0,0,0,0,0,0,0,0,0,0,0,0,0,0,0,0,0,0,0,0,0,0,0,0,0,0,0,0,0,0,0,0h0s0,0,0,0c0,0,0,0,0,0,0,0,0,0,0,0,0,0,0,0,0,0,0,0,0,0,0,0,0,0,0,0,0,0,0,0,0,0,0,0,0,0,0,0,0,0,0,0,0,0,0,0,0,0,0,0,0,0,0,0,0,0,0,0,0,0,0,0,0,0,0,0,0,0,0,0,0,0,0,0,0,0,0,0,0,0,0,0h0s0,0,0,0h0s0,0,0,0c0,0,0,0,0,0,0,0,0,0,0,0,0,0,0,0,0,0h0s0,0,0,0c0,0,0,0,0,0,0,0,0,0,0,0,0,0,0,0,0,0h0s0,0,0,0c0,0,0,0,0,0,0,0,0,0,0,0,0,0,0,0,0,0s0,0,0,0c0,0,0,0,0,0,0,0,0,0,0,0h0s0,0,0,0c0,0,0,0,0,0,0,0,0,0,0,0,0,0,0,0,0,0,0,0,0,0,0,0,0,0,0,0,0,0,0,0,0,0,0,0,0,0,0,0,0,0,0,0,0,0,0,0,0,0,0,0,0,0,0,0,0,0,0,0,0,0,0,0,0,0,0,0,0,0,0,0,0,0,0,0,0,0s0,0,0,0c0,0,0,0,0,0,0,0,0,0,0,0,0,0,0,0,0,0,0,0,0,0,0,0,0,0,0,0,0,0,0,0,0,0,0,0,0,0,0,0,0,0,0,0,0,0,0,0,0,0,0,0,0,0,0,0,0,0,0,0,0,0,0,0,0,0,0,0,0,0,0,0,0,0,0,0,0,0,0,0,0,0,0,0,0,0,0,0,0,0,0,0,0,0,0,0,0,0,0,0,0,0,0,0,0,0,0,0,0,0,0,0,0,0,0,0,0,0,0,0h0s0,0,0,0c0,0,0,0,0,0,0,0,0,0,0,0,0,0,0,0,0,0,0,0,0,0,0,0,0,0,0,0,0,0,0,0,0,0,0,0,0,0,0,0,0,0,0,0,0,0,0,0,0,0,0,0,0,0,0,0,0,0,0,0,0,0,0,0,0,0,0,0,0,0,0,0,0,0,0,0,0,0,0,0,0,0,0,0,0,0,0,0,0,0,0,0,0,0,0,0,0,0,0,0,0,0,0,0,0,0,0,0,0,0,0,0,0,0,0,0,0,0,0,0,0,0,0,0,0,0,0,0,0,0,0,0,0,0,0,0,0,0,0,0,0,0,0,0,0,0,0,0,0,0,0,0,0,0,0,0,0,0,0,0,0,0,0,0,0,0,0,0,0,0,0,0,0,0,0,0,0,0,0,0,0,0,0,0,0,0,0,0,0,0,0,0,0,0,0,0,0,0,0,0,0,0,0,0,0,0,0,0,0,0h0s0,0,0,0c0,0,0,0,0,0,0,0,0,0,0,0,0,0,0,0,0,0,0,0,0,0,0,0,0,0,0,0,0,0,0,0,0,0,0,0,0,0,0,0,0,0,0,0,0,0,0,0,0,0,0,0,0,0,0,0,0,0,0,0,0,0,0,0,0,0,0,0,0,0,0,0,0,0,0,0,0,0,0,0,0,0,0,0,0,0,0,0,0,0,0,0,0,0,0,0,0,0,0,0,0,0,0,0,0,0,0,0,0,0,0,0,0,0,0,0,0,0,0,0,0,0,0,0,0,0,0,0,0,0,0,0,0,0,0,0,0,0,0,0,0,0,0,0,0,0,0,0,0,0,0,0,0,0,0,0,0,0,0,0,0,0,0,0,0,0,0,0,0,0,0,0,0,0,0,0,0,0,0,0,0,0,0,0,0,0,0,0,0,0,0,0,0,0,0,0,0,0,0,0,0,0,0,0,0,0,0,0,0,0,0,0,0,0,0,0,0,0,0,0,0,0,0,0,0,0,0,0,0,0,0,0,0,0,0,0,0,0,0,0,0,0,0,0,0,0,0,0,0,0,0,0,0,0,0,0,0,0,0,0,0,0,0,0,0,0,0,0,0,0,0,0,0,0,0,0,0,0,0,0,0,0,0,0,0,0,0,0,0,0,0,0,0,0,0,0,0,0,0,0h0s0,0,0,0c0,0,0,0,0,0,0,0,0,0,0,0,0,0,0,0,0,0,0,0,0,0,0,0,0,0,0,0,0,0,0,0,0,0,0,0,0,0,0,0,0,0,0,0,0,0,0,0,0,0,0,0,0,0,0,0,0,0,0,0,0,0,0,0,0,0,0,0,0,0,0,0,0,0,0,0,0,0,0,0,0,0,0,0,0,0,0,0,0,0,0,0,0,0,0,0,0,0,0,0,0,0,0,0,0,0,0,0,0,0,0,0,0,0,0,0,0,0,0,0,0,0,0,0,0,0,0,0,0,0,0,0,0,0,0,0,0,0h0s0,0,0,0c0,0,0,0,0,0,0,0,0,0,0,0,0,0,0,0,0,0,0,0,0,0,0,0,0,0,0,0,0,0,0,0,0,0,0,0,0,0,0,0,0,0,0,0,0,0,0,0,0,0,0,0,0,0,0,0,0,0,0,0,0,0,0,0,0,0,0,0,0,0,0,0,0,0,0,0,0,0,0,0,0,0,0,0,0,0,0,0,0,0,0,0,0,0,0,0,0,0,0,0,0,0,0,0,0,0,0,0,0,0,0,0,0,0,0,0,0,0,0,0,0,0,0,0,0,0,0,0,0,0,0,0,0,0,0,0,0,0,0,0,0,0,0,0,0,0,0,0,0,0,0,0,0,0,0,0,0,0,0,0,0,0h0s0,0,0,0c0,0,0,0,0,0,0,0,0,0,0,0,0,0,0,0,0,0,0,0,0,0,0,0h0s0,0,0,0c0,0,0,0,0,0,0,0,0,0,0,0,0,0,0,0,0,0,0,0,0,0,0,0,0,0,0,0,0,0,0,0,0,0,0,0,0,0,0,0,0,0,0,0,0,0,0,0,0,0,0,0,0,0,0,0,0,0,0,0,0,0,0,0,0,0,0,0,0,0,0,0,0,0,0,0,0,0,0,0,0,0,0,0,0,0,0,0,0,0,0,0,0,0,0,0,0,0,0,0,0,0,0,0,0,0,0,0,0,0,0,0,0,0,0,0,0,0,0,0h0s0,0,0,0c0,0,0,0,0,0,0,0,0,0,0,0,0,0,0,0,0,0,0,0,0,0,0,0,0,0,0,0,0,0,0,0,0,0,0,0,0,0,0,0,0,0,0,0,0,0,0,0,0,0,0,0,0,0,0,0,0,0,0,0,0,0,0,0,0,0,0,0,0,0,0,0,0,0,0,0,0,0,0,0,0,0,0,0,0,0,0,0,0,0,0,0,0,0,0,0,0,0,0,0,0,0,0,0,0,0,0,0,0,0,0,0,0,0,0,0,0,0,0,0,0,0,0,0,0,0,0,0,0,0,0,0,0,0,0,0,0,0,0,0,0,0,0,0,0,0,0,0,0,0,0,0,0,0,0,0h0s0,0,0,0c0,0,0,0,0,0,0,0,0,0,0,0,0,0,0,0,0,0,0,0,0,0,0,0,0,0,0,0,0,0,0,0,0,0,0,0,0,0,0,0,0,0,0,0,0,0,0,0,0,0,0,0,0,0,0,0,0,0,0,0,0,0,0,0,0,0,0,0,0,0,0,0,0,0,0,0,0,0,0,0,0,0,0,0,0,0,0,0,0,0,0,0,0,0-.01,0,0,0,0,0,0,0,0,0,0,0,0,0h0s0,0,0,0c0,0,0,0,0,0,0,0,0,0,0,0,0,0,0,0,0,0,0,0,0,0,0,0h0s0,0,0,0c0,0,0,0,0,0,0,0,0,0,0,0,0,0,0,0,0,0,0,0,0,0,0,0,0,0,0,0,0,0,0,0,0,0,0,0,0,0,0,0,0,0,0,0,0,0,0,0,0,0,0,0,0,0,0,0,0,0,0,0,0,0,0,0,0,0,0,0,0,0,0,0h0s0,0,0,0c0,0,0,0,0,0,0,0,0,0-.01,0,0,0,0,0,0,0,0,0,0,0,0,0,0,0,0,0,0,0,0,0,0,0-.01,0,0,0,0,0,0,0,0,0,0,0,0,0,0,0,0,0,0,0,0,0,0,0,0,0,0,0,0,0,0,0,0,0,0,0,0,0,0,0,0,0,0,0,0,0,0,0,0,0,0,0,0,0,0,0,0,0,0,0,0,0,0,0,0,0,0,0,0,0,0,0,0,0,0,0,0,0,0,0,0,0,0,0,0,0,0,0,0,0,0,0,0,0,0,0,0,0,0,0,0,0,0,0,0,0,0,0,0,0,0,0,0,0,0,0,0,0,0,0,0,0,0,0,0,0,0,0,0,0,0,0,0,0,0,0,0,0,0,0,0,0,0,0,0,0,0,0,0,0,0,0h0s0,0,0,0c0,0,0,0,0,0,0,0,0,0,0,0,0,0,0,0,0,0,0,0,0,0-.01,0,0,0,0,0,0,0,0,0,0,0,0,0,0,0,0,0,0,0,0,0,0,0,0,0h0s0,0,0,0c0,0,0,0,0,0,0,0,0,0,0,0,0,0,0,0,0,0,0,0,0,0,0,0,0,0,0,0,0,0,0,0,0,0,0,0,0,0,0,0,0,0,0,0,0,0,0,0,0,0,0,0,0,0,0,0,0,0,0,0,0,0,0,0,0,0,0,0,0,0,0,0,0,0,0,0,0,0,0,0,0,0,0,0,0,0,0,0,0,0,0,0,0,0,0,0,0,0,0,0,0,0,0,0,0,0,0,0,0,0,0,0,0,0,0,0,0,0,0,0h0s0,0,0,0c0,0,0,0,0,0,0,0,0,0,0,0,0,0,0,0,0,0,0,0,0,0-.01,0,0,0,0,0,0,0,0,0,0,0,0,0,0,0,0,0,0,0,0,0,0,0,0,0h0s0,0,0,0c0,0,0,0,0,0,0,0,0,0,0,0,0,0,0,0,0,0,0,0,0,0,0,0,0,0,0,0,0,0,0,0,0,0,0,0,0,0,0,0,0,0,0,0,0,0,0,0,0,0,0,0,0,0,0,0,0,0,0,0h0s0,0,0,0c0,0,0,0,0,0,0,0,0,0,0,0h0s0,0,0,0c0,0,0,0,0,0,0,0,0,0,0,0,0,0,0,0,0,0,0,0,0,0,0,0h0s0,0,0,0c0,0,0,0,0,0h0s0,0-.01,0c0,0,0,0,0,0,0,0,0,0,0,0h0s0,0,0,0h0s0,0,0,0c0,0,0,0,0,0,0,0,0,0,0,0,0,0,0,0,0,0,0,0,0,0,0,0h0s0,0,0,0c0,0,0,0,0,0,0,0,0,0,0,0h0s0,0,0,0h0s0,0,0,0c0,0,0,0,0,0h0s0,0,0,0h0s0,0,0,0h0s0,0,0,0h0s0,0,0,0h-.01Z"/>
            </g>
            <polygon points="603.96 226.43 603.96 226.43 603.96 226.43 603.96 226.43 603.96 226.43 603.96 226.43 603.96 226.43 603.96 226.43 603.96 226.43 603.96 226.43 603.96 226.43 603.96 226.43 603.96 226.43 603.96 226.43 603.96 226.43 603.96 226.43 603.96 226.43 603.96 226.43 603.96 226.43 603.96 226.43 603.96 226.43 603.96 226.43 603.96 226.43 603.96 226.43 603.96 226.43 603.96 226.43 603.96 226.43 603.96 226.43 603.96 226.43 603.96 226.43 603.96 226.43 603.96 226.43 603.96 226.43 603.96 226.43 603.96 226.43 603.96 226.43 603.96 226.43 603.96 226.43 603.96 226.43 603.96 226.43 603.96 226.43 603.96 226.43 603.96 226.43 603.96 226.43 603.96 226.43 603.96 226.43 603.96 226.43 603.96 226.43 603.96 226.43 603.96 226.43 603.96 226.43 603.96 226.43 603.96 226.43 603.96 226.43 603.96 226.43 603.96 226.43 603.96 226.43 603.96 226.43 603.96 226.43 603.96 226.43 603.96 226.43 603.96 226.43 603.96 226.43 603.96 226.43 603.96 226.43 603.96 226.43 603.96 226.43 603.96 226.43 603.96 226.43 603.96 226.43 603.96 226.43 603.96 226.43 603.96 226.43 603.96 226.43 603.96 226.43 603.96 226.43 603.96 226.43 603.96 226.43 603.96 226.43 603.96 226.43 603.96 226.43 603.96 226.43 603.96 226.43 603.96 226.43 603.96 226.43 603.96 226.43 603.96 226.43 603.96 226.43 603.96 226.43 603.96 226.43 603.96 226.43 603.96 226.43 603.96 226.43 603.96 226.43 603.96 226.43 603.96 226.43 603.96 226.43 603.96 226.43" fill="none" opacity="0" stroke="#000" stroke-miterlimit="10"/>
          </g>
          <g clip-path="url(#clippath-17)">
            <g isolation="isolate">
              <g clip-path="url(#clippath-18)">
                <g clip-path="url(#clippath-19)">
                  <path d="M605.55,228.81c.37-.89.37-.96.68-1.79.25-.62.4-1.05.4-1.63,0-1.39-.99-2.53-2.53-2.53-2.9,0-4.07,4.47-4.07,4.75,0,.31.31.31.37.31.31,0,.34-.06.49-.55.83-2.9,2.07-3.82,3.11-3.82.25,0,.77,0,.77.99,0,.65-.21,1.29-.34,1.6-.25.8-1.63,4.38-2.13,5.7-.31.8-.71,1.82-.71,2.47,0,1.45,1.05,2.53,2.53,2.53,2.9,0,4.04-4.47,4.04-4.75,0-.31-.28-.31-.37-.31-.31,0-.31.09-.46.55-.55,1.94-1.57,3.82-3.14,3.82-.52,0-.74-.31-.74-1.02,0-.77.18-1.2.89-3.08l1.2-3.24M607.9,217.22c0-.62-.43-1.11-1.14-1.11-.83,0-1.66.8-1.66,1.63,0,.59.43,1.11,1.17,1.11s1.63-.71,1.63-1.63Z"/>
                </g>
              </g>
            </g>
          </g>
        </g>
        <g>
          <g>
            <g>
              <path d="M581.75,181.64c-8,0-14.5-6.5-14.5-14.5s6.5-14.5,14.5-14.5,14.5,6.5,14.5,14.5-6.5,14.5-14.5,14.5Z" fill="#e89a99"/>
              <path d="M581.75,153.14c7.72,0,14,6.28,14,14s-6.28,14-14,14-14-6.28-14-14,6.28-14,14-14M581.75,152.14c-8.28,0-15,6.72-15,15s6.72,15,15,15,15-6.72,15-15-6.72-15-15-15h0Z"/>
            </g>
            <polygon points="581.75 167.14 581.75 167.14 581.75 167.14 581.75 167.14 581.75 167.14 581.75 167.14 581.75 167.14 581.75 167.14 581.75 167.14 581.75 167.14 581.75 167.14 581.75 167.14 581.75 167.14 581.75 167.14 581.75 167.14 581.75 167.14 581.75 167.14 581.75 167.14 581.75 167.14 581.75 167.14 581.75 167.14 581.75 167.14 581.75 167.14 581.75 167.14 581.75 167.14 581.75 167.14 581.75 167.14 581.75 167.14 581.75 167.14 581.75 167.14 581.75 167.14 581.75 167.14 581.75 167.14 581.75 167.14 581.75 167.14 581.75 167.14 581.75 167.14 581.75 167.14 581.75 167.14 581.75 167.14 581.75 167.14 581.75 167.14 581.75 167.14 581.75 167.14 581.75 167.14 581.75 167.14 581.75 167.14 581.75 167.14 581.75 167.14 581.75 167.14 581.75 167.14 581.75 167.14 581.75 167.14 581.75 167.14 581.75 167.14 581.75 167.14 581.75 167.14 581.75 167.14 581.75 167.14 581.75 167.14 581.75 167.14 581.75 167.14 581.75 167.14 581.75 167.14 581.75 167.14 581.75 167.14 581.75 167.14 581.75 167.14 581.75 167.14 581.75 167.14 581.75 167.14 581.75 167.14 581.75 167.14 581.75 167.14 581.75 167.14 581.75 167.14 581.75 167.14 581.75 167.14 581.75 167.14 581.75 167.14 581.75 167.14 581.75 167.14 581.75 167.14 581.75 167.14 581.75 167.14 581.75 167.14 581.75 167.14 581.75 167.14 581.75 167.14 581.75 167.14 581.75 167.14 581.75 167.14 581.75 167.14 581.75 167.14 581.75 167.14 581.75 167.14 581.75 167.14 581.75 167.14 581.75 167.14" fill="none" opacity="0" stroke="#000" stroke-miterlimit="10"/>
          </g>
          <g clip-path="url(#clippath-21)">
            <g isolation="isolate">
              <g clip-path="url(#clippath-22)">
                <g clip-path="url(#clippath-23)">
                  <path d="M573.88,172.91s0-.06-.2-.26c-1.47-1.48-1.84-3.7-1.84-5.49,0-2.04.45-4.08,1.89-5.55.15-.14.15-.16.15-.2,0-.08-.05-.12-.12-.12-.12,0-1.17.8-1.87,2.29-.6,1.29-.74,2.59-.74,3.58,0,.92.13,2.34.77,3.66.7,1.44,1.71,2.21,1.83,2.21.07,0,.12-.04.12-.12"/>
                  <path d="M582.32,167.39c.2,0,.41,0,.41-.23s-.21-.23-.41-.23h-6.35c-.2,0-.41,0-.41.23s.21.23.41.23h6.35"/>
                  <path d="M587.08,167.15c0-.92-.13-2.34-.77-3.66-.7-1.44-1.71-2.21-1.83-2.21-.07,0-.12.05-.12.12,0,.04,0,.06.22.27,1.15,1.16,1.82,3.03,1.82,5.48,0,2.01-.43,4.07-1.89,5.55-.15.14-.15.16-.15.2,0,.07.05.12.12.12.12,0,1.17-.8,1.87-2.29.6-1.29.74-2.59.74-3.58"/>
                  <path d="M592.43,169.77c0-.99-.8-1.77-1.77-1.77s-1.77.8-1.77,1.76.8,1.77,1.77,1.77,1.77-.8,1.77-1.76"/>
                </g>
              </g>
            </g>
          </g>
        </g>
        <polygon points="603.84 191.85 603.84 191.85 603.84 191.85 603.84 191.85 603.84 191.85 603.84 191.85 603.84 191.85 603.84 191.85 603.84 191.85 603.84 191.85 603.84 191.85 603.84 191.85 603.84 191.85 603.84 191.85 603.84 191.85 603.84 191.85 603.84 191.85 603.84 191.85 603.84 191.85 603.84 191.85 603.84 191.85 603.84 191.85 603.84 191.85 603.84 191.85 603.84 191.85 603.84 191.85 603.84 191.85 603.84 191.85 603.84 191.85 603.84 191.85 603.84 191.85 603.84 191.85 603.84 191.85 603.84 191.85 603.84 191.85 603.84 191.85 603.84 191.85 603.84 191.85 603.84 191.85 603.84 191.85 603.84 191.85 603.84 191.85 603.84 191.85 603.84 191.85 603.84 191.85 603.84 191.85 603.84 191.85 603.84 191.85 603.84 191.85 603.84 191.85 603.84 191.85 603.84 191.85 603.84 191.85 603.84 191.85 603.84 191.85 603.84 191.85 603.84 191.85 603.84 191.85 603.84 191.85 603.84 191.85 603.84 191.85 603.84 191.85 603.84 191.85 603.84 191.85 603.84 191.85 603.84 191.85 603.84 191.85 603.84 191.85 603.84 191.85 603.84 191.85 603.84 191.85 603.84 191.85 603.84 191.85 603.84 191.85 603.84 191.85 603.84 191.85 603.84 191.85 603.84 191.85 603.84 191.85 603.84 191.85 603.84 191.85 603.84 191.85 603.84 191.85 603.84 191.85 603.84 191.85 603.84 191.85 603.84 191.85 603.84 191.85 603.84 191.85 603.84 191.85 603.84 191.85 603.84 191.85 603.84 191.85 603.84 191.85 603.84 191.85 603.84 191.85 603.84 191.85 603.84 191.85 603.84 191.85" fill="none" opacity="0" stroke="#000" stroke-miterlimit="10"/>
      </g>
      <g>
        <g>
          <g>
            <path d="M581.75,125.76c-8,0-14.5-6.5-14.5-14.5s6.5-14.5,14.5-14.5,14.5,6.5,14.5,14.5-6.5,14.5-14.5,14.5Z" fill="#e89a99"/>
            <path d="M581.75,97.26c7.72,0,14,6.28,14,14s-6.28,14-14,14-14-6.28-14-14,6.28-14,14-14M581.75,96.26c-8.28,0-15,6.72-15,15s6.72,15,15,15,15-6.72,15-15-6.72-15-15-15h0Z"/>
          </g>
          <polygon points="581.75 111.26 581.75 111.26 581.75 111.26 581.75 111.26 581.75 111.26 581.75 111.26 581.75 111.26 581.75 111.26 581.75 111.26 581.75 111.26 581.75 111.26 581.75 111.26 581.75 111.26 581.75 111.26 581.75 111.26 581.75 111.26 581.75 111.26 581.75 111.26 581.75 111.26 581.75 111.26 581.75 111.26 581.75 111.26 581.75 111.26 581.75 111.26 581.75 111.26 581.75 111.26 581.75 111.26 581.75 111.26 581.75 111.26 581.75 111.26 581.75 111.26 581.75 111.26 581.75 111.26 581.75 111.26 581.75 111.26 581.75 111.26 581.75 111.26 581.75 111.26 581.75 111.26 581.75 111.26 581.75 111.26 581.75 111.26 581.75 111.26 581.75 111.26 581.75 111.26 581.75 111.26 581.75 111.26 581.75 111.26 581.75 111.26 581.75 111.26 581.75 111.26 581.75 111.26 581.75 111.26 581.75 111.26 581.75 111.26 581.75 111.26 581.75 111.26 581.75 111.26 581.75 111.26 581.75 111.26 581.75 111.26 581.75 111.26 581.75 111.26 581.75 111.26 581.75 111.26 581.75 111.26 581.75 111.26 581.75 111.26 581.75 111.26 581.75 111.26 581.75 111.26 581.75 111.26 581.75 111.26 581.75 111.26 581.75 111.26 581.75 111.26 581.75 111.26 581.75 111.26 581.75 111.26 581.75 111.26 581.75 111.26 581.75 111.26 581.75 111.26 581.75 111.26 581.75 111.26 581.75 111.26 581.75 111.26 581.75 111.26 581.75 111.26 581.75 111.26 581.75 111.26 581.75 111.26 581.75 111.26 581.75 111.26 581.75 111.26 581.75 111.26 581.75 111.26 581.75 111.26 581.75 111.26" fill="none" opacity="0" stroke="#000" stroke-miterlimit="10"/>
        </g>
        <g clip-path="url(#clippath-25)">
          <g isolation="isolate">
            <g clip-path="url(#clippath-26)">
              <g clip-path="url(#clippath-27)">
                <path d="M583.26,112.57c1.11,2.84,2.41,6.99,2.84,7.61.43.6.7.6,1.44.6h.6c.27-.03.3-.19.3-.27s-.05-.14-.14-.24c-.27-.3-.43-.7-.62-1.25l-5.53-15.41c-.57-1.57-2.03-1.92-3.3-1.92-.14,0-.49,0-.49.3,0,.22.22.27.24.27.89.16,1.08.32,1.76,2.17l2.63,7.37-7.48,7.42c-.32.32-.49.49-.49.84,0,.46.38.79.81.79s.68-.3.89-.57l6.53-7.69"/>
              </g>
            </g>
          </g>
        </g>
      </g>
      <g>
        <rect x="590.64" y="103.99" width="15.21" height="15.21" rx="2" ry="2" fill="#c8daf9" stroke="#000" stroke-dasharray="1" stroke-miterlimit="10"/>
        <g clip-path="url(#clippath-28)">
          <g isolation="isolate">
            <g clip-path="url(#clippath-29)">
              <g clip-path="url(#clippath-30)">
                <path d="M599,112.72c.18-.43.18-.45.32-.85.12-.29.19-.5.19-.78,0-.66-.47-1.2-1.2-1.2-1.38,0-1.93,2.13-1.93,2.26,0,.15.15.15.18.15.15,0,.16-.03.23-.26.4-1.38.98-1.82,1.48-1.82.12,0,.37,0,.37.47,0,.31-.1.62-.16.76-.12.38-.78,2.08-1.01,2.71-.15.38-.34.86-.34,1.17,0,.69.5,1.2,1.2,1.2,1.38,0,1.92-2.12,1.92-2.26,0-.15-.13-.15-.18-.15-.15,0-.15.04-.22.26-.26.92-.75,1.82-1.49,1.82-.25,0-.35-.15-.35-.48,0-.37.09-.57.42-1.47l.57-1.54M600.12,107.21c0-.29-.21-.53-.54-.53-.4,0-.79.38-.79.78,0,.28.21.53.56.53s.78-.34.78-.78Z"/>
              </g>
            </g>
          </g>
        </g>
      </g>
    </g>
    <g>
      <rect x="154.82" y="18.89" width="121.11" height="233.34" rx="11" ry="11" fill="#fcf5d6"/>
      <path d="M264.93,19.89c5.51,0,10,4.49,10,10v211.34c0,5.51-4.49,10-10,10h-99.11c-5.51,0-10-4.49-10-10V29.89c0-5.51,4.49-10,10-10h99.11M264.93,17.89h-99.11c-6.6,0-12,5.4-12,12v211.34c0,6.6,5.4,12,12,12h99.11c6.6,0,12-5.4,12-12V29.89c0-6.6-5.4-12-12-12h0Z"/>
    </g>
    <g>
      <g>
        <g>
          <rect x="78.37" y="73.24" width="41.4" height="41.4" rx="11" ry="11" fill="#c8daf9"/>
          <path d="M108.77,74.24c5.51,0,10,4.49,10,10v19.4c0,5.51-4.49,10-10,10h-19.4c-5.51,0-10-4.49-10-10v-19.4c0-5.51,4.49-10,10-10h19.4M108.77,72.24h-19.4c-6.6,0-12,5.4-12,12v19.4c0,6.6,5.4,12,12,12h19.4c6.6,0,12-5.4,12-12v-19.4c0-6.6-5.4-12-12-12h0Z"/>
        </g>
        <path d="M100.82,91.24c.19-.81.91-3.68,3.09-3.68.16,0,.91,0,1.56.41-.87.16-1.5.94-1.5,1.69,0,.5.34,1.09,1.19,1.09.69,0,1.69-.56,1.69-1.81,0-1.62-1.84-2.06-2.9-2.06-1.81,0-2.9,1.65-3.28,2.37-.78-2.06-2.47-2.37-3.37-2.37-3.25,0-5.03,4.03-5.03,4.81,0,.31.31.31.38.31.25,0,.34-.06.41-.34,1.06-3.31,3.12-4.09,4.18-4.09.59,0,1.69.28,1.69,2.09,0,.97-.53,3.06-1.69,7.43-.5,1.94-1.59,3.25-2.97,3.25-.19,0-.91,0-1.56-.41.78-.16,1.47-.81,1.47-1.68s-.69-1.09-1.16-1.09c-.94,0-1.72.81-1.72,1.81,0,1.44,1.56,2.06,2.94,2.06,2.06,0,3.18-2.19,3.28-2.37.37,1.16,1.5,2.37,3.37,2.37,3.22,0,5-4.03,5-4.81,0-.31-.28-.31-.38-.31-.28,0-.34.13-.41.34-1.03,3.34-3.15,4.09-4.15,4.09-1.22,0-1.72-1-1.72-2.06,0-.69.19-1.37.53-2.75l1.06-4.28"/>
      </g>
      <g>
        <g>
          <g>
            <rect x="184.15" y="81.5" width="24.87" height="24.87" transform="translate(-8.85 166.52) rotate(-45)" fill="#fed968"/>
            <path d="M196.58,77.77l16.17,16.17-16.17,16.17-16.17-16.17,16.17-16.17M196.58,74.94l-19,19,19,19,19-19-19-19h0Z"/>
          </g>
          <path d="M191.02,99.96l4.27-6.2-3.98-5.84h2.52l2.25,3.52c.1.16.2.34.3.54.09.2.17.35.23.47.04-.12.11-.27.21-.47.09-.2.19-.38.3-.54l2.25-3.52h2.52l-3.98,5.87,4.25,6.17h-2.54l-2.45-3.77c-.1-.18-.2-.37-.3-.58-.09-.21-.18-.38-.25-.51-.06.13-.14.3-.25.51-.11.21-.22.41-.34.58l-2.45,3.77h-2.54Z"/>
        </g>
        <g>
          <line x1="178.48" y1="93.94" x2="127.11" y2="93.94" fill="none" stroke="#000" stroke-miterlimit="10" stroke-width="2"/>
          <path d="M121.07,93.94c2.84-1.05,6.36-2.85,8.55-4.76l-1.72,4.76,1.72,4.75c-2.18-1.9-5.71-3.7-8.55-4.75Z"/>
        </g>
      </g>
    </g>
    <g>
      <g>
        <g>
          <rect x="78.37" y="130.98" width="41.4" height="41.4" rx="11" ry="11" fill="#c8daf9"/>
          <path d="M108.77,131.98c5.51,0,10,4.49,10,10v19.4c0,5.51-4.49,10-10,10h-19.4c-5.51,0-10-4.49-10-10v-19.4c0-5.51,4.49-10,10-10h19.4M108.77,129.98h-19.4c-6.6,0-12,5.4-12,12v19.4c0,6.6,5.4,12,12,12h19.4c6.6,0,12-5.4,12-12v-19.4c0-6.6-5.4-12-12-12h0Z"/>
        </g>
        <path d="M106.14,145.48c.13-.44.13-.5.13-.72,0-.56-.44-.84-.91-.84-.31,0-.81.19-1.09.65-.06.16-.31,1.12-.44,1.69-.22.81-.44,1.65-.62,2.5l-1.41,5.62c-.12.47-1.47,2.65-3.53,2.65-1.59,0-1.94-1.37-1.94-2.53,0-1.44.53-3.37,1.59-6.12.5-1.28.62-1.62.62-2.25,0-1.4-1-2.56-2.56-2.56-2.97,0-4.12,4.53-4.12,4.81,0,.31.31.31.38.31.31,0,.34-.06.5-.56.84-2.94,2.09-3.87,3.15-3.87.25,0,.78,0,.78,1,0,.78-.31,1.59-.53,2.19-1.25,3.31-1.81,5.09-1.81,6.56,0,2.78,1.97,3.72,3.81,3.72,1.22,0,2.28-.53,3.15-1.4-.41,1.62-.78,3.15-2.03,4.81-.81,1.06-2,1.97-3.43,1.97-.44,0-1.84-.09-2.37-1.31.5,0,.91,0,1.34-.38.31-.28.62-.69.62-1.28,0-.97-.84-1.09-1.16-1.09-.72,0-1.75.5-1.75,2.03s1.37,2.72,3.31,2.72c3.22,0,6.43-2.84,7.31-6.37l3-11.93"/>
      </g>
      <g>
        <g>
          <g>
            <rect x="184.15" y="139.24" width="24.87" height="24.87" transform="translate(-49.67 183.43) rotate(-45)" fill="#fed968"/>
            <path d="M196.58,135.5l16.17,16.17-16.17,16.17-16.17-16.17,16.17-16.17M196.58,132.68l-19,19,19,19,19-19-19-19h0Z"/>
          </g>
          <path d="M193.84,161.42l1.75-4.66-4.51-11.32h2.32l2.71,7.11c.12.31.23.63.35.99.12.35.2.66.24.92.04-.26.12-.57.22-.92.1-.35.21-.68.33-.99l2.52-7.11h2.3l-5.98,15.98h-2.25Z"/>
        </g>
        <g>
          <line x1="178.48" y1="151.68" x2="127.11" y2="151.68" fill="none" stroke="#000" stroke-miterlimit="10" stroke-width="2"/>
          <path d="M121.07,151.68c2.84-1.05,6.36-2.85,8.55-4.76l-1.72,4.76,1.72,4.75c-2.18-1.9-5.71-3.7-8.55-4.75Z"/>
        </g>
      </g>
    </g>
    <g>
      <g>
        <g>
          <rect x="78.37" y="188.71" width="41.4" height="41.4" rx="11" ry="11" fill="#c8daf9"/>
          <path d="M108.77,189.71c5.51,0,10,4.49,10,10v19.4c0,5.51-4.49,10-10,10h-19.4c-5.51,0-10-4.49-10-10v-19.4c0-5.51,4.49-10,10-10h19.4M108.77,187.71h-19.4c-6.6,0-12,5.4-12,12v19.4c0,6.6,5.4,12,12,12h19.4c6.6,0,12-5.4,12-12v-19.4c0-6.6-5.4-12-12-12h0Z"/>
        </g>
        <path d="M106.98,203.09c.27-1.07.75-1.9,2.89-1.98.13,0,.45-.03.45-.54,0-.03,0-.29-.35-.29-.88,0-1.82.08-2.7.08s-1.84-.08-2.73-.08c-.16,0-.48,0-.48.53,0,.3.27.3.48.3,1.52.03,1.82.59,1.82,1.17,0,.08-.05.48-.08.56l-2.99,11.89-5.9-13.95c-.21-.48-.24-.51-.86-.51h-3.58c-.53,0-.77,0-.77.53,0,.3.24.3.75.3.13,0,1.82,0,1.82.24l-3.58,14.35c-.27,1.07-.72,1.92-2.89,2-.16,0-.45.03-.45.53,0,.19.13.29.35.29.85,0,1.79-.08,2.67-.08s1.87.08,2.75.08c.13,0,.48,0,.48-.53,0-.27-.24-.29-.53-.29-1.55-.05-1.76-.64-1.76-1.18,0-.19.03-.32.11-.61l3.53-14.11c.11.16.11.21.24.48l6.65,15.74c.19.45.27.51.51.51.29,0,.29-.08.43-.56l3.74-14.88"/>
      </g>
      <g>
        <g>
          <g>
            <rect x="184.15" y="196.98" width="24.87" height="24.87" transform="translate(-90.5 200.34) rotate(-45)" fill="#fed968"/>
            <path d="M196.58,193.24l16.17,16.17-16.17,16.17-16.17-16.17,16.17-16.17M196.58,190.41l-19,19,19,19,19-19-19-19h0Z"/>
          </g>
          <path d="M191.87,217.4v-15.98h2.82l4.77,13.49c-.04-.39-.08-.87-.12-1.42-.04-.55-.06-1.14-.09-1.75-.02-.61-.03-1.18-.03-1.71v-8.6h2.06v15.98h-2.82l-4.73-13.49c.03.37.06.82.09,1.37s.05,1.12.08,1.73.03,1.18.03,1.72v8.67h-2.06Z"/>
        </g>
        <g>
          <line x1="178.48" y1="209.41" x2="127.11" y2="209.41" fill="none" stroke="#000" stroke-miterlimit="10" stroke-width="2"/>
          <path d="M121.07,209.41c2.84-1.05,6.36-2.85,8.55-4.76l-1.72,4.76,1.72,4.75c-2.18-1.9-5.71-3.7-8.55-4.75Z"/>
        </g>
      </g>
    </g>
    <g>
      <g>
        <g>
          <rect x="232.05" y="92.48" width="24.87" height="24.87" transform="translate(-2.58 203.61) rotate(-45)" fill="#fed968"/>
          <path d="M244.49,88.74l16.17,16.17-16.17,16.17-16.17-16.17,16.17-16.17M244.49,85.91l-19,19,19,19,19-19-19-19h0Z"/>
        </g>
        <path d="M239.82,110.93v-2.1l6.63-7.99h-6.46v-1.95h8.91v2.1l-6.74,7.99h6.98v1.95h-9.33Z"/>
      </g>
      <g>
        <line x1="262.24" y1="104.91" x2="342.46" y2="104.91" fill="none" stroke="#000" stroke-miterlimit="10" stroke-width="2"/>
        <path d="M348.49,104.91c-2.84,1.05-6.36,2.85-8.55,4.76l1.72-4.76-1.72-4.75c2.18,1.9,5.71,3.7,8.55,4.75Z"/>
      </g>
    </g>
    <g>
      <g>
        <g>
          <rect x="232.05" y="42.84" width="24.87" height="24.87" transform="translate(32.52 189.07) rotate(-45)" fill="#fed968"/>
          <path d="M244.49,39.1l16.17,16.17-16.17,16.17-16.17-16.17,16.17-16.17M244.49,36.28l-19,19,19,19,19-19-19-19h0Z"/>
        </g>
        <path d="M240.67,60.99l-1.85-11.42h1.74l1.12,7.79c.04.33.08.7.12,1.1.04.4.07.73.08,1,.03-.26.06-.59.09-1s.09-.77.16-1.1l1.37-7.79h1.95l1.37,7.79c.07.33.13.7.18,1.1s.08.73.09,1c.03-.26.06-.59.1-1,.04-.4.08-.77.12-1.1l1.16-7.79h1.66l-1.93,11.42h-2.2l-1.27-7.66c-.06-.4-.11-.83-.16-1.28-.05-.45-.09-.81-.11-1.07-.01.17-.03.38-.06.65-.03.27-.06.55-.1.85s-.08.58-.12.84l-1.31,7.66h-2.22Z"/>
      </g>
      <g>
        <line x1="262.24" y1="55.28" x2="519.41" y2="55.28" fill="none" stroke="#000" stroke-miterlimit="10" stroke-width="2"/>
        <path d="M525.45,55.28c-2.84,1.05-6.36,2.85-8.55,4.76l1.72-4.76-1.72-4.75c2.18,1.9,5.71,3.7,8.55,4.75Z"/>
      </g>
    </g>
    <line x1="264.71" y1="134.42" x2="264.71" y2="134.65" fill="none" stroke="#000" stroke-miterlimit="10" stroke-width="2"/>
    <g>
      <rect x="624.42" y="36.64" width="30.23" height="31.86" fill="none"/>
      <path d="M625.92,55.18l-.46-2.24c.41-.04.94-.1,1.59-.18s1.34-.17,2.07-.28v-4.38h-3.22v-2.14h8.66v2.14h-2.88v3.98c.79-.13,1.52-.26,2.2-.39.68-.13,1.23-.24,1.64-.33v2.14c-.45.12-1.01.25-1.66.38-.65.13-1.35.27-2.09.4-.74.13-1.48.26-2.21.38s-1.42.23-2.05.32c-.63.09-1.16.16-1.59.2ZM640.5,55.42c-.84-.39-1.64-1.07-2.41-2.04s-1.44-2.27-2.02-3.9c-.58-1.63-1.02-3.6-1.31-5.92h-9.26v-2.26h9.04c-.08-1.2-.12-2.48-.12-3.84h2.42c-.04,1.36-.02,2.64.06,3.84h2.98c-.33-.43-.7-.84-1.1-1.23-.4-.39-.78-.72-1.14-.97l1.56-1.5c.29.2.61.46.96.77.35.31.68.63.99.95.31.32.56.6.75.84-.19.12-.42.29-.69.51-.27.22-.52.43-.73.63h2.86v2.26h-6.22c.31,2.33.81,4.28,1.52,5.84s1.51,2.65,2.42,3.28c.15-.41.28-.85.4-1.3s.21-.83.26-1.14c.15.09.36.21.63.34.27.13.56.25.85.36.29.11.53.19.7.24-.08.43-.19.88-.34,1.37s-.3.94-.47,1.37c-.17.43-.33.77-.49,1.04-.21.37-.5.6-.87.67-.37.07-.78,0-1.23-.21Z"/>
    </g>
    <g>
      <rect x="162.92" y="24.78" width="97.35" height="46.68" fill="none"/>
      <path d="M164.34,42.38v-14h6.4c1.31,0,2.34.31,3.11.92s1.15,1.65,1.15,3.1-.38,2.49-1.15,3.12c-.77.63-1.8.94-3.11.94h-4.1v5.92h-2.3ZM166.64,34.3h3.78c.68,0,1.21-.15,1.58-.44.37-.29.56-.78.56-1.46s-.19-1.15-.56-1.44c-.37-.29-.9-.44-1.58-.44h-3.78v3.78Z"/>
      <path d="M177.96,46.36c-.32,0-.62,0-.9-.03-.28-.02-.53-.06-.76-.11v-2.06c.23.05.46.1.71.13.25.03.48.05.71.05.36,0,.63-.04.81-.12.18-.08.32-.21.43-.4.11-.19.23-.44.36-.76l.26-.7-3.8-9.6h2.34l2.44,6.9,2.3-6.9h2.3l-3.92,10.96c-.32.88-.71,1.54-1.17,1.98s-1.16.66-2.11.66Z"/>
      <path d="M190.7,42.6c-.95,0-1.67-.17-2.17-.52-.5-.35-.75-1.04-.75-2.08v-5.3h-1.84v-1.94h1.84v-3.38h2.24v3.38h2.66v1.94h-2.66v4.72c0,.45.11.76.33.92.22.16.54.24.95.24.25,0,.51-.04.77-.12.26-.08.46-.16.61-.24v2.06c-.24.09-.54.17-.9.23-.36.06-.72.09-1.08.09Z"/>
      <path d="M194.46,42.38v-14.26h2.26v5.78c.21-.37.53-.7.96-.97.43-.27.94-.41,1.54-.41,1,0,1.82.32,2.45.96.63.64.95,1.58.95,2.82v6.08h-2.26v-5.54c0-.76-.15-1.33-.46-1.71s-.72-.57-1.24-.57c-.57,0-1.04.2-1.4.59-.36.39-.54.98-.54,1.75v5.48h-2.26Z"/>
      <path d="M209.22,42.6c-.88,0-1.67-.21-2.37-.63s-1.25-1.01-1.66-1.76c-.41-.75-.61-1.64-.61-2.65s.2-1.9.61-2.65c.41-.75.96-1.34,1.66-1.76s1.49-.63,2.37-.63,1.71.21,2.41.63c.7.42,1.25,1.01,1.65,1.76.4.75.6,1.64.6,2.65s-.2,1.9-.6,2.65-.95,1.34-1.65,1.76c-.7.42-1.5.63-2.41.63ZM209.22,40.56c.71,0,1.28-.26,1.73-.78s.67-1.26.67-2.22-.22-1.7-.67-2.22-1.02-.78-1.73-.78-1.26.26-1.7.78c-.44.52-.66,1.26-.66,2.22s.22,1.7.66,2.22c.44.52,1.01.78,1.7.78Z"/>
      <path d="M215.82,42.38v-9.62h2.02l.12,1.14c.27-.37.62-.7,1.06-.97.44-.27.96-.41,1.56-.41,1,0,1.82.32,2.45.96.63.64.95,1.58.95,2.82v6.08h-2.26v-5.54c0-.76-.15-1.33-.46-1.71s-.72-.57-1.24-.57c-.57,0-1.04.2-1.4.59-.36.39-.54.98-.54,1.75v5.48h-2.26Z"/>
      <path d="M165.22,59.08c-.15-.21-.38-.48-.71-.81s-.62-.58-.89-.77c.35-.23.72-.52,1.12-.87.4-.35.78-.73,1.15-1.13.37-.4.67-.77.91-1.12l1.74,1.26c-.28.41-.61.84-.99,1.27-.38.43-.77.84-1.18,1.21-.41.37-.79.69-1.15.96ZM164.58,69.12c-.05-.21-.13-.46-.23-.73-.1-.27-.21-.53-.32-.78-.11-.25-.23-.44-.35-.57,1.33-.09,2.63-.3,3.9-.63,1.27-.33,2.43-.73,3.5-1.21-.28-.27-.54-.54-.79-.82-.25-.28-.48-.58-.71-.9-1.04.81-2.13,1.47-3.26,1.98-.13-.25-.34-.56-.61-.92-.27-.36-.54-.65-.81-.86.87-.31,1.71-.72,2.52-1.25.81-.53,1.55-1.11,2.2-1.76.65-.65,1.17-1.3,1.54-1.95l1.96.96c-.09.16-.2.32-.32.48-.12.16-.24.32-.36.48h5.5l.82.9c-.52.73-1.07,1.4-1.64,2.01-.57.61-1.19,1.16-1.84,1.65,1.07.47,2.19.82,3.37,1.05,1.18.23,2.36.36,3.53.39-.15.17-.29.41-.42.71-.13.3-.24.6-.33.9-.09.3-.15.54-.19.73-1.52-.09-2.98-.33-4.38-.72-1.4-.39-2.67-.92-3.82-1.6-1.2.63-2.5,1.14-3.91,1.53-1.41.39-2.92.7-4.55.93ZM166.22,61.5c-.13-.28-.31-.6-.52-.97-.21-.37-.43-.66-.64-.87,1.39-.47,2.51-1.14,3.37-2.02.86-.88,1.34-2.08,1.43-3.6h-5.92v-1.88h7.68v-1.72h2.66v1.72h7.68v1.88h-5.5v3.46c0,.68-.19,1.17-.57,1.48s-.96.46-1.75.46h-1.3c-.03-.31-.09-.67-.18-1.08-.09-.41-.19-.75-.3-1h1.06c.25,0,.44-.04.55-.12s.17-.25.17-.5v-2.7h-1.92c-.11,1.69-.68,3.2-1.72,4.53-1.04,1.33-2.47,2.3-4.28,2.93ZM173.22,64.06c.84-.53,1.51-1.09,2-1.66h-3.82c.52.61,1.13,1.17,1.82,1.66ZM180.2,59.2c-.17-.24-.41-.52-.7-.83-.29-.31-.6-.63-.93-.95-.33-.32-.64-.61-.95-.87-.31-.26-.57-.46-.78-.59l1.54-1.46c.39.24.8.54,1.25.9.45.36.88.73,1.29,1.12s.76.75,1.04,1.1c-.16.09-.36.24-.59.43-.23.19-.46.4-.67.61s-.38.39-.5.54Z"/>
      <path d="M193.18,68.9c-.09-.19-.22-.41-.39-.68-.17-.27-.34-.53-.53-.78-.17.2-.35.41-.54.64-.19.23-.33.41-.44.56-.24-.23-.52-.46-.84-.71-.32-.25-.67-.5-1.04-.75-.65.45-1.4.82-2.23,1.09-.83.27-1.76.48-2.77.61-.04-.16-.1-.37-.19-.63-.09-.26-.18-.51-.27-.76-.09-.25-.19-.44-.28-.57,1.51-.12,2.76-.45,3.76-.98-1.08-.63-2.02-1.11-2.82-1.44.15-.19.31-.42.5-.71s.38-.6.58-.93h-1.94v-1.9h3.04c.44-.77.75-1.4.94-1.88v-1.96c-.41.47-.87.93-1.38,1.4s-.98.86-1.42,1.18c-.11-.16-.25-.34-.43-.54-.18-.2-.36-.38-.54-.55-.18-.17-.33-.29-.45-.37.29-.17.63-.4,1.01-.69.38-.29.76-.6,1.15-.95s.74-.68,1.06-1h-2.78v-1.82h1.48c-.2-.39-.43-.78-.68-1.17-.25-.39-.49-.72-.72-.97l1.56-.88c.19.21.39.47.6.78s.42.61.61.91c.19.3.34.56.45.79-.32.13-.67.31-1.04.54h1.52v-3.18h2v3.18h1.42c-.17-.11-.35-.2-.52-.28-.17-.08-.33-.15-.46-.2.29-.4.57-.83.83-1.3.26-.47.46-.89.61-1.28l1.8.74c-.16.35-.36.73-.61,1.16-.25.43-.49.81-.73,1.16h1.38v1.82h-2.72c.35.39.74.78,1.17,1.17s.84.71,1.21.95c-.2.16-.43.38-.7.65-.27.27-.49.53-.66.77-.35-.27-.69-.57-1.04-.91-.35-.34-.67-.7-.98-1.07v2.08h-1.48l1.52.5c-.08.17-.17.36-.28.57-.11.21-.22.42-.34.65h4.52v1.9h-1.3c-.29,1.11-.75,2.05-1.38,2.84.29.17.57.35.83.54.26.19.5.37.73.56.83-.35,1.56-.77,2.21-1.28s1.2-1.07,1.67-1.7c-.37-.68-.69-1.39-.96-2.14-.27-.75-.49-1.51-.66-2.3-.13.25-.27.49-.41.71-.14.22-.28.44-.43.65-.21-.19-.5-.38-.87-.59-.37-.21-.72-.36-1.05-.47.45-.56.86-1.21,1.22-1.94.36-.73.68-1.51.95-2.33.27-.82.5-1.63.67-2.44.17-.81.3-1.56.38-2.27l2.2.32c-.19,1.16-.44,2.33-.76,3.52h5.42v2h-1.18c-.11,1.44-.32,2.76-.63,3.97-.31,1.21-.75,2.3-1.31,3.29.96,1.21,2.17,2.27,3.62,3.16-.17.17-.37.38-.58.62-.21.24-.41.47-.59.7-.18.23-.3.4-.35.52-.68-.44-1.3-.92-1.87-1.45-.57-.53-1.08-1.08-1.55-1.65-1.16,1.32-2.66,2.39-4.5,3.2ZM189.08,64.6c.4-.51.72-1.09.96-1.74h-1.98c-.12.19-.23.36-.33.53-.1.17-.19.32-.27.45.53.21,1.07.47,1.62.76ZM197.66,61.64c.32-.77.57-1.59.74-2.45.17-.86.28-1.74.32-2.65h-2.34c.07.95.21,1.85.42,2.7.21.85.5,1.65.86,2.4Z"/>
    </g>
    <g>
      <rect x="21.56" y="27.32" width="45.34" height="212.71" fill="none"/>
      <path d="M57.16,46.44c-.09-.19-.22-.41-.39-.68-.17-.27-.34-.53-.53-.78-.17.2-.35.41-.54.64-.19.23-.33.41-.44.56-.24-.23-.52-.46-.84-.71-.32-.25-.67-.5-1.04-.75-.65.45-1.4.82-2.23,1.09-.83.27-1.76.48-2.77.61-.04-.16-.1-.37-.19-.63-.09-.26-.18-.51-.27-.76-.09-.25-.19-.44-.28-.57,1.51-.12,2.76-.45,3.76-.98-1.08-.63-2.02-1.11-2.82-1.44.15-.19.31-.42.5-.71s.38-.6.58-.93h-1.94v-1.9h3.04c.44-.77.75-1.4.94-1.88v-1.96c-.41.47-.87.93-1.38,1.4s-.98.86-1.42,1.18c-.11-.16-.25-.34-.43-.54-.18-.2-.36-.38-.54-.55-.18-.17-.33-.29-.45-.37.29-.17.63-.4,1.01-.69.38-.29.76-.6,1.15-.95s.74-.68,1.06-1h-2.78v-1.82h1.48c-.2-.39-.43-.78-.68-1.17-.25-.39-.49-.72-.72-.97l1.56-.88c.19.21.39.47.6.78s.42.61.61.91c.19.3.34.56.45.79-.32.13-.67.31-1.04.54h1.52v-3.18h2v3.18h1.42c-.17-.11-.35-.2-.52-.28-.17-.08-.33-.15-.46-.2.29-.4.57-.83.83-1.3.26-.47.46-.89.61-1.28l1.8.74c-.16.35-.36.73-.61,1.16-.25.43-.49.81-.73,1.16h1.38v1.82h-2.72c.35.39.74.78,1.17,1.17s.84.71,1.21.95c-.2.16-.43.38-.7.65-.27.27-.49.53-.66.77-.35-.27-.69-.57-1.04-.91-.35-.34-.67-.7-.98-1.07v2.08h-1.48l1.52.5c-.08.17-.17.36-.28.57-.11.21-.22.42-.34.65h4.52v1.9h-1.3c-.29,1.11-.75,2.05-1.38,2.84.29.17.57.35.83.54.26.19.5.37.73.56.83-.35,1.56-.77,2.21-1.28s1.2-1.07,1.67-1.7c-.37-.68-.69-1.39-.96-2.14-.27-.75-.49-1.51-.66-2.3-.13.25-.27.49-.41.71-.14.22-.28.44-.43.65-.21-.19-.5-.38-.87-.59-.37-.21-.72-.36-1.05-.47.45-.56.86-1.21,1.22-1.94.36-.73.68-1.51.95-2.33.27-.82.5-1.63.67-2.44.17-.81.3-1.56.38-2.27l2.2.32c-.19,1.16-.44,2.33-.76,3.52h5.42v2h-1.18c-.11,1.44-.32,2.76-.63,3.97-.31,1.21-.75,2.3-1.31,3.29.96,1.21,2.17,2.27,3.62,3.16-.17.17-.37.38-.58.62-.21.24-.41.47-.59.7-.18.23-.3.4-.35.52-.68-.44-1.3-.92-1.87-1.45-.57-.53-1.08-1.08-1.55-1.65-1.16,1.32-2.66,2.39-4.5,3.2ZM53.06,42.14c.4-.51.72-1.09.96-1.74h-1.98c-.12.19-.23.36-.33.53-.1.17-.19.32-.27.45.53.21,1.07.47,1.62.76ZM61.64,39.18c.32-.77.57-1.59.74-2.45.17-.86.28-1.74.32-2.65h-2.34c.07.95.21,1.85.42,2.7.21.85.5,1.65.86,2.4Z"/>
      <path d="M48,64.14l-.62-2.18c.35-.07.76-.15,1.23-.26.47-.11.97-.23,1.49-.36v-4.26h-2.12v-2.04h2.12v-3.64h-2.24v-2.06h6.78v2.06h-2.26v3.64h1.98v2.04h-1.98v3.68c.51-.13.97-.26,1.39-.38s.78-.23,1.07-.32v2.04c-.37.13-.85.29-1.44.48s-1.21.38-1.87.58c-.66.2-1.3.39-1.93.56-.63.17-1.16.31-1.6.42ZM53.62,65.78v-1.98h5.5v-1.94h-3.48v-1.98h3.48v-1.82h-3.88v-9.08h9.98v9.08h-3.88v1.82h3.7v1.98h-3.7v1.94h4.66v1.98h-12.38ZM57.4,52.64h1.72v-1.8h-1.72v1.8ZM57.4,56.22h1.72v-1.86h-1.72v1.86ZM61.34,52.64h1.72v-1.8h-1.72v1.8ZM61.34,56.22h1.72v-1.86h-1.72v1.86Z"/>
      <path d="M57.8,84.12c-1.09,0-1.89-.17-2.39-.51s-.75-.92-.75-1.73v-3.62c-.84,0-1.68,0-2.51.02-.83.01-1.56.02-2.19.03-.63,0-1.06.02-1.3.05v-2.3c.29.01.74.03,1.34.04.6.01,1.3.02,2.11.03.81,0,1.66.01,2.55.01v-2.62c-.56,0-1.1,0-1.62.02-.52.01-.97.02-1.35.03-.38,0-.65.02-.81.03v-2.3c.21.01.54.03.99.04.45.01.97.03,1.56.04.59.01,1.22.02,1.88.02h1.95c.83,0,1.6,0,2.33,0,.73,0,1.35-.02,1.88-.04.53-.02.9-.04,1.13-.05v2.3c-.35-.03-.99-.05-1.92-.06-.93-.01-2.07-.02-3.42-.02h-.1v2.62c.83,0,1.66,0,2.49-.01.83,0,1.61-.01,2.32-.02.71,0,1.32-.01,1.83-.02.51,0,.85-.02,1.04-.03v2.3c-.32-.03-.86-.05-1.61-.06-.75-.01-1.65-.02-2.7-.03s-2.17-.01-3.37-.01v2.58c0,.35.09.59.27.72.18.13.52.2,1.01.2s1.05,0,1.67-.03,1.21-.05,1.78-.09c.57-.04,1.02-.09,1.35-.14-.04.16-.08.39-.12.68-.04.29-.07.59-.1.9-.03.31-.04.55-.04.74-.28.04-.63.08-1.06.11-.43.03-.89.07-1.39.1-.5.03-.99.06-1.47.07-.48.01-.9.02-1.26.02Z"/>
      <path d="M52.14,105.78c-.09-.2-.23-.43-.42-.7-.19-.27-.39-.52-.6-.77-.21-.25-.41-.44-.58-.59,1.8-.69,3.11-1.57,3.94-2.64.83-1.07,1.29-2.43,1.4-4.1-1.05.01-2.06.03-3.03.04s-1.79.03-2.47.05c-.68.02-1.13.04-1.36.05l-.12-2.36c.16.01.54.02,1.14.02s1.34,0,2.22,0,1.84-.02,2.87-.03c1.03-.01,2.06-.03,3.09-.04,1.03-.01,1.98-.03,2.87-.04.89-.01,1.63-.03,2.24-.05s.99-.04,1.15-.05l.02,2.36c-.19-.01-.58-.02-1.18-.02s-1.33,0-2.18.01c-.85,0-1.77.02-2.76.03-.12,2.17-.69,3.96-1.71,5.37-1.02,1.41-2.53,2.56-4.53,3.47ZM51.76,92.28l-.14-2.34h.99c.5,0,1.09,0,1.78-.02.69-.01,1.41-.03,2.16-.04.75-.01,1.47-.03,2.16-.05s1.27-.04,1.76-.05c.49-.01.8-.03.95-.04l.04,2.34c-.17-.01-.5-.02-.99-.01-.49,0-1.07.01-1.74.02-.67,0-1.37.02-2.1.04-.73.02-1.43.04-2.1.05-.67.01-1.26.03-1.75.05s-.83.04-1.02.05ZM63.9,93.14c-.15-.28-.34-.58-.58-.9-.24-.32-.49-.63-.74-.92-.25-.29-.49-.54-.7-.74l1.12-.82c.19.17.42.42.69.73.27.31.54.64.8.97.26.33.46.61.59.84l-1.18.84ZM65.78,91.7c-.25-.43-.58-.88-.98-1.36-.4-.48-.76-.87-1.08-1.16l1.12-.84c.19.17.42.42.7.73.28.31.55.63.81.96.26.33.46.6.61.83l-1.18.84Z"/>
      <path d="M49.32,124.22c-.17-.29-.43-.63-.78-1-.35-.37-.67-.67-.96-.9,1.11-.59,2-1.23,2.67-1.92.67-.69,1.16-1.46,1.47-2.31.31-.85.47-1.79.5-2.83.03-1.04-.05-2.19-.22-3.46l2.34-.2c.28,2,.31,3.78.09,5.35-.22,1.57-.74,2.94-1.57,4.13-.83,1.19-2.01,2.23-3.54,3.14ZM57.98,123.76l-1.3-1.04c.03-.21.04-.65.05-1.32,0-.67.01-1.46.02-2.38s.01-1.85.01-2.8c0-1.17,0-2.19-.02-3.06s-.03-1.55-.06-2.04h2.56c-.03.24-.05.62-.06,1.15-.01.53-.02,1.13-.03,1.81,0,.68,0,1.36,0,2.04v4.36c.57-.24,1.19-.53,1.85-.88s1.31-.71,1.96-1.1,1.24-.77,1.77-1.14c.53-.37.95-.71,1.26-1.02,0,.25.02.57.07.94.05.37.1.73.16,1.07.06.34.11.58.15.73-.44.37-1.02.79-1.73,1.24-.71.45-1.48.9-2.29,1.34-.81.44-1.6.85-2.37,1.22-.77.37-1.43.67-1.99.88Z"/>
      <path d="M58.44,145.01c-.05-.21-.15-.47-.3-.76-.15-.29-.32-.58-.51-.85-.19-.27-.38-.5-.57-.67,1.83-.28,3.22-.88,4.17-1.79.95-.91,1.46-1.99,1.51-3.23.05-.99-.13-1.87-.54-2.64s-.98-1.4-1.69-1.88c-.71-.48-1.5-.77-2.35-.86-.11,1.24-.31,2.51-.6,3.8-.29,1.29-.69,2.51-1.19,3.64s-1.11,2.09-1.83,2.88c-.55.59-1.08.93-1.59,1.02-.51.09-1.06.02-1.63-.22-.56-.24-1.05-.62-1.48-1.14-.43-.52-.75-1.14-.98-1.85-.23-.71-.32-1.48-.28-2.29.07-1.21.35-2.32.86-3.33.51-1.01,1.19-1.88,2.04-2.61.85-.73,1.83-1.29,2.94-1.66,1.11-.37,2.29-.53,3.54-.46,1.01.05,1.97.28,2.86.68s1.68.95,2.35,1.65c.67.7,1.19,1.51,1.56,2.43.37.92.52,1.93.45,3.02-.09,1.83-.73,3.36-1.92,4.59-1.19,1.23-2.79,2.08-4.82,2.53ZM51.94,140.97c.15.11.3.16.46.16s.32-.08.48-.24c.48-.48.92-1.16,1.33-2.04.41-.88.75-1.87,1.02-2.98.27-1.11.45-2.23.53-3.38-.92.21-1.74.6-2.45,1.16-.71.56-1.28,1.24-1.69,2.03s-.65,1.66-.7,2.61c-.03.63.06,1.17.25,1.63s.45.81.77,1.05Z"/>
      <path d="M50.68,156.94c-.24-.21-.57-.47-.99-.76-.42-.29-.86-.58-1.31-.85-.45-.27-.85-.48-1.2-.63l1.18-1.92c.59.28,1.22.62,1.91,1.01.69.39,1.26.78,1.73,1.17-.11.12-.25.31-.43.57-.18.26-.35.52-.52.78-.17.26-.29.47-.37.63ZM49.78,166.26l-2.04-1.46c.31-.4.62-.87.94-1.42.32-.55.63-1.12.93-1.71s.57-1.18.82-1.75c.25-.57.44-1.09.57-1.54.11.12.28.27.51.46.23.19.48.37.73.54.25.17.47.31.64.42-.15.47-.34.99-.58,1.57-.24.58-.51,1.17-.8,1.77-.29.6-.59,1.17-.88,1.71s-.57,1.01-.84,1.41ZM52.04,152.52c-.23-.21-.55-.47-.97-.76-.42-.29-.86-.57-1.32-.84-.46-.27-.86-.47-1.21-.62l1.22-1.88c.36.15.77.35,1.24.62s.92.54,1.36.82c.44.28.79.53,1.04.74-.11.12-.25.31-.44.56s-.37.51-.54.76c-.17.25-.3.45-.38.6ZM52.64,166.58c-.15-.31-.34-.65-.57-1.02-.23-.37-.49-.7-.77-.98,1.53-.51,2.75-1.23,3.64-2.17.89-.94,1.51-2.12,1.86-3.53h-4.54v-2.14h4.86c.01-.19.02-.38.03-.58,0-.2,0-.4,0-.6v-2.08h-3.7v-2.06h3.7v-3.32h2.36v3.32h4.8v5.32h1.76v2.14h-5.82c.59,1.24,1.4,2.33,2.45,3.28s2.26,1.67,3.63,2.16c-.17.17-.36.39-.55.66s-.37.53-.54.8c-.17.27-.29.49-.37.68-1.4-.67-2.61-1.5-3.64-2.49s-1.87-2.18-2.52-3.55c-.51,1.39-1.26,2.6-2.27,3.65-1.01,1.05-2.28,1.88-3.81,2.51ZM59.48,156.74h2.44v-3.26h-2.4v2.08c0,.2,0,.4,0,.6,0,.2-.02.39-.03.58Z"/>
      <path d="M49.16,186.26c-.13-.17-.32-.37-.55-.58s-.48-.41-.73-.59c-.25-.18-.49-.32-.7-.41.73-.55,1.42-1.22,2.07-2.03.65-.81,1.21-1.67,1.69-2.6.48-.93.83-1.83,1.04-2.71l2.42.78c-.25.83-.59,1.66-1,2.5.53,1.05,1.31,1.84,2.32,2.36v-6.82h-4.58v-2.12h11.52v2.12h-4.44v2.32h5.38v2.14h-5.38v3.08c.39.05.79.09,1.22.12.43.03.88.04,1.36.04.59,0,1.21,0,1.87-.02.66-.01,1.31-.04,1.94-.09.63-.05,1.19-.1,1.67-.17-.05.15-.12.38-.2.7-.08.32-.15.65-.21.99-.06.34-.1.61-.11.81-.51,0-1.06,0-1.65,0-.59,0-1.18.01-1.75.02-.57,0-1.09,0-1.56,0-1.55,0-2.86-.12-3.94-.35s-1.99-.6-2.73-1.11c-.74-.51-1.38-1.16-1.93-1.96-.89,1.35-1.91,2.53-3.04,3.56ZM48.1,175.06v-4.6h7.44v-2.36h2.6v2.36h7.54v4.5h-2.38v-2.52h-12.82v2.62h-2.38Z"/>
      <path d="M49.2,196.62c-.15-.21-.38-.48-.71-.81-.33-.33-.62-.58-.89-.77.35-.23.72-.52,1.12-.87.4-.35.78-.73,1.15-1.13.37-.4.67-.77.91-1.12l1.74,1.26c-.28.41-.61.84-.99,1.27s-.77.84-1.18,1.21c-.41.37-.79.69-1.15.96ZM48.56,206.66c-.05-.21-.13-.46-.23-.73-.1-.27-.21-.53-.32-.78-.11-.25-.23-.44-.35-.57,1.33-.09,2.63-.3,3.9-.63,1.27-.33,2.43-.73,3.5-1.21-.28-.27-.54-.54-.79-.82-.25-.28-.48-.58-.71-.9-1.04.81-2.13,1.47-3.26,1.98-.13-.25-.34-.56-.61-.92-.27-.36-.54-.65-.81-.86.87-.31,1.71-.72,2.52-1.25.81-.53,1.55-1.11,2.2-1.76s1.17-1.3,1.54-1.95l1.96.96c-.09.16-.2.32-.32.48s-.24.32-.36.48h5.5l.82.9c-.52.73-1.07,1.4-1.64,2.01-.57.61-1.19,1.16-1.84,1.65,1.07.47,2.19.82,3.37,1.05,1.18.23,2.36.36,3.53.39-.15.17-.29.41-.42.71s-.24.6-.33.9-.15.54-.19.73c-1.52-.09-2.98-.33-4.38-.72-1.4-.39-2.67-.92-3.82-1.6-1.2.63-2.5,1.14-3.91,1.53-1.41.39-2.92.7-4.55.93ZM50.2,199.04c-.13-.28-.31-.6-.52-.97-.21-.37-.43-.66-.64-.87,1.39-.47,2.51-1.14,3.37-2.02.86-.88,1.34-2.08,1.43-3.6h-5.92v-1.88h7.68v-1.72h2.66v1.72h7.68v1.88h-5.5v3.46c0,.68-.19,1.17-.57,1.48-.38.31-.96.46-1.75.46h-1.3c-.03-.31-.09-.67-.18-1.08-.09-.41-.19-.75-.3-1h1.06c.25,0,.44-.04.55-.12s.17-.25.17-.5v-2.7h-1.92c-.11,1.69-.68,3.2-1.72,4.53-1.04,1.33-2.47,2.3-4.28,2.93ZM57.2,201.6c.84-.53,1.51-1.09,2-1.66h-3.82c.52.61,1.13,1.17,1.82,1.66ZM64.18,196.74c-.17-.24-.41-.52-.7-.83-.29-.31-.6-.63-.93-.95-.33-.32-.64-.61-.95-.87s-.57-.46-.78-.59l1.54-1.46c.39.24.8.54,1.25.9.45.36.88.73,1.29,1.12.41.39.76.75,1.04,1.1-.16.09-.36.24-.59.43s-.46.4-.67.61c-.21.21-.38.39-.5.54Z"/>
      <path d="M57.16,226.44c-.09-.19-.22-.41-.39-.68-.17-.27-.34-.53-.53-.78-.17.2-.35.41-.54.64-.19.23-.33.41-.44.56-.24-.23-.52-.46-.84-.71-.32-.25-.67-.5-1.04-.75-.65.45-1.4.82-2.23,1.09s-1.76.48-2.77.61c-.04-.16-.1-.37-.19-.63s-.18-.51-.27-.76c-.09-.25-.19-.44-.28-.57,1.51-.12,2.76-.45,3.76-.98-1.08-.63-2.02-1.11-2.82-1.44.15-.19.31-.42.5-.71s.38-.6.58-.93h-1.94v-1.9h3.04c.44-.77.75-1.4.94-1.88v-1.96c-.41.47-.87.93-1.38,1.4-.51.47-.98.86-1.42,1.18-.11-.16-.25-.34-.43-.54-.18-.2-.36-.38-.54-.55-.18-.17-.33-.29-.45-.37.29-.17.63-.4,1.01-.69.38-.29.76-.6,1.15-.95s.74-.68,1.06-1h-2.78v-1.82h1.48c-.2-.39-.43-.78-.68-1.17-.25-.39-.49-.72-.72-.97l1.56-.88c.19.21.39.47.6.78s.42.61.61.91c.19.3.34.56.45.79-.32.13-.67.31-1.04.54h1.52v-3.18h2v3.18h1.42c-.17-.11-.35-.2-.52-.28-.17-.08-.33-.15-.46-.2.29-.4.57-.83.83-1.3.26-.47.46-.89.61-1.28l1.8.74c-.16.35-.36.73-.61,1.16-.25.43-.49.81-.73,1.16h1.38v1.82h-2.72c.35.39.74.78,1.17,1.17.43.39.84.71,1.21.95-.2.16-.43.38-.7.65-.27.27-.49.53-.66.77-.35-.27-.69-.57-1.04-.91-.35-.34-.67-.7-.98-1.07v2.08h-1.48l1.52.5c-.08.17-.17.36-.28.57-.11.21-.22.42-.34.65h4.52v1.9h-1.3c-.29,1.11-.75,2.05-1.38,2.84.29.17.57.35.83.54.26.19.5.37.73.56.83-.35,1.56-.77,2.21-1.28.65-.51,1.2-1.07,1.67-1.7-.37-.68-.69-1.39-.96-2.14-.27-.75-.49-1.51-.66-2.3-.13.25-.27.49-.41.71-.14.22-.28.44-.43.65-.21-.19-.5-.38-.87-.59-.37-.21-.72-.36-1.05-.47.45-.56.86-1.21,1.22-1.94.36-.73.68-1.51.95-2.33.27-.82.5-1.63.67-2.44.17-.81.3-1.56.38-2.27l2.2.32c-.19,1.16-.44,2.33-.76,3.52h5.42v2h-1.18c-.11,1.44-.32,2.76-.63,3.97-.31,1.21-.75,2.3-1.31,3.29.96,1.21,2.17,2.27,3.62,3.16-.17.17-.37.38-.58.62-.21.24-.41.47-.59.7-.18.23-.3.4-.35.52-.68-.44-1.3-.92-1.87-1.45-.57-.53-1.08-1.08-1.55-1.65-1.16,1.32-2.66,2.39-4.5,3.2ZM53.06,222.14c.4-.51.72-1.09.96-1.74h-1.98c-.12.19-.23.36-.33.53-.1.17-.19.32-.27.45.53.21,1.07.47,1.62.76ZM61.64,219.18c.32-.77.57-1.59.74-2.45.17-.86.28-1.74.32-2.65h-2.34c.07.95.21,1.85.42,2.7s.5,1.65.86,2.4Z"/>
      <path d="M56.9,237.23c-.61,0-1.13-.21-1.56-.64-.43-.43-.64-.95-.64-1.56s.21-1.13.64-1.56c.43-.43.95-.64,1.56-.64s1.13.21,1.56.64.64.95.64,1.56-.21,1.13-.64,1.56-.95.64-1.56.64Z"/>
      <path d="M27.16,97.65c-.08-.17-.21-.4-.39-.68-.18-.28-.37-.56-.58-.84-.21-.28-.4-.5-.59-.66,2.55-.83,4.65-1.98,6.3-3.45s2.85-3.35,3.58-5.63c-.63.01-1.34.03-2.13.06-.79.03-1.61.05-2.45.08-.84.03-1.64.05-2.41.08-.77.03-1.44.05-2.01.07s-.99.04-1.26.05l-.16-2.68c.39.03.9.05,1.53.06.63.01,1.33.02,2.09.02s1.55,0,2.36,0,1.6-.02,2.35-.04c.75-.02,1.44-.04,2.05-.07.61-.03,1.1-.06,1.46-.1l1.62.86c-.44,2.13-1.18,4.04-2.23,5.73s-2.34,3.13-3.88,4.34c-1.54,1.21-3.29,2.14-5.25,2.81ZM39.9,84.71c-.55,0-1.02-.2-1.41-.59-.39-.39-.59-.86-.59-1.41s.2-1.01.59-1.4.86-.58,1.41-.58,1.01.19,1.4.58c.39.39.58.85.58,1.4s-.19,1.02-.58,1.41c-.39.39-.85.59-1.4.59ZM39.9,83.85c.31,0,.57-.11.79-.33.22-.22.33-.49.33-.81s-.11-.57-.33-.79c-.22-.22-.48-.33-.79-.33s-.59.11-.81.33c-.22.22-.33.48-.33.79s.11.59.33.81c.22.22.49.33.81.33Z"/>
      <path d="M27.26,116.45l-1.3-1c.01-.16.03-.46.04-.9.01-.44.02-.97.03-1.58,0-.61,0-1.28,0-1.99v-2.11c0-.77,0-1.5,0-2.19,0-.69-.02-1.29-.03-1.8-.01-.51-.03-.88-.04-1.11h2.56c-.03.24-.05.63-.06,1.16-.01.53-.02,1.13-.03,1.8,0,.67-.01,1.34-.01,2.02v4.56c.92-.35,1.9-.76,2.94-1.25s2.06-1.01,3.07-1.58c1.01-.57,1.93-1.14,2.77-1.71s1.53-1.12,2.06-1.64c.01.23.05.53.1.91.05.38.12.75.19,1.11.07.36.14.63.19.82-.53.44-1.18.9-1.93,1.39-.75.49-1.58.98-2.47,1.47-.89.49-1.81.97-2.75,1.43-.94.46-1.87.88-2.78,1.25-.91.37-1.76.69-2.55.94Z"/>
      <path d="M30.6,138.23c.01-.27.03-.72.04-1.37.01-.65.03-1.42.04-2.31.01-.89.02-1.85.03-2.87s.01-2.04.01-3.07,0-2-.02-2.91c-.01-.91-.03-1.7-.04-2.37-.01-.67-.03-1.15-.06-1.44h2.5c-.01.4-.03,1.01-.05,1.82-.02.81-.03,1.75-.04,2.82,0,1.07-.01,2.18-.01,3.33s0,2.28.01,3.37c0,1.09.02,2.08.05,2.95.03.87.05,1.56.08,2.05h-2.54Z"/>
      <path d="M25.42,157.35c-.17-.29-.4-.65-.69-1.06-.29-.41-.58-.74-.87-.98,1-.44,2-.99,3-1.64s1.96-1.39,2.87-2.21c.91-.82,1.75-1.69,2.5-2.6.75-.91,1.39-1.84,1.91-2.79-.65.04-1.37.09-2.15.14s-1.55.1-2.32.15c-.77.05-1.46.09-2.08.14-.62.05-1.1.08-1.43.11l-.28-2.54c.33,0,.83,0,1.5-.02.67-.01,1.41-.04,2.24-.07.83-.03,1.65-.07,2.47-.11.82-.04,1.56-.09,2.22-.15s1.15-.12,1.47-.17l1.62,1.04c-.32.93-.73,1.85-1.24,2.75s-1.08,1.76-1.72,2.59c.47.36.96.77,1.49,1.22.53.45,1.04.92,1.55,1.4s.97.94,1.4,1.38c.43.44.78.83,1.06,1.18-.33.21-.69.49-1.06.83-.37.34-.7.66-.98.97-.25-.36-.58-.77-.98-1.23-.4-.46-.83-.93-1.29-1.4-.46-.47-.92-.93-1.39-1.38s-.91-.84-1.32-1.19c-1.11,1.19-2.31,2.26-3.6,3.22s-2.59,1.77-3.9,2.42Z"/>
      <path d="M24.98,175.49c-.12-.16-.29-.35-.51-.57-.22-.22-.44-.43-.67-.64-.23-.21-.43-.36-.6-.47.51-.31,1-.69,1.49-1.14.49-.45.93-.94,1.33-1.45.4-.51.73-1,.98-1.47l2,1.16c-.29.56-.66,1.13-1.11,1.71-.45.58-.92,1.12-1.43,1.61s-1,.91-1.48,1.26ZM29.06,177.65c-.03-.2-.08-.45-.15-.75s-.16-.6-.26-.9c-.1-.3-.21-.55-.33-.75.88,0,1.48-.08,1.8-.25.32-.17.48-.48.48-.93v-5.66c-.61,0-1.25,0-1.9.01s-1.28.01-1.87.02c-.59,0-1.11.02-1.54.03-.43.01-.74.03-.91.04v-2.32c.28.03.74.05,1.39.06.65.01,1.39.02,2.24.03.85,0,1.71.01,2.59.01v-3.62h2.5v3.62c.91-.01,1.8-.03,2.68-.04s1.65-.03,2.31-.04c.66-.01,1.1-.02,1.33-.02v2.32c-.25-.03-.7-.05-1.34-.06-.64-.01-1.39-.02-2.26-.03-.87,0-1.77-.01-2.72-.01v6.16c0,.67-.12,1.22-.35,1.65-.23.43-.64.76-1.22.99s-1.4.37-2.47.44ZM38.3,175.37c-.24-.44-.57-.93-.99-1.48-.42-.55-.87-1.07-1.34-1.58-.47-.51-.92-.92-1.33-1.24l1.66-1.36c.45.35.93.77,1.44,1.26.51.49.99.99,1.44,1.5.45.51.82.97,1.1,1.38-.2.09-.43.23-.68.41-.25.18-.5.37-.73.57-.23.2-.42.38-.57.54Z"/>
      <path d="M24.32,196.93c-.17-.29-.43-.63-.78-1-.35-.37-.67-.67-.96-.9,1.11-.59,2-1.23,2.67-1.92.67-.69,1.16-1.46,1.47-2.31.31-.85.47-1.79.5-2.83.03-1.04-.05-2.19-.22-3.46l2.34-.2c.28,2,.31,3.78.09,5.35-.22,1.57-.74,2.94-1.57,4.13-.83,1.19-2.01,2.23-3.54,3.14ZM32.98,196.47l-1.3-1.04c.03-.21.04-.65.05-1.32,0-.67.01-1.46.02-2.38s.01-1.85.01-2.8c0-1.17,0-2.19-.02-3.06-.01-.87-.03-1.55-.06-2.04h2.56c-.03.24-.05.62-.06,1.15-.01.53-.02,1.13-.03,1.81s0,1.36,0,2.04v4.36c.57-.24,1.19-.53,1.85-.88.66-.35,1.31-.71,1.96-1.1s1.24-.77,1.77-1.14c.53-.37.95-.71,1.26-1.02,0,.25.02.57.07.94.05.37.1.73.16,1.07.06.34.11.58.15.73-.44.37-1.02.79-1.73,1.24-.71.45-1.48.9-2.29,1.34-.81.44-1.6.85-2.37,1.22-.77.37-1.43.67-1.99.88Z"/>
      <path d="M25.66,218.69c-.17-.39-.39-.78-.65-1.19-.26-.41-.5-.71-.71-.91,1.47-.55,2.87-1.25,4.2-2.12,1.33-.87,2.53-1.86,3.58-2.98-.8-.56-1.57-1-2.3-1.32l1.4-1.84c.76.35,1.57.79,2.44,1.34.35-.49.67-1,.97-1.51.3-.51.57-1.04.81-1.57-.56.03-1.16.06-1.81.09-.65.03-1.25.06-1.81.08-.56.02-1,.04-1.32.05-.59.89-1.25,1.74-1.99,2.55-.74.81-1.55,1.55-2.43,2.23-.23-.27-.51-.57-.86-.92s-.65-.59-.92-.74c.95-.67,1.83-1.46,2.64-2.38s1.53-1.9,2.14-2.94c.61-1.04,1.07-2.06,1.36-3.06l2.32.74c-.15.4-.31.8-.48,1.21-.17.41-.36.8-.56,1.19.59-.01,1.22-.03,1.9-.05.68-.02,1.32-.05,1.93-.08.61-.03,1.07-.07,1.39-.11l1.54.84c-.33,1.07-.74,2.08-1.22,3.03-.48.95-1.02,1.86-1.62,2.71.51.37.98.75,1.43,1.13s.82.74,1.11,1.07c-.17.13-.38.32-.61.56s-.46.49-.67.74c-.21.25-.38.48-.5.68-.29-.35-.64-.71-1.04-1.09s-.83-.76-1.28-1.13c-1.12,1.23-2.38,2.31-3.79,3.26-1.41.95-2.94,1.76-4.59,2.44ZM39.08,205.33c-.25-.43-.58-.88-.99-1.36-.41-.48-.77-.87-1.09-1.16l1.1-.86c.19.16.42.4.7.71.28.31.55.63.82.95.27.32.47.59.62.82l-1.16.9ZM40.92,203.83c-.25-.41-.59-.86-1-1.33-.41-.47-.79-.86-1.12-1.15l1.1-.86c.19.16.42.39.71.7.29.31.56.62.83.94s.47.59.62.82l-1.14.88Z"/>
      <path d="M30.6,238.23c.01-.27.03-.72.04-1.37.01-.65.03-1.42.04-2.31.01-.89.02-1.85.03-2.87,0-1.02.01-2.04.01-3.07s0-2-.02-2.91-.03-1.7-.04-2.37-.03-1.15-.06-1.44h2.5c-.01.4-.03,1.01-.05,1.82-.02.81-.03,1.75-.04,2.82,0,1.07-.01,2.18-.01,3.33s0,2.28.01,3.37c0,1.09.02,2.08.05,2.95.03.87.05,1.56.08,2.05h-2.54Z"/>
    </g>
  </g>
</svg>