<?xml version="1.0" encoding="UTF-8"?>
<svg id="_レイヤー_1" data-name="レイヤー 1" xmlns="http://www.w3.org/2000/svg" xmlns:xlink="http://www.w3.org/1999/xlink" viewBox="0 0 675 270">
  <defs>
    <clipPath id="clippath-1">
      <rect x="409.64" y="216.69" width="11.99" height="19.48" fill="none"/>
    </clipPath>
    <clipPath id="clippath-2">
      <rect x="410.01" y="217.31" width="11.3" height="18.47" fill="none"/>
    </clipPath>
    <clipPath id="clippath-3">
      <rect x="410.01" y="217.31" width="11.3" height="18.47" fill="none"/>
    </clipPath>
    <clipPath id="clippath-5">
      <rect x="348.18" y="93.89" width="17.1" height="17.1" fill="none"/>
    </clipPath>
    <clipPath id="clippath-6">
      <rect x="348.39" y="94.44" width="16.3" height="16.33" fill="none"/>
    </clipPath>
    <clipPath id="clippath-7">
      <rect x="348.39" y="94.44" width="16.3" height="16.33" fill="none"/>
    </clipPath>
    <clipPath id="clippath-9">
      <rect x="382.62" y="161.08" width="21.61" height="12.12" fill="none"/>
    </clipPath>
    <clipPath id="clippath-10">
      <rect x="382.83" y="161.29" width="21.27" height="11.74" fill="none"/>
    </clipPath>
    <clipPath id="clippath-11">
      <rect x="382.83" y="161.29" width="21.27" height="11.74" fill="none"/>
    </clipPath>
    <clipPath id="clippath-13">
      <rect x="535.27" y="46.21" width="17.06" height="18.13" fill="none"/>
    </clipPath>
    <clipPath id="clippath-14">
      <rect x="535.3" y="46.28" width="16.96" height="17.84" fill="none"/>
    </clipPath>
    <clipPath id="clippath-15">
      <rect x="535.3" y="46.28" width="16.96" height="17.84" fill="none"/>
    </clipPath>
    <clipPath id="clippath-17">
      <rect x="599.23" y="215.25" width="9.46" height="22.36" fill="none"/>
    </clipPath>
    <clipPath id="clippath-18">
      <rect x="600.04" y="216.11" width="8.14" height="20.71" fill="none"/>
    </clipPath>
    <clipPath id="clippath-19">
      <rect x="600.04" y="216.11" width="8.14" height="20.71" fill="none"/>
    </clipPath>
    <clipPath id="clippath-21">
      <rect x="570.95" y="161.08" width="21.61" height="12.12" fill="none"/>
    </clipPath>
    <clipPath id="clippath-22">
      <rect x="571.16" y="161.29" width="21.27" height="11.74" fill="none"/>
    </clipPath>
    <clipPath id="clippath-23">
      <rect x="571.16" y="161.29" width="21.27" height="11.74" fill="none"/>
    </clipPath>
    <clipPath id="clippath-25">
      <rect x="574.95" y="101.06" width="13.6" height="20.4" fill="none"/>
    </clipPath>
    <clipPath id="clippath-26">
      <rect x="575.03" y="101.68" width="13.41" height="19.15" fill="none"/>
    </clipPath>
    <clipPath id="clippath-27">
      <rect x="575.03" y="101.68" width="13.41" height="19.15" fill="none"/>
    </clipPath>
    <clipPath id="clippath-28">
      <rect x="596" y="106.28" width="4.5" height="10.63" fill="none"/>
    </clipPath>
    <clipPath id="clippath-29">
      <rect x="596.38" y="106.69" width="3.87" height="9.85" fill="none"/>
    </clipPath>
    <clipPath id="clippath-30">
      <rect x="596.38" y="106.69" width="3.87" height="9.85" fill="none"/>
    </clipPath>
  </defs>
  <g>
    <rect x="478.5" y="26.16" width="182.2" height="226.08" fill="#b6d8a8"/>
    <path d="M659.7,27.16v224.08h-180.2V27.16h180.2M661.7,25.16h-184.2v228.08h184.2V25.16h0Z"/>
  </g>
  <g>
    <rect x="289.43" y="76.79" width="156.49" height="172.97" fill="#b6d8a8"/>
    <path d="M444.92,77.79v170.97h-154.49V77.79h154.49M446.92,75.79h-158.49v174.97h158.49V75.79h0Z"/>
  </g>
  <g>
    <g>
      <rect x="14.3" y="18.89" width="79.87" height="225.57" rx="11" ry="11" fill="#ebf2ff"/>
      <path d="M83.17,19.89c5.51,0,10,4.49,10,10v203.57c0,5.51-4.49,10-10,10H25.3c-5.51,0-10-4.49-10-10V29.89c0-5.51,4.49-10,10-10h57.87M83.17,17.89H25.3c-6.6,0-12,5.4-12,12v203.57c0,6.6,5.4,12,12,12h57.87c6.6,0,12-5.4,12-12V29.89c0-6.6-5.4-12-12-12h0Z"/>
    </g>
    <g>
      <g>
        <rect x="38.37" y="188.71" width="41.4" height="41.4" rx="11" ry="11" fill="#c8daf9"/>
        <path d="M68.77,189.71c5.51,0,10,4.49,10,10v19.4c0,5.51-4.49,10-10,10h-19.4c-5.51,0-10-4.49-10-10v-19.4c0-5.51,4.49-10,10-10h19.4M68.77,187.71h-19.4c-6.6,0-12,5.4-12,12v19.4c0,6.6,5.4,12,12,12h19.4c6.6,0,12-5.4,12-12v-19.4c0-6.6-5.4-12-12-12h0Z"/>
      </g>
      <path d="M66.98,203.09c.27-1.07.75-1.9,2.89-1.98.13,0,.45-.03.45-.54,0-.03,0-.29-.35-.29-.88,0-1.82.08-2.7.08s-1.84-.08-2.73-.08c-.16,0-.48,0-.48.53,0,.3.27.3.48.3,1.52.03,1.82.59,1.82,1.17,0,.08-.05.48-.08.56l-2.99,11.89-5.9-13.95c-.21-.48-.24-.51-.86-.51h-3.58c-.53,0-.77,0-.77.53,0,.3.24.3.75.3.13,0,1.82,0,1.82.24l-3.58,14.35c-.27,1.07-.72,1.92-2.89,2-.16,0-.45.03-.45.53,0,.19.13.29.35.29.85,0,1.79-.08,2.67-.08s1.87.08,2.75.08c.13,0,.48,0,.48-.53,0-.27-.24-.29-.53-.29-1.55-.05-1.76-.64-1.76-1.18,0-.19.03-.32.11-.61l3.53-14.11c.11.16.11.21.24.48l6.65,15.74c.19.45.27.51.51.51.29,0,.29-.08.43-.56l3.74-14.88"/>
    </g>
    <g>
      <g>
        <rect x="38.37" y="120.98" width="41.4" height="41.4" rx="11" ry="11" fill="#c8daf9"/>
        <path d="M68.77,121.98c5.51,0,10,4.49,10,10v19.4c0,5.51-4.49,10-10,10h-19.4c-5.51,0-10-4.49-10-10v-19.4c0-5.51,4.49-10,10-10h19.4M68.77,119.98h-19.4c-6.6,0-12,5.4-12,12v19.4c0,6.6,5.4,12,12,12h19.4c6.6,0,12-5.4,12-12v-19.4c0-6.6-5.4-12-12-12h0Z"/>
      </g>
      <path d="M66.14,135.48c.13-.44.13-.5.13-.72,0-.56-.44-.84-.91-.84-.31,0-.81.19-1.09.65-.06.16-.31,1.12-.44,1.69-.22.81-.44,1.65-.62,2.5l-1.41,5.62c-.12.47-1.47,2.65-3.53,2.65-1.59,0-1.94-1.37-1.94-2.53,0-1.44.53-3.37,1.59-6.12.5-1.28.62-1.62.62-2.25,0-1.4-1-2.56-2.56-2.56-2.97,0-4.12,4.53-4.12,4.81,0,.31.31.31.38.31.31,0,.34-.06.5-.56.84-2.94,2.09-3.87,3.15-3.87.25,0,.78,0,.78,1,0,.78-.31,1.59-.53,2.19-1.25,3.31-1.81,5.09-1.81,6.56,0,2.78,1.97,3.72,3.81,3.72,1.22,0,2.28-.53,3.15-1.4-.41,1.62-.78,3.15-2.03,4.81-.81,1.06-2,1.97-3.43,1.97-.44,0-1.84-.09-2.37-1.31.5,0,.91,0,1.34-.38.31-.28.62-.69.62-1.28,0-.97-.84-1.09-1.16-1.09-.72,0-1.75.5-1.75,2.03s1.37,2.72,3.31,2.72c3.22,0,6.43-2.84,7.31-6.37l3-11.93"/>
    </g>
    <g>
      <g>
        <rect x="38.37" y="53.24" width="41.4" height="41.4" rx="11" ry="11" fill="#c8daf9"/>
        <path d="M68.77,54.24c5.51,0,10,4.49,10,10v19.4c0,5.51-4.49,10-10,10h-19.4c-5.51,0-10-4.49-10-10v-19.4c0-5.51,4.49-10,10-10h19.4M68.77,52.24h-19.4c-6.6,0-12,5.4-12,12v19.4c0,6.6,5.4,12,12,12h19.4c6.6,0,12-5.4,12-12v-19.4c0-6.6-5.4-12-12-12h0Z"/>
      </g>
      <path d="M60.82,71.24c.19-.81.91-3.68,3.09-3.68.16,0,.91,0,1.56.41-.87.16-1.5.94-1.5,1.69,0,.5.34,1.09,1.19,1.09.69,0,1.69-.56,1.69-1.81,0-1.62-1.84-2.06-2.9-2.06-1.81,0-2.9,1.65-3.28,2.37-.78-2.06-2.47-2.37-3.37-2.37-3.25,0-5.03,4.03-5.03,4.81,0,.31.31.31.38.31.25,0,.34-.06.41-.34,1.06-3.31,3.12-4.09,4.18-4.09.59,0,1.69.28,1.69,2.09,0,.97-.53,3.06-1.69,7.43-.5,1.94-1.59,3.25-2.97,3.25-.19,0-.91,0-1.56-.41.78-.16,1.47-.81,1.47-1.68s-.69-1.09-1.16-1.09c-.94,0-1.72.81-1.72,1.81,0,1.44,1.56,2.06,2.94,2.06,2.06,0,3.18-2.19,3.28-2.37.37,1.16,1.5,2.37,3.37,2.37,3.22,0,5-4.03,5-4.81,0-.31-.28-.31-.38-.31-.28,0-.34.13-.41.34-1.03,3.34-3.15,4.09-4.15,4.09-1.22,0-1.72-1-1.72-2.06,0-.69.19-1.37.53-2.75l1.06-4.28"/>
    </g>
  </g>
  <g>
    <rect x="18.84" y="16.77" width="12.21" height="225.89" fill="none"/>
    <path d="M25.69,35.73c-.05-.1-.12-.23-.21-.37s-.19-.29-.29-.43c-.09.11-.19.23-.3.35-.1.12-.18.23-.24.31-.13-.12-.29-.25-.46-.39-.18-.14-.37-.27-.57-.41-.36.25-.77.45-1.23.6-.46.15-.97.26-1.52.34-.02-.09-.06-.2-.1-.35-.05-.14-.1-.28-.15-.42-.05-.14-.1-.24-.15-.31.83-.07,1.52-.25,2.07-.54-.59-.34-1.11-.61-1.55-.79.08-.1.17-.23.28-.39s.21-.33.32-.51h-1.07v-1.04h1.67c.24-.43.41-.77.52-1.03v-1.08c-.23.26-.48.51-.76.77-.28.26-.54.47-.78.65-.06-.09-.14-.19-.24-.3-.1-.11-.2-.21-.3-.3-.1-.09-.18-.16-.25-.2.16-.1.35-.22.55-.38.21-.16.42-.33.63-.52.21-.19.41-.37.58-.55h-1.53v-1h.81c-.11-.21-.23-.43-.37-.64s-.27-.39-.4-.53l.86-.48c.1.12.21.26.33.43s.23.34.34.5c.11.17.19.31.25.43-.18.07-.37.17-.57.3h.84v-1.75h1.1v1.75h.78c-.1-.06-.19-.11-.29-.15-.1-.04-.18-.08-.25-.11.16-.22.31-.46.46-.71s.25-.49.34-.7l.99.41c-.09.19-.2.4-.33.64-.14.23-.27.45-.4.64h.76v1h-1.5c.19.21.41.43.64.64s.46.39.67.52c-.11.09-.24.21-.38.36s-.27.29-.36.42c-.19-.15-.38-.31-.57-.5-.19-.19-.37-.38-.54-.59v1.14h-.81l.84.27c-.04.1-.09.2-.15.31-.06.11-.12.23-.19.36h2.49v1.04h-.71c-.16.61-.42,1.13-.76,1.56.16.1.31.19.46.3.14.1.28.21.4.31.46-.19.86-.43,1.22-.7.36-.28.66-.59.92-.94-.21-.37-.38-.77-.53-1.18-.15-.41-.27-.83-.36-1.27-.07.14-.15.27-.23.39-.08.12-.16.24-.24.36-.12-.1-.28-.21-.48-.32-.2-.11-.39-.2-.58-.26.25-.31.47-.66.67-1.07.2-.4.37-.83.52-1.28.15-.45.27-.9.37-1.34.09-.44.17-.86.21-1.25l1.21.18c-.1.64-.24,1.28-.42,1.94h2.98v1.1h-.65c-.06.79-.17,1.52-.35,2.18s-.41,1.27-.72,1.81c.53.67,1.19,1.25,1.99,1.74-.1.1-.2.21-.32.34-.12.13-.23.26-.32.39-.1.12-.16.22-.19.29-.37-.24-.72-.51-1.03-.8s-.6-.59-.85-.91c-.64.73-1.46,1.31-2.48,1.76ZM23.44,33.37c.22-.28.4-.6.53-.96h-1.09c-.07.1-.13.2-.18.29s-.1.17-.15.25c.29.12.59.26.89.42ZM28.16,31.74c.18-.42.31-.87.41-1.35.1-.47.15-.96.18-1.46h-1.29c.04.52.11,1.02.23,1.48s.28.91.47,1.32Z"/>
    <path d="M20.66,45.47l-.34-1.2c.19-.04.42-.08.68-.14s.53-.12.82-.2v-2.34h-1.17v-1.12h1.17v-2h-1.23v-1.13h3.73v1.13h-1.24v2h1.09v1.12h-1.09v2.02c.28-.07.53-.14.76-.21.23-.07.43-.12.59-.18v1.12c-.21.07-.47.16-.79.26-.32.1-.67.21-1.03.32-.36.11-.72.21-1.06.31-.34.1-.64.17-.88.23ZM23.75,46.37v-1.09h3.02v-1.07h-1.91v-1.09h1.91v-1h-2.13v-4.99h5.49v4.99h-2.13v1h2.03v1.09h-2.03v1.07h2.56v1.09h-6.81ZM25.83,39.14h.95v-.99h-.95v.99ZM25.83,41.11h.95v-1.02h-.95v1.02ZM27.99,39.14h.95v-.99h-.95v.99ZM27.99,41.11h.95v-1.02h-.95v1.02Z"/>
    <path d="M26.05,56.46c-.6,0-1.04-.09-1.31-.28-.28-.19-.41-.5-.41-.95v-1.99c-.46,0-.92,0-1.38.01-.46,0-.86.01-1.21.02-.34,0-.58.01-.71.03v-1.27c.16,0,.41.01.74.02s.72.01,1.16.02c.44,0,.91,0,1.4,0v-1.44c-.31,0-.6,0-.89.01s-.53.01-.74.02c-.21,0-.36,0-.45.02v-1.27c.12,0,.3.02.54.02.25,0,.53.02.86.02.33,0,.67.01,1.03.01h1.07c.45,0,.88,0,1.28,0s.74-.01,1.03-.02c.29-.01.5-.02.62-.03v1.27c-.19-.01-.54-.03-1.06-.03-.51,0-1.14-.01-1.88-.01h-.06v1.44c.46,0,.91,0,1.37,0,.46,0,.88,0,1.28-.01.39,0,.73,0,1.01-.01s.47,0,.57-.02v1.27c-.18-.01-.47-.03-.89-.03s-.91-.01-1.49-.02c-.58,0-1.19,0-1.85,0v1.42c0,.19.05.32.15.4.1.07.28.11.56.11s.58,0,.92-.02c.34-.01.67-.03.98-.05s.56-.05.74-.08c-.02.09-.04.21-.07.37-.02.16-.04.33-.05.49-.01.17-.02.3-.02.41-.15.02-.35.04-.58.06-.23.02-.49.04-.76.06-.27.02-.54.03-.81.04-.26,0-.5.01-.69.01Z"/>
    <path d="M22.93,68.37c-.05-.11-.13-.24-.23-.39-.1-.15-.21-.29-.33-.42-.12-.14-.22-.24-.32-.32.99-.38,1.71-.87,2.17-1.45.46-.59.71-1.34.77-2.26-.58,0-1.14.02-1.67.02-.53,0-.98.02-1.36.03-.37.01-.62.02-.75.03l-.07-1.3c.09,0,.3.01.63.01s.74,0,1.22,0c.48,0,1.01,0,1.58-.02s1.13-.01,1.7-.02c.57,0,1.09-.01,1.58-.02.49,0,.9-.02,1.23-.03.33-.01.54-.02.63-.03v1.3c-.09,0-.31-.01-.64-.01s-.73,0-1.2,0c-.47,0-.98,0-1.52.02-.07,1.2-.38,2.18-.94,2.95-.56.77-1.39,1.41-2.49,1.91ZM22.72,60.94l-.08-1.29h.54c.27,0,.6,0,.98-.01.38,0,.77-.01,1.19-.02s.81-.02,1.19-.03c.38-.01.7-.02.97-.03.27,0,.44-.01.52-.02l.02,1.29c-.09,0-.28,0-.54,0-.27,0-.59,0-.96.01-.37,0-.76.01-1.16.02-.4.01-.79.02-1.16.03s-.69.02-.96.03c-.27.01-.46.02-.56.03ZM29.4,61.42c-.08-.15-.19-.32-.32-.5-.13-.18-.27-.34-.41-.51s-.27-.3-.38-.41l.62-.45c.1.1.23.23.38.4s.3.35.44.53c.14.18.25.34.32.46l-.65.46ZM30.43,60.62c-.14-.23-.32-.48-.54-.75-.22-.26-.42-.48-.59-.64l.62-.46c.1.1.23.23.38.4s.3.35.45.53c.14.18.25.33.34.46l-.65.46Z"/>
    <path d="M21.38,78.51c-.1-.16-.24-.34-.43-.55-.19-.21-.37-.37-.53-.5.61-.32,1.1-.67,1.47-1.06.37-.38.64-.8.81-1.27.17-.47.26-.98.27-1.56s-.03-1.21-.12-1.9l1.29-.11c.15,1.1.17,2.08.05,2.94s-.41,1.62-.86,2.27c-.46.65-1.1,1.23-1.95,1.73ZM26.14,78.26l-.71-.57c.01-.12.02-.36.03-.73s0-.8.01-1.31c0-.51,0-1.02,0-1.54,0-.65,0-1.21-.01-1.68,0-.48-.02-.85-.03-1.12h1.41c-.01.13-.03.34-.03.63,0,.29-.01.62-.02,1s0,.75,0,1.12v2.4c.31-.13.65-.29,1.02-.48.36-.19.72-.39,1.08-.6.36-.21.68-.42.97-.63.29-.21.52-.39.69-.56,0,.14.01.31.04.52.03.21.06.4.09.59.03.19.06.32.08.4-.24.21-.56.43-.95.68-.39.25-.81.49-1.26.74s-.88.47-1.3.67c-.42.21-.79.37-1.09.48Z"/>
    <path d="M26.4,89.95c-.03-.12-.08-.26-.17-.42-.08-.16-.17-.32-.28-.47-.11-.15-.21-.27-.31-.37,1-.15,1.77-.48,2.29-.98.52-.5.8-1.09.83-1.78.03-.54-.07-1.03-.3-1.45-.23-.43-.54-.77-.93-1.03-.39-.26-.82-.42-1.29-.47-.06.68-.17,1.38-.33,2.09-.16.71-.38,1.38-.65,2-.28.62-.61,1.15-1.01,1.58-.3.32-.59.51-.88.56-.28.05-.58.01-.9-.12-.31-.13-.58-.34-.81-.63-.24-.29-.42-.62-.54-1.02-.12-.39-.18-.81-.15-1.26.04-.67.19-1.28.47-1.83.28-.55.65-1.03,1.12-1.44.47-.4,1.01-.71,1.62-.91.61-.21,1.26-.29,1.95-.25.56.03,1.08.15,1.57.37.49.22.92.52,1.29.91.37.38.66.83.86,1.34.2.51.28,1.06.25,1.66-.05,1-.4,1.85-1.06,2.52s-1.54,1.14-2.65,1.39ZM22.82,87.73c.08.06.16.09.25.09s.18-.04.26-.13c.26-.26.51-.64.73-1.12s.41-1.03.56-1.64c.15-.61.25-1.23.29-1.86-.51.12-.96.33-1.35.64s-.7.68-.93,1.12c-.23.44-.36.92-.38,1.44-.01.34.03.64.14.9.11.25.25.45.42.58Z"/>
    <path d="M22.13,96.51c-.13-.12-.31-.26-.54-.42-.23-.16-.47-.32-.72-.47-.25-.15-.47-.27-.66-.35l.65-1.06c.32.15.67.34,1.05.56s.69.43.95.64c-.06.07-.14.17-.24.31-.1.14-.19.29-.29.43s-.16.26-.2.35ZM21.63,101.63l-1.12-.8c.17-.22.34-.48.52-.78.18-.3.35-.61.51-.94.17-.33.32-.65.45-.96s.24-.6.31-.85c.06.07.15.15.28.25.13.1.26.2.4.3.14.1.26.17.35.23-.08.26-.19.54-.32.86-.13.32-.28.64-.44.97-.16.33-.32.64-.48.94s-.32.56-.46.78ZM22.88,94.07c-.12-.12-.3-.26-.53-.42-.23-.16-.47-.32-.73-.46-.25-.15-.47-.26-.67-.34l.67-1.03c.2.08.42.19.68.34s.51.3.75.45c.24.15.43.29.57.41-.06.07-.14.17-.24.31s-.2.28-.3.42c-.1.14-.17.25-.21.33ZM23.21,101.81c-.08-.17-.19-.36-.31-.56-.13-.21-.27-.39-.42-.54.84-.28,1.51-.68,2-1.19s.83-1.16,1.02-1.94h-2.5v-1.18h2.67c0-.1.01-.21.02-.32,0-.11,0-.22,0-.33v-1.14h-2.03v-1.13h2.03v-1.83h1.3v1.83h2.64v2.93h.97v1.18h-3.2c.32.68.77,1.28,1.35,1.8.58.52,1.24.92,2,1.19-.1.1-.2.22-.3.36-.11.15-.21.29-.3.44-.09.15-.16.27-.2.37-.77-.37-1.44-.82-2-1.37s-1.03-1.2-1.39-1.95c-.28.76-.7,1.43-1.25,2.01-.55.58-1.25,1.04-2.1,1.38ZM26.97,96.4h1.34v-1.79h-1.32v1.14c0,.11,0,.22,0,.33,0,.11,0,.22-.02.32Z"/>
    <path d="M21.29,112.63c-.07-.1-.17-.2-.3-.32s-.26-.23-.4-.32c-.14-.1-.27-.17-.38-.23.4-.3.78-.67,1.14-1.12.36-.44.67-.92.93-1.43.26-.51.46-1.01.57-1.49l1.33.43c-.14.46-.32.91-.55,1.38.29.58.72,1.01,1.28,1.3v-3.75h-2.52v-1.17h6.34v1.17h-2.44v1.28h2.96v1.18h-2.96v1.69c.21.03.44.05.67.07.23.01.48.02.75.02.32,0,.67,0,1.03-.01.36,0,.72-.02,1.07-.05.35-.03.65-.06.92-.09-.03.08-.07.21-.11.38-.04.18-.08.36-.12.54s-.05.34-.06.45c-.28,0-.58,0-.91,0-.33,0-.65,0-.96.01-.32,0-.6,0-.86,0-.85,0-1.57-.06-2.17-.19-.59-.13-1.09-.33-1.5-.61-.41-.28-.76-.64-1.06-1.08-.49.74-1.05,1.39-1.67,1.96ZM20.71,106.47v-2.53h4.09v-1.3h1.43v1.3h4.15v2.48h-1.31v-1.39h-7.05v1.44h-1.31Z"/>
    <path d="M21.32,118.33c-.08-.12-.21-.27-.39-.45-.18-.18-.34-.32-.49-.42.19-.12.4-.28.62-.48s.43-.4.63-.62c.2-.22.37-.42.5-.62l.96.69c-.15.23-.33.46-.54.7s-.43.46-.65.67c-.22.21-.43.38-.63.53ZM20.96,123.85c-.03-.12-.07-.25-.13-.4-.05-.15-.11-.29-.18-.43s-.13-.24-.19-.31c.73-.05,1.45-.17,2.15-.35.7-.18,1.34-.4,1.92-.67-.15-.15-.3-.3-.43-.45-.14-.15-.27-.32-.39-.5-.57.45-1.17.81-1.79,1.09-.07-.14-.19-.31-.34-.51-.15-.2-.3-.36-.45-.47.48-.17.94-.4,1.39-.69.45-.29.85-.61,1.21-.97s.64-.71.85-1.07l1.08.53c-.05.09-.11.18-.18.26-.07.09-.13.18-.2.26h3.02l.45.5c-.29.4-.59.77-.9,1.11s-.65.64-1.01.91c.59.26,1.21.45,1.85.58.65.13,1.3.2,1.94.21-.08.1-.16.23-.23.39s-.13.33-.18.5-.08.3-.1.4c-.84-.05-1.64-.18-2.41-.4s-1.47-.51-2.1-.88c-.66.34-1.38.62-2.15.84-.77.22-1.61.39-2.5.51ZM21.87,119.66c-.07-.15-.17-.33-.29-.53-.12-.2-.24-.36-.35-.48.76-.26,1.38-.63,1.85-1.11.47-.48.74-1.14.79-1.98h-3.26v-1.03h4.22v-.95h1.46v.95h4.22v1.03h-3.02v1.9c0,.37-.1.65-.31.81-.21.17-.53.25-.96.25h-.71c-.01-.17-.05-.37-.1-.59-.05-.23-.11-.41-.17-.55h.58c.14,0,.24-.02.3-.07s.09-.14.09-.27v-1.48h-1.06c-.06.93-.37,1.76-.95,2.49-.57.73-1.36,1.27-2.35,1.61ZM25.72,121.07c.46-.29.83-.6,1.1-.91h-2.1c.29.34.62.64,1,.91ZM29.55,118.4c-.1-.13-.22-.28-.38-.46s-.33-.35-.51-.52c-.18-.18-.35-.34-.52-.48s-.31-.25-.43-.32l.85-.8c.21.13.44.3.69.5.25.2.48.4.71.62.23.21.42.41.57.6-.09.05-.2.13-.32.24s-.25.22-.37.34c-.12.12-.21.22-.28.3Z"/>
    <path d="M25.69,134.73c-.05-.1-.12-.23-.21-.37s-.19-.29-.29-.43c-.09.11-.19.23-.3.35-.1.12-.18.23-.24.31-.13-.12-.29-.25-.46-.39-.18-.14-.37-.27-.57-.41-.36.25-.77.45-1.23.6-.46.15-.97.26-1.52.34-.02-.09-.06-.2-.1-.35-.05-.14-.1-.28-.15-.42-.05-.14-.1-.24-.15-.31.83-.07,1.52-.25,2.07-.54-.59-.34-1.11-.61-1.55-.79.08-.1.17-.23.28-.39s.21-.33.32-.51h-1.07v-1.04h1.67c.24-.43.41-.77.52-1.03v-1.08c-.23.26-.48.51-.76.77-.28.26-.54.47-.78.65-.06-.09-.14-.19-.24-.3-.1-.11-.2-.21-.3-.3-.1-.09-.18-.16-.25-.2.16-.1.35-.22.55-.38.21-.16.42-.33.63-.52.21-.19.41-.37.58-.55h-1.53v-1h.81c-.11-.21-.23-.43-.37-.64s-.27-.39-.4-.53l.86-.48c.1.12.21.26.33.43s.23.34.34.5c.11.17.19.31.25.43-.18.07-.37.17-.57.3h.84v-1.75h1.1v1.75h.78c-.1-.06-.19-.11-.29-.15-.1-.04-.18-.08-.25-.11.16-.22.31-.46.46-.71s.25-.49.34-.7l.99.41c-.09.19-.2.4-.33.64-.14.23-.27.45-.4.64h.76v1h-1.5c.19.21.41.43.64.64s.46.39.67.52c-.11.09-.24.21-.38.36s-.27.29-.36.42c-.19-.15-.38-.31-.57-.5-.19-.19-.37-.38-.54-.59v1.14h-.81l.84.27c-.04.1-.09.2-.15.31-.06.11-.12.23-.19.36h2.49v1.04h-.71c-.16.61-.42,1.13-.76,1.56.16.1.31.19.46.3.14.1.28.21.4.31.46-.19.86-.43,1.22-.7.36-.28.66-.59.92-.94-.21-.37-.38-.77-.53-1.18-.15-.41-.27-.83-.36-1.27-.07.14-.15.27-.23.39-.08.12-.16.24-.24.36-.12-.1-.28-.21-.48-.32-.2-.11-.39-.2-.58-.26.25-.31.47-.66.67-1.07.2-.4.37-.83.52-1.28.15-.45.27-.9.37-1.34.09-.44.17-.86.21-1.25l1.21.18c-.1.64-.24,1.28-.42,1.94h2.98v1.1h-.65c-.06.79-.17,1.52-.35,2.18s-.41,1.27-.72,1.81c.53.67,1.19,1.25,1.99,1.74-.1.1-.2.21-.32.34-.12.13-.23.26-.32.39-.1.12-.16.22-.19.29-.37-.24-.72-.51-1.03-.8s-.6-.59-.85-.91c-.64.73-1.46,1.31-2.48,1.76ZM23.44,132.37c.22-.28.4-.6.53-.96h-1.09c-.07.1-.13.2-.18.29s-.1.17-.15.25c.29.12.59.26.89.42ZM28.16,130.74c.18-.42.31-.87.41-1.35.1-.47.15-.96.18-1.46h-1.29c.04.52.11,1.02.23,1.48s.28.91.47,1.32Z"/>
    <path d="M25.55,141.92c-.34,0-.62-.12-.86-.35-.23-.23-.35-.52-.35-.86s.12-.62.35-.86c.24-.23.52-.35.86-.35s.62.12.86.35c.23.23.35.52.35.86s-.12.62-.35.86c-.24.23-.52.35-.86.35Z"/>
    <path d="M22.94,155.91c-.04-.09-.12-.22-.21-.37-.1-.15-.21-.31-.32-.46s-.22-.28-.32-.36c1.4-.45,2.56-1.09,3.46-1.9.91-.81,1.57-1.84,1.97-3.1-.34,0-.74.02-1.17.03-.44.01-.89.03-1.35.04s-.9.03-1.33.04c-.42.01-.79.03-1.11.04-.32.01-.55.02-.69.03l-.09-1.47c.21.02.49.03.84.03.35,0,.73.01,1.15.01s.85,0,1.3,0,.88-.01,1.29-.02c.41-.01.79-.02,1.13-.04.34-.01.6-.03.8-.05l.89.47c-.24,1.17-.65,2.22-1.23,3.15-.58.93-1.29,1.72-2.13,2.39-.85.66-1.81,1.18-2.89,1.55ZM29.95,148.79c-.3,0-.56-.11-.78-.32s-.32-.47-.32-.78.11-.56.32-.77c.22-.21.48-.32.78-.32s.56.11.77.32c.21.21.32.47.32.77s-.11.56-.32.78c-.21.22-.47.32-.77.32ZM29.95,148.32c.17,0,.31-.06.43-.18.12-.12.18-.27.18-.45s-.06-.31-.18-.43c-.12-.12-.27-.18-.43-.18-.18,0-.33.06-.45.18-.12.12-.18.27-.18.43s.06.32.18.45c.12.12.27.18.45.18Z"/>
    <path d="M23,166.25l-.71-.55c0-.09.01-.25.02-.5,0-.24.01-.53.02-.87,0-.34,0-.7,0-1.09v-1.16c0-.42,0-.83,0-1.2s0-.71-.02-.99c0-.28-.01-.49-.02-.61h1.41c-.01.13-.03.34-.03.64,0,.29-.01.62-.02.99,0,.37,0,.74,0,1.11v2.51c.51-.19,1.04-.42,1.62-.69s1.13-.56,1.69-.87,1.06-.62,1.52-.94.84-.62,1.13-.9c0,.12.03.29.05.5s.06.41.1.61c.04.2.08.35.1.45-.29.24-.65.5-1.06.76-.42.27-.87.54-1.36.81-.49.27-1,.53-1.51.79-.52.25-1.03.48-1.53.69-.5.21-.97.38-1.4.52Z"/>
    <path d="M24.84,178.23c0-.15.01-.4.02-.75,0-.36.01-.78.02-1.27,0-.49.01-1.02.02-1.58,0-.56,0-1.12,0-1.69s0-1.1-.01-1.6c0-.5-.01-.94-.02-1.3,0-.37-.02-.63-.03-.79h1.38c0,.22-.02.55-.03,1-.01.45-.02.96-.02,1.55,0,.59,0,1.2,0,1.83s0,1.25,0,1.85c0,.6.01,1.14.03,1.62.01.48.03.86.04,1.13h-1.4Z"/>
    <path d="M21.99,188.74c-.09-.16-.22-.36-.38-.58-.16-.23-.32-.41-.48-.54.55-.24,1.1-.54,1.65-.9.55-.36,1.08-.76,1.58-1.22.5-.45.96-.93,1.38-1.43.41-.5.76-1.01,1.05-1.54-.36.02-.75.05-1.18.08-.43.03-.85.06-1.28.08s-.8.05-1.14.08c-.34.03-.6.05-.79.06l-.15-1.4c.18,0,.46,0,.82-.01.37,0,.78-.02,1.23-.04.45-.02.91-.04,1.36-.06.45-.02.86-.05,1.22-.08.36-.03.63-.06.81-.09l.89.57c-.18.51-.4,1.02-.68,1.51-.28.5-.59.97-.95,1.42.26.2.53.42.82.67.29.25.57.51.85.77.28.26.54.52.77.76s.43.46.58.65c-.18.12-.38.27-.58.46-.21.19-.38.37-.54.53-.14-.2-.32-.42-.54-.68-.22-.25-.46-.51-.71-.77-.25-.26-.51-.51-.76-.76-.26-.25-.5-.46-.73-.65-.61.65-1.27,1.24-1.98,1.77-.71.53-1.43.97-2.15,1.33Z"/>
    <path d="M21.75,198.72c-.07-.09-.16-.19-.28-.31-.12-.12-.24-.24-.37-.35-.12-.11-.23-.2-.33-.26.28-.17.55-.38.82-.63.27-.25.51-.52.73-.8.22-.28.4-.55.54-.81l1.1.64c-.16.31-.37.62-.61.94-.25.32-.51.61-.79.89s-.55.5-.81.69ZM23.99,199.91c-.02-.11-.04-.25-.08-.41s-.09-.33-.14-.5c-.06-.17-.12-.3-.18-.41.48,0,.81-.05.99-.14.18-.09.26-.26.26-.51v-3.11c-.34,0-.69,0-1.04,0s-.7,0-1.03.01c-.33,0-.61,0-.85.02-.24,0-.41.01-.5.02v-1.28c.15.01.41.03.76.03.36,0,.77.01,1.23.02s.94,0,1.42,0v-1.99h1.38v1.99c.5,0,.99-.01,1.47-.02.48,0,.91-.01,1.27-.02.36,0,.61-.01.73-.01v1.28c-.14-.01-.38-.03-.74-.03-.35,0-.77-.01-1.24-.02s-.98,0-1.5,0v3.39c0,.37-.06.67-.19.91-.13.24-.35.42-.67.54-.32.12-.77.21-1.36.24ZM29.07,198.65c-.13-.24-.31-.51-.54-.81-.23-.3-.48-.59-.74-.87-.26-.28-.5-.51-.73-.68l.91-.75c.25.19.51.42.79.69s.54.55.79.83.45.53.61.76c-.11.05-.24.13-.37.23-.14.1-.27.2-.4.31-.13.11-.23.21-.31.3Z"/>
    <path d="M21.38,210.51c-.1-.16-.24-.34-.43-.55-.19-.21-.37-.37-.53-.5.61-.32,1.1-.67,1.47-1.06.37-.38.64-.8.81-1.27.17-.46.26-.98.27-1.56.01-.57-.03-1.21-.12-1.9l1.29-.11c.15,1.1.17,2.08.05,2.94-.12.86-.41,1.62-.86,2.27-.46.65-1.1,1.23-1.95,1.73ZM26.14,210.26l-.71-.57c.01-.12.02-.36.03-.73,0-.37,0-.8.01-1.31,0-.51,0-1.02,0-1.54,0-.65,0-1.21-.01-1.68,0-.48-.02-.85-.03-1.12h1.41c-.01.13-.03.34-.03.63,0,.29-.01.62-.02,1s0,.75,0,1.12v2.4c.31-.13.65-.29,1.02-.48.36-.19.72-.39,1.08-.61.36-.21.68-.42.97-.63.29-.21.52-.39.69-.56,0,.14.01.31.04.52.03.21.06.4.09.59.03.19.06.32.08.4-.24.21-.56.43-.95.68-.39.25-.81.5-1.26.74s-.88.47-1.3.67-.79.37-1.09.48Z"/>
    <path d="M22.12,222.48c-.1-.21-.21-.43-.36-.65-.14-.22-.27-.39-.39-.5.81-.3,1.58-.69,2.31-1.17.73-.48,1.39-1.02,1.97-1.64-.44-.31-.86-.55-1.26-.73l.77-1.01c.42.19.87.44,1.34.74.19-.27.37-.55.53-.83.17-.28.31-.57.45-.86-.31.01-.64.03-1,.05-.36.02-.69.03-1,.04-.31.01-.55.02-.73.03-.32.49-.69.96-1.09,1.4-.41.44-.85.85-1.34,1.23-.12-.15-.28-.32-.47-.51s-.36-.33-.51-.41c.52-.37,1-.8,1.45-1.31s.84-1.04,1.18-1.62c.34-.57.59-1.13.75-1.68l1.28.41c-.08.22-.17.44-.26.67-.09.22-.2.44-.31.65.32,0,.67-.02,1.04-.03s.73-.03,1.06-.04.59-.04.76-.06l.85.46c-.18.59-.41,1.14-.67,1.67-.26.52-.56,1.02-.89,1.49.28.21.54.41.79.62.25.21.45.41.61.59-.09.07-.21.18-.33.31-.13.13-.25.27-.37.41-.12.14-.21.26-.27.37-.16-.19-.35-.39-.57-.6s-.46-.42-.7-.62c-.62.67-1.31,1.27-2.08,1.79-.77.52-1.62.97-2.52,1.34ZM29.5,215.13c-.14-.24-.32-.48-.54-.75-.22-.26-.42-.48-.6-.64l.61-.47c.1.09.23.22.38.39s.3.35.45.52.26.33.34.45l-.64.5ZM30.51,214.31c-.14-.23-.32-.47-.55-.73-.23-.26-.43-.47-.62-.63l.61-.47c.1.09.23.22.39.38.16.17.31.34.46.52.15.18.26.33.34.45l-.63.48Z"/>
    <path d="M24.84,233.23c0-.15.01-.4.02-.75,0-.36.01-.78.02-1.27,0-.49.01-1.02.02-1.58,0-.56,0-1.12,0-1.69s0-1.1-.01-1.6c0-.5-.01-.94-.02-1.3,0-.37-.02-.63-.03-.79h1.38c0,.22-.02.55-.03,1-.01.45-.02.96-.02,1.55,0,.59,0,1.2,0,1.83s0,1.25,0,1.85.01,1.14.03,1.62c.01.48.03.86.04,1.13h-1.4Z"/>
  </g>
  <g>
    <line x1="385.4" y1="179.17" x2="372.53" y2="211.46" fill="none" stroke="#000" stroke-miterlimit="10" stroke-width="2"/>
    <line x1="400.32" y1="179.72" x2="413.18" y2="212.01" fill="none" stroke="#000" stroke-miterlimit="10" stroke-width="2"/>
    <line x1="320.03" y1="152.78" x2="348.63" y2="110.99" fill="none" stroke="#000" stroke-miterlimit="10" stroke-width="2"/>
    <line x1="392.03" y1="152.78" x2="363.43" y2="110.99" fill="none" stroke="#000" stroke-miterlimit="10" stroke-width="2"/>
    <g>
      <g>
        <path d="M364.73,211.73h12.98c4.53,0,8.2,3.68,8.2,8.2v12.98c0,4.53-3.68,8.2-8.2,8.2h-12.98c-4.53,0-8.2-3.68-8.2-8.2v-12.98c0-4.53,3.68-8.2,8.2-8.2Z" fill="#c8daf9"/>
        <path d="M377.71,212.23c4.25,0,7.7,3.46,7.7,7.7v12.98c0,4.25-3.46,7.7-7.7,7.7h-12.98c-4.25,0-7.7-3.46-7.7-7.7v-12.98c0-4.25,3.46-7.7,7.7-7.7h12.98M377.71,211.23h-12.98c-4.79,0-8.7,3.92-8.7,8.7v12.98c0,4.79,3.92,8.7,8.7,8.7h12.98c4.79,0,8.7-3.92,8.7-8.7v-12.98c0-4.79-3.92-8.7-8.7-8.7h0Z"/>
      </g>
      <path d="M378.29,220.23c.13-.44.13-.5.13-.72,0-.56-.44-.84-.91-.84-.31,0-.81.19-1.09.65-.06.16-.31,1.12-.44,1.69-.22.81-.44,1.65-.62,2.5l-1.41,5.62c-.12.47-1.47,2.65-3.53,2.65-1.59,0-1.94-1.37-1.94-2.53,0-1.44.53-3.37,1.59-6.12.5-1.28.62-1.62.62-2.25,0-1.4-1-2.56-2.56-2.56-2.97,0-4.12,4.53-4.12,4.81,0,.31.31.31.38.31.31,0,.34-.06.5-.56.84-2.94,2.09-3.87,3.15-3.87.25,0,.78,0,.78,1,0,.78-.31,1.59-.53,2.19-1.25,3.31-1.81,5.09-1.81,6.56,0,2.78,1.97,3.72,3.81,3.72,1.22,0,2.28-.53,3.15-1.4-.41,1.62-.78,3.15-2.03,4.81-.81,1.06-2,1.97-3.43,1.97-.44,0-1.84-.09-2.37-1.31.5,0,.91,0,1.34-.38.31-.28.62-.69.62-1.28,0-.97-.84-1.09-1.16-1.09-.72,0-1.75.5-1.75,2.03s1.37,2.72,3.31,2.72c3.22,0,6.43-2.84,7.31-6.37l3-11.93"/>
    </g>
    <g>
      <g>
        <path d="M409.14,211.73h12.98c4.53,0,8.2,3.68,8.2,8.2v12.98c0,4.53-3.68,8.2-8.2,8.2h-12.98c-4.53,0-8.2-3.68-8.2-8.2v-12.98c0-4.53,3.68-8.2,8.2-8.2Z" fill="#c8daf9"/>
        <path d="M422.12,212.23c4.25,0,7.7,3.46,7.7,7.7v12.98c0,4.25-3.46,7.7-7.7,7.7h-12.98c-4.25,0-7.7-3.46-7.7-7.7v-12.98c0-4.25,3.46-7.7,7.7-7.7h12.98M422.12,211.23h-12.98c-4.79,0-8.7,3.92-8.7,8.7v12.98c0,4.79,3.92,8.7,8.7,8.7h12.98c4.79,0,8.7-3.92,8.7-8.7v-12.98c0-4.79-3.92-8.7-8.7-8.7h0Z"/>
      </g>
      <polygon points="415.63 226.43 415.63 226.43 415.63 226.43 415.63 226.43 415.63 226.43 415.63 226.43 415.63 226.43 415.63 226.43 415.63 226.43 415.63 226.43 415.63 226.43 415.63 226.43 415.63 226.43 415.63 226.43 415.63 226.43 415.63 226.43 415.63 226.43 415.63 226.43 415.63 226.43 415.63 226.43 415.63 226.43 415.63 226.43 415.63 226.43 415.63 226.43 415.63 226.43 415.63 226.43 415.63 226.43 415.63 226.43 415.63 226.43 415.63 226.43 415.63 226.43 415.63 226.43 415.63 226.43 415.63 226.43 415.63 226.43 415.63 226.43 415.63 226.43 415.63 226.43 415.63 226.43 415.63 226.43 415.63 226.43 415.63 226.43 415.63 226.43 415.63 226.43 415.63 226.43 415.63 226.43 415.63 226.43 415.63 226.43 415.63 226.43 415.63 226.43 415.63 226.43 415.63 226.43 415.63 226.43 415.63 226.43 415.63 226.43 415.63 226.43 415.63 226.43 415.63 226.43 415.63 226.43 415.63 226.43 415.63 226.43 415.63 226.43 415.63 226.43 415.63 226.43 415.63 226.43 415.63 226.43 415.63 226.43 415.63 226.43 415.63 226.43 415.63 226.43 415.63 226.43 415.63 226.43 415.63 226.43 415.63 226.43 415.63 226.43 415.63 226.43 415.63 226.43 415.63 226.43 415.63 226.43 415.63 226.43 415.63 226.43 415.63 226.43 415.63 226.43 415.63 226.43 415.63 226.43 415.63 226.43 415.63 226.43 415.63 226.43 415.63 226.43 415.63 226.43 415.63 226.43 415.63 226.43 415.63 226.43 415.63 226.43 415.63 226.43 415.63 226.43 415.63 226.43 415.63 226.43" fill="none" opacity="0" stroke="#000" stroke-miterlimit="10"/>
      <g clip-path="url(#clippath-1)">
        <g isolation="isolate">
          <g clip-path="url(#clippath-2)">
            <g clip-path="url(#clippath-3)">
              <path d="M415.65,235.19c-1.05,0-2.63-.67-3.11-3.25-.29-1.61-.29-4.08-.29-5.67,0-1.72,0-3.49.21-4.94.51-3.2,2.52-3.44,3.2-3.44.89,0,2.66.48,3.17,3.14.27,1.5.27,3.54.27,5.24,0,2.01,0,3.84-.3,5.56-.4,2.55-1.93,3.36-3.14,3.36M421.32,226.6c0-2.15-.13-4.3-1.07-6.28-1.23-2.58-3.44-3.01-4.56-3.01-1.61,0-3.57.7-4.67,3.2-.86,1.85-.99,3.95-.99,6.1,0,2.01.11,4.43,1.21,6.47,1.15,2.17,3.11,2.71,4.43,2.71,1.45,0,3.49-.56,4.67-3.11.86-1.85.99-3.95.99-6.07Z"/>
            </g>
          </g>
        </g>
      </g>
    </g>
    <g>
      <g>
        <path d="M356.73,116.94c-8,0-14.5-6.5-14.5-14.5s6.5-14.5,14.5-14.5,14.5,6.5,14.5,14.5-6.5,14.5-14.5,14.5Z" fill="#e89a99"/>
        <path d="M356.73,88.44c7.72,0,14,6.28,14,14s-6.28,14-14,14-14-6.28-14-14,6.28-14,14-14M356.73,87.44c-8.28,0-15,6.72-15,15s6.72,15,15,15,15-6.72,15-15-6.72-15-15-15h0Z"/>
      </g>
      <polygon points="356.73 102.44 356.73 102.44 356.73 102.44 356.73 102.44 356.73 102.44 356.73 102.44 356.73 102.44 356.73 102.44 356.73 102.44 356.73 102.44 356.73 102.44 356.73 102.44 356.73 102.44 356.73 102.44 356.73 102.44 356.73 102.44 356.73 102.44 356.73 102.44 356.73 102.44 356.73 102.44 356.73 102.44 356.73 102.44 356.73 102.44 356.73 102.44 356.73 102.44 356.73 102.44 356.73 102.44 356.73 102.44 356.73 102.44 356.73 102.44 356.73 102.44 356.73 102.44 356.73 102.44 356.73 102.44 356.73 102.44 356.73 102.44 356.73 102.44 356.73 102.44 356.73 102.44 356.73 102.44 356.73 102.44 356.73 102.44 356.73 102.44 356.73 102.44 356.73 102.44 356.73 102.44 356.73 102.44 356.73 102.44 356.73 102.44 356.73 102.44 356.73 102.44 356.73 102.44 356.73 102.44 356.73 102.44 356.73 102.44 356.73 102.44 356.73 102.44 356.73 102.44 356.73 102.44 356.73 102.44 356.73 102.44 356.73 102.44 356.73 102.44 356.73 102.44 356.73 102.44 356.73 102.44 356.73 102.44 356.73 102.44 356.73 102.44 356.73 102.44 356.73 102.44 356.73 102.44 356.73 102.44 356.73 102.44 356.73 102.44 356.73 102.44 356.73 102.44 356.73 102.44 356.73 102.44 356.73 102.44 356.73 102.44 356.73 102.44 356.73 102.44 356.73 102.44 356.73 102.44 356.73 102.44 356.73 102.44 356.73 102.44 356.73 102.44 356.73 102.44 356.73 102.44 356.73 102.44 356.73 102.44 356.73 102.44 356.73 102.44 356.73 102.44 356.73 102.44 356.73 102.44 356.73 102.44" fill="none" opacity="0" stroke="#000" stroke-miterlimit="10"/>
      <g clip-path="url(#clippath-5)">
        <g isolation="isolate">
          <g clip-path="url(#clippath-6)">
            <g clip-path="url(#clippath-7)">
              <path d="M357.05,103.1h6.84c.34,0,.81,0,.81-.49s-.47-.49-.81-.49h-6.84v-6.86c0-.34,0-.81-.49-.81s-.49.47-.49.81v6.86h-6.86c-.34,0-.81,0-.81.49s.47.49.81.49h6.86v6.86c0,.34,0,.81.49.81s.49-.47.49-.81v-6.86"/>
            </g>
          </g>
        </g>
      </g>
    </g>
    <polygon points="355.64 229.07 355.64 229.07 355.64 229.07 355.64 229.07 355.64 229.07 355.64 229.07 355.64 229.07 355.64 229.07 355.64 229.07 355.64 229.07 355.64 229.07 355.64 229.07 355.64 229.07 355.64 229.07 355.64 229.07 355.64 229.07 355.64 229.07 355.64 229.07 355.64 229.07 355.64 229.07 355.64 229.07 355.64 229.07 355.64 229.07 355.64 229.07 355.64 229.07 355.64 229.07 355.64 229.07 355.64 229.07 355.64 229.07 355.64 229.07 355.64 229.07 355.64 229.07 355.64 229.07 355.64 229.07 355.64 229.07 355.64 229.07 355.64 229.07 355.64 229.07 355.64 229.07 355.64 229.07 355.64 229.07 355.64 229.07 355.64 229.07 355.64 229.07 355.64 229.07 355.64 229.07 355.64 229.07 355.64 229.07 355.64 229.07 355.64 229.07 355.64 229.07 355.64 229.07 355.64 229.07 355.64 229.07 355.64 229.07 355.64 229.07 355.64 229.07 355.64 229.07 355.64 229.07 355.64 229.07 355.64 229.07 355.64 229.07 355.64 229.07 355.64 229.07 355.64 229.07 355.64 229.07 355.64 229.07 355.64 229.07 355.64 229.07 355.64 229.07 355.64 229.07 355.64 229.07 355.64 229.07 355.64 229.07 355.64 229.07 355.64 229.07 355.64 229.07 355.64 229.07 355.64 229.07 355.64 229.07 355.64 229.07 355.64 229.07 355.64 229.07 355.64 229.07 355.64 229.07 355.64 229.07 355.64 229.07 355.64 229.07 355.64 229.07 355.64 229.07 355.64 229.07 355.64 229.07 355.64 229.07 355.64 229.07 355.64 229.07 355.64 229.07 355.64 229.07 355.64 229.07 355.64 229.07 355.64 229.07 355.64 229.07" fill="none" opacity="0" stroke="#000" stroke-miterlimit="10"/>
    <g>
      <g>
        <g>
          <path d="M393.43,181.64c-8,0-14.5-6.5-14.5-14.5s6.5-14.5,14.5-14.5,14.5,6.5,14.5,14.5-6.5,14.5-14.5,14.5Z" fill="#e89a99"/>
          <path d="M393.43,153.14c7.72,0,14,6.28,14,14s-6.28,14-14,14-14-6.28-14-14,6.28-14,14-14M393.43,152.14c-8.28,0-15,6.72-15,15s6.72,15,15,15,15-6.72,15-15-6.72-15-15-15h0Z"/>
        </g>
        <polygon points="393.43 167.14 393.43 167.14 393.43 167.14 393.43 167.14 393.43 167.14 393.43 167.14 393.43 167.14 393.43 167.14 393.43 167.14 393.43 167.14 393.43 167.14 393.43 167.14 393.43 167.14 393.43 167.14 393.43 167.14 393.43 167.14 393.43 167.14 393.43 167.14 393.43 167.14 393.43 167.14 393.43 167.14 393.43 167.14 393.43 167.14 393.43 167.14 393.43 167.14 393.43 167.14 393.43 167.14 393.43 167.14 393.43 167.14 393.43 167.14 393.43 167.14 393.43 167.14 393.43 167.14 393.43 167.14 393.43 167.14 393.43 167.14 393.43 167.14 393.43 167.14 393.43 167.14 393.43 167.14 393.43 167.14 393.43 167.14 393.43 167.14 393.43 167.14 393.43 167.14 393.43 167.14 393.43 167.14 393.43 167.14 393.43 167.14 393.43 167.14 393.43 167.14 393.43 167.14 393.43 167.14 393.43 167.14 393.43 167.14 393.43 167.14 393.43 167.14 393.43 167.14 393.43 167.14 393.43 167.14 393.43 167.14 393.43 167.14 393.43 167.14 393.43 167.14 393.43 167.14 393.43 167.14 393.43 167.14 393.43 167.14 393.43 167.14 393.43 167.14 393.43 167.14 393.43 167.14 393.43 167.14 393.43 167.14 393.43 167.14 393.43 167.14 393.43 167.14 393.43 167.14 393.43 167.14 393.43 167.14 393.43 167.14 393.43 167.14 393.43 167.14 393.43 167.14 393.43 167.14 393.43 167.14 393.43 167.14 393.43 167.14 393.43 167.14 393.43 167.14 393.43 167.14 393.43 167.14 393.43 167.14 393.43 167.14 393.43 167.14 393.43 167.14 393.43 167.14 393.43 167.14 393.43 167.14" fill="none" opacity="0" stroke="#000" stroke-miterlimit="10"/>
      </g>
      <g clip-path="url(#clippath-9)">
        <g isolation="isolate">
          <g clip-path="url(#clippath-10)">
            <g clip-path="url(#clippath-11)">
              <path d="M385.56,172.91s0-.06-.2-.26c-1.47-1.48-1.84-3.7-1.84-5.49,0-2.04.45-4.08,1.89-5.55.15-.14.15-.16.15-.2,0-.08-.05-.12-.12-.12-.12,0-1.17.8-1.87,2.29-.6,1.29-.74,2.59-.74,3.58,0,.92.13,2.34.77,3.66.7,1.44,1.71,2.21,1.83,2.21.07,0,.12-.04.12-.12"/>
              <path d="M393.99,167.39c.2,0,.41,0,.41-.23s-.21-.23-.41-.23h-6.35c-.2,0-.41,0-.41.23s.21.23.41.23h6.35"/>
              <path d="M398.75,167.15c0-.92-.13-2.34-.77-3.66-.7-1.44-1.71-2.21-1.83-2.21-.07,0-.12.05-.12.12,0,.04,0,.06.22.27,1.15,1.16,1.82,3.03,1.82,5.48,0,2.01-.43,4.07-1.89,5.55-.15.14-.15.16-.15.2,0,.07.05.12.12.12.12,0,1.17-.8,1.87-2.29.6-1.29.74-2.59.74-3.58"/>
              <path d="M404.11,169.77c0-.99-.8-1.77-1.77-1.77s-1.77.8-1.77,1.76.8,1.77,1.77,1.77,1.77-.8,1.77-1.76"/>
            </g>
          </g>
        </g>
      </g>
    </g>
    <g>
      <g>
        <rect x="305.02" y="152.45" width="29.39" height="29.39" rx="8.2" ry="8.2" fill="#c8daf9"/>
        <path d="M326.21,152.95c4.25,0,7.7,3.46,7.7,7.7v12.98c0,4.25-3.46,7.7-7.7,7.7h-12.98c-4.25,0-7.7-3.46-7.7-7.7v-12.98c0-4.25,3.46-7.7,7.7-7.7h12.98M326.21,151.95h-12.98c-4.79,0-8.7,3.92-8.7,8.7v12.98c0,4.79,3.92,8.7,8.7,8.7h12.98c4.79,0,8.7-3.92,8.7-8.7v-12.98c0-4.79-3.92-8.7-8.7-8.7h0Z"/>
      </g>
      <path d="M321.47,164.44c.19-.81.91-3.68,3.09-3.68.16,0,.91,0,1.56.41-.87.16-1.5.94-1.5,1.69,0,.5.34,1.09,1.19,1.09.69,0,1.69-.56,1.69-1.81,0-1.62-1.84-2.06-2.9-2.06-1.81,0-2.9,1.65-3.28,2.37-.78-2.06-2.47-2.37-3.37-2.37-3.25,0-5.03,4.03-5.03,4.81,0,.31.31.31.38.31.25,0,.34-.06.41-.34,1.06-3.31,3.12-4.09,4.18-4.09.59,0,1.69.28,1.69,2.09,0,.97-.53,3.06-1.69,7.43-.5,1.94-1.59,3.25-2.97,3.25-.19,0-.91,0-1.56-.41.78-.16,1.47-.81,1.47-1.68s-.69-1.09-1.16-1.09c-.94,0-1.72.81-1.72,1.81,0,1.44,1.56,2.06,2.94,2.06,2.06,0,3.18-2.19,3.28-2.37.37,1.16,1.5,2.37,3.37,2.37,3.22,0,5-4.03,5-4.81,0-.31-.28-.31-.38-.31-.28,0-.34.13-.41.34-1.03,3.34-3.15,4.09-4.15,4.09-1.22,0-1.72-1-1.72-2.06,0-.69.19-1.37.53-2.75l1.06-4.28"/>
    </g>
  </g>
  <g>
    <g>
      <path d="M621.38,227.42s30.03-45.86,30.03-60.05c0-12.3-34.04-45.32-43.11-53.9" fill="none" stroke="#000" stroke-dasharray="2 2" stroke-miterlimit="10"/>
      <path d="M606.1,111.41c1.39.6,3.29,1.16,4.73,1.23l-2.26,1.13-1.02,2.31c-.13-1.44-.79-3.31-1.45-4.67Z"/>
    </g>
    <line x1="581.75" y1="126.26" x2="581.75" y2="152.14" fill="none" stroke="#000" stroke-miterlimit="10" stroke-width="2"/>
    <line x1="535.41" y1="64.01" x2="506.37" y2="96.06" fill="none" stroke="#000" stroke-miterlimit="10" stroke-width="2"/>
    <line x1="550.25" y1="66.7" x2="580.53" y2="96.98" fill="none" stroke="#000" stroke-miterlimit="10" stroke-width="2"/>
    <polygon points="506.81 93.69 506.81 93.69 506.81 93.69 506.81 93.69 506.81 93.69 506.81 93.69 506.81 93.69 506.81 93.69 506.81 93.69 506.81 93.69 506.81 93.69 506.81 93.69 506.81 93.69 506.81 93.69 506.81 93.69 506.81 93.69 506.81 93.69 506.81 93.69 506.81 93.69 506.81 93.69 506.81 93.69 506.81 93.69 506.81 93.69 506.81 93.69 506.81 93.69 506.81 93.69 506.81 93.69 506.81 93.69 506.81 93.69 506.81 93.69 506.81 93.69 506.81 93.69 506.81 93.69 506.81 93.69 506.81 93.69 506.81 93.69 506.81 93.69 506.81 93.69 506.81 93.69 506.81 93.69 506.81 93.69 506.81 93.69 506.81 93.69 506.81 93.69 506.81 93.69 506.81 93.69 506.81 93.69 506.81 93.69 506.81 93.69 506.81 93.69 506.81 93.69 506.81 93.69 506.81 93.69 506.81 93.69 506.81 93.69 506.81 93.69 506.81 93.69 506.81 93.69 506.81 93.69 506.81 93.69 506.81 93.69 506.81 93.69 506.81 93.69 506.81 93.69 506.81 93.69 506.81 93.69 506.81 93.69 506.81 93.69 506.81 93.69 506.81 93.69 506.81 93.69 506.81 93.69 506.81 93.69 506.81 93.69 506.81 93.69 506.81 93.69 506.81 93.69 506.81 93.69 506.81 93.69 506.81 93.69 506.81 93.69 506.81 93.69 506.81 93.69 506.81 93.69 506.81 93.69 506.81 93.69 506.81 93.69 506.81 93.69 506.81 93.69 506.81 93.69 506.81 93.69 506.81 93.69 506.81 93.69 506.81 93.69 506.81 93.69 506.81 93.69 506.81 93.69 506.81 93.69 506.81 93.69" fill="none" opacity="0" stroke="#000" stroke-miterlimit="10"/>
    <g>
      <g>
        <g>
          <path d="M543.8,69.78c-8,0-14.5-6.5-14.5-14.5s6.5-14.5,14.5-14.5,14.5,6.5,14.5,14.5-6.5,14.5-14.5,14.5Z" fill="#e89a99"/>
          <path d="M543.8,41.28c7.72,0,14,6.28,14,14s-6.28,14-14,14-14-6.28-14-14,6.28-14,14-14M543.8,40.28c-8.28,0-15,6.72-15,15s6.72,15,15,15,15-6.72,15-15-6.72-15-15-15h0Z"/>
        </g>
        <polygon points="543.8 55.28 543.8 55.28 543.8 55.28 543.8 55.28 543.8 55.28 543.8 55.28 543.8 55.28 543.8 55.28 543.8 55.28 543.8 55.28 543.8 55.28 543.8 55.28 543.8 55.28 543.8 55.28 543.8 55.28 543.8 55.28 543.8 55.28 543.8 55.28 543.8 55.28 543.8 55.28 543.8 55.28 543.8 55.28 543.8 55.28 543.8 55.28 543.8 55.28 543.8 55.28 543.8 55.28 543.8 55.28 543.8 55.28 543.8 55.28 543.8 55.28 543.8 55.28 543.8 55.28 543.8 55.28 543.8 55.28 543.8 55.28 543.8 55.28 543.8 55.28 543.8 55.28 543.8 55.28 543.8 55.28 543.8 55.28 543.8 55.28 543.8 55.28 543.8 55.28 543.8 55.28 543.8 55.28 543.8 55.28 543.8 55.28 543.8 55.28 543.8 55.28 543.8 55.28 543.8 55.28 543.8 55.28 543.8 55.28 543.8 55.28 543.8 55.28 543.8 55.28 543.8 55.28 543.8 55.28 543.8 55.28 543.8 55.28 543.8 55.28 543.8 55.28 543.8 55.28 543.8 55.28 543.8 55.28 543.8 55.28 543.8 55.28 543.8 55.28 543.8 55.28 543.8 55.28 543.8 55.28 543.8 55.28 543.8 55.28 543.8 55.28 543.8 55.28 543.8 55.28 543.8 55.28 543.8 55.28 543.8 55.28 543.8 55.28 543.8 55.28 543.8 55.28 543.8 55.28 543.8 55.28 543.8 55.28 543.8 55.28 543.8 55.28 543.8 55.28 543.8 55.28 543.8 55.28 543.8 55.28 543.8 55.28 543.8 55.28 543.8 55.28 543.8 55.28 543.8 55.28 543.8 55.28" fill="none" opacity="0" stroke="#000" stroke-miterlimit="10"/>
      </g>
      <g clip-path="url(#clippath-13)">
        <g isolation="isolate">
          <g clip-path="url(#clippath-14)">
            <g clip-path="url(#clippath-15)">
              <path d="M550.72,64.12l1.54-4.08h-.32c-.5,1.33-1.85,2.19-3.31,2.57-.27.06-1.52.39-3.96.39h-7.68l6.49-7.61c.09-.1.11-.14.11-.2,0-.03,0-.06-.09-.19l-5.94-8.12h6.98c1.71,0,2.87.18,2.98.2.69.1,1.8.32,2.8.96.32.2,1.18.78,1.62,1.81h.32l-1.54-3.58h-15.06c-.29,0-.31.01-.34.09-.01.04-.01.28-.01.42l6.74,9.23-6.6,7.73c-.13.15-.13.22-.13.23,0,.14.11.14.34.14h15.06"/>
            </g>
          </g>
        </g>
      </g>
    </g>
    <g>
      <g>
        <path d="M499.55,95.53h12.98c4.53,0,8.2,3.68,8.2,8.2v12.98c0,4.53-3.68,8.2-8.2,8.2h-12.98c-4.53,0-8.2-3.68-8.2-8.2v-12.98c0-4.53,3.68-8.2,8.2-8.2Z" fill="#c8daf9"/>
        <path d="M512.53,96.03c4.25,0,7.7,3.46,7.7,7.7v12.98c0,4.25-3.46,7.7-7.7,7.7h-12.98c-4.25,0-7.7-3.46-7.7-7.7v-12.98c0-4.25,3.46-7.7,7.7-7.7h12.98M512.53,95.03h-12.98c-4.79,0-8.7,3.92-8.7,8.7v12.98c0,4.79,3.92,8.7,8.7,8.7h12.98c4.79,0,8.7-3.92,8.7-8.7v-12.98c0-4.79-3.92-8.7-8.7-8.7h0Z"/>
      </g>
      <path d="M513.6,105.14c.24-.95.67-1.69,2.57-1.76.12,0,.4-.02.4-.48,0-.02,0-.26-.31-.26-.78,0-1.62.07-2.4.07s-1.64-.07-2.42-.07c-.14,0-.43,0-.43.48,0,.26.24.26.43.26,1.35.02,1.62.52,1.62,1.04,0,.07-.05.43-.07.5l-2.66,10.57-5.25-12.4c-.19-.43-.21-.45-.76-.45h-3.18c-.47,0-.69,0-.69.48,0,.26.21.26.66.26.12,0,1.62,0,1.62.21l-3.18,12.75c-.24.95-.64,1.71-2.56,1.78-.14,0-.4.02-.4.48,0,.17.12.26.31.26.76,0,1.59-.07,2.38-.07s1.66.07,2.45.07c.12,0,.43,0,.43-.48,0-.24-.21-.26-.48-.26-1.38-.05-1.57-.57-1.57-1.05,0-.17.02-.28.1-.55l3.14-12.54c.1.14.1.19.21.43l5.92,13.99c.17.4.24.45.45.45.26,0,.26-.07.38-.5l3.32-13.23"/>
    </g>
    <polygon points="521.06 162.78 521.06 162.78 521.06 162.78 521.06 162.78 521.06 162.78 521.06 162.78 521.06 162.78 521.06 162.78 521.06 162.78 521.06 162.78 521.06 162.78 521.06 162.78 521.06 162.78 521.06 162.78 521.06 162.78 521.06 162.78 521.06 162.78 521.06 162.78 521.06 162.78 521.06 162.78 521.06 162.78 521.06 162.78 521.06 162.78 521.06 162.78 521.06 162.78 521.06 162.78 521.06 162.78 521.06 162.78 521.06 162.78 521.06 162.78 521.06 162.78 521.06 162.78 521.06 162.78 521.06 162.78 521.06 162.78 521.06 162.78 521.06 162.78 521.06 162.78 521.06 162.78 521.06 162.78 521.06 162.78 521.06 162.78 521.06 162.78 521.06 162.78 521.06 162.78 521.06 162.78 521.06 162.78 521.06 162.78 521.06 162.78 521.06 162.78 521.06 162.78 521.06 162.78 521.06 162.78 521.06 162.78 521.06 162.78 521.06 162.78 521.06 162.78 521.06 162.78 521.06 162.78 521.06 162.78 521.06 162.78 521.06 162.78 521.06 162.78 521.06 162.78 521.06 162.78 521.06 162.78 521.06 162.78 521.06 162.78 521.06 162.78 521.06 162.78 521.06 162.78 521.06 162.78 521.06 162.78 521.06 162.78 521.06 162.78 521.06 162.78 521.06 162.78 521.06 162.78 521.06 162.78 521.06 162.78 521.06 162.78 521.06 162.78 521.06 162.78 521.06 162.78 521.06 162.78 521.06 162.78 521.06 162.78 521.06 162.78 521.06 162.78 521.06 162.78 521.06 162.78 521.06 162.78 521.06 162.78 521.06 162.78 521.06 162.78 521.06 162.78 521.06 162.78 521.06 162.78" fill="none" opacity="0" stroke="#000" stroke-miterlimit="10"/>
    <g>
      <line x1="573.72" y1="179.17" x2="560.86" y2="211.46" fill="none" stroke="#000" stroke-miterlimit="10" stroke-width="2"/>
      <line x1="588.64" y1="179.72" x2="601.51" y2="212.01" fill="none" stroke="#000" stroke-miterlimit="10" stroke-width="2"/>
      <g>
        <g>
          <path d="M553.06,211.73h12.98c4.53,0,8.2,3.68,8.2,8.2v12.98c0,4.53-3.68,8.2-8.2,8.2h-12.98c-4.53,0-8.2-3.68-8.2-8.2v-12.98c0-4.53,3.68-8.2,8.2-8.2Z" fill="#c8daf9"/>
          <path d="M566.04,212.23c4.25,0,7.7,3.46,7.7,7.7v12.98c0,4.25-3.46,7.7-7.7,7.7h-12.98c-4.25,0-7.7-3.46-7.7-7.7v-12.98c0-4.25,3.46-7.7,7.7-7.7h12.98M566.04,211.23h-12.98c-4.79,0-8.7,3.92-8.7,8.7v12.98c0,4.79,3.92,8.7,8.7,8.7h12.98c4.79,0,8.7-3.92,8.7-8.7v-12.98c0-4.79-3.92-8.7-8.7-8.7h0Z"/>
        </g>
        <path d="M566.62,220.23c.13-.44.13-.5.13-.72,0-.56-.44-.84-.91-.84-.31,0-.81.19-1.09.65-.06.16-.31,1.12-.44,1.69-.22.81-.44,1.65-.62,2.5l-1.41,5.62c-.12.47-1.47,2.65-3.53,2.65-1.59,0-1.94-1.37-1.94-2.53,0-1.44.53-3.37,1.59-6.12.5-1.28.62-1.62.62-2.25,0-1.4-1-2.56-2.56-2.56-2.97,0-4.12,4.53-4.12,4.81,0,.31.31.31.38.31.31,0,.34-.06.5-.56.84-2.94,2.09-3.87,3.15-3.87.25,0,.78,0,.78,1,0,.78-.31,1.59-.53,2.19-1.25,3.31-1.81,5.09-1.81,6.56,0,2.78,1.97,3.72,3.81,3.72,1.22,0,2.28-.53,3.15-1.4-.41,1.62-.78,3.15-2.03,4.81-.81,1.06-2,1.97-3.43,1.97-.44,0-1.84-.09-2.37-1.31.5,0,.91,0,1.34-.38.31-.28.62-.69.62-1.28,0-.97-.84-1.09-1.16-1.09-.72,0-1.75.5-1.75,2.03s1.37,2.72,3.31,2.72c3.22,0,6.43-2.84,7.31-6.37l3-11.93"/>
      </g>
      <polygon points="603.23 228.6 603.23 228.6 603.23 228.6 603.23 228.6 603.23 228.6 603.23 228.6 603.23 228.6 603.23 228.6 603.23 228.6 603.23 228.6 603.23 228.6 603.23 228.6 603.23 228.6 603.23 228.6 603.23 228.6 603.23 228.6 603.23 228.6 603.23 228.6 603.23 228.6 603.23 228.6 603.23 228.6 603.23 228.6 603.23 228.6 603.23 228.6 603.23 228.6 603.23 228.6 603.23 228.6 603.23 228.6 603.23 228.6 603.23 228.6 603.23 228.6 603.23 228.6 603.23 228.6 603.23 228.6 603.23 228.6 603.23 228.6 603.23 228.6 603.23 228.6 603.23 228.6 603.23 228.6 603.23 228.6 603.23 228.6 603.23 228.6 603.23 228.6 603.23 228.6 603.23 228.6 603.23 228.6 603.23 228.6 603.23 228.6 603.23 228.6 603.23 228.6 603.23 228.6 603.23 228.6 603.23 228.6 603.23 228.6 603.23 228.6 603.23 228.6 603.23 228.6 603.23 228.6 603.23 228.6 603.23 228.6 603.23 228.6 603.23 228.6 603.23 228.6 603.23 228.6 603.23 228.6 603.23 228.6 603.23 228.6 603.23 228.6 603.23 228.6 603.23 228.6 603.23 228.6 603.23 228.6 603.23 228.6 603.23 228.6 603.23 228.6 603.23 228.6 603.23 228.6 603.23 228.6 603.23 228.6 603.23 228.6 603.23 228.6 603.23 228.6 603.23 228.6 603.23 228.6 603.23 228.6 603.23 228.6 603.23 228.6 603.23 228.6 603.23 228.6 603.23 228.6 603.23 228.6 603.23 228.6 603.23 228.6 603.23 228.6 603.23 228.6 603.23 228.6 603.23 228.6" fill="none" opacity="0" stroke="#000" stroke-miterlimit="10"/>
      <g>
        <g>
          <g>
            <rect x="588.76" y="211.23" width="30.39" height="30.39" rx="8.7" ry="8.7" fill="#c8daf9"/>
            <path d="M610.45,211.23h-4v1h4v-1h0ZM602.45,211.23h-4v1h4v-1h0ZM594.51,211.75c-1.27.46-2.4,1.21-3.32,2.17l.72.69c.82-.86,1.84-1.52,2.94-1.92l-.34-.94h0ZM589.16,217.33c-.09.3-.17.6-.23.91,0,0,0,0,0,0,0,0,0,.01,0,.02,0,0,0,0,0,0,0,0,0,.01,0,.02,0,0,0,0,0,0,0,0,0,0,0,0,0,0,0,0,0,0,0,0,0,0,0,.01h0s0,0,0,0c0,0,0,0,0,0,0,0,0,0,0,.01t0,0s0,0,0,0c0,0,0,0,0,0,0,0,0,0,0,.01,0,0,0,0,0,0,0,0,0,0,0,0,0,0,0,0,0,0,0,0,0,0,0,.01,0,0,0,0,0,0,0,0,0,0,0,0,0,0,0,0,0,0,0,0,0,0,0,0h0s0,0,0,0h0s0,0,0,0c0,0,0,0,0,0,0,0,0,0,0,0,0,0,0,0,0,0,0,0,0,0,0,0h0s0,0,0,0c0,0,0,0,0,0,0,0,0,0,0,0h0s0,0,0,.01c0,0,0,0,0,0,0,0,0,0,0,0,0,0,0,0,0,0,0,0,0,0,0,0,0,0,0,0,0,0,0,0,0,0,0,0,0,0,0,0,0,0,0,0,0,0,0,0,0,0,0,0,0,0,0,0,0,0,0,0,0,0,0,0,0,0,0,0,0,0,0,.01,0,0,0,0,0,0,0,0,0,0,0,0,0,0,0,0,0,0,0,0,0,0,0,0,0,0,0,0,0,0,0,0,0,0,0,0,0,0,0,0,0,0,0,0,0,0,0,0,0,0,0,0,0,0,0,0,0,0,0,0,0,0,0,0,0,0,0,0,0,0,0,0,0,0,0,0,0,0,0,0,0,0,0,0,0,0,0,0,0,0,0,0,0,0,0,0,0,0,0,0,0,0,0,0,0,0,0,0,0,0,0,0,0,0,0,0,0,0,0,0,0,0,0,0,0,0,0,0,0,0,0,0,0,0,0,0,0,0,0,0,0,0,0,0,0,0,0,0,0,0,0,0,0,0,0,0,0,0,0,0,0,0,0,0,0,0,0,0,0,0,0,0,0,0,0,0,0,0,0,0,0,0,0,0,0,0,0,0,0,0,0,0,0,0,0,0,0,0,0,0,0,0,0,0,0,0,0,0,0,0,0,0,0,0,0,0,0,0,0,0,0,0,0,0,0,0,0,0,0,0,0,0,0,0,0,0,0,0,0,0,0,0,0,0,0,0,0,0,0,0,0,0,0,0,0,0,0,0,0,0,0,0,0,0,0,0,0,0,0,0,0,0,0,0,0,0,0,0,0,0,0,0,0,0,0,0,0,0,0,0,0,0,0,0,0,0,0,0,0,0,0,0,0,0,0,0,0,0,0,0,0,0,0,0,0,0,0,0,0,0,0,0,0,0,0,0,0,0,0,0,0,0,0,0,0,0,0,0,0,0,0,0,0,0,0,0,0,0,0,0,0,0,0,0,0,0,0,0,0,0,0,0,0,0,0,0,0,0,0,0,0,0,0,0,0,0,0,0,0,0,0,0,0,0,0,0,0,0,0,0,0,0,0,0,0,0,0,0,0,0,0,0,0,0,0,0,0,0,0,0,0,0,0,0,0,0,0,0,0,0,0,0,0,0,0,0,0,0,0,0,0,0,0,0,0,0,0,0h0s0,0,0,0c0,0,0,0,0,0,0,0,0,0,0,0,0,0,0,0,0,0,0,0,0,0,0,0,0,0,0,0,0,0,0,0,0,0,0,0,0,0,0,0,0,0,0,0,0,0,0,0,0,0,0,0,0,0,0,0,0,0,0,0,0,0,0,0,0,0,0,0,0,0,0,0,0,0,0,0,0,0,0,0,0,0,0,0,0,0,0,0,0,0,0,0,0,0,0,0,0,0,0,0,0,0,0,0,0,0,0,0,0,0,0,0,0,0,0,0,0,0,0,0,0,0,0,0,0,0,0,0,0,0,0,0,0,0,0,0,0,0,0,0,0,0,0,0,0,0,0,0,0,0,0,0,0,0,0,0,0,0,0,0,0,0,0,0,0,0,0,0,0,0,0,0,0,0,0,0,0,0,0,0,0,0,0,0,0,0,0,0,0,0,0,0,0,0,0,0,0,0,0,0,0,0,0,0,0,0,0,0,0,0,0,0,0,0,0,0,0,0,0,0,0,0,0,0,0,0,0,0,0,0,0,0,0,0h0s0,0,0,0c0,0,0,0,0,.01,0,0,0,0,0,0,0,0,0,0,0,0,0,0,0,0,0,0,0,0,0,0,0,.01,0,0,0,0,0,0,0,0,0,0,0,0,0,0,0,0,0,0,0,0,0,0,0,.01,0,0,0,0,0,0,0,0,0,0,0,0,0,0,0,0,0,0,0,0,0,0,0,.01h0s0,0,0,0c0,0,0,0,0,0,0,0,0,0,0,0,0,0,0,0,0,0,0,0,0,0,0,0,0,0,0,0,0,0,0,0,0,0,0,0,0,0,0,0,0,0,0,0,0,0,0,0,0,0,0,0,0,0,0,0,0,0,0,0,0,0,0,0,0,0,0,0,0,0,0,0,0,0,0,0,0,0,0,0,0,0,0,0,0,0,0,0,0,0,0,0,0,0,0,0,0,0,0,0,0,0,0,0,0,0,0,0,0,0,0,0,0,0,0,0,0,0,0,0,0,0,0,0,0,0,0,0,0,0,0,0h0s0,0,0,0c0,0,0,0,0,0,0,0,0,0,0,0,0,0,0,0,0,0,0,0,0,0,0,0h0s0,0,0,0c0,0,0,0,0,0,0,0,0,0,0,0,0,0,0,0,0,0,0,0,0,0,0,0h0s0,0,0,0c0,0,0,0,0,0,0,0,0,0,0,0,0,0,0,0,0,0,0,0,0,0,0,0h0s0,0,0,0c0,0,0,0,0,0,0,0,0,0,0,0,0,0,0,0,0,0,0,0,0,0,0,0h0s0,0,0,0h0s0,0,0,0c0,0,0,0,0,0,0,0,0,0,0,0h0s0,0,0,0c0,0,0,0,0,0,0,0,0,0,0,0,0,0,0,0,0,0,0,0,0,0,0,0,0,0,0,0,0,0,0,0,0,0,0,0h0s0,0,0,0c0,0,0,0,0,0,0,0,0,0,0,0,0,0,0,0,0,0,0,0,0,0,0,0,0,0,0,0,0,0,0,0,0,0,0,0,0,0,0,0,0,0,0,0,0,0,0,0h0s0,0,0,.01h0s0,0,0,0c0,0,0,0,0,0,0,0,0,0,0,.01,0,0,0,0,0,0,0,0,0,0,0,0,0,0,0,0,0,0,0,0,0,0,0,.01,0,0,0,0,0,0,0,0,0,0,0,0,0,0,0,0,0,0,0,0,0,0,0,.01h0s0,0,0,0c0,0,0,0,0,0,0,0,0,0,0,.01,0,0,0,0,0,0,0,0,0,0,0,0,0,0,0,0,0,0,0,0,0,0,0,0h0s0,0,0,0h0s0,0,0,0c0,0,0,0,0,0,0,0,0,0,0,.01,0,0,0,0,0,0,0,0,0,0,0,0,0,0,0,0,0,0,0,0,0,0,0,0h0s0,0,0,0h0s0,0,0,0h0s0,0,0,0h0s0,0,0,0h0s0,0,0,0c0,0,0,0,0,0,0,0,0,0,0,0h0s0,0,0,.01c0,0,0,0,0,0,0,0,0,0,0,0h0s0,0,0,.01c0,0,0,0,0,0,0,0,0,0,0,0,0,0,0,0,0,0,0,0,0,0,0,.01,0,0,0,0,0,0,0,0,0,0,0,0,0,0,0,0,0,0,0,0,0,0,0,0h0s0,0,0,0c0,0,0,0,0,0,0,0,0,0,0,0,0,0,0,0,0,0,0,0,0,0,0,0h0s0,0,0,0h0s0,0,0,0h0s0,0,0,0h0s0,0,0,0h0s0,0,0,0c0,0,0,0,0,0,0,0,0,0,0,0,0,0,0,0,0,0,0,0,0,0,0,0,0,0,0,0,0,0,0,0,0,0,0,0,0,0,0,0,0,0,0,0,0,0,0,0h0s0,0,0,0h0s0,0,0,0c0,0,0,0,0,0,0,0,0,0,0,0h0s0,0,0,0c0,0,0,0,0,0,0,0,0,0,0,0h0s0,0,0,0c0,0,0,0,0,0,0,0,0,0,0,.01,0,0,0,0,0,0,0,0,0,0,0,0,0,0,0,0,0,0,0,0,0,0,0,.01h0s0,0,0,0c0,0,0,0,0,0,0,0,0,0,0,.01h0s0,0,0,0c0,0,0,0,0,0,0,0,0,0,0,0h0s0,0,0,0h0s0,0,0,0c0,0,0,0,0,0,0,0,0,0,0,0,0,0,0,0,0,0,0,0,0,0,0,0,0,0,0,0,0,0,0,0,0,0,0,0h0s0,0,0,0h0s0,0,0,0h0s0,0,0,0c0,0,0,0,0,0,0,0,0,0,0,0h0s0,0,0,0c0,0,0,0,0,0,0,0,0,0,0,0h0s0,0,0,0c0,0,0,0,0,0,0,0,0,0,0,0h0s0,0,0,0c0,0,0,0,0,0h0s0,0,0,0c0,0,0,0,0,0h0s0,0,0,0h0s0,0,0,0c0,0,0,0,0,0,0,0,0,0,0,.01h0s0,0,0,0h0s0,0,0,0h0s0,0,0,0h0s0,0,0,0h0s0,0,0,0h0s0,0,0,0h0s0,.01,0,.01h0s0,0,0,0h0s0,0,0,0h0s0,.01,0,.01h0s0,.01,0,.01h0s0,.02,0,.02h0v.02h0s0,0,0,0h0v.02h0v1.37h1v-1.35c0-.79.12-1.56.35-2.3l-.95-.3h0ZM589.76,225.29h-1v4h1v-4h0ZM589.77,233.25l-1,.04c0,.13.01.26.03.39h0s0,0,0,0h0s0,.03,0,.04h0s0,0,0,0c0,0,0,0,0,0,0,0,0,0,0,0h0s0,.02,0,.02h0s0,0,0,0t0,0s0,0,0,0c0,0,0,0,0,0,0,0,0,0,0,0,0,0,0,0,0,0,0,0,0,0,0,0h0s0,.01,0,.02c0,0,0,0,0,0,0,0,0,0,0,0,0,0,0,0,0,0,0,0,0,0,0,0,0,0,0,0,0,0,0,0,0,0,0,0,0,0,0,0,0,0,0,0,0,0,0,0,0,0,0,0,0,0,0,0,0,.01,0,.02,0,0,0,0,0,0,0,0,0,0,0,0,0,0,0,0,0,0,0,0,0,0,0,0,0,0,0,0,0,0,0,0,0,0,0,0,0,0,0,0,0,0,0,0,0,0,0,0,0,0,0,0,0,0h0s0,0,0,0c0,0,0,0,0,0,0,0,0,0,0,0,0,0,0,0,0,0,0,0,0,0,0,0,0,0,0,0,0,0,0,0,0,0,0,0,0,0,0,0,0,0,0,0,0,0,0,0,0,0,0,0,0,0,0,0,0,0,0,0,0,0,0,0,0,0,0,0,0,0,0,0,0,0,0,0,0,0,0,0,0,0,0,0,0,0,0,0,0,0,0,0,0,0,0,0,0,0,0,0,0,0,0,0,0,0,0,0,0,0,0,0,0,0,0,0,0,0,0,0,0,0,0,0,0,0,0,0,0,0,0,0,0,0,0,0,0,0,0,0,0,0,0,0,0,0,0,0,0,0,0,0,0,0,0,0,0,0,0,0,0,0,0,0,0,0,0,0,0,0,0,0,0,0,0,0,0,0,0,0,0,0,0,0,0,0,0,0,0,0,0,0,0,0,0,0,0,0,0,0,0,0,0,0,0,0,0,0,0,0,0,0,0,0,0,0,0,0,0,0,0,0,0,0,0,0,0,0,0,0,0,0,0,0,0,0,0,0,0,0,0,0,0,0,0,0,0,0,0,0,0,0,0,0,0,0,0,0,0,0,0,0,0,0,0,0,0,0,0,0,0,0,0,0,0,0,0,0,0,0,0,0,0,0,0,0,0,0,0,0,0,0,0,0,0,0,0,0,0,.01,0,0,0,0,0,0,0,0,0,0,0,0,0,0,0,0,0,0,0,0,0,0,0,0,0,0,0,0,0,0,0,0,0,0,0,0h0s0,0,0,0c0,0,0,0,0,0,0,0,0,0,0,0,0,0,0,0,0,0,0,0,0,.01,0,.02,0,0,0,0,0,0,0,0,0,0,0,0,0,0,0,0,0,0,0,0,0,0,0,0,0,0,0,0,0,0,0,0,0,0,0,0,0,0,0,0,0,0,0,0,0,0,0,0h0s0,.01,0,.02c0,0,0,0,0,0,0,0,0,0,0,0,0,0,0,0,0,0,0,0,0,0,0,0,0,0,0,0,0,0,0,0,0,0,0,0,0,0,0,0,0,0,0,0,0,0,0,0,0,0,0,0,0,0,0,0,0,.01,0,.02,0,0,0,0,0,0,0,0,0,0,0,0,0,0,0,0,0,0,0,0,0,0,0,0,0,0,0,0,0,0,0,0,0,0,0,0,0,0,0,0,0,0,0,0,0,0,0,0h0s0,.02,0,.03c0,0,0,0,0,0,0,0,0,0,0,0,0,0,0,0,0,0,0,0,0,0,0,0,0,0,0,0,0,0,0,0,0,0,0,0,0,0,0,0,0,0,0,0,0,.02,0,.03,0,0,0,0,0,0,0,0,0,0,0,0,0,0,0,0,0,0,0,0,0,0,0,0,0,0,0,0,0,0,0,0,0,0,0,0,0,0,0,0,0,0,0,0,0,.02,0,.03h0s0,0,0,0c0,0,0,0,0,0,0,0,0,0,0,0,0,0,0,0,0,0,0,0,0,0,0,0h0s0,.02,0,.03c0,0,0,0,0,0,0,0,0,0,0,0,0,0,0,0,0,0,0,0,0,0,0,0,0,0,0,0,0,0,0,0,0,0,0,0,0,0,0,0,0,0,0,.01,0,.02,0,.03,0,0,0,0,0,0,0,0,0,0,0,0,0,0,0,0,0,0,0,0,0,0,0,0,0,0,0,0,0,0,0,.01,0,.02,0,.03h0s0,0,0,0c0,0,0,0,0,0,0,0,0,0,0,0,0,0,0,0,0,0,0,.01,0,.02,0,.03,0,0,0,0,0,0,0,0,0,0,0,0,0,0,0,0,0,0,0,0,0,0,0,0,0,0,0,0,0,0,0,.01,0,.02,0,.03,0,0,0,0,0,0,0,0,0,0,0,0,0,0,0,0,0,0,0,0,0,0,0,0,0,0,0,0,0,0,0,0,0,0,0,0,0,0,0,0,0,0,0,0,0,.02,0,.03,0,0,0,0,0,0,0,0,0,0,0,0,0,0,0,0,0,0,0,0,0,0,0,0,0,0,0,0,0,0,0,0,0,0,0,0,0,0,0,0,0,0v.03s0,0,0,0c0,0,0,0,0,0,0,0,0,0,0,0,0,0,0,0,0,0h0s0,.02,0,.03h0s0,0,0,0c0,0,0,0,0,0,0,.01,0,.03,0,.04,0,0,0,0,0,0,0,0,0,0,0,0,0,0,0,0,0,0,0,0,0,0,0,0,0,0,0,0,0,0,0,.01,0,.02,0,.03,0,0,0,0,0,0,0,0,0,0,0,0,0,0,0,0,0,0,0,0,0,0,0,0,0,0,0,0,0,0,0,.01,0,.02,0,.03h0s0,0,0,0c0,0,0,0,0,0,0,0,0,0,0,0,0,0,0,0,0,0,0,.01,0,.03,0,.04,0,0,0,0,0,0,0,0,0,0,0,0,0,0,0,0,0,0,0,0,0,0,0,0h0s0,.02,0,.03c0,0,0,0,0,0,0,0,0,0,0,0,0,0,0,0,0,0,0,.01,0,.03,0,.04,0,0,0,0,0,0,0,0,0,0,0,0,0,0,0,0,0,0,0,0,0,0,0,0,0,0,0,0,0,0,0,.01,0,.02,0,.03,0,0,0,0,0,0,0,0,0,0,0,0,0,0,0,0,0,0,0,0,0,0,0,0,0,0,0,0,0,0,0,.01,0,.02,0,.03,0,0,0,0,0,0,0,0,0,0,0,0,0,0,0,0,0,0,0,0,0,0,0,0,0,0,0,0,0,0,0,.01,0,.02,0,.03,0,0,0,0,0,0,0,0,0,0,0,0h0s0,0,0,0c0,0,0,0,0,0,0,.01,0,.02,0,.03h0s0,0,0,0c0,0,0,0,0,0,0,0,0,0,0,0,0,0,0,0,0,0,0,0,0,0,0,0h0s0,.02,0,.03h0s0,0,0,0c0,0,0,0,0,0,0,0,0,0,0,0,0,0,0,0,0,0,0,0,0,0,0,0t0,0s0,.02,0,.03h0s0,0,0,0c0,0,0,0,0,0,0,0,0,0,0,0,0,0,0,0,0,0,0,0,0,0,0,0,0,0,0,0,0,0,0,.01,0,.02,0,.03,0,0,0,0,0,0,0,0,0,0,0,0,0,0,0,0,0,0,0,0,0,0,0,0,0,0,0,0,0,0,0,.01,0,.02,0,.03,0,0,0,0,0,0,0,0,0,0,0,0,0,0,0,0,0,0,0,0,0,0,0,0,0,0,0,0,0,0,0,0,0,0,0,0,0,0,0,0,0,0,0,0,0,.02,0,.02,0,0,0,0,0,0,0,0,0,0,0,0,0,0,0,0,0,0,0,0,0,0,0,0,0,0,0,0,0,0,0,0,0,0,0,0,0,0,0,0,0,0,0,0,0,.02,0,.02,0,0,0,0,0,0,0,0,0,0,0,0,0,0,0,0,0,0,0,0,0,0,0,0,0,0,0,0,0,0,0,0,0,0,0,0,0,0,0,0,0,0,0,0,0,.02,0,.02,0,0,0,0,0,0,0,0,0,0,0,0,0,0,0,0,0,0,0,0,0,0,0,0,0,0,0,0,0,0,0,0,0,0,0,0,0,0,0,0,0,0,0,0,0,0,0,0,0,0,0,0,0,0,0,0,0,.01,0,.02,0,0,0,0,0,0,0,0,0,0,0,0,0,0,0,0,0,0,0,0,0,0,0,0,0,0,0,0,0,0,0,0,0,0,0,0,0,0,0,0,0,0,0,0,0,.02,0,.02,0,0,0,0,0,0,0,0,0,0,0,0,0,0,0,0,0,0,0,0,0,0,0,0,0,0,0,0,0,0,0,0,0,0,0,0,0,0,0,0,0,0,0,0,0,0,0,0,0,0,0,0,0,0,0,0,0,.01,0,.02,0,0,0,0,0,0,0,0,0,0,0,0,0,0,0,0,0,0,0,0,0,0,0,0,0,0,0,0,0,0,0,0,0,0,0,0,0,0,0,0,0,0,0,0,0,0,0,0h0s0,.02,0,.02c0,0,0,0,0,0,0,0,0,0,0,0,0,0,0,0,0,0,0,0,0,0,0,0,0,0,0,0,0,0,0,0,0,0,0,0,0,0,0,0,0,0,0,0,0,.02,0,.02,0,0,0,0,0,0,0,0,0,0,0,0,0,0,0,0,0,0,0,0,0,0,0,0,0,0,0,0,0,0,0,0,0,0,0,0,0,0,0,0,0,0,0,0,0,.02,0,.02,0,0,0,0,0,0,0,0,0,0,0,0,0,0,0,0,0,0,0,0,0,0,0,0,0,0,0,0,0,0,0,0,0,0,0,0,0,0,0,0,0,0,0,0,0,.02,0,.02,0,0,0,0,0,0,0,0,0,0,0,0,0,0,0,0,0,0,0,0,0,0,0,0,0,0,0,0,0,0,0,0,0,0,0,0,0,0,0,0,0,0,0,0,0,0,0,0,0,0,0,0,0,0,0,0,0,.01,0,.02,0,0,0,0,0,0,0,0,0,0,0,0,0,0,0,0,0,0,0,0,0,0,0,0,0,0,0,0,0,0,0,0,0,0,0,0,0,0,0,0,0,0,0,0,0,.02.01.03,0,0,0,0,0,0,0,0,0,0,0,0,0,0,0,0,0,0,0,0,0,0,0,0,0,0,0,0,0,0,0,0,0,0,0,0,0,0,0,0,0,0,0,0,0,.02,0,.02,0,0,0,0,0,0,0,0,0,0,0,0,0,0,0,0,0,0,0,0,0,0,0,0,0,0,0,0,0,0,0,0,0,0,0,0,0,0,0,0,0,0,0,0,0,.02,0,.02,0,0,0,0,0,0,0,0,0,0,0,0,0,0,0,0,0,0,0,0,0,0,0,0,0,0,0,0,0,0h0s0,0,0,0c0,0,0,.02,0,.02h0s0,0,0,0c0,0,0,0,0,0,0,0,0,0,0,0,0,0,0,0,0,0,0,0,0,0,0,0,0,0,0,0,0,0,0,.01,0,.02.01.03,0,0,0,0,0,0,0,0,0,0,0,0h0s0,0,0,0t0,0s0,.02.02.04h0s.02.06.04.09c0,0,0,0,0,0,.12.28.25.55.39.81l.88-.48c-.58-1.05-.9-2.18-.95-3.37h0ZM593.07,239.23l-.57.82c.07.05.15.1.22.15h0s.02.01.03.02c0,0,0,0,0,0,0,0,0,0,0,0,0,0,0,0,0,0,0,0,.02.01.03.02,0,0,0,0,0,0,0,0,0,0,0,0,0,0,0,0,0,0,0,0,0,0,0,0,0,0,0,0,0,0,0,0,.02.01.03.02,0,0,0,0,0,0,0,0,0,0,0,0,0,0,0,0,0,0,0,0,0,0,0,0,0,0,0,0,0,0,0,0,.01,0,.02.01,0,0,0,0,0,0,0,0,0,0,0,0,0,0,0,0,0,0,0,0,0,0,0,0,0,0,0,0,0,0,0,0,0,0,0,0,0,0,0,0,0,0,0,0,0,0,0,0h0s.01,0,.02,0c0,0,0,0,0,0,0,0,0,0,0,0,0,0,0,0,0,0,0,0,0,0,0,0h0s0,0,0,0c0,0,0,0,0,0,0,0,.01,0,.02,0,0,0,0,0,0,0,0,0,0,0,0,0,0,0,0,0,0,0,0,0,0,0,0,0,0,0,0,0,0,0,0,0,0,0,0,0,0,0,0,0,0,0,0,0,0,0,0,0,0,0,0,0,0,0,0,0,0,0,.01,0,0,0,0,0,0,0,0,0,0,0,0,0,0,0,0,0,0,0,0,0,0,0,0,0,0,0,0,0,0,0,0,0,0,0,0,0,0,0,0,0,0,0,0,0,0,0,0,0,0,0,0,0,0,0,0,0,0,0,0,0,0,0,0,0,0,0,0,0,0,0,0,0,0,0,0,0,0,0,0,0,0,0,0,0,0,0,0,0,0,0,0,0,0,0,0,0,0,0,0,0,0,0,0,0,0,0,0,0,0,0,0,0,0,0,0,0,0,0,0,0,0,0,0,0,0,0h0s0,0,0,0c0,0,0,0,0,0,0,0,0,0,0,0,0,0,0,0,0,0,0,0,0,0,0,0,0,0,0,0,0,0,0,0,0,0,0,0,0,0,0,0,0,0,0,0,0,0,0,0,0,0,0,0,.01,0,0,0,0,0,0,0,0,0,0,0,0,0,0,0,0,0,0,0h0s0,0,0,0c0,0,0,0,0,0,0,0,0,0,0,0,0,0,0,0,0,0,0,0,0,0,0,0,0,0,0,0,.01,0,0,0,0,0,0,0,0,0,0,0,0,0,0,0,0,0,0,0,0,0,0,0,0,0,0,0,0,0,0,0,0,0,0,0,0,0h0s0,0,0,0c0,0,0,0,0,0,0,0,0,0,0,0,0,0,0,0,0,0,0,0,0,0,0,0,0,0,0,0,0,0,0,0,0,0,0,0,0,0,0,0,0,0,0,0,0,0,0,0,0,0,0,0,0,0,0,0,0,0,0,0,0,0,0,0,0,0,0,0,0,0,.01,0,0,0,0,0,0,0,0,0,0,0,0,0,0,0,0,0,0,0,0,0,0,0,0,0,0,0,0,0,0,0,0,0,0,0,0,0,0,0,0,0,0,0,0,0,0,0,0,0,0,0,0,0,0,0,0,0,0,0,.01,0,0,0,0,0,0,0,0,0,0,0,0,0,0,0,0,0,0,0,0,0,0,0,0,0,0,0,0,0,0,0,0,0,0,0,0,0,0,0,0,0,0,0,0,0,0,0,0,0,0,0,0,0,0,0,0,0,0,0,0,0h0s0,0,0,0c0,0,0,0,0,0,0,0,0,0,0,0,0,0,0,0,0,0,0,0,0,0,0,0,0,0,0,0,0,0,0,0,0,0,0,0,0,0,0,0,0,0,0,0,0,0,.01,0,0,0,0,0,0,0,0,0,0,0,0,0,0,0,0,0,0,0,0,0,0,0,0,0h0s0,0,0,0h0s0,0,0,0c0,0,0,0,0,0,0,0,0,0,.01,0h0s0,0,0,0c0,0,0,0,0,0,0,0,0,0,0,0,0,0,0,0,0,0,0,0,0,0,0,0,0,0,0,0,0,0,0,0,0,0,0,0,0,0,0,0,0,0,0,0,.01,0,.02,0,0,0,0,0,0,0,0,0,0,0,0,0,0,0,0,0,0,0,0,0,0,0,0,0,0,0,0,0,0,0,0,0,0,0,0,0,0,0,0,0,0,0,0,0,0,0,0,0,0,0,0,0,0,0,0,0,.01,0,.02,0,0,0,0,0,0,0,0,0,0,0,0,0,0,0,0,0,0,0,0,0,0,0,0,0,0,0,0,0,0,0,0,0,0,0,0,0,0,0,0,0,0,0,0,0,.01,0,.02,0,0,0,0,0,0,0,0,0,0,0,0,0,0,0,0,0,0,0,0,0,0,0,0,0,0,0,0,0,0,0,0,0,0,0,0,0,0,0,0,0,0,0,0,0,0,0,0,0,0,0,0,0,0,0,0,0,.01,0,.02,0,0,0,0,0,0,0,0,0,0,0,0,0,0,0,0,0,0,0,0,0,0,0,0,0,0,0,0,0,0,0,0,0,0,0,0,0h0s.01,0,.02.01c0,0,0,0,0,0,0,0,0,0,0,0,0,0,0,0,0,0,0,0,0,0,0,0,0,0,0,0,0,0,0,0,0,0,0,0,0,0,0,0,0,0,0,0,.02,0,.02.01,0,0,0,0,0,0,0,0,0,0,0,0h0s0,0,0,0h0s0,0,0,0c0,0,0,0,0,0,0,0,.02,0,.02.01,0,0,0,0,0,0,0,0,0,0,0,0,0,0,0,0,0,0,0,0,0,0,0,0,0,0,0,0,0,0,.01,0,.02.01.04.02,0,0,0,0,0,0,.01,0,.02.01.04.02,0,0,0,0,0,0,.77.37,1.6.63,2.47.76l.15-.99c-1.16-.17-2.29-.62-3.26-1.3h0ZM604.18,240.62h-4v1h4v-1h0ZM611.97,240.47c-.5.1-1.01.15-1.52.15h-2.27v1h2.29s0,0,0,0h0s0,0,0,0h0s0,0,0,0h0s0,0,0,0h0s0,0,0,0c0,0,0,0,0,0h0s0,0,0,0c0,0,0,0,0,0,0,0,0,0,0,0,0,0,0,0,0,0,0,0,0,0,0,0,0,0,0,0,0,0,0,0,0,0,0,0,0,0,0,0,0,0,0,0,0,0,0,0,0,0,0,0,0,0,0,0,0,0,0,0,0,0,0,0,0,0,0,0,0,0,0,0,0,0,0,0,0,0,0,0,0,0,0,0,0,0,0,0,0,0,0,0,0,0,0,0,0,0,0,0,0,0,0,0,0,0,0,0,0,0,0,0,0,0,0,0,0,0,0,0,0,0,0,0,0,0,0,0,0,0,0,0,0,0,0,0,0,0,0,0,0,0,0,0,0,0,0,0,0,0,0,0,0,0,0,0,0,0,0,0,0,0,0,0,0,0,0,0,0,0,0,0,0,0,0,0,0,0,0,0,0,0,0,0,0,0,0,0,0,0,0,0,0,0,0,0,0,0,0,0,0,0,0,0,0,0,0,0,0,0,0,0,0,0,0,0,0,0,0,0,0,0,0,0,0,0,0,0,0,0,0,0,0,0,0,0,0,0,0,0,0,0,0,0,0,0,0,0,0,0,0,0,0,0,0,0,0,0,0,0,0,0,0,0,0,0,0,0,0,0,0,0,0,0,0,0,0,0,0,0,0,0,0,0,0,0,0,0,0,0,0,0,0,0,0,0,0,0,0,0,0,0,0,0,0,0,0,0,0,0,0,0,0,0,0,0,0,0,0,0,0,0,0,0,0,0,0,0,0,0,0,0,0,0,0,0,0,0,0,0,0,0,0,0,0,0,0,0,0,0,0,0,0,0,0,0,0,0,0,0,0,0,0,0,0,0,0,0,0,0,0,0,0,0,0,0,0,0,0,0,0,0,0,0h0s0,0,0,0h0c.43-.01.85-.06,1.27-.14h0s0,0,0,0c0,0,0,0,0,0,0,0,0,0,0,0,0,0,0,0,0,0,0,0,0,0,0,0,0,0,0,0,0,0,0,0,0,0,0,0,0,0,0,0,0,0h0s0,0,0,0c0,0,0,0,0,0,0,0,0,0,0,0,0,0,0,0,0,0,0,0,0,0,0,0,0,0,0,0,0,0,0,0,0,0,0,0,0,0,0,0,0,0,0,0,0,0,0,0,0,0,0,0,0,0,0,0,0,0,0,0,0,0,0,0,0,0h0s0,0,0,0c0,0,0,0,0,0,0,0,0,0,0,0,0,0,0,0,0,0,0,0,0,0,0,0,0,0,0,0,0,0,0,0,0,0,0,0,0,0,0,0,0,0,0,0,0,0,0,0,0,0,0,0,0,0,0,0,0,0,0,0,0,0,0,0,0,0s0,0,0,0c0,0,0,0,0,0,0,0,0,0,0,0,0,0,0,0,0,0,0,0,0,0,0,0,0,0,0,0,0,0,0,0,0,0,0,0,0,0,0,0,0,0h0s0,0,.01,0l-.2-.98h0ZM617.37,236.28c-.52,1.06-1.29,2-2.22,2.72l.61.79c.36-.28.69-.58,1-.91h0s.02-.02.03-.03c0,0,0,0,0,0,0,0,0,0,0,0,0,0,0,0,0,0,0,0,.01-.01.02-.02,0,0,0,0,0,0,0,0,0,0,0,0,0,0,0,0,0,0,0,0,0,0,0,0h0s0,0,.01-.01h0s0,0,0,0c0,0,0,0,0,0,0,0,0,0,0,0,0,0,0,0,0,0,0,0,0,0,0,0,0,0,0,0,0,0,0,0,.01-.01.02-.02,0,0,0,0,0,0,0,0,0,0,0,0,0,0,0,0,0,0,0,0,0,0,0,0,0,0,0,0,0,0,0,0,.01-.01.02-.02,0,0,0,0,0,0,0,0,0,0,0,0,0,0,0,0,0,0,0,0,0,0,0,0,0,0,0,0,0,0,0,0,.01-.01.02-.02,0,0,0,0,0,0,0,0,0,0,0,0,0,0,0,0,0,0,0,0,0,0,0,0,0,0,0,0,0,0,0,0,0,0,0,0,0,0,0,0,0,0,0,0,0,0,.01-.01,0,0,0,0,0,0,0,0,0,0,0,0,0,0,0,0,0,0,0,0,0,0,0,0,0,0,0,0,0,0,0,0,0,0,0,0,0,0,0,0,0,0,0,0,0,0,.01-.01,0,0,0,0,0,0,0,0,0,0,0,0,0,0,0,0,0,0,0,0,0,0,0,0,0,0,0,0,0,0,0,0,0,0,0,0,0,0,0,0,0,0,0,0,0,0,0-.01h0s0,0,0,0c0,0,0,0,0,0,0,0,0,0,0,0,0,0,0,0,0,0,0,0,0,0,0,0,0,0,0,0,0,0,0,0,0,0,0,0h0s0,0,0,0h0s0,0,0,0c0,0,0,0,0,0h0s0,0,0,0c0,0,0,0,0,0,0,0,0,0,0,0,0,0,0,0,0,0,0,0,0,0,0,0,0,0,0,0,0-.01,0,0,0,0,0,0,0,0,0,0,0,0,0,0,0,0,0,0,0,0,0,0,0,0,0,0,0,0,0,0,0,0,0,0,0,0,0,0,0,0,0,0,0,0,0,0,0-.01,0,0,0,0,0,0,0,0,0,0,0,0,0,0,0,0,0,0,0,0,0,0,0,0,0,0,0,0,0,0,0,0,0,0,0,0,0,0,0,0,0,0,0,0,0,0,0-.01,0,0,0,0,0,0,0,0,0,0,0,0,0,0,0,0,0,0,0,0,0,0,0,0,0,0,0,0,0,0,0,0,0,0,0,0,0,0,0,0,0,0,0,0,0,0,0,0,0,0,0,0,0,0,0,0,0,0,0,0,0,0,0,0,0,0,0,0,0,0,0,0,0,0,0,0,0,0,0,0,0,0,0,0,0,0,0,0,0,0,0,0,0,0,0,0,0,0,0,0,0,0,0,0,0,0,0-.01h0s0,0,0,0c0,0,0,0,0,0,0,0,0,0,0,0,0,0,0,0,0,0,0,0,0,0,0,0,0,0,0,0,0,0,0,0,0,0,0,0,0,0,0,0,0,0,0,0,0,0,0,0,0,0,0,0,0,0,0,0,0,0,0,0,0,0,0,0,0,0,0,0,0,0,0,0,0,0,0,0,0,0,0,0,0,0,0,0,0,0,0,0,0,0,0,0,0,0,0,0,0,0,0,0,0,0,0,0,0,0,0,0h0s0,0,0,0c0,0,0,0,0,0,0,0,0,0,0,0,0,0,0,0,0,0,0,0,0,0,0,0,0,0,0,0,0,0,0,0,0,0,0,0,0,0,0,0,0,0,0,0,0,0,0-.01,0,0,0,0,0,0,0,0,0,0,0,0,0,0,0,0,0,0,0,0,0,0,0,0,0,0,0,0,0,0,0,0,0,0,0,0,0,0,0,0,0,0,0,0,0,0,0,0,0,0,0,0,0,0,0,0,0,0,0,0,0,0,0,0,0,0,0,0,0,0,0,0,0,0,0,0,0,0,0,0,0,0,0,0,0,0,0,0,0,0,0,0,0,0,0,0,0,0,0,0,0,0,0,0,0,0,0,0,0,0,0,0,0,0,0,0,0,0,0,0h0s0,0,0,0c0,0,0,0,0,0,0,0,0,0,0,0,0,0,0,0,0,0,0,0,0,0,0,0,0,0,0,0,0,0,0,0,0,0,0,0,0,0,0,0,0,0,0,0,0,0,0,0,0,0,0,0,0,0,0,0,0,0,0,0,0,0,0,0,0,0,0,0,0,0,0,0,0,0,0,0,0,0,0,0,0,0,0,0h0s0,0,0,0c0,0,0,0,0,0,0,0,0,0,0-.01,0,0,0,0,0,0,0,0,0,0,0,0,0,0,0,0,0,0,0,0,0,0,0,0,0,0,0,0,0,0,0,0,0,0,0,0,0,0,0,0,0,0,0,0,0,0,0-.01,0,0,0,0,0,0,0,0,0,0,0,0,0,0,0,0,0,0,0,0,0,0,0,0,0,0,0,0,0,0,0,0,0,0,0,0,0,0,0,0,0,0,0,0,0,0,0,0,0,0,0,0,0,0,0,0,0,0,0,0,0,0,0,0,0,0,0,0,0,0,0,0,0,0,0,0,0,0,0,0,0,0,0,0,0,0,0,0,0,0,0,0,0,0,0,0,0,0,0,0,0,0,0,0,0,0,0,0h0s0,0,0,0h0s0,0,0,0c0,0,0,0,0,0,0,0,0,0,0,0,0,0,0,0,0,0,0,0,0,0,0,0,0,0,0,0,0,0,0,0,0,0,0,0,0,0,0,0,0,0,0,0,0,0,0-.01,0,0,0,0,0,0,0,0,0,0,0,0,0,0,0,0,0,0,0,0,0,0,0,0,0,0,0,0,0,0,0,0,0,0,0,0,0,0,0,0,0,0,0,0,0,0,0-.01,0,0,0,0,0,0,0,0,0,0,0,0,0,0,0,0,0,0h0s0,0,0,0c0,0,0,0,0,0,0,0,0,0,0,0,0,0,0,0,0-.01,0,0,0,0,0,0,0,0,0,0,0,0,0,0,0,0,0,0,0,0,0,0,0,0,0,0,0,0,0,0,0,0,0,0,0,0,0,0,0,0,0,0,0,0,0,0,0-.01h0s0,0,0,0c0,0,0,0,0,0,0,0,0,0,0,0,0,0,0,0,0,0,0,0,0,0,0,0,0,0,0,0,0,0,0,0,0,0,0-.01h0s0,0,0,0c0,0,0,0,0,0,0,0,0,0,0,0,0,0,0,0,0,0,0,0,0,0,0,0h0s0,0,0,0h0s0,0,0-.01c0,0,0,0,0,0,0,0,0,0,0,0,0,0,0,0,0,0,0,0,0,0,0,0,0,0,0,0,0,0,0,0,0,0,0,0,0,0,0,0,0,0,0,0,0,0,0-.01h0s0,0,0,0c0,0,0,0,0,0,0,0,0,0,0,0,0,0,0,0,0,0,0,0,0,0,0,0h0s0,0,0-.01c0,0,0,0,0,0,0,0,0,0,0,0,0,0,0,0,0,0,0,0,0,0,0,0,0,0,0,0,0,0,0,0,0,0,0,0h0s0-.01.01-.02h0s0,0,0,0c0,0,0,0,0,0,0,0,0,0,0,0,0,0,0,0,0,0,0,0,.01-.02.02-.03h0s.01-.02.02-.03h0s0,0,0,0h0s.01-.02.02-.03h0s0,0,0,0h0s.01-.02.02-.03c0,0,0,0,0,0,0,0,.01-.02.02-.03h0s0,0,0,0h0s.01-.02.02-.03h0s.02-.03.03-.04h0s.01-.02.02-.03c0,0,0,0,0,0,.17-.26.32-.54.46-.82l-.9-.44h0ZM619.15,228.85h-1v4h1v-4h0ZM619.15,220.85h-1v4h1v-4h0ZM616.42,213.62l-.69.73c.86.81,1.53,1.83,1.94,2.93l.94-.35c-.08-.21-.17-.42-.26-.63,0,0,0,0,0,0,0-.01-.01-.02-.02-.04,0,0,0,0,0,0,0,0,0,0,0,0,0,0,0,0,0,0,0,0,0-.02-.01-.03,0,0,0,0,0,0,0,0,0,0,0,0,0,0,0,0,0,0,0,0,0,0,0,0,0,0,0,0,0,0,0,0,0-.01,0-.02,0,0,0,0,0,0,0,0,0,0,0,0,0,0,0,0,0,0,0,0,0,0,0,0,0,0,0,0,0,0,0,0,0,0,0,0,0,0,0,0,0,0,0,0,0-.01,0-.02,0,0,0,0,0,0,0,0,0,0,0,0,0,0,0,0,0,0,0,0,0,0,0,0,0,0,0,0,0,0,0,0,0,0,0,0,0,0,0,0,0,0,0,0,0,0,0,0,0,0,0,0,0,0,0,0,0-.01,0-.02,0,0,0,0,0,0,0,0,0,0,0,0,0,0,0,0,0,0,0,0,0,0,0,0,0,0,0,0,0,0,0,0,0,0,0,0,0,0,0,0,0,0,0,0,0,0,0-.01,0,0,0,0,0,0,0,0,0,0,0,0,0,0,0,0,0,0,0,0,0,0,0,0,0,0,0,0,0,0,0,0,0,0,0,0,0,0,0,0,0,0,0,0,0-.01,0-.01h0s0,0,0,0c0,0,0,0,0,0,0,0,0,0,0,0,0,0,0,0,0,0,0,0,0,0,0,0,0,0,0,0,0,0,0,0,0,0,0,0,0,0,0,0,0,0,0,0,0,0,0,0,0,0,0,0,0,0,0,0,0,0,0,0,0,0,0,0,0,0,0,0,0,0,0,0,0,0,0,0,0,0,0,0,0,0,0,0,0,0,0,0,0,0,0,0,0,0,0,0,0,0,0,0,0,0,0,0,0,0,0-.01,0,0,0,0,0,0h0s0,0,0,0h0s0,0,0,0c0,0,0,0,0,0,0,0,0,0,0,0,0,0,0,0,0-.01,0,0,0,0,0,0,0,0,0,0,0,0,0,0,0,0,0,0,0,0,0,0,0,0,0,0,0,0,0,0,0,0,0,0,0,0,0,0,0,0,0,0,0,0,0,0,0,0,0,0,0,0,0,0,0,0,0,0,0,0,0,0,0,0,0,0,0,0,0,0,0,0,0,0,0,0,0,0,0,0,0,0,0,0,0,0,0,0,0,0,0,0,0,0,0,0,0,0,0,0,0,0,0,0,0,0,0,0,0,0,0,0,0,0,0,0,0,0,0,0,0,0,0,0,0,0,0,0,0,0,0,0,0,0,0,0,0,0,0,0,0,0,0,0,0,0,0,0,0,0,0,0,0,0,0,0,0,0,0,0,0,0,0,0,0,0,0,0s0,0,0,0c0,0,0,0,0,0h0s0,0,0,0c0,0,0,0,0,0s0,0,0,0c0,0,0,0,0,0,0,0,0,0,0,0,0,0,0,0,0,0,0,0,0,0,0,0,0,0,0,0,0,0,0,0,0,0,0,0s0,0,0,0c0,0,0,0,0,0,0,0,0,0,0,0,0,0,0,0,0,0,0,0,0,0,0,0,0,0,0,0,0,0,0,0,0,0,0,0,0,0,0,0,0,0,0,0,0,0,0,0,0,0,0,0,0,0,0,0,0,0,0,0,0,0,0,0,0,0,0,0,0,0,0,0,0,0,0,0,0,0,0,0,0,0,0,0,0,0,0,0,0,0,0,0,0,0,0,0,0,0,0,0,0,0,0,0,0,0,0,0,0,0,0,0,0,0,0,0,0,0,0,0,0,0,0,0,0,0,0,0,0,0,0,0,0,0,0,0,0,0,0,0,0,0,0,0,0,0,0,0,0,0,0,0,0,0,0,0,0,0,0,0,0,0,0,0,0,0,0,0,0,0,0,0,0,0,0,0,0,0,0,0,0,0,0,0,0,0,0,0,0,0,0,0,0,0,0,0,0,0,0,0,0,0,0,0,0,0,0,0,0,0,0,0,0,0,0,0,0,0,0,0,0,0,0,0,0,0,0,0,0,0,0,0,0,0,0,0,0,0,0,0,0,0,0,0,0,0,0,0,0,0,0,0,0,0,0,0,0,0,0,0,0,0,0,0,0,0,0,0,0,0,0,0,0,0,0,0,0,0,0,0,0,0,0,0,0,0,0,0,0,0,0,0,0,0,0,0,0,0,0,0,0,0,0,0,0,0,0,0,0,0,0,0,0,0,0,0,0,0,0,0,0,0,0,0,0,0,0,0,0,0,0,0,0,0,0,0,0,0,0,0,0,0,0,0,0,0,0,0,0,0,0,0,0,0,0,0,0,0,0,0,0,0,0,0,0,0,0,0,0,0,0,0,0,0,0,0,0-.01,0,0,0,0,0,0,0,0,0,0,0,0,0,0,0,0,0,0,0,0,0,0,0,0,0,0,0,0,0,0,0,0,0,0,0,0,0,0,0,0,0,0,0,0,0-.01,0-.01,0,0,0,0,0,0,0,0,0,0,0,0,0,0,0,0,0,0,0,0,0,0,0,0,0,0,0,0,0,0,0,0,0,0,0,0,0,0,0,0,0,0,0,0,0,0,0,0,0,0,0,0,0,0,0,0,0,0,0,0,0,0,0,0,0,0,0,0,0,0,0,0,0,0,0,0,0,0,0,0,0,0,0,0,0,0,0,0,0,0,0,0,0,0,0,0,0,0,0,0,0,0,0,0,0,0,0,0,0,0,0,0,0,0,0,0,0-.01,0-.02,0,0,0,0,0,0,0,0,0,0,0,0,0,0,0,0,0,0,0,0,0,0,0,0,0,0,0,0,0,0,0,0,0,0,0,0,0,0,0,0,0,0,0,0,0-.01,0-.02,0,0,0,0,0,0,0,0,0,0,0,0,0,0,0,0,0,0,0,0,0,0,0,0,0,0,0,0,0,0,0,0,0,0,0,0,0,0,0,0,0,0,0,0,0-.01-.01-.02,0,0,0,0,0,0,0,0,0,0,0,0,0,0,0,0,0,0,0,0,0,0,0,0,0,0,0,0,0,0,0,0-.01-.02-.02-.03,0,0,0,0,0,0,0,0,0,0,0,0,0,0,0,0,0,0,0,0-.01-.02-.02-.03h0s0,0,0,0h0s-.01-.02-.02-.03h0c-.39-.61-.85-1.17-1.37-1.66h0ZM610.45,211.23v1c.77,0,1.52.11,2.25.34l.29-.96c-.1-.03-.2-.06-.29-.09h0s0,0-.01,0h0s-.05-.01-.08-.02h0s-.02,0-.03,0c0,0,0,0,0,0,0,0-.01,0-.02,0,0,0,0,0,0,0,0,0-.01,0-.02,0h0s-.01,0-.02,0c0,0,0,0,0,0,0,0-.01,0-.02,0h0s0,0-.01,0h0s0,0,0,0h0s0,0-.01,0c0,0,0,0,0,0,0,0,0,0,0,0,0,0,0,0,0,0h-.01s0,0,0,0c0,0,0,0,0,0h0s0,0-.01,0h0s-.01,0-.02,0h0s0,0-.01,0c0,0,0,0,0,0,0,0,0,0,0,0h0s0,0-.01,0c0,0,0,0,0,0,0,0,0,0,0,0,0,0,0,0,0,0,0,0,0,0-.01,0h0s0,0,0,0c0,0,0,0,0,0,0,0,0,0-.01,0,0,0,0,0,0,0,0,0,0,0,0,0h0s0,0-.01,0h0s0,0-.01,0h0s0,0,0,0c0,0,0,0,0,0,0,0,0,0-.01,0h0s0,0,0,0h0s0,0-.01,0c0,0,0,0,0,0,0,0,0,0,0,0,0,0,0,0,0,0,0,0,0,0-.01,0,0,0,0,0,0,0,0,0,0,0,0,0,0,0,0,0,0,0h-.01s0,0,0,0c0,0,0,0,0,0,0,0,0,0,0,0,0,0,0,0,0,0h0s0,0,0,0c0,0,0,0,0,0,0,0,0,0-.01,0,0,0,0,0,0,0,0,0,0,0,0,0,0,0,0,0,0,0,0,0,0,0-.01,0,0,0,0,0,0,0,0,0,0,0,0,0,0,0,0,0,0,0,0,0,0,0-.01,0,0,0,0,0,0,0,0,0,0,0,0,0,0,0,0,0,0,0,0,0,0,0-.01,0,0,0,0,0,0,0h0s0,0,0,0c0,0,0,0,0,0,0,0,0,0,0,0h0s0,0,0,0h0s0,0,0,0c0,0,0,0,0,0,0,0,0,0,0,0,0,0,0,0,0,0,0,0,0,0,0,0h0s0,0,0,0c0,0,0,0,0,0,0,0,0,0,0,0,0,0,0,0,0,0,0,0,0,0,0,0h0s0,0,0,0c0,0,0,0,0,0h0s0,0,0,0c0,0,0,0,0,0,0,0,0,0,0,0,0,0,0,0,0,0,0,0,0,0,0,0,0,0,0,0,0,0,0,0,0,0,0,0,0,0,0,0,0,0,0,0,0,0,0,0h0s0,0,0,0c0,0,0,0,0,0,0,0,0,0,0,0,0,0,0,0,0,0,0,0,0,0,0,0,0,0,0,0,0,0,0,0,0,0,0,0,0,0,0,0,0,0,0,0,0,0,0,0,0,0,0,0,0,0,0,0,0,0,0,0,0,0,0,0,0,0,0,0,0,0,0,0,0,0,0,0,0,0,0,0,0,0,0,0h0s0,0,0,0h0s0,0,0,0c0,0,0,0,0,0,0,0,0,0,0,0,0,0,0,0,0,0h0s0,0,0,0c0,0,0,0,0,0,0,0,0,0,0,0,0,0,0,0,0,0h0s0,0,0,0c0,0,0,0,0,0,0,0,0,0,0,0,0,0,0,0,0,0s0,0,0,0c0,0,0,0,0,0,0,0,0,0,0,0h0s0,0,0,0c0,0,0,0,0,0,0,0,0,0,0,0,0,0,0,0,0,0,0,0,0,0,0,0,0,0,0,0,0,0,0,0,0,0,0,0,0,0,0,0,0,0,0,0,0,0,0,0,0,0,0,0,0,0,0,0,0,0,0,0,0,0,0,0,0,0,0,0,0,0,0,0,0,0,0,0,0,0s0,0,0,0c0,0,0,0,0,0,0,0,0,0,0,0,0,0,0,0,0,0,0,0,0,0,0,0,0,0,0,0,0,0,0,0,0,0,0,0,0,0,0,0,0,0,0,0,0,0,0,0,0,0,0,0,0,0,0,0,0,0,0,0,0,0,0,0,0,0,0,0,0,0,0,0,0,0,0,0,0,0,0,0,0,0,0,0,0,0,0,0,0,0,0,0,0,0,0,0,0,0,0,0,0,0,0,0,0,0,0,0,0,0,0,0,0,0,0,0,0,0,0,0h0s0,0,0,0c0,0,0,0,0,0,0,0,0,0,0,0,0,0,0,0,0,0,0,0,0,0,0,0,0,0,0,0,0,0,0,0,0,0,0,0,0,0,0,0,0,0,0,0,0,0,0,0,0,0,0,0,0,0,0,0,0,0,0,0,0,0,0,0,0,0,0,0,0,0,0,0,0,0,0,0,0,0,0,0,0,0,0,0,0,0,0,0,0,0,0,0,0,0,0,0,0,0,0,0,0,0,0,0,0,0,0,0,0,0,0,0,0,0,0,0,0,0,0,0,0,0,0,0,0,0,0,0,0,0,0,0,0,0,0,0,0,0,0,0,0,0,0,0,0,0,0,0,0,0,0,0,0,0,0,0,0,0,0,0,0,0,0,0,0,0,0,0,0,0,0,0,0,0,0,0,0,0,0,0,0,0,0,0,0,0,0,0,0,0,0,0,0,0,0,0,0,0,0,0,0,0,0,0,0,0,0,0,0,0h0s0,0,0,0c0,0,0,0,0,0,0,0,0,0,0,0,0,0,0,0,0,0,0,0,0,0,0,0,0,0,0,0,0,0,0,0,0,0,0,0,0,0,0,0,0,0,0,0,0,0,0,0,0,0,0,0,0,0,0,0,0,0,0,0,0,0,0,0,0,0,0,0,0,0,0,0,0,0,0,0,0,0,0,0,0,0,0,0,0,0,0,0,0,0,0,0,0,0,0,0,0,0,0,0,0,0,0,0,0,0,0,0,0,0,0,0,0,0,0,0,0,0,0,0,0,0,0,0,0,0,0,0,0,0,0,0,0,0,0,0,0,0,0,0,0,0,0,0,0,0,0,0,0,0,0,0,0,0,0,0,0,0,0,0,0,0,0,0,0,0,0,0,0,0,0,0,0,0,0,0,0,0,0,0,0,0,0,0,0,0,0,0,0,0,0,0,0,0,0,0,0,0,0,0,0,0,0,0,0,0,0,0,0,0,0,0,0,0,0,0,0,0,0,0,0,0,0,0,0,0,0,0,0,0,0,0,0,0,0,0,0,0,0,0,0,0,0,0,0,0,0,0,0,0,0,0,0,0,0,0,0,0,0,0,0,0,0,0,0,0,0,0,0,0,0,0,0,0,0,0,0,0,0,0,0,0,0,0,0,0,0,0,0,0,0,0,0,0,0,0,0,0,0,0h0s0,0,0,0c0,0,0,0,0,0,0,0,0,0,0,0,0,0,0,0,0,0,0,0,0,0,0,0,0,0,0,0,0,0,0,0,0,0,0,0,0,0,0,0,0,0,0,0,0,0,0,0,0,0,0,0,0,0,0,0,0,0,0,0,0,0,0,0,0,0,0,0,0,0,0,0,0,0,0,0,0,0,0,0,0,0,0,0,0,0,0,0,0,0,0,0,0,0,0,0,0,0,0,0,0,0,0,0,0,0,0,0,0,0,0,0,0,0,0,0,0,0,0,0,0,0,0,0,0,0,0,0,0,0,0,0,0,0,0,0,0,0h0s0,0,0,0c0,0,0,0,0,0,0,0,0,0,0,0,0,0,0,0,0,0,0,0,0,0,0,0,0,0,0,0,0,0,0,0,0,0,0,0,0,0,0,0,0,0,0,0,0,0,0,0,0,0,0,0,0,0,0,0,0,0,0,0,0,0,0,0,0,0,0,0,0,0,0,0,0,0,0,0,0,0,0,0,0,0,0,0,0,0,0,0,0,0,0,0,0,0,0,0,0,0,0,0,0,0,0,0,0,0,0,0,0,0,0,0,0,0,0,0,0,0,0,0,0,0,0,0,0,0,0,0,0,0,0,0,0,0,0,0,0,0,0,0,0,0,0,0,0,0,0,0,0,0,0,0,0,0,0,0,0,0,0,0,0,0h0s0,0,0,0c0,0,0,0,0,0,0,0,0,0,0,0,0,0,0,0,0,0,0,0,0,0,0,0h0s0,0,0,0c0,0,0,0,0,0,0,0,0,0,0,0,0,0,0,0,0,0,0,0,0,0,0,0,0,0,0,0,0,0,0,0,0,0,0,0,0,0,0,0,0,0,0,0,0,0,0,0,0,0,0,0,0,0,0,0,0,0,0,0,0,0,0,0,0,0,0,0,0,0,0,0,0,0,0,0,0,0,0,0,0,0,0,0,0,0,0,0,0,0,0,0,0,0,0,0,0,0,0,0,0,0,0,0,0,0,0,0,0,0,0,0,0,0,0,0,0,0,0,0h0s0,0,0,0c0,0,0,0,0,0,0,0,0,0,0,0,0,0,0,0,0,0,0,0,0,0,0,0,0,0,0,0,0,0,0,0,0,0,0,0,0,0,0,0,0,0,0,0,0,0,0,0,0,0,0,0,0,0,0,0,0,0,0,0,0,0,0,0,0,0,0,0,0,0,0,0,0,0,0,0,0,0,0,0,0,0,0,0,0,0,0,0,0,0,0,0,0,0,0,0,0,0,0,0,0,0,0,0,0,0,0,0,0,0,0,0,0,0,0,0,0,0,0,0,0,0,0,0,0,0,0,0,0,0,0,0,0,0,0,0,0,0,0,0,0,0,0,0,0,0,0,0,0,0,0,0,0,0,0,0h0s0,0,0,0c0,0,0,0,0,0,0,0,0,0,0,0,0,0,0,0,0,0,0,0,0,0,0,0,0,0,0,0,0,0,0,0,0,0,0,0,0,0,0,0,0,0,0,0,0,0,0,0,0,0,0,0,0,0,0,0,0,0,0,0,0,0,0,0,0,0,0,0,0,0,0,0,0,0,0,0,0,0,0,0,0,0,0,0,0,0,0,0,0,0,0,0,0,0-.01,0,0,0,0,0,0,0,0,0,0,0,0,0h0s0,0,0,0c0,0,0,0,0,0,0,0,0,0,0,0,0,0,0,0,0,0,0,0,0,0,0,0h0s0,0,0,0c0,0,0,0,0,0,0,0,0,0,0,0,0,0,0,0,0,0,0,0,0,0,0,0,0,0,0,0,0,0,0,0,0,0,0,0,0,0,0,0,0,0,0,0,0,0,0,0,0,0,0,0,0,0,0,0,0,0,0,0,0,0,0,0,0,0,0,0,0,0,0,0h0s0,0,0,0c0,0,0,0,0,0,0,0,0,0-.01,0,0,0,0,0,0,0,0,0,0,0,0,0,0,0,0,0,0,0,0,0,0,0-.01,0,0,0,0,0,0,0,0,0,0,0,0,0,0,0,0,0,0,0,0,0,0,0,0,0,0,0,0,0,0,0,0,0,0,0,0,0,0,0,0,0,0,0,0,0,0,0,0,0,0,0,0,0,0,0,0,0,0,0,0,0,0,0,0,0,0,0,0,0,0,0,0,0,0,0,0,0,0,0,0,0,0,0,0,0,0,0,0,0,0,0,0,0,0,0,0,0,0,0,0,0,0,0,0,0,0,0,0,0,0,0,0,0,0,0,0,0,0,0,0,0,0,0,0,0,0,0,0,0,0,0,0,0,0,0,0,0,0,0,0,0,0,0,0,0,0,0,0,0,0,0h0s0,0,0,0c0,0,0,0,0,0,0,0,0,0,0,0,0,0,0,0,0,0,0,0,0,0-.01,0,0,0,0,0,0,0,0,0,0,0,0,0,0,0,0,0,0,0,0,0,0,0,0,0h0s0,0,0,0c0,0,0,0,0,0,0,0,0,0,0,0,0,0,0,0,0,0,0,0,0,0,0,0,0,0,0,0,0,0,0,0,0,0,0,0,0,0,0,0,0,0,0,0,0,0,0,0,0,0,0,0,0,0,0,0,0,0,0,0,0,0,0,0,0,0,0,0,0,0,0,0,0,0,0,0,0,0,0,0,0,0,0,0,0,0,0,0,0,0,0,0,0,0,0,0,0,0,0,0,0,0,0,0,0,0,0,0,0,0,0,0,0,0,0,0,0,0,0,0h0s0,0,0,0c0,0,0,0,0,0,0,0,0,0,0,0,0,0,0,0,0,0,0,0,0,0-.01,0,0,0,0,0,0,0,0,0,0,0,0,0,0,0,0,0,0,0,0,0,0,0,0,0h0s0,0,0,0c0,0,0,0,0,0,0,0,0,0,0,0,0,0,0,0,0,0,0,0,0,0,0,0,0,0,0,0,0,0,0,0,0,0,0,0,0,0,0,0,0,0,0,0,0,0,0,0,0,0,0,0,0,0,0,0,0,0,0,0h0s0,0,0,0c0,0,0,0,0,0,0,0,0,0,0,0h0s0,0,0,0c0,0,0,0,0,0,0,0,0,0,0,0,0,0,0,0,0,0,0,0,0,0,0,0h0s0,0,0,0c0,0,0,0,0,0h0s0,0-.01,0c0,0,0,0,0,0,0,0,0,0,0,0h0s0,0,0,0h0s0,0,0,0c0,0,0,0,0,0,0,0,0,0,0,0,0,0,0,0,0,0,0,0,0,0,0,0h0s0,0,0,0c0,0,0,0,0,0,0,0,0,0,0,0h0s0,0,0,0h0s0,0,0,0c0,0,0,0,0,0h0s0,0,0,0h0s0,0,0,0h0s0,0,0,0h0s0,0,0,0h-.01Z"/>
          </g>
          <polygon points="603.96 226.43 603.96 226.43 603.96 226.43 603.96 226.43 603.96 226.43 603.96 226.43 603.96 226.43 603.96 226.43 603.96 226.43 603.96 226.43 603.96 226.43 603.96 226.43 603.96 226.43 603.96 226.43 603.96 226.43 603.96 226.43 603.96 226.43 603.96 226.43 603.96 226.43 603.96 226.43 603.96 226.43 603.96 226.43 603.96 226.43 603.96 226.43 603.96 226.43 603.96 226.43 603.96 226.43 603.96 226.43 603.96 226.43 603.96 226.43 603.96 226.43 603.96 226.43 603.96 226.43 603.96 226.43 603.96 226.43 603.96 226.43 603.96 226.43 603.96 226.43 603.96 226.43 603.96 226.43 603.96 226.43 603.96 226.43 603.96 226.43 603.96 226.43 603.96 226.43 603.96 226.43 603.96 226.43 603.96 226.43 603.96 226.43 603.96 226.43 603.96 226.43 603.96 226.43 603.96 226.43 603.96 226.43 603.96 226.43 603.96 226.43 603.96 226.43 603.96 226.43 603.96 226.43 603.96 226.43 603.96 226.43 603.96 226.43 603.96 226.43 603.96 226.43 603.96 226.43 603.96 226.43 603.96 226.43 603.96 226.43 603.96 226.43 603.96 226.43 603.96 226.43 603.96 226.43 603.96 226.43 603.96 226.43 603.96 226.43 603.96 226.43 603.96 226.43 603.96 226.43 603.96 226.43 603.96 226.43 603.96 226.43 603.96 226.43 603.96 226.43 603.96 226.43 603.96 226.43 603.96 226.43 603.96 226.43 603.96 226.43 603.96 226.43 603.96 226.43 603.96 226.43 603.96 226.43 603.96 226.43 603.96 226.43 603.96 226.43 603.96 226.43 603.96 226.43 603.96 226.43" fill="none" opacity="0" stroke="#000" stroke-miterlimit="10"/>
        </g>
        <g clip-path="url(#clippath-17)">
          <g isolation="isolate">
            <g clip-path="url(#clippath-18)">
              <g clip-path="url(#clippath-19)">
                <path d="M605.55,228.81c.37-.89.37-.96.68-1.79.25-.62.4-1.05.4-1.63,0-1.39-.99-2.53-2.53-2.53-2.9,0-4.07,4.47-4.07,4.75,0,.31.31.31.37.31.31,0,.34-.06.49-.55.83-2.9,2.07-3.82,3.11-3.82.25,0,.77,0,.77.99,0,.65-.21,1.29-.34,1.6-.25.8-1.63,4.38-2.13,5.7-.31.8-.71,1.82-.71,2.47,0,1.45,1.05,2.53,2.53,2.53,2.9,0,4.04-4.47,4.04-4.75,0-.31-.28-.31-.37-.31-.31,0-.31.09-.46.55-.55,1.94-1.57,3.82-3.14,3.82-.52,0-.74-.31-.74-1.02,0-.77.18-1.2.89-3.08l1.2-3.24M607.9,217.22c0-.62-.43-1.11-1.14-1.11-.83,0-1.66.8-1.66,1.63,0,.59.43,1.11,1.17,1.11s1.63-.71,1.63-1.63Z"/>
              </g>
            </g>
          </g>
        </g>
      </g>
      <g>
        <g>
          <g>
            <path d="M581.75,181.64c-8,0-14.5-6.5-14.5-14.5s6.5-14.5,14.5-14.5,14.5,6.5,14.5,14.5-6.5,14.5-14.5,14.5Z" fill="#e89a99"/>
            <path d="M581.75,153.14c7.72,0,14,6.28,14,14s-6.28,14-14,14-14-6.28-14-14,6.28-14,14-14M581.75,152.14c-8.28,0-15,6.72-15,15s6.72,15,15,15,15-6.72,15-15-6.72-15-15-15h0Z"/>
          </g>
          <polygon points="581.75 167.14 581.75 167.14 581.75 167.14 581.75 167.14 581.75 167.14 581.75 167.14 581.75 167.14 581.75 167.14 581.75 167.14 581.75 167.14 581.75 167.14 581.75 167.14 581.75 167.14 581.75 167.14 581.75 167.14 581.75 167.14 581.75 167.14 581.75 167.14 581.75 167.14 581.75 167.14 581.75 167.14 581.75 167.14 581.75 167.14 581.75 167.14 581.75 167.14 581.75 167.14 581.75 167.14 581.75 167.14 581.75 167.14 581.75 167.14 581.75 167.14 581.75 167.14 581.75 167.14 581.75 167.14 581.75 167.14 581.75 167.14 581.75 167.14 581.75 167.14 581.75 167.14 581.75 167.14 581.75 167.14 581.75 167.14 581.75 167.14 581.75 167.14 581.75 167.14 581.75 167.14 581.75 167.14 581.75 167.14 581.75 167.14 581.75 167.14 581.75 167.14 581.75 167.14 581.75 167.14 581.75 167.14 581.75 167.14 581.75 167.14 581.75 167.14 581.75 167.14 581.75 167.14 581.75 167.14 581.75 167.14 581.75 167.14 581.75 167.14 581.75 167.14 581.75 167.14 581.75 167.14 581.75 167.14 581.75 167.14 581.75 167.14 581.75 167.14 581.75 167.14 581.75 167.14 581.75 167.14 581.75 167.14 581.75 167.14 581.75 167.14 581.75 167.14 581.75 167.14 581.75 167.14 581.75 167.14 581.75 167.14 581.75 167.14 581.75 167.14 581.75 167.14 581.75 167.14 581.75 167.14 581.75 167.14 581.75 167.14 581.75 167.14 581.75 167.14 581.75 167.14 581.75 167.14 581.75 167.14 581.75 167.14 581.75 167.14 581.75 167.14 581.75 167.14 581.75 167.14 581.75 167.14" fill="none" opacity="0" stroke="#000" stroke-miterlimit="10"/>
        </g>
        <g clip-path="url(#clippath-21)">
          <g isolation="isolate">
            <g clip-path="url(#clippath-22)">
              <g clip-path="url(#clippath-23)">
                <path d="M573.88,172.91s0-.06-.2-.26c-1.47-1.48-1.84-3.7-1.84-5.49,0-2.04.45-4.08,1.89-5.55.15-.14.15-.16.15-.2,0-.08-.05-.12-.12-.12-.12,0-1.17.8-1.87,2.29-.6,1.29-.74,2.59-.74,3.58,0,.92.13,2.34.77,3.66.7,1.44,1.71,2.21,1.83,2.21.07,0,.12-.04.12-.12"/>
                <path d="M582.32,167.39c.2,0,.41,0,.41-.23s-.21-.23-.41-.23h-6.35c-.2,0-.41,0-.41.23s.21.23.41.23h6.35"/>
                <path d="M587.08,167.15c0-.92-.13-2.34-.77-3.66-.7-1.44-1.71-2.21-1.83-2.21-.07,0-.12.05-.12.12,0,.04,0,.06.22.27,1.15,1.16,1.82,3.03,1.82,5.48,0,2.01-.43,4.07-1.89,5.55-.15.14-.15.16-.15.2,0,.07.05.12.12.12.12,0,1.17-.8,1.87-2.29.6-1.29.74-2.59.74-3.58"/>
                <path d="M592.43,169.77c0-.99-.8-1.77-1.77-1.77s-1.77.8-1.77,1.76.8,1.77,1.77,1.77,1.77-.8,1.77-1.76"/>
              </g>
            </g>
          </g>
        </g>
      </g>
      <polygon points="603.84 191.85 603.84 191.85 603.84 191.85 603.84 191.85 603.84 191.85 603.84 191.85 603.84 191.85 603.84 191.85 603.84 191.85 603.84 191.85 603.84 191.85 603.84 191.85 603.84 191.85 603.84 191.85 603.84 191.85 603.84 191.85 603.84 191.85 603.84 191.85 603.84 191.85 603.84 191.85 603.84 191.85 603.84 191.85 603.84 191.85 603.84 191.85 603.84 191.85 603.84 191.85 603.84 191.85 603.84 191.85 603.84 191.85 603.84 191.85 603.84 191.85 603.84 191.85 603.84 191.85 603.84 191.85 603.84 191.85 603.84 191.85 603.84 191.85 603.84 191.85 603.84 191.85 603.84 191.85 603.84 191.85 603.84 191.85 603.84 191.85 603.84 191.85 603.84 191.85 603.84 191.85 603.84 191.85 603.84 191.85 603.84 191.85 603.84 191.85 603.84 191.85 603.84 191.85 603.84 191.85 603.84 191.85 603.84 191.85 603.84 191.85 603.84 191.85 603.84 191.85 603.84 191.85 603.84 191.85 603.84 191.85 603.84 191.85 603.84 191.85 603.84 191.85 603.84 191.85 603.84 191.85 603.84 191.85 603.84 191.85 603.84 191.85 603.84 191.85 603.84 191.85 603.84 191.85 603.84 191.85 603.84 191.85 603.84 191.85 603.84 191.85 603.84 191.85 603.84 191.85 603.84 191.85 603.84 191.85 603.84 191.85 603.84 191.85 603.84 191.85 603.84 191.85 603.84 191.85 603.84 191.85 603.84 191.85 603.84 191.85 603.84 191.85 603.84 191.85 603.84 191.85 603.84 191.85 603.84 191.85 603.84 191.85 603.84 191.85 603.84 191.85 603.84 191.85 603.84 191.85 603.84 191.85" fill="none" opacity="0" stroke="#000" stroke-miterlimit="10"/>
    </g>
    <g>
      <g>
        <g>
          <path d="M581.75,125.76c-8,0-14.5-6.5-14.5-14.5s6.5-14.5,14.5-14.5,14.5,6.5,14.5,14.5-6.5,14.5-14.5,14.5Z" fill="#e89a99"/>
          <path d="M581.75,97.26c7.72,0,14,6.28,14,14s-6.28,14-14,14-14-6.28-14-14,6.28-14,14-14M581.75,96.26c-8.28,0-15,6.72-15,15s6.72,15,15,15,15-6.72,15-15-6.72-15-15-15h0Z"/>
        </g>
        <polygon points="581.75 111.26 581.75 111.26 581.75 111.26 581.75 111.26 581.75 111.26 581.75 111.26 581.75 111.26 581.75 111.26 581.75 111.26 581.75 111.26 581.75 111.26 581.75 111.26 581.75 111.26 581.75 111.26 581.75 111.26 581.75 111.26 581.75 111.26 581.75 111.26 581.75 111.26 581.75 111.26 581.75 111.26 581.75 111.26 581.75 111.26 581.75 111.26 581.75 111.26 581.75 111.26 581.75 111.26 581.75 111.26 581.75 111.26 581.75 111.26 581.75 111.26 581.75 111.26 581.75 111.26 581.75 111.26 581.75 111.26 581.75 111.26 581.75 111.26 581.75 111.26 581.75 111.26 581.75 111.26 581.75 111.26 581.75 111.26 581.75 111.26 581.75 111.26 581.75 111.26 581.75 111.26 581.75 111.26 581.75 111.26 581.75 111.26 581.75 111.26 581.75 111.26 581.75 111.26 581.75 111.26 581.75 111.26 581.75 111.26 581.75 111.26 581.75 111.26 581.75 111.26 581.75 111.26 581.75 111.26 581.75 111.26 581.75 111.26 581.75 111.26 581.75 111.26 581.75 111.26 581.75 111.26 581.75 111.26 581.75 111.26 581.75 111.26 581.75 111.26 581.75 111.26 581.75 111.26 581.75 111.26 581.75 111.26 581.75 111.26 581.75 111.26 581.75 111.26 581.75 111.26 581.75 111.26 581.75 111.26 581.75 111.26 581.75 111.26 581.75 111.26 581.75 111.26 581.75 111.26 581.75 111.26 581.75 111.26 581.75 111.26 581.75 111.26 581.75 111.26 581.75 111.26 581.75 111.26 581.75 111.26 581.75 111.26 581.75 111.26 581.75 111.26 581.75 111.26 581.75 111.26 581.75 111.26" fill="none" opacity="0" stroke="#000" stroke-miterlimit="10"/>
      </g>
      <g clip-path="url(#clippath-25)">
        <g isolation="isolate">
          <g clip-path="url(#clippath-26)">
            <g clip-path="url(#clippath-27)">
              <path d="M583.26,112.57c1.11,2.84,2.41,6.99,2.84,7.61.43.6.7.6,1.44.6h.6c.27-.03.3-.19.3-.27s-.05-.14-.14-.24c-.27-.3-.43-.7-.62-1.25l-5.53-15.41c-.57-1.57-2.03-1.92-3.3-1.92-.14,0-.49,0-.49.3,0,.22.22.27.24.27.89.16,1.08.32,1.76,2.17l2.63,7.37-7.48,7.42c-.32.32-.49.49-.49.84,0,.46.38.79.81.79s.68-.3.89-.57l6.53-7.69"/>
            </g>
          </g>
        </g>
      </g>
    </g>
    <g>
      <rect x="590.64" y="103.99" width="15.21" height="15.21" rx="2" ry="2" fill="#c8daf9" stroke="#000" stroke-dasharray="1" stroke-miterlimit="10"/>
      <g clip-path="url(#clippath-28)">
        <g isolation="isolate">
          <g clip-path="url(#clippath-29)">
            <g clip-path="url(#clippath-30)">
              <path d="M599,112.72c.18-.43.18-.45.32-.85.12-.29.19-.5.19-.78,0-.66-.47-1.2-1.2-1.2-1.38,0-1.93,2.13-1.93,2.26,0,.15.15.15.18.15.15,0,.16-.03.23-.26.4-1.38.98-1.82,1.48-1.82.12,0,.37,0,.37.47,0,.31-.1.62-.16.76-.12.38-.78,2.08-1.01,2.71-.15.38-.34.86-.34,1.17,0,.69.5,1.2,1.2,1.2,1.38,0,1.92-2.12,1.92-2.26,0-.15-.13-.15-.18-.15-.15,0-.15.04-.22.26-.26.92-.75,1.82-1.49,1.82-.25,0-.35-.15-.35-.48,0-.37.09-.57.42-1.47l.57-1.54M600.12,107.21c0-.29-.21-.53-.54-.53-.4,0-.79.38-.79.78,0,.28.21.53.56.53s.78-.34.78-.78Z"/>
            </g>
          </g>
        </g>
      </g>
    </g>
  </g>
  <g>
    <g>
      <rect x="114.82" y="18.89" width="121.11" height="225.57" rx="11" ry="11" fill="#fcf5d6"/>
      <path d="M224.93,19.89c5.51,0,10,4.49,10,10v203.57c0,5.51-4.49,10-10,10h-99.11c-5.51,0-10-4.49-10-10V29.89c0-5.51,4.49-10,10-10h99.11M224.93,17.89h-99.11c-6.6,0-12,5.4-12,12v203.57c0,6.6,5.4,12,12,12h99.11c6.6,0,12-5.4,12-12V29.89c0-6.6-5.4-12-12-12h0Z"/>
    </g>
    <g>
      <g>
        <g>
          <rect x="144.15" y="61.5" width="24.87" height="24.87" transform="translate(-6.42 132.38) rotate(-45)" fill="#fed968"/>
          <path d="M156.58,57.77l16.17,16.17-16.17,16.17-16.17-16.17,16.17-16.17M156.58,54.94l-19,19,19,19,19-19-19-19h0Z"/>
        </g>
        <path d="M151.02,79.96l4.27-6.2-3.98-5.84h2.52l2.25,3.52c.1.16.2.34.3.54.09.2.17.35.23.47.04-.12.11-.27.21-.47.09-.2.19-.38.3-.54l2.25-3.52h2.52l-3.98,5.87,4.25,6.17h-2.54l-2.45-3.77c-.1-.18-.2-.37-.3-.58-.09-.21-.18-.38-.25-.51-.06.13-.14.3-.25.51-.11.21-.22.41-.34.58l-2.45,3.77h-2.54Z"/>
      </g>
      <g>
        <line x1="138.48" y1="73.94" x2="87.11" y2="73.94" fill="none" stroke="#000" stroke-miterlimit="10" stroke-width="2"/>
        <path d="M81.07,73.94c2.84-1.05,6.36-2.85,8.55-4.76l-1.72,4.76,1.72,4.75c-2.18-1.9-5.71-3.7-8.55-4.75Z"/>
      </g>
    </g>
    <g>
      <g>
        <g>
          <rect x="144.15" y="129.24" width="24.87" height="24.87" transform="translate(-54.32 152.22) rotate(-45)" fill="#fed968"/>
          <path d="M156.58,125.5l16.17,16.17-16.17,16.17-16.17-16.17,16.17-16.17M156.58,122.68l-19,19,19,19,19-19-19-19h0Z"/>
        </g>
        <path d="M153.84,151.42l1.75-4.66-4.51-11.32h2.32l2.71,7.11c.12.31.23.63.35.99.12.35.2.66.24.92.04-.26.12-.57.22-.92.1-.35.21-.68.33-.99l2.52-7.11h2.3l-5.98,15.98h-2.25Z"/>
      </g>
      <g>
        <line x1="138.48" y1="141.68" x2="87.11" y2="141.68" fill="none" stroke="#000" stroke-miterlimit="10" stroke-width="2"/>
        <path d="M81.07,141.68c2.84-1.05,6.36-2.85,8.55-4.76l-1.72,4.76,1.72,4.75c-2.18-1.9-5.71-3.7-8.55-4.75Z"/>
      </g>
    </g>
    <g>
      <g>
        <g>
          <rect x="144.15" y="196.98" width="24.87" height="24.87" transform="translate(-102.22 172.05) rotate(-45)" fill="#fed968"/>
          <path d="M156.58,193.24l16.17,16.17-16.17,16.17-16.17-16.17,16.17-16.17M156.58,190.41l-19,19,19,19,19-19-19-19h0Z"/>
        </g>
        <path d="M151.87,217.4v-15.98h2.82l4.77,13.49c-.04-.39-.08-.87-.12-1.42-.04-.55-.06-1.14-.09-1.75-.02-.61-.03-1.18-.03-1.71v-8.6h2.06v15.98h-2.82l-4.73-13.49c.03.37.06.82.09,1.37s.05,1.12.08,1.73.03,1.18.03,1.72v8.67h-2.06Z"/>
      </g>
      <g>
        <line x1="138.48" y1="209.41" x2="87.11" y2="209.41" fill="none" stroke="#000" stroke-miterlimit="10" stroke-width="2"/>
        <path d="M81.07,209.41c2.84-1.05,6.36-2.85,8.55-4.76l-1.72,4.76,1.72,4.75c-2.18-1.9-5.71-3.7-8.55-4.75Z"/>
      </g>
    </g>
    <g>
      <rect x="144.44" y="23.4" width="61.87" height="13.84" fill="none"/>
      <path d="M146.48,33.08v-7.7h3.52c.72,0,1.29.17,1.71.51.42.34.63.91.63,1.71s-.21,1.37-.63,1.72c-.42.35-.99.52-1.71.52h-2.25v3.26h-1.26ZM147.75,28.64h2.08c.37,0,.66-.08.87-.24.21-.16.31-.43.31-.8s-.1-.63-.31-.79c-.21-.16-.5-.24-.87-.24h-2.08v2.08Z"/>
      <path d="M153.97,35.27c-.18,0-.34,0-.5-.02-.15-.01-.29-.03-.42-.06v-1.13c.12.03.25.05.39.07.14.02.27.03.39.03.2,0,.35-.02.45-.07s.18-.12.24-.22.12-.24.2-.42l.14-.38-2.09-5.28h1.29l1.34,3.79,1.27-3.79h1.26l-2.16,6.03c-.18.48-.39.85-.64,1.09s-.64.36-1.16.36Z"/>
      <path d="M160.98,33.2c-.52,0-.92-.1-1.19-.29s-.41-.57-.41-1.14v-2.92h-1.01v-1.07h1.01v-1.86h1.23v1.86h1.46v1.07h-1.46v2.6c0,.25.06.42.18.51s.29.13.52.13c.14,0,.28-.02.42-.07.14-.04.25-.09.33-.13v1.13c-.13.05-.3.09-.5.13-.2.03-.4.05-.59.05Z"/>
      <path d="M163.05,33.08v-7.84h1.24v3.18c.12-.21.29-.38.53-.53.23-.15.52-.23.85-.23.55,0,1,.18,1.35.53.35.35.52.87.52,1.55v3.34h-1.24v-3.05c0-.42-.08-.73-.25-.94s-.4-.31-.68-.31c-.32,0-.57.11-.77.32-.2.22-.3.54-.3.96v3.01h-1.24Z"/>
      <path d="M171.17,33.2c-.48,0-.92-.12-1.3-.35-.38-.23-.69-.55-.91-.97s-.33-.9-.33-1.46.11-1.04.33-1.46.53-.74.91-.97c.38-.23.82-.35,1.3-.35s.94.12,1.33.35c.38.23.69.55.91.97.22.41.33.9.33,1.46s-.11,1.04-.33,1.46c-.22.41-.52.74-.91.97-.38.23-.83.35-1.33.35ZM171.17,32.08c.39,0,.71-.14.95-.43s.37-.69.37-1.22-.12-.93-.37-1.22-.56-.43-.95-.43-.69.14-.94.43c-.24.29-.36.69-.36,1.22s.12.94.36,1.22c.24.29.55.43.94.43Z"/>
      <path d="M174.8,33.08v-5.29h1.11l.07.63c.15-.21.34-.38.58-.53.24-.15.53-.23.86-.23.55,0,1,.18,1.35.53.35.35.52.87.52,1.55v3.34h-1.24v-3.05c0-.42-.08-.73-.25-.94s-.4-.31-.68-.31c-.32,0-.57.11-.77.32-.2.22-.3.54-.3.96v3.01h-1.24Z"/>
      <path d="M184.31,28.52c-.08-.12-.21-.27-.39-.45s-.34-.32-.49-.42c.19-.12.4-.28.62-.48s.43-.4.63-.62c.2-.22.37-.42.5-.62l.96.69c-.15.23-.33.46-.54.7s-.43.46-.65.67-.43.38-.63.53ZM183.96,34.04c-.03-.12-.07-.25-.13-.4-.05-.15-.11-.29-.18-.43-.06-.14-.13-.24-.19-.31.73-.05,1.45-.17,2.15-.35.7-.18,1.34-.4,1.92-.67-.15-.15-.3-.3-.43-.45-.14-.15-.27-.32-.39-.49-.57.45-1.17.81-1.79,1.09-.07-.14-.19-.31-.34-.51-.15-.2-.3-.36-.45-.47.48-.17.94-.4,1.39-.69.45-.29.85-.61,1.21-.97s.64-.71.85-1.07l1.08.53c-.05.09-.11.18-.18.26-.07.09-.13.18-.2.26h3.02l.45.5c-.29.4-.59.77-.9,1.11s-.65.64-1.01.91c.59.26,1.21.45,1.85.58.65.13,1.3.2,1.94.21-.08.1-.16.23-.23.39s-.13.33-.18.5-.08.3-.1.4c-.84-.05-1.64-.18-2.41-.4-.77-.21-1.47-.51-2.1-.88-.66.35-1.38.63-2.15.84-.77.22-1.61.39-2.5.51ZM184.86,29.85c-.07-.15-.17-.33-.29-.53-.12-.2-.24-.36-.35-.48.76-.26,1.38-.63,1.85-1.11.47-.48.74-1.14.79-1.98h-3.26v-1.03h4.22v-.95h1.46v.95h4.22v1.03h-3.02v1.9c0,.37-.1.64-.31.81s-.53.25-.96.25h-.71c-.01-.17-.05-.37-.1-.59-.05-.23-.11-.41-.17-.55h.58c.14,0,.24-.02.3-.07s.09-.14.09-.27v-1.49h-1.06c-.06.93-.37,1.76-.95,2.49-.57.73-1.36,1.27-2.35,1.61ZM188.71,31.26c.46-.29.83-.6,1.1-.91h-2.1c.29.34.62.64,1,.91ZM192.55,28.58c-.1-.13-.22-.28-.38-.46-.16-.17-.33-.35-.51-.52-.18-.18-.35-.34-.52-.48-.17-.14-.31-.25-.43-.33l.85-.8c.21.13.44.3.69.5s.48.4.71.62c.23.21.42.41.57.6-.09.05-.2.13-.32.24-.13.11-.25.22-.37.34-.12.12-.21.22-.28.3Z"/>
      <path d="M199.69,33.92c-.05-.1-.12-.23-.21-.37s-.19-.29-.29-.43c-.09.11-.19.23-.3.35s-.18.23-.24.31c-.13-.12-.29-.25-.46-.39s-.37-.27-.57-.41c-.36.25-.77.45-1.23.6-.46.15-.97.26-1.52.34-.02-.09-.06-.2-.1-.35-.05-.14-.1-.28-.15-.42-.05-.14-.1-.24-.15-.31.83-.07,1.52-.25,2.07-.54-.59-.34-1.11-.61-1.55-.79.08-.1.17-.23.28-.39.1-.16.21-.33.32-.51h-1.07v-1.04h1.67c.24-.42.41-.77.52-1.03v-1.08c-.23.26-.48.51-.76.77s-.54.47-.78.65c-.06-.09-.14-.19-.24-.3-.1-.11-.2-.21-.3-.3s-.18-.16-.25-.2c.16-.09.35-.22.55-.38.21-.16.42-.33.63-.52s.41-.37.58-.55h-1.53v-1h.81c-.11-.21-.23-.43-.37-.64-.14-.22-.27-.39-.4-.53l.86-.48c.1.12.21.26.33.43s.23.33.34.5c.11.17.19.31.25.43-.18.07-.37.17-.57.3h.84v-1.75h1.1v1.75h.78c-.1-.06-.19-.11-.29-.15-.1-.04-.18-.08-.25-.11.16-.22.31-.46.46-.71s.25-.49.34-.7l.99.41c-.09.19-.2.4-.33.64-.14.24-.27.45-.4.64h.76v1h-1.5c.19.21.41.43.64.64.24.22.46.39.67.52-.11.09-.24.21-.38.36s-.27.29-.36.42c-.19-.15-.38-.31-.57-.5-.19-.19-.37-.38-.54-.59v1.14h-.81l.84.27c-.04.1-.09.2-.15.31-.06.11-.12.23-.19.36h2.49v1.04h-.71c-.16.61-.42,1.13-.76,1.56.16.1.31.19.46.3.14.1.28.21.4.31.46-.19.86-.42,1.22-.7.36-.28.66-.59.92-.93-.21-.37-.38-.77-.53-1.18-.15-.41-.27-.83-.36-1.27-.07.14-.15.27-.23.39s-.16.24-.24.36c-.12-.1-.28-.21-.48-.32-.2-.11-.39-.2-.58-.26.25-.31.47-.66.67-1.07.2-.4.37-.83.52-1.28.15-.45.27-.9.37-1.34.09-.44.17-.86.21-1.25l1.21.18c-.1.64-.24,1.28-.42,1.94h2.98v1.1h-.65c-.06.79-.17,1.52-.35,2.18s-.41,1.27-.72,1.81c.53.67,1.19,1.25,1.99,1.74-.1.1-.2.21-.32.34-.12.13-.23.26-.32.38-.1.12-.16.22-.19.29-.37-.24-.72-.51-1.03-.8-.31-.29-.6-.59-.85-.91-.64.73-1.46,1.31-2.48,1.76ZM197.43,31.55c.22-.28.4-.6.53-.96h-1.09c-.07.1-.13.2-.18.29s-.1.17-.15.25c.29.12.59.26.89.42ZM202.15,29.93c.18-.42.31-.87.41-1.35.1-.47.15-.96.18-1.46h-1.29c.04.52.11,1.02.23,1.49.12.47.28.91.47,1.32Z"/>
    </g>
    <g>
      <g>
        <g>
          <rect x="192.05" y="90.01" width="24.87" height="24.87" transform="translate(-12.54 174.6) rotate(-45)" fill="#fed968"/>
          <path d="M204.49,86.27l16.17,16.17-16.17,16.17-16.17-16.17,16.17-16.17M204.49,83.44l-19,19,19,19,19-19-19-19h0Z"/>
        </g>
        <path d="M199.82,108.46v-2.1l6.63-7.99h-6.46v-1.95h8.91v2.1l-6.74,7.99h6.98v1.95h-9.33Z"/>
      </g>
      <g>
        <line x1="222.24" y1="102.44" x2="334.05" y2="102.44" fill="none" stroke="#000" stroke-miterlimit="10" stroke-width="2"/>
        <path d="M340.09,102.44c-2.84,1.05-6.36,2.85-8.55,4.76l1.72-4.76-1.72-4.75c2.18,1.9,5.71,3.7,8.55,4.75Z"/>
      </g>
    </g>
    <g>
      <g>
        <g>
          <rect x="192.05" y="42.84" width="24.87" height="24.87" transform="translate(20.81 160.78) rotate(-45)" fill="#fed968"/>
          <path d="M204.49,39.1l16.17,16.17-16.17,16.17-16.17-16.17,16.17-16.17M204.49,36.28l-19,19,19,19,19-19-19-19h0Z"/>
        </g>
        <path d="M200.67,60.99l-1.85-11.42h1.74l1.12,7.79c.04.33.08.7.12,1.1.04.4.07.73.08,1,.03-.26.06-.59.09-1s.09-.77.16-1.1l1.37-7.79h1.95l1.37,7.79c.07.33.13.7.18,1.1s.08.73.09,1c.03-.26.06-.59.1-1,.04-.4.08-.77.12-1.1l1.16-7.79h1.66l-1.93,11.42h-2.2l-1.27-7.66c-.06-.4-.11-.83-.16-1.28-.05-.45-.09-.81-.11-1.07-.01.17-.03.38-.06.65-.03.27-.06.55-.1.85s-.08.58-.12.84l-1.31,7.66h-2.22Z"/>
      </g>
      <g>
        <line x1="222.24" y1="55.28" x2="519.41" y2="55.28" fill="none" stroke="#000" stroke-miterlimit="10" stroke-width="2"/>
        <path d="M525.45,55.28c-2.84,1.05-6.36,2.85-8.55,4.76l1.72-4.76-1.72-4.75c2.18,1.9,5.71,3.7,8.55,4.75Z"/>
      </g>
    </g>
  </g>
  <line x1="264.71" y1="134.42" x2="264.71" y2="134.65" fill="none" stroke="#000" stroke-miterlimit="10" stroke-width="2"/>
</svg>